<svg width="180" height="98" viewBox="0 0 180 98" fill="none" xmlns="http://www.w3.org/2000/svg">
<path d="M90.0158 43.0242L93.2558 48.2076L92.8238 49.7195L90.8798 51.8793L88.9358 53.6071L87.8558 56.1988L86.3438 63.9739L81.5919 63.1101L78.9998 63.326L77.0558 63.758L75.7598 64.1899L72.7358 65.9178L68.8478 67.4296L67.3358 67.6456L65.3919 67.8616L61.9358 67.6456L58.2638 66.5657L50.9198 63.326L47.0319 62.2462L45.9519 61.5983L45.7358 60.0864L49.8398 57.2787L51.5678 56.4147L52.8638 56.1988L54.5919 56.8467L55.4558 56.6307L56.5358 55.9828L57.1838 54.9029L57.6158 54.687L60.6398 54.255L61.5038 54.0391L61.2878 52.0952V51.2313L61.7198 49.7195L61.0719 48.6396V47.5597L61.5038 46.4799L62.5838 45.4L63.4478 45.184L64.5278 44.536L66.9038 43.8881L67.5519 43.4561L67.3358 42.5922L66.4719 41.9443L67.1198 40.6484L67.9838 39.3526L68.8478 38.4887H69.2798L70.5758 39.3526L72.0878 40.4325L73.1678 40.8644L74.6798 41.0804L75.3278 41.5123L76.8398 41.7283L77.7038 42.5922H78.7838L81.1598 41.7283L83.3198 41.2964L84.8319 41.5123L86.7758 42.1603L88.2878 42.8082L90.0158 43.0242Z" fill="#FF6901" stroke="black" stroke-width="2" stroke-linecap="round" stroke-linejoin="round"/>
<path d="M71.5275 60.3516C70.4432 60.3516 69.5128 59.9634 68.7363 59.1868C67.9597 58.4103 67.5714 57.4799 67.5714 56.3956C67.5714 55.3114 67.9597 54.381 68.7363 53.6044C69.5128 52.8279 70.4432 52.4396 71.5275 52.4396C72.6117 52.4396 73.5421 52.8279 74.3187 53.6044C75.0952 54.381 75.4835 55.3114 75.4835 56.3956C75.4835 57.1136 75.3003 57.7729 74.934 58.3736C74.5824 58.9744 74.1062 59.4579 73.5055 59.8242C72.9194 60.1758 72.2601 60.3516 71.5275 60.3516Z" fill="black"/>
<path d="M7.46556 84H2.10393V66.6256H7.7031C9.38851 66.6256 10.8307 66.9734 12.0297 67.6691C13.2288 68.3591 14.1478 69.3517 14.7869 70.6468C15.426 71.9363 15.7456 73.4803 15.7456 75.2789C15.7456 77.0887 15.4232 78.6469 14.7784 79.9533C14.1337 81.2541 13.1948 82.2552 11.9619 82.9565C10.7289 83.6522 9.23015 84 7.46556 84ZM4.20786 82.1336H7.32983C8.76638 82.1336 9.95691 81.8565 10.9014 81.3022C11.8459 80.748 12.5501 79.959 13.0138 78.9353C13.4776 77.9116 13.7095 76.6928 13.7095 75.2789C13.7095 73.8762 13.4804 72.6687 13.0223 71.6564C12.5642 70.6383 11.8799 69.8578 10.9693 69.3149C10.0587 68.7663 8.92474 68.492 7.56737 68.492H4.20786V82.1336ZM24.6703 70.9692V72.6659H17.9174V70.9692H24.6703ZM19.8855 67.8472H21.8877V80.2672C21.8877 80.8328 21.9697 81.257 22.1337 81.5398C22.3034 81.8169 22.5183 82.0035 22.7785 82.0997C23.0443 82.1902 23.3242 82.2354 23.6183 82.2354C23.8389 82.2354 24.0199 82.2241 24.1613 82.2015C24.3027 82.1732 24.4158 82.1506 24.5006 82.1336L24.9078 83.9321C24.7721 83.983 24.5826 84.0339 24.3394 84.0848C24.0962 84.1414 23.788 84.1697 23.4147 84.1697C22.8492 84.1697 22.2949 84.0481 21.7519 83.8049C21.2146 83.5617 20.7678 83.1912 20.4115 82.6935C20.0609 82.1958 19.8855 81.568 19.8855 80.8102V67.8472ZM32.8358 84.2715C31.6594 84.2715 30.6272 83.9915 29.7392 83.4316C28.857 82.8717 28.167 82.0884 27.6692 81.0816C27.1772 80.0749 26.9312 78.8985 26.9312 77.5525C26.9312 76.1951 27.1772 75.0102 27.6692 73.9978C28.167 72.9855 28.857 72.1993 29.7392 71.6394C30.6272 71.0795 31.6594 70.7995 32.8358 70.7995C34.0121 70.7995 35.0415 71.0795 35.9238 71.6394C36.8117 72.1993 37.5017 72.9855 37.9938 73.9978C38.4915 75.0102 38.7403 76.1951 38.7403 77.5525C38.7403 78.8985 38.4915 80.0749 37.9938 81.0816C37.5017 82.0884 36.8117 82.8717 35.9238 83.4316C35.0415 83.9915 34.0121 84.2715 32.8358 84.2715ZM32.8358 82.473C33.7294 82.473 34.4646 82.2439 35.0415 81.7858C35.6184 81.3277 36.0454 80.7253 36.3225 79.9788C36.5996 79.2322 36.7382 78.4234 36.7382 77.5525C36.7382 76.6815 36.5996 75.8699 36.3225 75.1177C36.0454 74.3655 35.6184 73.7575 35.0415 73.2937C34.4646 72.8299 33.7294 72.598 32.8358 72.598C31.9422 72.598 31.2069 72.8299 30.63 73.2937C30.0531 73.7575 29.6261 74.3655 29.349 75.1177C29.0719 75.8699 28.9333 76.6815 28.9333 77.5525C28.9333 78.4234 29.0719 79.2322 29.349 79.9788C29.6261 80.7253 30.0531 81.3277 30.63 81.7858C31.2069 82.2439 31.9422 82.473 32.8358 82.473ZM43.2557 84.1357C42.8372 84.1357 42.4781 83.9859 42.1783 83.6861C41.8786 83.3864 41.7287 83.0272 41.7287 82.6087C41.7287 82.1902 41.8786 81.831 42.1783 81.5313C42.4781 81.2315 42.8372 81.0816 43.2557 81.0816C43.6743 81.0816 44.0334 81.2315 44.3331 81.5313C44.6329 81.831 44.7828 82.1902 44.7828 82.6087C44.7828 82.8858 44.7121 83.1403 44.5707 83.3722C44.435 83.6041 44.2511 83.7907 44.0193 83.9321C43.793 84.0679 43.5385 84.1357 43.2557 84.1357ZM69.347 72.0551H67.2431C67.1187 71.4499 66.9009 70.9183 66.5899 70.4602C66.2845 70.0021 65.9112 69.6175 65.47 69.3064C65.0345 68.9897 64.551 68.7522 64.0193 68.5938C63.4877 68.4354 62.9334 68.3562 62.3565 68.3562C61.3046 68.3562 60.3516 68.6221 59.4976 69.1537C58.6492 69.6853 57.9734 70.4687 57.47 71.5037C56.9723 72.5387 56.7234 73.8084 56.7234 75.3128C56.7234 76.8172 56.9723 78.0869 57.47 79.1219C57.9734 80.1569 58.6492 80.9402 59.4976 81.4719C60.3516 82.0035 61.3046 82.2693 62.3565 82.2693C62.9334 82.2693 63.4877 82.1902 64.0193 82.0318C64.551 81.8734 65.0345 81.6387 65.47 81.3277C65.9112 81.0109 66.2845 80.6235 66.5899 80.1654C66.9009 79.7016 67.1187 79.17 67.2431 78.5705H69.347C69.1887 79.4584 68.9002 80.2531 68.4817 80.9544C68.0632 81.6557 67.5429 82.2524 66.9207 82.7444C66.2986 83.2308 65.6001 83.6013 64.8253 83.8558C64.0561 84.1103 63.2332 84.2375 62.3565 84.2375C60.8747 84.2375 59.557 83.8756 58.4032 83.1516C57.2494 82.4277 56.3417 81.3984 55.68 80.0636C55.0182 78.7289 54.6874 77.1453 54.6874 75.3128C54.6874 73.4803 55.0182 71.8967 55.68 70.562C56.3417 69.2272 57.2494 68.1979 58.4032 67.474C59.557 66.75 60.8747 66.3881 62.3565 66.3881C63.2332 66.3881 64.0561 66.5153 64.8253 66.7698C65.6001 67.0243 66.2986 67.3976 66.9207 67.8897C67.5429 68.376 68.0632 68.9699 68.4817 69.6712C68.9002 70.3669 69.1887 71.1615 69.347 72.0551ZM76.3099 84.3054C75.4842 84.3054 74.7348 84.1499 74.0618 83.8388C73.3888 83.5221 72.8543 83.0668 72.4584 82.473C72.0625 81.8734 71.8645 81.1495 71.8645 80.3012C71.8645 79.5546 72.0116 78.9494 72.3057 78.4857C72.5998 78.0162 72.9929 77.6486 73.4849 77.3828C73.977 77.117 74.5199 76.919 75.1138 76.7889C75.7133 76.6532 76.3156 76.5457 76.9208 76.4666C77.7126 76.3648 78.3545 76.2884 78.8465 76.2375C79.3442 76.181 79.7062 76.0876 79.9324 75.9576C80.1643 75.8275 80.2803 75.6012 80.2803 75.2789V75.211C80.2803 74.3739 80.0512 73.7235 79.5931 73.2598C79.1406 72.796 78.4535 72.5641 77.5316 72.5641C76.5758 72.5641 75.8264 72.7734 75.2834 73.1919C74.7405 73.6104 74.3587 74.0572 74.1381 74.5323L72.2378 73.8536C72.5772 73.0618 73.0296 72.4453 73.5952 72.0042C74.1664 71.5574 74.7885 71.2463 75.4616 71.071C76.1403 70.89 76.8076 70.7995 77.4637 70.7995C77.8822 70.7995 78.363 70.8504 78.9059 70.9522C79.4545 71.0484 79.9833 71.2492 80.4924 71.5546C81.007 71.86 81.434 72.3209 81.7734 72.9374C82.1127 73.5539 82.2824 74.3796 82.2824 75.4146V84H80.2803V82.2354H80.1785C80.0427 82.5182 79.8165 82.8208 79.4998 83.1432C79.1831 83.4655 78.7617 83.7398 78.2357 83.9661C77.7097 84.1923 77.0678 84.3054 76.3099 84.3054ZM76.6153 82.5069C77.4072 82.5069 78.0745 82.3514 78.6175 82.0403C79.1661 81.7292 79.579 81.3277 79.8561 80.8356C80.1389 80.3436 80.2803 79.8261 80.2803 79.2831V77.4507C80.1954 77.5525 80.0088 77.6458 79.7203 77.7306C79.4376 77.8098 79.1095 77.8805 78.7362 77.9427C78.3686 77.9993 78.0095 78.0502 77.6588 78.0954C77.3138 78.135 77.0339 78.1689 76.819 78.1972C76.2986 78.2651 75.8122 78.3754 75.3598 78.5281C74.913 78.6751 74.551 78.8985 74.2739 79.1983C74.0024 79.4924 73.8667 79.8939 73.8667 80.403C73.8667 81.0986 74.124 81.6246 74.6387 81.9809C75.159 82.3316 75.8179 82.5069 76.6153 82.5069ZM85.9367 88.8866V70.9692H87.871V73.0392H88.1085C88.2556 72.813 88.4592 72.5245 88.7193 72.1739C88.9851 71.8176 89.3641 71.5008 89.8561 71.2237C90.3538 70.9409 91.0269 70.7995 91.8752 70.7995C92.9724 70.7995 93.9396 71.0738 94.7766 71.6224C95.6137 72.171 96.2669 72.9487 96.7363 73.9554C97.2057 74.9621 97.4405 76.1498 97.4405 77.5185C97.4405 78.8985 97.2057 80.0947 96.7363 81.1071C96.2669 82.1138 95.6165 82.8943 94.7851 83.4486C93.9537 83.9972 92.9951 84.2715 91.9092 84.2715C91.0721 84.2715 90.4019 84.1329 89.8985 83.8558C89.3952 83.573 89.0078 83.2534 88.7363 82.8971C88.4648 82.5352 88.2556 82.2354 88.1085 81.9979H87.9388V88.8866H85.9367ZM87.9049 77.4846C87.9049 78.4687 88.0491 79.3369 88.3376 80.0891C88.626 80.8356 89.0474 81.421 89.6016 81.8452C90.1559 82.2637 90.8346 82.473 91.6377 82.473C92.4747 82.473 93.1732 82.2524 93.7331 81.8112C94.2987 81.3644 94.7229 80.7649 95.0057 80.0127C95.2941 79.2548 95.4383 78.4121 95.4383 77.4846C95.4383 76.5684 95.2969 75.7426 95.0142 75.0074C94.737 74.2665 94.3157 73.6811 93.7501 73.2513C93.1902 72.8158 92.486 72.598 91.6377 72.598C90.8233 72.598 90.1389 72.8045 89.5847 73.2174C89.0304 73.6246 88.6119 74.1958 88.3291 74.931C88.0463 75.6606 87.9049 76.5118 87.9049 77.4846ZM100.495 84V70.9692H102.497V84H100.495ZM101.513 68.7974C101.122 68.7974 100.786 68.6645 100.503 68.3987C100.226 68.1328 100.087 67.8133 100.087 67.44C100.087 67.0667 100.226 66.7472 100.503 66.4814C100.786 66.2156 101.122 66.0826 101.513 66.0826C101.903 66.0826 102.237 66.2156 102.514 66.4814C102.796 66.7472 102.938 67.0667 102.938 67.44C102.938 67.8133 102.796 68.1328 102.514 68.3987C102.237 68.6645 101.903 68.7974 101.513 68.7974ZM111.831 70.9692V72.6659H105.078V70.9692H111.831ZM107.046 67.8472H109.048V80.2672C109.048 80.8328 109.13 81.257 109.294 81.5398C109.464 81.8169 109.679 82.0035 109.939 82.0997C110.205 82.1902 110.485 82.2354 110.779 82.2354C110.999 82.2354 111.18 82.2241 111.322 82.2015C111.463 82.1732 111.576 82.1506 111.661 82.1336L112.068 83.9321C111.933 83.983 111.743 84.0339 111.5 84.0848C111.257 84.1414 110.948 84.1697 110.575 84.1697C110.01 84.1697 109.455 84.0481 108.912 83.8049C108.375 83.5617 107.928 83.1912 107.572 82.6935C107.221 82.1958 107.046 81.568 107.046 80.8102V67.8472ZM118.677 84.3054C117.851 84.3054 117.102 84.1499 116.429 83.8388C115.756 83.5221 115.221 83.0668 114.825 82.473C114.43 81.8734 114.232 81.1495 114.232 80.3012C114.232 79.5546 114.379 78.9494 114.673 78.4857C114.967 78.0162 115.36 77.6486 115.852 77.3828C116.344 77.117 116.887 76.919 117.481 76.7889C118.08 76.6532 118.683 76.5457 119.288 76.4666C120.08 76.3648 120.722 76.2884 121.214 76.2375C121.711 76.181 122.073 76.0876 122.3 75.9576C122.531 75.8275 122.647 75.6012 122.647 75.2789V75.211C122.647 74.3739 122.418 73.7235 121.96 73.2598C121.508 72.796 120.821 72.5641 119.899 72.5641C118.943 72.5641 118.193 72.7734 117.651 73.1919C117.108 73.6104 116.726 74.0572 116.505 74.5323L114.605 73.8536C114.944 73.0618 115.397 72.4453 115.962 72.0042C116.533 71.5574 117.156 71.2463 117.829 71.071C118.507 70.89 119.175 70.7995 119.831 70.7995C120.249 70.7995 120.73 70.8504 121.273 70.9522C121.822 71.0484 122.35 71.2492 122.859 71.5546C123.374 71.86 123.801 72.3209 124.14 72.9374C124.48 73.5539 124.649 74.3796 124.649 75.4146V84H122.647V82.2354H122.546C122.41 82.5182 122.184 82.8208 121.867 83.1432C121.55 83.4655 121.129 83.7398 120.603 83.9661C120.077 84.1923 119.435 84.3054 118.677 84.3054ZM118.982 82.5069C119.774 82.5069 120.442 82.3514 120.985 82.0403C121.533 81.7292 121.946 81.3277 122.223 80.8356C122.506 80.3436 122.647 79.8261 122.647 79.2831V77.4507C122.563 77.5525 122.376 77.6458 122.087 77.7306C121.805 77.8098 121.477 77.8805 121.103 77.9427C120.736 77.9993 120.377 78.0502 120.026 78.0954C119.681 78.135 119.401 78.1689 119.186 78.1972C118.666 78.2651 118.179 78.3754 117.727 78.5281C117.28 78.6751 116.918 78.8985 116.641 79.1983C116.369 79.4924 116.234 79.8939 116.234 80.403C116.234 81.0986 116.491 81.6246 117.006 81.9809C117.526 82.3316 118.185 82.5069 118.982 82.5069ZM130.306 66.6256V84H128.304V66.6256H130.306Z" fill="black"/>
</svg>
