<svg width="482" height="421" viewBox="0 0 482 421" fill="none" xmlns="http://www.w3.org/2000/svg">
<path d="M186.544 2.51187L188.704 5.10355L189.784 7.26332L192.808 8.5592L199.288 10.935L200.8 12.0148L201.88 13.7426L202.096 14.8225L201.88 18.0622L202.312 19.574L203.176 20.2219L204.04 20.6539L205.984 21.0859L207.064 21.9498L207.712 22.5977L208.144 23.4616L209.008 24.3256L210.304 25.1895L214.84 27.5652L216.568 27.9971L218.728 27.7811L221.752 26.7013L223.048 26.9172L224.56 27.3492L229.096 30.1569L230.392 31.0208L232.336 31.8848L237.52 31.4528L247.24 30.3729L256.312 27.5652L262.144 24.7575L264.52 22.5977L265.6 22.3817L267.544 22.5977L274.888 24.7575L276.832 25.8374L279.64 29.9409L278.56 30.8049L274.24 32.9646L273.592 33.1806H272.512L270.568 32.9646L269.704 32.7487L265.816 33.1806L264.088 33.6126L262.792 34.4764L261.928 35.9883V48.299L262.144 49.5948L263.008 50.8907L264.952 53.0505L266.248 53.6984L267.328 53.9144L270.784 53.0505H272.08L273.376 53.6984L273.808 54.3464L273.16 56.0742V56.7221L274.24 57.586L275.32 58.0179L278.128 58.6659L279.64 59.5298L280.288 59.9618L283.528 63.4174L283.96 64.2813L284.176 65.1452L283.96 66.657L283.312 67.305L281.368 67.9529L280.72 68.1689L280.288 68.8168L280.072 69.8967L280.288 73.3523L280.072 74.6482L279.64 75.5121L277.912 78.1038L277.264 79.6156L277.048 80.6955L277.264 81.5595L277.696 82.6394L278.776 83.9352L279.208 85.0151L279.424 86.9589L279.208 88.0388L280.72 91.2785L296.056 115.684L295.192 117.196L294.328 118.492L276.832 137.282L276.616 138.145L276.832 143.977L275.968 152.184L276.616 153.696L277.912 155.64L284.176 161.687L285.04 163.847L286.12 170.542L286.552 171.19L286.984 171.622H288.28L290.008 171.19L295.192 168.598L297.136 167.302H298L299.296 167.518L301.024 168.166L302.32 168.382L303.184 168.166L304.048 167.95L306.208 166.654L307.936 166.222L309.664 167.086L322.408 175.078L324.784 176.373L327.16 176.589L329.104 177.021L329.752 177.453L330.832 178.101L331.696 179.181L333.208 181.341L334.72 184.581L335.584 185.228L336.88 185.876L339.04 186.524L342.064 188.036L349.408 193.22L350.272 194.083L351.568 196.027L352.864 197.323L355.24 199.051L359.344 200.995L361.504 202.075L364.096 202.939L366.256 205.962L371.44 217.409L376.408 234.903L376.84 235.983L378.568 237.063L380.512 237.927L381.376 238.575L382.672 240.087L384.4 240.303L387.64 240.519L434.296 237.279L438.4 237.495L439.264 239.439L438.4 240.951L437.536 242.03L436.24 242.894L434.728 243.542L432.784 243.11L429.544 242.03L428.68 241.815L427.168 242.462L426.52 242.894L425.872 244.406L425.224 246.134L421.552 251.101L421.336 251.965L421.984 263.196L422.632 266.22L423.928 269.243L427.168 272.699L429.76 274.859L432.352 276.155L471.232 288.897L471.664 289.761L470.368 292.569L470.152 294.513L470.584 295.593L471.448 296.457L477.496 299.264L479.008 300.776L480.304 302.936L478.576 304.016L476.848 304.448L474.688 304.664L471.016 304.016H468.856L466.912 304.664L464.536 306.176L460.864 309.631L459.568 311.143L457.624 314.815L456.544 316.327L455.032 317.838L449.632 320.862L445.096 322.158L440.56 321.51L436.456 319.35L434.08 315.247L418.312 313.519H410.32L402.76 314.599L394.552 317.19L390.88 319.134L387.208 321.51L381.16 328.637L377.92 330.581L369.712 328.853L366.904 329.285L364.312 330.797L362.368 332.957L359.344 337.492L357.616 339.22L355.24 340.732L352.432 341.596L343.36 340.516L332.992 341.164L329.752 340.732L326.944 339.868L324.352 339.22L321.976 339.436L319.168 340.948L314.632 343.756L312.256 344.835L309.664 345.483L306.64 345.267L304.048 344.188L301.456 343.972L298.864 345.052L297.136 347.211L292.6 356.93L291.952 358.658L291.088 360.602L289.792 362.114L288.064 362.978L284.176 363.842L282.232 364.705L280.936 365.785L278.992 368.161L277.912 369.241L276.184 369.889L274.672 370.105H271.216L264.52 368.377L261.064 367.945L257.608 369.025L254.584 370.105L251.776 370.321L249.616 369.025L248.752 365.353L247.024 364.705L245.08 363.194L234.928 353.475L231.904 351.747L229.528 351.315L226.72 351.963L223.912 353.043L221.968 354.339L220.672 356.282L219.16 360.386L217.864 362.114L215.704 363.41L202.744 366.217L200.152 366.433L191.296 365.137L188.488 365.569L186.328 367.513L185.464 369.457L183.952 377.016L184.816 381.552L188.056 384.359L191.944 386.735L195.184 389.975L195.616 394.726L193.024 398.398L188.488 401.206L184.168 402.501H181.36L173.152 401.206L170.56 401.638L168.184 402.717L159.76 408.765L150.904 412.652L141.4 418.484L138.376 419.348L135.568 419.564L132.976 418.484L130.816 416.756L127.36 412.436L123.04 410.493L113.536 401.638L105.328 396.022L96.2561 391.487L91.72 390.407L82.2161 389.543L72.9281 386.087L68.6081 385.007L64.072 384.791L56.2961 385.871L55.8641 384.359L54.5681 381.12L53.92 380.256L52.84 379.176L51.112 377.664L49.3841 377.016L47.44 376.8L43.3361 376.584L39.4481 376.8H37.2881L35.992 375.936L35.3441 375.504L34.6961 373.992L34.2641 372.265L34.0481 370.321V368.161L34.2641 366.217L35.1281 363.625L36.4241 361.034L38.8 358.658L41.1761 356.93L42.472 355.85L50.032 346.779L52.192 341.596L52.84 338.572L53.92 336.628L54.7841 335.333L64.72 324.966L66.232 323.022L70.3361 315.463L71.4161 313.951L78.5441 307.903L80.0561 305.744L83.7281 296.241L84.592 290.409L85.0241 288.465L86.9681 284.794L88.912 275.507L89.1281 273.563L88.912 271.619V268.812L88.48 266.868L86.1041 262.764L85.8881 262.116L85.672 260.173L86.1041 258.229L86.5361 254.125L87.1841 252.397L87.832 251.317L89.1281 248.51L89.7761 247.43L90.8561 246.35L91.9361 245.702L96.04 244.838L98.4161 243.974L99.0641 243.542L100.144 243.326L101.44 243.542L103.168 244.19L105.328 245.27L107.704 245.918L111.376 246.35L122.608 245.486L124.984 244.622L126.928 244.406L128.008 244.622L129.952 244.838L132.544 245.702L134.488 245.918L135.352 245.486L136.216 244.19L137.296 240.735L137.512 239.007V237.711L136.216 234.471L136.432 233.175L137.296 231.664L139.24 229.072L141.832 226.48L146.152 223.888L143.776 219.137L143.128 218.057L142.264 217.193L140.536 216.113L138.808 215.033L137.08 213.306L133.84 209.634L131.032 207.042L128.872 205.746L123.472 204.234L122.824 203.802L122.392 202.939L121.96 201.211V196.459L121.528 194.299L120.88 192.788L120.232 190.628L119.584 189.548L118.504 188.468L116.344 186.308L115.048 185.444L113.968 184.797L109.432 183.501L108.136 182.637L103.816 178.101L102.736 177.021L101.224 176.373L99.28 175.941L89.1281 176.373L88.2641 176.157L86.752 175.51L85.24 174.214L82.432 169.894L80.272 167.734L77.68 165.575L76.3841 163.847L75.3041 161.903L74.2241 161.255L72.4961 160.391L71.8481 159.743L71.4161 158.879L70.9841 157.583L70.7681 153.264L70.12 151.752L68.392 149.376L67.7441 147.432L67.5281 145.705V143.761L68.8241 142.249L70.12 140.953L78.112 137.066L79.192 135.77L80.0561 134.474L80.4881 132.746V131.666L80.272 128.858V126.915V126.051L79.6241 124.539L79.192 123.891L78.112 122.811L76.3841 121.947L73.792 121.083L67.96 120.003L60.1841 117.844L57.16 116.548L54.1361 115.036L52.84 113.956L51.3281 112.228L44.4161 99.4856L43.3361 100.349L42.472 101.213L35.1281 112.66L2.51203 94.734L1.64811 93.8701L1.43203 93.4382V92.3583L1.86405 91.2785L5.53608 86.7429L6.4 84.7991L7.26405 79.6156L5.53608 75.5121L2.08 70.5446L1.21608 67.9529L1 63.6334L2.29608 50.6747L6.61608 47.0032L8.12811 46.3552L9.42405 46.5712L10.9361 47.6511L11.3681 47.8671L12.232 47.6511L14.1761 45.7073L15.472 44.8434L16.9841 43.9794L21.3041 42.6836L23.4641 42.2516L24.76 41.6037L26.0561 40.7398L29.9441 36.6362L31.672 35.3403L35.3441 34.2605L37.5041 32.7487L39.232 31.4528L41.6081 30.3729L43.12 27.7811L45.28 20.006L63.64 23.4616L85.8881 27.5652L92.3681 31.0208L98.2 32.5327L100.144 33.1806V34.2605L88.0481 30.3729L85.0241 29.725L86.32 32.1007L89.1281 33.8285L92.5841 34.9084L99.4961 35.5563L101.224 35.3403L102.736 34.9084L105.328 33.3966L110.08 32.3167L115.912 28.861L118.72 27.5652L121.744 27.1332L130.6 28.6451L142.264 29.509L148.312 28.6451L152.848 26.0534L154.576 23.6776L155.872 21.3018L157.816 15.4705V12.8787L156.952 8.77519L157.816 6.39943L159.112 7.91129L160.624 8.77519L162.352 8.99118L164.296 8.77519L163 10.2871L162.352 10.719L161.056 10.935L162.784 13.3107L165.592 13.0947L167.104 11.5829L165.376 9.85507L167.32 8.5592L171.424 3.15977L173.584 2.72786L178.12 1.21599L180.712 1L180.28 2.07989L179.632 3.15977L181.792 2.72786L182.872 2.07989L183.952 4.02367L184.816 3.80774L185.896 2.72786L186.544 2.51187Z" fill="#FF6901" stroke="black" stroke-width="2" stroke-linecap="round" stroke-linejoin="round"/>
<path d="M137.503 283.973H133.369L145.326 251.407H149.397L161.355 283.973H157.22L147.489 256.559H147.234L137.503 283.973ZM139.029 271.252H155.694V274.75H139.029V271.252ZM169.671 269.28V283.973H165.918V259.549H169.544V263.365H169.862C170.434 262.125 171.303 261.128 172.469 260.375C173.636 259.612 175.141 259.231 176.985 259.231C178.639 259.231 180.086 259.57 181.326 260.248C182.567 260.916 183.531 261.934 184.22 263.301C184.909 264.658 185.254 266.375 185.254 268.453V283.973H181.501V268.708C181.501 266.789 181.003 265.294 180.007 264.223C179.01 263.142 177.643 262.602 175.904 262.602C174.706 262.602 173.636 262.861 172.692 263.381C171.759 263.9 171.022 264.658 170.482 265.655C169.941 266.651 169.671 267.86 169.671 269.28ZM191.412 283.973V281.11L205.277 263.301V263.047H191.857V259.549H210.111V262.538L196.627 280.22V280.474H210.557V283.973H191.412ZM225.559 284.482C223.354 284.482 221.42 283.957 219.755 282.907C218.102 281.858 216.808 280.39 215.876 278.503C214.953 276.616 214.492 274.411 214.492 271.888C214.492 269.344 214.953 267.123 215.876 265.225C216.808 263.328 218.102 261.854 219.755 260.805C221.42 259.755 223.354 259.231 225.559 259.231C227.764 259.231 229.694 259.755 231.347 260.805C233.012 261.854 234.305 263.328 235.227 265.225C236.16 267.123 236.627 269.344 236.627 271.888C236.627 274.411 236.16 276.616 235.227 278.503C234.305 280.39 233.012 281.858 231.347 282.907C229.694 283.957 227.764 284.482 225.559 284.482ZM225.559 281.11C227.234 281.11 228.612 280.681 229.694 279.822C230.775 278.964 231.575 277.835 232.095 276.436C232.614 275.036 232.874 273.52 232.874 271.888C232.874 270.255 232.614 268.734 232.095 267.324C231.575 265.914 230.775 264.775 229.694 263.905C228.612 263.036 227.234 262.602 225.559 262.602C223.884 262.602 222.506 263.036 221.425 263.905C220.344 264.775 219.543 265.914 219.024 267.324C218.505 268.734 218.245 270.255 218.245 271.888C218.245 273.52 218.505 275.036 219.024 276.436C219.543 277.835 220.344 278.964 221.425 279.822C222.506 280.681 223.884 281.11 225.559 281.11ZM249.542 284.545C247.995 284.545 246.59 284.254 245.328 283.671C244.067 283.077 243.065 282.224 242.323 281.11C241.581 279.987 241.21 278.63 241.21 277.04C241.21 275.64 241.486 274.506 242.037 273.637C242.588 272.757 243.325 272.068 244.247 271.57C245.169 271.072 246.187 270.701 247.3 270.457C248.424 270.202 249.553 270.001 250.687 269.852C252.171 269.662 253.374 269.519 254.297 269.423C255.23 269.317 255.908 269.142 256.332 268.898C256.767 268.655 256.984 268.231 256.984 267.626V267.499C256.984 265.93 256.555 264.711 255.696 263.842C254.848 262.973 253.56 262.538 251.832 262.538C250.041 262.538 248.636 262.93 247.618 263.715C246.601 264.499 245.885 265.337 245.472 266.227L241.91 264.955C242.546 263.471 243.394 262.315 244.454 261.488C245.525 260.651 246.691 260.068 247.952 259.739C249.224 259.4 250.475 259.231 251.705 259.231C252.489 259.231 253.39 259.326 254.408 259.517C255.436 259.697 256.427 260.073 257.382 260.646C258.346 261.218 259.147 262.082 259.783 263.238C260.419 264.393 260.737 265.941 260.737 267.881V283.973H256.984V280.665H256.793C256.539 281.195 256.115 281.762 255.521 282.367C254.927 282.971 254.138 283.485 253.152 283.909C252.166 284.333 250.963 284.545 249.542 284.545ZM250.115 281.174C251.599 281.174 252.85 280.883 253.867 280.3C254.896 279.716 255.67 278.964 256.189 278.042C256.719 277.119 256.984 276.149 256.984 275.132V271.697C256.825 271.888 256.475 272.063 255.935 272.222C255.404 272.37 254.79 272.503 254.09 272.619C253.401 272.725 252.728 272.821 252.071 272.905C251.424 272.98 250.899 273.043 250.496 273.096C249.521 273.224 248.609 273.43 247.761 273.716C246.924 273.992 246.245 274.411 245.726 274.973C245.217 275.524 244.963 276.277 244.963 277.231C244.963 278.534 245.445 279.52 246.41 280.188C247.385 280.845 248.62 281.174 250.115 281.174ZM250.242 256.241L254.122 248.863H258.511L253.549 256.241H250.242ZM278.208 259.549V262.729H265.551V259.549H278.208ZM269.24 253.697H272.992V276.976C272.992 278.036 273.146 278.831 273.454 279.361C273.772 279.881 274.174 280.231 274.662 280.411C275.16 280.58 275.685 280.665 276.236 280.665C276.65 280.665 276.989 280.644 277.254 280.602C277.519 280.549 277.731 280.506 277.89 280.474L278.653 283.845C278.399 283.941 278.044 284.036 277.588 284.132C277.132 284.238 276.554 284.291 275.855 284.291C274.795 284.291 273.756 284.063 272.738 283.607C271.731 283.151 270.894 282.457 270.226 281.524C269.568 280.591 269.24 279.414 269.24 277.994V253.697ZM293.831 284.482C291.478 284.482 289.448 283.962 287.741 282.923C286.045 281.874 284.735 280.411 283.813 278.534C282.902 276.648 282.446 274.453 282.446 271.951C282.446 269.45 282.902 267.245 283.813 265.337C284.735 263.418 286.018 261.923 287.661 260.852C289.315 259.771 291.244 259.231 293.449 259.231C294.721 259.231 295.978 259.443 297.218 259.867C298.458 260.291 299.587 260.98 300.605 261.934C301.622 262.877 302.433 264.128 303.038 265.686C303.642 267.245 303.944 269.163 303.944 271.443V273.033H285.117V269.789H300.128C300.128 268.411 299.852 267.181 299.301 266.1C298.76 265.019 297.986 264.165 296.979 263.54C295.983 262.914 294.806 262.602 293.449 262.602C291.955 262.602 290.661 262.973 289.569 263.715C288.488 264.446 287.656 265.4 287.073 266.577C286.49 267.754 286.198 269.015 286.198 270.361V272.524C286.198 274.368 286.516 275.932 287.152 277.215C287.799 278.487 288.695 279.457 289.84 280.125C290.985 280.782 292.315 281.11 293.831 281.11C294.817 281.11 295.707 280.973 296.502 280.697C297.308 280.411 298.002 279.987 298.585 279.425C299.168 278.853 299.619 278.142 299.937 277.294L303.562 278.312C303.181 279.542 302.539 280.623 301.638 281.556C300.737 282.478 299.624 283.199 298.299 283.718C296.974 284.227 295.485 284.482 293.831 284.482ZM319.511 293.641C317.699 293.641 316.14 293.407 314.836 292.941C313.532 292.485 312.446 291.881 311.577 291.128C310.718 290.386 310.034 289.591 309.525 288.743L312.515 286.644C312.854 287.089 313.283 287.598 313.803 288.171C314.322 288.754 315.032 289.257 315.934 289.681C316.845 290.116 318.038 290.333 319.511 290.333C321.483 290.333 323.11 289.856 324.393 288.902C325.676 287.948 326.317 286.453 326.317 284.418V279.457H325.999C325.723 279.902 325.331 280.453 324.822 281.11C324.324 281.757 323.603 282.335 322.66 282.844C321.727 283.342 320.465 283.591 318.875 283.591C316.903 283.591 315.133 283.125 313.564 282.192C312.006 281.259 310.771 279.902 309.859 278.121C308.958 276.34 308.508 274.178 308.508 271.633C308.508 269.132 308.948 266.953 309.827 265.098C310.707 263.232 311.932 261.791 313.501 260.773C315.07 259.745 316.882 259.231 318.939 259.231C320.529 259.231 321.79 259.496 322.723 260.026C323.667 260.545 324.388 261.139 324.886 261.806C325.395 262.464 325.787 263.004 326.063 263.428H326.444V259.549H330.07V284.672C330.07 286.771 329.593 288.478 328.639 289.793C327.695 291.118 326.423 292.088 324.822 292.702C323.232 293.328 321.462 293.641 319.511 293.641ZM319.384 280.22C320.889 280.22 322.161 279.875 323.2 279.186C324.239 278.497 325.029 277.506 325.57 276.213C326.11 274.92 326.381 273.372 326.381 271.57C326.381 269.81 326.116 268.257 325.586 266.911C325.055 265.564 324.271 264.51 323.232 263.746C322.193 262.983 320.911 262.602 319.384 262.602C317.794 262.602 316.469 263.004 315.409 263.81C314.359 264.616 313.57 265.697 313.04 267.054C312.52 268.411 312.26 269.916 312.26 271.57C312.26 273.266 312.525 274.766 313.055 276.07C313.596 277.363 314.391 278.381 315.441 279.123C316.501 279.854 317.815 280.22 319.384 280.22ZM352.331 273.987V259.549H356.084V283.973H352.331V279.838H352.077C351.504 281.079 350.614 282.133 349.405 283.003C348.197 283.861 346.67 284.291 344.826 284.291C343.299 284.291 341.942 283.957 340.755 283.289C339.568 282.61 338.635 281.593 337.957 280.236C337.278 278.868 336.939 277.146 336.939 275.068V259.549H340.692V274.814C340.692 276.595 341.19 278.015 342.186 279.075C343.193 280.135 344.476 280.665 346.034 280.665C346.967 280.665 347.916 280.427 348.881 279.95C349.856 279.473 350.672 278.741 351.329 277.755C351.997 276.769 352.331 275.513 352.331 273.987ZM362.957 283.973V259.549H366.71V283.973H362.957ZM364.865 255.478C364.134 255.478 363.503 255.229 362.973 254.73C362.454 254.232 362.194 253.633 362.194 252.934C362.194 252.234 362.454 251.635 362.973 251.137C363.503 250.639 364.134 250.389 364.865 250.389C365.597 250.389 366.222 250.639 366.742 251.137C367.272 251.635 367.537 252.234 367.537 252.934C367.537 253.633 367.272 254.232 366.742 254.73C366.222 255.229 365.597 255.478 364.865 255.478Z" fill="black"/>
<path d="M253.751 226.324C252.667 226.324 251.736 225.936 250.96 225.16C250.183 224.383 249.795 223.453 249.795 222.368C249.795 221.284 250.183 220.354 250.96 219.577C251.736 218.801 252.667 218.412 253.751 218.412C254.835 218.412 255.766 218.801 256.542 219.577C257.319 220.354 257.707 221.284 257.707 222.368C257.707 223.086 257.524 223.746 257.158 224.346C256.806 224.947 256.33 225.431 255.729 225.797C255.143 226.149 254.484 226.324 253.751 226.324Z" fill="black"/>
</svg>
