<svg width="967" height="322" viewBox="0 0 967 322" fill="none" xmlns="http://www.w3.org/2000/svg">
<path d="M771.256 19.79L772.768 22.3818L771.04 25.1895L772.336 26.4853L773.848 26.7013L775.576 26.2693H777.52L781.408 28.2132L783.352 28.4291H788.968L790.048 28.2132L791.344 27.7812L792.856 27.3492H794.8L804.088 30.8048L805.816 32.3167L806.896 36.2042L809.488 38.364L815.32 40.5238L817.696 42.2517L819.424 44.1954L821.8 45.4914L829.576 46.7872L832.6 48.299L835.624 49.5948L839.512 49.3789L845.344 46.1393L848.8 45.4914L855.28 50.0268L858.736 49.5948L862.192 47.8671L865.648 47.0031L866.728 47.4351L868.672 48.9469L884.656 51.5387L885.52 51.3226L887.032 50.6747L887.896 50.4588L888.976 50.6747L890.704 52.1866L891.784 52.6186L895.024 52.4025L911.224 47.8671L914.896 47.6511L917.704 48.299L918.784 47.6511L925.48 45.9232H926.344L928.936 46.1393L929.8 45.9232L930.232 45.2753L930.016 43.3316L930.88 42.6835L932.824 42.4676L934.12 43.3316L937.36 47.0031L939.088 48.083L941.032 48.731L941.896 49.8109L940.6 51.5387L944.056 53.6985L948.808 55.8582L953.776 56.7221L959.176 54.5623L960.472 55.4262L964.144 60.6098L965.008 63.2014V66.0092L964.144 69.4648H961.984L957.664 70.7606L951.4 74.8642L948.592 77.4559L946.648 80.4795L944.704 84.7991L942.544 87.8228L939.952 93.0063L938.872 94.3021L934.768 97.5418L933.904 98.8376L933.256 100.134L932.392 103.157L931.744 104.885L922.024 118.924L919 121.731L915.976 123.027L909.496 123.891L906.472 125.187L905.392 126.051L903.232 128.426L901.936 129.29L899.992 129.938L893.944 130.586L890.272 131.882L881.848 138.577L879.904 139.225L876.448 140.305L874.72 140.953L872.992 142.249L870.184 145.057L868.672 146.137L865.216 147.432L858.52 148.296L845.992 158.231L843.4 162.767L844.696 169.678L847.288 176.589L848.368 178.317L850.744 181.773L851.824 183.717L852.256 187.172L851.176 190.412L849.232 193.652L847.936 197.107L850.096 198.619L850.96 201.859L851.176 208.122L849.88 212.442L847.072 215.249L844.048 217.625L841.24 221.081L837.352 231.232L834.112 248.726V250.454L834.76 252.181L836.704 255.421L836.92 257.149L835.84 259.957L833.464 262.548L830.656 264.708L823.744 268.164L822.448 269.244L818.776 272.699L817.264 273.347L814.024 274.427L812.944 275.291L811.864 277.019L810.568 281.554L806.464 289.761L804.304 292.569L801.28 294.297L799.552 294.513L796.096 294.081H794.368L792.208 294.729L790.912 296.025L788.752 299.696L786.16 301.64L779.896 300.992L775.36 297.753L771.256 293.649L766.504 290.625L741.664 284.794L730.648 283.93L727.84 283.066H726.328L724.6 284.146L721.576 287.17L719.848 288.466L718.12 288.897L715.96 288.681L714.232 289.329L713.368 291.273L713.152 293.001L712.288 294.513L710.992 295.809L709.48 296.241L707.968 296.457L702.352 298.4L695.872 299.48L675.784 297.536L668.656 298.4L650.728 304.88H644.896L634.312 302.072L631.072 301.64L627.616 302.072L615.952 305.528L606.016 305.96L604.288 306.824L600.184 310.495L598.024 311.575L594.352 311.143L587.656 307.903L584.416 307.255L580.744 306.824L570.592 303.8L567.352 303.152L557.2 303.8L553.744 303.152L549.856 301.64L546.4 300.992L543.592 301.64L537.544 299.048L534.304 298.185L530.416 298.4L527.392 299.696L522.856 304.016L519.616 306.176L510.112 315.247L501.04 320.43L497.584 317.622L490.672 309.847L487.648 308.335L483.328 308.983L475.768 312.655L471.664 313.735H469.72L428.896 262.116L417.016 246.782L392.824 216.329L368.848 185.66L366.04 182.205L360.856 177.669L356.32 176.589L350.488 177.021L344.656 178.317L335.8 183.501L330.616 183.285L314.2 175.294L311.824 174.43L311.392 173.998L310.312 172.486L309.664 172.054H308.152L304.48 172.486H302.752L300.376 171.838L298.648 170.758L290.656 160.607L289.576 159.527L286.984 159.959L282.448 161.471H279.856L274.456 160.391L272.944 159.743L270.784 157.799L269.704 157.367H264.952L255.448 159.743L248.536 160.175L242.488 162.335H239.248L237.952 163.199L237.088 164.711L235.576 167.086L228.664 171.838L220.888 174.862L212.248 175.726L201.016 174.646L199.504 175.509L198.208 177.021L196.264 178.533L193.456 179.397L191.728 178.965L190.648 177.885L188.704 177.021L180.928 176.805L178.768 175.941L177.904 174.214V172.27L177.472 170.326L176.176 169.246L173.8 169.03L167.104 170.326L164.512 170.11L159.328 168.598L156.952 168.382L154.36 168.814L150.256 170.758L148.312 171.406L145.072 168.598L141.616 167.734L138.808 168.598L138.592 169.03L135.568 168.814L134.704 167.302L133.84 166.654L132.544 167.086L130.384 168.382L129.304 168.598H128.224L126.28 167.302L125.416 166.007L124.12 164.927L118.72 164.711L116.56 165.143L115.696 166.222L116.344 168.814L111.808 167.734L107.92 167.95L104.248 168.598H99.712L100.144 171.622L99.064 172.054L97.336 171.838H95.608L93.664 173.134L92.152 174.43L90.424 175.509L87.832 175.941L82.648 175.509L64.72 171.19L62.992 170.326L59.32 167.086L57.16 165.79L52.84 163.847L50.896 162.767L48.088 159.527L39.448 142.465L37.72 137.93L36.64 133.394L36.208 128.643V127.131L37.72 120.651L37.288 119.787L36.424 119.355L31.024 112.228L25.624 110.716L12.664 110.932L4.88801 109.421L1 108.125L8.12801 104.453L10.72 102.509L13.096 101.429H14.392H16.336L25.192 102.941L27.784 102.725L33.832 101.213L37.072 102.293L38.584 103.373L40.312 105.965L40.96 106.397L42.256 107.477L48.736 110.716L51.328 112.444L52.84 113.308L60.184 115.036L62.128 115.252L65.368 114.82L67.528 114.172L69.04 113.308L75.736 108.989L77.464 108.341L80.92 107.693L81.784 107.261L82.648 106.613L83.728 105.749L86.32 102.077L89.344 94.7341L88.912 94.0862L90.856 93.2222L94.096 93.6542L103.6 96.6778L104.896 97.7577L107.488 100.997L109 102.509L110.944 103.157L117.64 104.237L121.096 104.021L122.392 102.509L122.824 100.781L124.12 101.213L126.064 103.157L128.008 102.725L131.68 101.213L133.192 100.781L134.92 101.213L137.944 102.725L139.888 103.157L141.832 102.941L142.696 102.509L143.128 101.645L144.208 100.781L147.664 99.2696L150.472 99.0536L156.52 99.9175L168.616 99.7015L174.232 100.349L180.064 102.077L183.088 100.566L186.544 103.157L190 106.829L192.592 108.557L196.264 108.989L197.776 109.421L199.504 111.58H202.096L206.2 110.932L212.896 112.66L219.376 115.468L225.64 119.139L231.04 124.107L233.632 123.243L236.44 124.539L239.464 126.267L242.488 127.347L245.296 126.915L252.64 124.539L255.016 123.027L260.848 125.403L268.192 126.915L275.536 127.347L281.152 126.267L282.016 125.187L284.608 121.731L285.472 120.651L287.632 120.003L288.928 120.219L290.008 120.435L291.52 120.651L294.328 120.003L296.92 117.844L300.808 114.172L301.888 111.796L302.752 112.012L304.048 112.228L304.912 112.66L305.128 113.092L306.424 112.228L307.072 111.58L307.288 110.5V108.125L308.368 105.533L310.744 104.885L313.984 104.669L317.224 104.237L322.84 101.213L327.376 96.246L330.4 90.6305L333.856 78.7517L335.584 76.592L338.392 75.7281L339.904 75.5121L342.712 74.6483H344.44L345.952 75.0801L348.544 76.3761L349.624 76.808L352.432 76.3761L356.32 74.8642L360.208 72.4885L361.72 69.6807L362.8 66.6571L364.96 62.7695L367.552 59.5299L369.928 58.018L372.088 57.3701L379.216 52.6186L381.808 51.9707L389.584 52.6186L391.528 51.9707L393.904 50.4588L398.44 46.3552L400.816 44.6274L403.192 43.3316L405.352 42.8996L407.512 43.9795L409.24 42.6835L414.64 40.0919L416.584 39.4439L420.904 39.012L423.712 38.1481L448.552 20.8699L466.696 3.80768L470.152 1.6479L473.824 1.43198L481.384 3.15977H487.648L506.44 1L510.112 1.86396L515.728 5.5356L518.968 6.39943L519.832 7.26339L521.344 11.1509L522.208 12.0149L528.256 14.1747L529.12 14.6065L530.848 15.9025L531.496 16.3345L532.576 15.9025L534.088 14.6065L534.736 14.1747H540.784L543.16 13.0948H544.888L545.536 14.8226L545.968 16.3345L546.832 17.8462L548.992 20.654V21.5178L548.776 23.4617L548.992 24.1096H549.64L551.368 23.8936L552.232 24.1096L558.064 27.3492L568.216 28.645L583.12 26.7013L585.28 25.8374L587.656 23.6776L595.648 18.4942L598.24 18.0622L608.176 18.4942L611.848 19.3581L617.896 22.5977L622 23.0297L625.672 21.5178L631.288 16.3345L634.312 15.2546L637.552 14.3906H639.496L640.144 15.6864L641.008 16.1184L644.68 18.4942H647.92L651.808 17.8462H655.264L656.56 19.1421L658.288 20.006L661.744 18.4942L666.28 15.2546L667.36 15.0385L670.384 14.6065L671.896 14.1747L673.624 12.8787L675.136 11.5829L676.648 10.287L681.616 9.2071L687.232 6.39943L690.256 5.31954L706.24 4.23966L710.128 5.5356L713.8 7.47931L717.256 8.77525L720.712 7.47931L728.056 9.63908L743.392 10.287L751.384 12.0149L754.624 13.3107L757.864 14.1747L760.672 13.3107L761.536 13.0948L762.184 13.5266L763.264 15.0385L763.912 15.2546L767.584 16.3345L771.04 19.1421L771.256 19.79Z" fill="#FF6901" stroke="black" stroke-width="2" stroke-linecap="round" stroke-linejoin="round"/>
<path d="M525.007 166.146H520.873L532.831 133.581H536.901L548.859 166.146H544.725L534.993 138.733H534.739L525.007 166.146ZM526.534 153.425H543.198V156.923H526.534V153.425ZM553.423 175.305V141.722H557.048V145.602H557.493C557.769 145.178 558.15 144.637 558.638 143.98C559.136 143.312 559.847 142.718 560.769 142.199C561.702 141.669 562.963 141.404 564.553 141.404C566.61 141.404 568.423 141.918 569.992 142.946C571.56 143.975 572.785 145.432 573.665 147.319C574.545 149.206 574.985 151.432 574.985 153.998C574.985 156.584 574.545 158.826 573.665 160.724C572.785 162.611 571.566 164.074 570.007 165.113C568.449 166.141 566.652 166.655 564.617 166.655C563.048 166.655 561.792 166.395 560.848 165.876C559.905 165.346 559.179 164.747 558.67 164.079C558.161 163.401 557.769 162.839 557.493 162.393H557.175V175.305H553.423ZM557.112 153.934C557.112 155.779 557.382 157.406 557.923 158.816C558.463 160.215 559.253 161.312 560.292 162.107C561.331 162.892 562.603 163.284 564.108 163.284C565.677 163.284 566.986 162.87 568.036 162.044C569.096 161.206 569.891 160.082 570.421 158.673C570.962 157.252 571.232 155.673 571.232 153.934C571.232 152.217 570.967 150.669 570.437 149.291C569.917 147.902 569.128 146.805 568.068 145.999C567.018 145.183 565.698 144.775 564.108 144.775C562.582 144.775 561.299 145.162 560.26 145.936C559.221 146.699 558.437 147.77 557.907 149.148C557.377 150.515 557.112 152.111 557.112 153.934ZM596.101 156.16V141.722H599.854V166.146H596.101V162.012H595.847C595.274 163.252 594.384 164.307 593.175 165.176C591.967 166.035 590.44 166.464 588.596 166.464C587.069 166.464 585.712 166.13 584.525 165.462C583.338 164.784 582.405 163.766 581.727 162.409C581.048 161.042 580.709 159.319 580.709 157.241V141.722H584.462V156.987C584.462 158.768 584.96 160.188 585.956 161.249C586.963 162.309 588.246 162.839 589.804 162.839C590.737 162.839 591.686 162.6 592.651 162.123C593.626 161.646 594.442 160.915 595.099 159.929C595.767 158.943 596.101 157.687 596.101 156.16ZM606.727 166.146V141.722H610.353V145.411H610.607C611.052 144.203 611.858 143.222 613.024 142.469C614.19 141.717 615.505 141.34 616.968 141.34C617.243 141.34 617.588 141.346 618.001 141.356C618.415 141.367 618.727 141.383 618.939 141.404V145.22C618.812 145.188 618.521 145.141 618.065 145.077C617.619 145.003 617.148 144.966 616.649 144.966C615.462 144.966 614.402 145.215 613.469 145.713C612.547 146.201 611.816 146.879 611.275 147.748C610.745 148.607 610.48 149.588 610.48 150.69V166.146H606.727ZM632.885 166.655C630.531 166.655 628.501 166.136 626.794 165.097C625.098 164.047 623.789 162.584 622.867 160.708C621.955 158.821 621.499 156.627 621.499 154.125C621.499 151.623 621.955 149.418 622.867 147.51C623.789 145.591 625.072 144.097 626.715 143.026C628.369 141.945 630.298 141.404 632.503 141.404C633.775 141.404 635.031 141.616 636.271 142.04C637.512 142.464 638.641 143.153 639.658 144.107C640.676 145.051 641.487 146.301 642.091 147.86C642.696 149.418 642.998 151.337 642.998 153.616V155.206H624.171V151.962H639.181C639.181 150.584 638.906 149.355 638.355 148.273C637.814 147.192 637.04 146.339 636.033 145.713C635.037 145.088 633.86 144.775 632.503 144.775C631.008 144.775 629.715 145.146 628.623 145.888C627.542 146.62 626.71 147.574 626.127 148.75C625.544 149.927 625.252 151.188 625.252 152.535V154.697C625.252 156.542 625.57 158.105 626.206 159.388C626.853 160.66 627.748 161.63 628.893 162.298C630.038 162.955 631.369 163.284 632.885 163.284C633.87 163.284 634.761 163.146 635.556 162.87C636.362 162.584 637.056 162.16 637.639 161.598C638.222 161.026 638.673 160.316 638.991 159.468L642.616 160.485C642.234 161.715 641.593 162.796 640.692 163.729C639.791 164.651 638.678 165.372 637.353 165.892C636.028 166.401 634.538 166.655 632.885 166.655Z" fill="black"/>
<path d="M588.255 194.498C587.171 194.498 586.241 194.109 585.464 193.333C584.688 192.556 584.299 191.626 584.299 190.542C584.299 189.457 584.688 188.527 585.464 187.751C586.241 186.974 587.171 186.586 588.255 186.586C589.34 186.586 590.27 186.974 591.047 187.751C591.823 188.527 592.212 189.457 592.212 190.542C592.212 191.26 592.028 191.919 591.662 192.52C591.31 193.12 590.834 193.604 590.234 193.97C589.647 194.322 588.988 194.498 588.255 194.498Z" fill="black"/>
</svg>
