<svg width="214" height="188" viewBox="0 0 214 188" fill="none" xmlns="http://www.w3.org/2000/svg">
<path d="M105.112 21.3018L109.648 28.861L110.944 29.725L112.24 31.2368L111.808 32.1007L110.512 33.1806L110.296 34.0445L109.864 35.7723V36.8522L110.296 38.1481L111.592 39.444L113.32 40.7398L118.288 42.6836L119.584 43.3315L121.744 44.8434L122.608 45.9233L122.824 47.867L121.312 57.154L120.88 57.802L119.584 59.9618L118.936 61.4736L118.72 62.3375V63.6333L118.936 65.1452L121.096 70.5446L122.392 72.2724L126.064 75.2961L133.408 80.0476L135.568 78.9677L136.864 78.1038L138.16 77.0239L139.456 76.592L140.968 76.376L142.48 76.592L143.344 77.0239L145.72 78.9677L146.584 80.2636L146.8 80.9115L148.312 83.0713L149.824 84.3672L150.472 85.663L151.12 86.5269L152.2 86.9589L154.36 86.7429L157.6 87.6068L159.328 88.6867L161.488 88.4707L166.24 86.5269L168.4 86.0949L173.152 86.5269L175.96 87.1748L177.688 88.4707L177.904 88.9027L178.768 89.5506L180.064 89.9826L184.816 90.1986L186.112 89.9826H187.192L188.272 90.4145L189.784 91.4944L193.024 93.0062L201.448 94.0861L205.984 116.764L206.2 118.923L205.984 121.083L205.552 122.811L204.904 124.323L203.608 125.187L202.096 125.835L200.584 126.699L199.936 128.21L199.72 130.154L200.152 133.61L200.8 135.77L201.664 137.498L202.744 138.577L204.04 139.657L208.144 142.033L209.44 143.329L210.736 145.057L212.248 147.648L212.464 149.376V151.32L211.384 154.56L208.576 161.039L207.928 162.767L207.496 164.711L207.28 167.086L208.144 169.03L209.224 170.542L210.304 172.486V173.782L210.088 175.509L207.28 183.717L206.632 185.012L205.768 185.444L204.472 186.092L202.96 186.308L199.72 186.524L190.864 186.308L189.784 186.092L188.488 185.66L183.736 182.853L180.928 181.557L177.688 180.909L171.64 180.045L170.128 179.829L166.888 178.317L163.864 176.589L162.352 176.157L158.68 175.725L146.152 176.157L141.4 176.805H140.32L139.672 175.725L140.32 173.782L141.184 171.838L142.264 169.03L143.128 167.734L147.232 165.359L150.472 164.279L155.224 163.631L156.736 162.983L157.816 161.687L159.544 159.311L162.568 153.264L163 151.32L162.568 146.785L162.784 143.329L162.352 141.385L161.272 140.953H159.976L158.248 141.169L156.304 141.385L154.36 140.953L151.768 139.225L150.904 138.793L148.096 138.361L144.208 131.018L142.264 128.858L140.536 128.426L137.728 128.21L135.784 127.779L134.92 127.131L134.056 126.051L133.624 125.187L132.76 123.891L131.896 123.243L130.816 123.027L128.44 122.811L123.904 120.867L123.04 118.492L121.744 116.98L118.504 114.172L117.424 112.66L116.776 111.58L113.32 103.805L112.456 102.725L111.16 101.429L106.408 100.781H104.248L102.088 101.861L99.496 102.509L97.984 102.941L97.336 102.725L95.392 100.133L94.528 99.7015H90.424L85.888 100.349L82.648 98.8376L72.064 90.6305L71.2 90.8465H69.688L66.664 92.3583L55.216 96.4619L52.192 89.5506L50.032 88.2547L48.088 88.4707L46.576 88.2547L34.912 83.2873L31.888 85.231H30.808L30.376 84.5831L30.808 81.7754L30.592 79.3997L30.808 78.3198L31.24 77.6719L33.832 75.7281L35.128 74.2162L35.776 72.9204L35.992 70.7606L33.616 50.6747V49.1629L33.832 48.299L34.696 46.7872L35.128 45.7073L35.776 44.1954L36.208 41.6037V40.0919L35.776 39.228L33.832 36.8522L33.184 36.2043L31.888 35.3403L30.16 35.1244L27.352 35.3403L25.408 35.1244L21.52 33.3966L20.656 33.1806H18.712L16.984 33.8285L15.688 34.6924L13.744 35.9883L12.448 36.8522H10.72L10.072 36.6362L3.37601 31.0208L1.21601 27.3492L1 24.5415V18.2782L1.43203 15.9024L1.86399 14.1746L2.08 14.8225L2.51203 15.6865L3.80797 14.3906L4.88797 12.8787L5.32 12.0148L10.072 9.85507L16.552 8.5592L37.504 6.83141L51.112 3.37576L64.072 2.29588L77.68 1V1.64797L75.952 4.67164L75.736 5.31954L76.168 6.18344L77.248 6.83141L78.328 8.34321L78.544 8.99118L80.488 12.6627L81.136 14.6066L83.296 16.5504L85.672 24.1096L86.104 24.7575L87.616 23.2457L88.048 22.3817L91.072 21.3018L94.096 19.574L94.744 19.358L96.04 19.79L96.688 19.574L99.064 19.358L101.224 19.1421H102.088L102.736 19.79L105.112 21.3018Z" fill="#FF6901" stroke="black" stroke-width="2" stroke-linecap="round" stroke-linejoin="round"/>
<path d="M123.777 116.425H121.571L127.95 99.0509H130.122L136.502 116.425H134.296L129.104 101.8H128.968L123.777 116.425ZM124.591 109.638H133.482V111.505H124.591V109.638ZM138.937 116.425V103.394H140.871V105.363H141.007C141.244 104.718 141.674 104.195 142.296 103.793C142.918 103.392 143.62 103.191 144.4 103.191C144.547 103.191 144.731 103.194 144.952 103.199C145.172 103.205 145.339 103.213 145.452 103.225V105.261C145.384 105.244 145.229 105.218 144.986 105.184C144.748 105.145 144.496 105.125 144.23 105.125C143.597 105.125 143.031 105.258 142.534 105.524C142.042 105.784 141.651 106.146 141.363 106.61C141.08 107.068 140.939 107.591 140.939 108.179V116.425H138.937ZM151.66 116.731C150.834 116.731 150.085 116.575 149.412 116.264C148.739 115.947 148.204 115.492 147.808 114.898C147.413 114.299 147.215 113.575 147.215 112.726C147.215 111.98 147.362 111.375 147.656 110.911C147.95 110.441 148.343 110.074 148.835 109.808C149.327 109.542 149.87 109.344 150.464 109.214C151.063 109.078 151.666 108.971 152.271 108.892C153.063 108.79 153.705 108.714 154.197 108.663C154.694 108.606 155.056 108.513 155.282 108.383C155.514 108.253 155.63 108.027 155.63 107.704V107.636C155.63 106.799 155.401 106.149 154.943 105.685C154.491 105.221 153.803 104.989 152.882 104.989C151.926 104.989 151.176 105.199 150.633 105.617C150.091 106.036 149.709 106.482 149.488 106.958L147.588 106.279C147.927 105.487 148.38 104.871 148.945 104.429C149.516 103.983 150.139 103.672 150.812 103.496C151.49 103.315 152.158 103.225 152.814 103.225C153.232 103.225 153.713 103.276 154.256 103.377C154.805 103.474 155.333 103.674 155.842 103.98C156.357 104.285 156.784 104.746 157.123 105.363C157.463 105.979 157.632 106.805 157.632 107.84V116.425H155.63V114.661H155.528C155.393 114.943 155.167 115.246 154.85 115.568C154.533 115.891 154.112 116.165 153.586 116.391C153.06 116.618 152.418 116.731 151.66 116.731ZM151.965 114.932C152.757 114.932 153.425 114.777 153.968 114.466C154.516 114.154 154.929 113.753 155.206 113.261C155.489 112.769 155.63 112.251 155.63 111.708V109.876C155.545 109.978 155.359 110.071 155.07 110.156C154.788 110.235 154.46 110.306 154.086 110.368C153.719 110.425 153.36 110.475 153.009 110.521C152.664 110.56 152.384 110.594 152.169 110.622C151.649 110.69 151.162 110.801 150.71 110.953C150.263 111.1 149.901 111.324 149.624 111.624C149.352 111.918 149.217 112.319 149.217 112.828C149.217 113.524 149.474 114.05 149.989 114.406C150.509 114.757 151.168 114.932 151.965 114.932ZM166.547 121.583C165.579 121.583 164.748 121.459 164.052 121.21C163.357 120.967 162.777 120.644 162.313 120.243C161.855 119.847 161.49 119.423 161.219 118.97L162.814 117.851C162.995 118.088 163.224 118.36 163.501 118.665C163.778 118.976 164.157 119.245 164.638 119.471C165.124 119.703 165.76 119.819 166.547 119.819C167.599 119.819 168.467 119.564 169.151 119.055C169.835 118.546 170.178 117.749 170.178 116.663V114.016H170.008C169.861 114.253 169.652 114.548 169.38 114.898C169.114 115.243 168.73 115.551 168.226 115.823C167.729 116.089 167.056 116.222 166.207 116.222C165.155 116.222 164.211 115.973 163.374 115.475C162.542 114.977 161.883 114.253 161.397 113.303C160.916 112.353 160.676 111.199 160.676 109.842C160.676 108.507 160.911 107.345 161.38 106.355C161.849 105.36 162.503 104.591 163.34 104.048C164.177 103.499 165.144 103.225 166.241 103.225C167.09 103.225 167.763 103.366 168.26 103.649C168.764 103.926 169.148 104.243 169.414 104.599C169.685 104.95 169.895 105.238 170.042 105.464H170.245V103.394H172.18V116.799C172.18 117.918 171.925 118.829 171.416 119.53C170.913 120.237 170.234 120.755 169.38 121.083C168.532 121.416 167.587 121.583 166.547 121.583ZM166.479 114.423C167.282 114.423 167.96 114.239 168.515 113.872C169.069 113.504 169.49 112.975 169.779 112.285C170.067 111.595 170.211 110.77 170.211 109.808C170.211 108.869 170.07 108.041 169.787 107.322C169.505 106.604 169.086 106.041 168.532 105.634C167.977 105.227 167.293 105.023 166.479 105.023C165.63 105.023 164.923 105.238 164.358 105.668C163.798 106.098 163.377 106.675 163.094 107.399C162.817 108.123 162.678 108.926 162.678 109.808C162.678 110.713 162.819 111.513 163.102 112.209C163.391 112.899 163.815 113.442 164.375 113.838C164.94 114.228 165.642 114.423 166.479 114.423ZM184.057 111.098V103.394H186.059V116.425H184.057V114.22H183.921C183.616 114.881 183.14 115.444 182.496 115.908C181.851 116.366 181.037 116.595 180.052 116.595C179.238 116.595 178.514 116.417 177.881 116.06C177.247 115.699 176.749 115.156 176.388 114.432C176.026 113.702 175.845 112.783 175.845 111.674V103.394H177.847V111.539C177.847 112.489 178.113 113.247 178.644 113.812C179.181 114.378 179.866 114.661 180.697 114.661C181.195 114.661 181.701 114.533 182.216 114.279C182.736 114.024 183.172 113.634 183.522 113.108C183.879 112.582 184.057 111.912 184.057 111.098ZM193.56 116.731C192.735 116.731 191.985 116.575 191.312 116.264C190.639 115.947 190.105 115.492 189.709 114.898C189.313 114.299 189.115 113.575 189.115 112.726C189.115 111.98 189.262 111.375 189.556 110.911C189.85 110.441 190.243 110.074 190.735 109.808C191.227 109.542 191.77 109.344 192.364 109.214C192.964 109.078 193.566 108.971 194.171 108.892C194.963 108.79 195.605 108.714 196.097 108.663C196.595 108.606 196.957 108.513 197.183 108.383C197.415 108.253 197.531 108.027 197.531 107.704V107.636C197.531 106.799 197.302 106.149 196.844 105.685C196.391 105.221 195.704 104.989 194.782 104.989C193.826 104.989 193.077 105.199 192.534 105.617C191.991 106.036 191.609 106.482 191.389 106.958L189.488 106.279C189.828 105.487 190.28 104.871 190.846 104.429C191.417 103.983 192.039 103.672 192.712 103.496C193.391 103.315 194.058 103.225 194.714 103.225C195.133 103.225 195.613 103.276 196.156 103.377C196.705 103.474 197.234 103.674 197.743 103.98C198.258 104.285 198.685 104.746 199.024 105.363C199.363 105.979 199.533 106.805 199.533 107.84V116.425H197.531V114.661H197.429C197.293 114.943 197.067 115.246 196.75 115.568C196.434 115.891 196.012 116.165 195.486 116.391C194.96 116.618 194.318 116.731 193.56 116.731ZM193.866 114.932C194.658 114.932 195.325 114.777 195.868 114.466C196.417 114.154 196.829 113.753 197.107 113.261C197.389 112.769 197.531 112.251 197.531 111.708V109.876C197.446 109.978 197.259 110.071 196.971 110.156C196.688 110.235 196.36 110.306 195.987 110.368C195.619 110.425 195.26 110.475 194.909 110.521C194.564 110.56 194.284 110.594 194.069 110.622C193.549 110.69 193.063 110.801 192.61 110.953C192.163 111.1 191.802 111.324 191.524 111.624C191.253 111.918 191.117 112.319 191.117 112.828C191.117 113.524 191.375 114.05 191.889 114.406C192.41 114.757 193.068 114.932 193.866 114.932Z" fill="black"/>
<path d="M167.487 136.68C166.403 136.68 165.473 136.291 164.696 135.515C163.92 134.738 163.531 133.808 163.531 132.723C163.531 131.639 163.92 130.709 164.696 129.932C165.473 129.156 166.403 128.767 167.487 128.767C168.572 128.767 169.502 129.156 170.279 129.932C171.055 130.709 171.443 131.639 171.443 132.723C171.443 133.441 171.26 134.101 170.894 134.702C170.542 135.302 170.066 135.786 169.465 136.152C168.879 136.504 168.22 136.68 167.487 136.68Z" fill="black"/>
</svg>
