<svg width="690" height="281" viewBox="0 0 690 281" fill="none" xmlns="http://www.w3.org/2000/svg">
<path d="M265.384 3.37576L266.896 5.96751L287.848 22.1657L291.736 27.5652L293.68 29.2931L309.016 38.5801L323.056 44.6274L323.92 45.0594L326.728 45.2753L330.616 44.8433L334.288 45.9232L337.744 48.515L341.2 49.1629L343.144 48.731L344.44 47.8671L348.112 44.6274L350.056 43.1155L351.352 41.8197L352.432 41.1718L354.16 40.5238L355.024 41.1718L357.4 45.4914L361.936 47.6511L367.768 52.4025L379 57.8019L382.024 58.6659L384.616 59.0979L389.8 59.3138L390.664 59.7458L392.392 60.3937L402.544 61.0416L405.568 61.4736L406.864 62.1215L407.728 62.7695L410.32 68.8169L412.048 71.6245L413.128 72.7044L421.552 79.8316L422.2 80.2636L425.224 85.0151L425.872 86.527L426.088 88.2548L425.872 90.1985L426.088 91.0625L426.52 92.3583L427.384 94.518L428.032 94.95L428.896 95.1661H432.568L434.08 95.5979L434.944 96.0299L435.16 96.6778L434.512 98.1897L433.432 99.2696L432.136 101.213L431.488 102.725L431.056 104.669L430.84 105.533L431.488 107.045L432.784 108.989L438.832 115.468L440.344 117.628L441.856 118.924L449.2 122.595L455.248 126.915L456.112 127.779L457.84 130.586L461.296 135.554L462.376 136.418L463.24 137.066L470.584 140.953L471.664 141.817L472.096 142.681L472.744 144.625L473.176 145.921L474.472 147.001L476.416 147.432L478.36 147.217L479.224 147.001L480.52 146.137L481.6 145.057L482.248 142.033L482.032 140.305L480.52 134.474L480.304 133.178L482.68 123.891L486.136 114.388L486.784 113.092L487.648 112.228L495.64 106.829L504.064 102.293L507.952 97.5418L516.16 85.2311L518.104 79.3997L519.4 74.0002L519.832 71.1925L520.696 68.3849L520.912 65.5772V63.4174L532.144 67.0891H534.304L539.92 66.873L542.08 67.305L543.592 68.1689L544.672 68.3849L546.184 68.1689L547.048 67.5209L548.344 66.6571L548.992 66.2251H550.504L552.448 66.441L556.336 67.9529L560.008 68.8169L563.464 68.1689H565.408L574.048 69.0328H575.992L577.288 68.8169L578.8 68.1689L581.392 67.5209H582.472H585.712L588.736 68.3849L597.16 71.8405L598.024 72.0565L600.4 72.2724L601.912 72.9203L602.992 73.7843L603.64 75.2962L603.856 76.592L604.936 78.3198L606.016 78.9678L611.2 84.3672L611.848 85.879L612.496 86.7429L615.952 89.1186L616.384 89.9826L615.52 92.1424L615.088 93.2222L615.736 93.8701H616.816L617.68 94.3021L618.328 94.95L618.544 95.382L618.76 97.1098L619.624 98.8376L620.704 100.566L621.784 101.429L623.08 101.645L625.24 100.566H626.104L626.536 101.213L626.968 103.157L627.4 103.805L629.776 105.533L630.424 105.965H631.72L633.88 104.885H634.744L635.608 106.397L635.176 108.125L634.096 110.284L633.664 112.66H634.744L635.824 111.58L637.552 112.66V113.092L638.632 113.956L639.928 114.604L640.36 114.82L640.576 115.9L640.36 118.492L640.792 119.139H642.52L643.384 119.355L644.032 120.003L644.68 121.299L645.544 119.139L645.76 118.06H646.84L647.488 119.139L647.92 120.651L648.136 126.483L648.784 126.915H649.864H657.208L658.288 127.347L660.664 129.722L661.528 130.154L663.04 131.666L664.984 138.577L665.848 140.089L667.792 141.169L669.736 143.545L671.464 146.785L671.896 150.024L673.84 149.592L675.568 150.24L677.296 151.536L679.456 152.184L678.808 153.696L678.592 154.776L678.808 155.64L679.456 156.503V157.583L676 156.72L676.216 157.799L679.456 161.039L681.184 166.222L682.912 167.734L685.936 166.439L688.744 168.382L688.312 169.894L686.152 171.19L684.208 172.054L683.992 171.406L680.536 168.598L676.864 167.518L676.216 167.302L675.136 165.79L674.488 165.359L673.624 165.575L670.816 166.439L667.576 165.575L664.336 164.279L656.344 162.551L641.008 161.903L633.664 159.743L630.208 161.039L626.752 159.743L623.08 157.799L619.192 156.503L603.208 157.583L600.184 158.663L594.568 161.471L589.6 162.551L588.088 163.847L586.576 165.143L584.848 166.439L583.336 166.87L580.312 167.302L579.232 167.518L574.696 170.758L571.24 172.27L569.512 171.406L568.216 170.11H564.76L560.872 170.758H557.632L553.96 168.382L553.096 167.95L552.448 166.654H550.504L547.264 167.518L544.24 168.598L538.624 173.782L534.952 175.294L530.848 174.862L524.8 171.622L521.128 170.758L511.192 170.326L508.6 170.758L500.608 175.941L498.232 178.101L496.072 178.965L481.168 180.909L471.016 179.613L465.184 176.373L464.32 176.157L462.592 176.373H461.944L461.728 175.726L461.944 173.782V172.918L459.784 170.11L458.92 168.598L458.488 167.086L457.84 165.359H456.112L453.736 166.439H447.688L447.04 166.87L445.528 168.166L444.448 168.598L443.8 168.166L442.072 166.87L441.208 166.439L435.16 164.279L434.296 163.415L432.784 159.527L431.92 158.663L428.68 157.799L423.064 154.128L419.392 153.264L400.6 155.424H394.336L386.776 153.696L383.104 153.912L379.648 156.072L361.504 173.134L336.664 190.412L333.856 191.276L329.536 191.708L327.592 192.356L322.192 194.947L320.464 196.243L318.304 195.163L316.144 195.595L313.768 196.891L311.392 198.619L306.856 202.723L304.48 204.235L302.536 204.882L294.76 204.235L292.168 204.882L285.04 209.634L282.88 210.282L280.504 211.794L277.912 215.033L275.752 218.921L274.672 221.945L273.16 224.752L269.272 227.128L265.384 228.64L262.576 229.072L261.496 228.64L258.904 227.344L257.392 226.912H255.664L252.856 227.776L251.344 227.992L248.536 228.856L246.808 231.016L243.352 242.894L240.328 248.51L235.792 253.477L230.176 256.501L226.936 256.933L223.696 257.149L221.32 257.797L220.24 260.389V262.764L220.024 263.844L219.376 264.492L218.08 265.356L217.864 264.924L217 264.492L215.704 264.276L214.84 264.06L213.76 266.436L209.872 270.108L207.28 272.267L204.472 272.915L202.96 272.699L201.88 272.483L200.584 272.267L198.424 272.915L197.56 273.995L194.968 277.451L194.104 278.531L188.488 279.61L181.144 279.178L173.8 277.667L167.968 275.291L165.592 276.803L158.248 279.178L155.44 279.61L152.416 278.531L149.392 276.803L146.584 275.507L143.992 276.371L138.592 271.403L132.328 267.732L125.848 264.924L119.152 263.196L115.048 263.844H112.456L110.728 261.684L109.216 261.252L105.544 260.82L102.952 259.093L99.496 255.421L96.04 252.829L93.016 254.341L87.184 252.613L81.568 251.965L69.472 252.181L63.424 251.317L60.616 251.533L57.16 253.045L56.08 253.909L55.648 254.773L54.784 255.205L52.84 255.421L50.896 254.989L47.872 253.477L46.144 253.045L44.632 253.477L40.96 254.989L39.016 255.421L37.072 253.477L35.776 253.045L35.344 254.773L34.048 256.285L30.592 256.501L23.896 255.421L21.952 254.773L20.44 253.261L17.848 250.022L16.552 248.942L7.04801 245.918L3.80801 245.486L1.864 246.35L1 243.974V242.246L1.43199 240.735L2.51199 240.303L4.24 239.871L8.344 239.439L10.72 239.655L12.448 239.223L13.744 238.575L15.256 238.143L25.624 237.711L29.512 237.927L36.208 240.087L47.872 241.599L54.784 243.326H55.864L61.264 243.11L62.992 243.326L64.72 243.758L74.656 247.214L78.328 247.646H80.92L82.432 247.43L83.728 246.782L84.808 246.134L85.024 245.054L84.592 244.406L83.512 243.758L79.408 243.326L77.248 242.678L75.52 241.599L71.848 238.791L71.2 237.279L70.336 236.199L68.176 234.903L67.528 233.391L66.448 231.663L63.208 229.504L61.912 228.424L60.184 226.696L58.456 225.616L57.592 224.752L58.672 218.921V215.897L61.048 215.033L62.128 214.601L62.992 213.09L63.424 211.146L62.128 206.178V202.291L67.312 197.107L89.56 181.125L93.664 178.749L95.176 177.669L97.336 175.941L101.008 170.758L102.52 169.246L108.784 165.575L121.096 154.56L126.064 147.648L127.792 141.817L131.032 136.634L131.896 135.554L132.976 133.826L133.624 132.098V130.154L133.408 128.858L131.896 125.619L131.248 122.163L130.6 120.651L129.736 119.355L128.44 118.276L126.928 117.628L126.064 117.196L125.2 115.9L124.12 112.66L123.688 110.932L123.256 109.205V104.885L123.472 103.805L124.336 102.509L128.224 99.0536L129.52 97.3259L129.952 95.382V92.7903L130.384 91.7104L131.248 90.6305L132.976 89.1186L136.864 86.527L137.728 85.4471L138.592 83.9352L140.104 80.6956L140.536 78.9678V77.6719L139.888 75.9441L139.456 74.2163L139.24 72.4885L140.32 70.3287L141.4 68.8169L142.264 67.9529L145.936 64.7132L147.232 64.2813L148.312 64.9293L149.824 65.1452L152.416 61.9056L159.112 52.6186L159.76 51.1067L161.272 48.9469L163 47.0031L166.672 44.6274L172.288 39.8759L174.88 39.4439L175.96 40.5238L176.608 42.0356L177.256 42.4676L177.904 42.6835L179.632 42.2517L180.928 40.9558L182.224 38.364L183.088 35.7724L183.736 34.2605L185.248 33.1806L186.76 32.7487L188.488 33.1806L189.784 32.9646L191.296 32.1008L193.888 30.5889L196.696 29.2931L199.936 28.645L202.528 27.7812L203.392 26.9172L204.256 25.6214L205.336 19.1421L206.2 16.7664L209.44 12.0148L211.168 10.0711L212.896 7.26339L215.488 4.88763L223.912 1.64797L226.504 1.21599L231.256 1.43198L239.032 2.29588L247.672 1.64797L251.344 1H252.64L254.152 1.43198L256.96 2.51187L260.416 3.37576H265.384Z" fill="#FF6901" stroke="black" stroke-width="2" stroke-linecap="round" stroke-linejoin="round"/>
<path d="M214.624 134.41V101.844H226.009C228.277 101.844 230.148 102.237 231.622 103.021C233.095 103.795 234.193 104.839 234.914 106.154C235.634 107.457 235.995 108.904 235.995 110.495C235.995 111.894 235.746 113.049 235.247 113.961C234.76 114.873 234.113 115.594 233.308 116.124C232.512 116.654 231.648 117.046 230.716 117.3V117.618C231.712 117.682 232.714 118.032 233.721 118.668C234.728 119.304 235.571 120.215 236.249 121.403C236.928 122.59 237.267 124.042 237.267 125.76C237.267 127.392 236.896 128.86 236.154 130.164C235.412 131.468 234.24 132.502 232.64 133.265C231.039 134.028 228.956 134.41 226.391 134.41H214.624ZM218.567 130.912H226.391C228.966 130.912 230.795 130.413 231.876 129.417C232.968 128.41 233.514 127.191 233.514 125.76C233.514 124.657 233.233 123.64 232.671 122.707C232.11 121.763 231.309 121.011 230.27 120.449C229.232 119.876 228.002 119.59 226.581 119.59H218.567V130.912ZM218.567 116.155H225.882C227.069 116.155 228.14 115.922 229.094 115.456C230.058 114.989 230.822 114.332 231.383 113.484C231.956 112.636 232.242 111.639 232.242 110.495C232.242 109.063 231.744 107.85 230.747 106.853C229.751 105.846 228.171 105.343 226.009 105.343H218.567V116.155ZM250.425 134.982C248.877 134.982 247.473 134.691 246.211 134.108C244.95 133.514 243.948 132.661 243.206 131.548C242.464 130.424 242.093 129.067 242.093 127.477C242.093 126.078 242.369 124.943 242.92 124.074C243.471 123.194 244.208 122.505 245.13 122.007C246.052 121.509 247.07 121.138 248.183 120.894C249.307 120.64 250.436 120.438 251.57 120.29C253.054 120.099 254.257 119.956 255.18 119.86C256.112 119.754 256.791 119.579 257.215 119.336C257.65 119.092 257.867 118.668 257.867 118.064V117.936C257.867 116.367 257.437 115.148 256.579 114.279C255.731 113.41 254.443 112.975 252.715 112.975C250.923 112.975 249.519 113.367 248.501 114.152C247.483 114.936 246.768 115.774 246.354 116.664L242.793 115.392C243.429 113.908 244.277 112.753 245.337 111.926C246.407 111.088 247.573 110.505 248.835 110.177C250.107 109.837 251.358 109.668 252.588 109.668C253.372 109.668 254.273 109.763 255.291 109.954C256.319 110.134 257.31 110.51 258.264 111.083C259.229 111.655 260.029 112.519 260.665 113.675C261.301 114.83 261.619 116.378 261.619 118.318V134.41H257.867V131.102H257.676C257.422 131.633 256.998 132.2 256.404 132.804C255.81 133.408 255.021 133.922 254.035 134.346C253.049 134.77 251.846 134.982 250.425 134.982ZM250.998 131.611C252.482 131.611 253.733 131.32 254.75 130.737C255.778 130.154 256.552 129.401 257.072 128.479C257.602 127.557 257.867 126.587 257.867 125.569V122.134C257.708 122.325 257.358 122.5 256.817 122.659C256.287 122.807 255.672 122.94 254.973 123.056C254.284 123.163 253.611 123.258 252.953 123.343C252.307 123.417 251.782 123.481 251.379 123.534C250.404 123.661 249.492 123.867 248.644 124.154C247.807 124.429 247.128 124.848 246.609 125.41C246.1 125.961 245.846 126.714 245.846 127.668C245.846 128.972 246.328 129.958 247.293 130.625C248.268 131.283 249.503 131.611 250.998 131.611ZM268.469 134.41V109.986H272.094V113.675H272.349C272.794 112.466 273.6 111.486 274.766 110.733C275.932 109.98 277.246 109.604 278.709 109.604C278.985 109.604 279.329 109.609 279.743 109.62C280.156 109.631 280.469 109.647 280.681 109.668V113.484C280.554 113.452 280.262 113.404 279.806 113.341C279.361 113.267 278.889 113.23 278.391 113.23C277.204 113.23 276.144 113.479 275.211 113.977C274.289 114.465 273.557 115.143 273.017 116.012C272.487 116.871 272.222 117.852 272.222 118.954V134.41H268.469ZM285.129 134.41V109.986H288.882V134.41H285.129ZM287.037 105.915C286.306 105.915 285.675 105.666 285.145 105.168C284.626 104.669 284.366 104.071 284.366 103.371C284.366 102.671 284.626 102.072 285.145 101.574C285.675 101.076 286.306 100.827 287.037 100.827C287.769 100.827 288.394 101.076 288.914 101.574C289.444 102.072 289.709 102.671 289.709 103.371C289.709 104.071 289.444 104.669 288.914 105.168C288.394 105.666 287.769 105.915 287.037 105.915ZM299.508 119.717V134.41H295.755V109.986H299.381V113.802H299.699C300.271 112.562 301.14 111.565 302.307 110.813C303.473 110.049 304.978 109.668 306.822 109.668C308.476 109.668 309.923 110.007 311.163 110.685C312.404 111.353 313.368 112.371 314.057 113.738C314.747 115.095 315.091 116.813 315.091 118.89V134.41H311.338V119.145C311.338 117.226 310.84 115.731 309.844 114.661C308.847 113.579 307.48 113.039 305.741 113.039C304.543 113.039 303.473 113.298 302.529 113.818C301.596 114.337 300.86 115.095 300.319 116.092C299.778 117.088 299.508 118.297 299.508 119.717ZM329.136 134.982C327.588 134.982 326.183 134.691 324.922 134.108C323.66 133.514 322.659 132.661 321.917 131.548C321.175 130.424 320.804 129.067 320.804 127.477C320.804 126.078 321.079 124.943 321.63 124.074C322.182 123.194 322.918 122.505 323.841 122.007C324.763 121.509 325.781 121.138 326.894 120.894C328.017 120.64 329.146 120.438 330.281 120.29C331.765 120.099 332.968 119.956 333.89 119.86C334.823 119.754 335.502 119.579 335.926 119.336C336.36 119.092 336.577 118.668 336.577 118.064V117.936C336.577 116.367 336.148 115.148 335.289 114.279C334.441 113.41 333.153 112.975 331.426 112.975C329.634 112.975 328.229 113.367 327.212 114.152C326.194 114.936 325.478 115.774 325.065 116.664L321.503 115.392C322.139 113.908 322.987 112.753 324.047 111.926C325.118 111.088 326.284 110.505 327.546 110.177C328.818 109.837 330.069 109.668 331.298 109.668C332.083 109.668 332.984 109.763 334.002 109.954C335.03 110.134 336.021 110.51 336.975 111.083C337.94 111.655 338.74 112.519 339.376 113.675C340.012 114.83 340.33 116.378 340.33 118.318V134.41H336.577V131.102H336.387C336.132 131.633 335.708 132.2 335.115 132.804C334.521 133.408 333.731 133.922 332.745 134.346C331.759 134.77 330.556 134.982 329.136 134.982ZM329.708 131.611C331.192 131.611 332.443 131.32 333.461 130.737C334.489 130.154 335.263 129.401 335.782 128.479C336.312 127.557 336.577 126.587 336.577 125.569V122.134C336.418 122.325 336.069 122.5 335.528 122.659C334.998 122.807 334.383 122.94 333.683 123.056C332.994 123.163 332.321 123.258 331.664 123.343C331.017 123.417 330.493 123.481 330.09 123.534C329.115 123.661 328.203 123.867 327.355 124.154C326.517 124.429 325.839 124.848 325.319 125.41C324.811 125.961 324.556 126.714 324.556 127.668C324.556 128.972 325.039 129.958 326.003 130.625C326.978 131.283 328.213 131.611 329.708 131.611ZM364.48 115.456L361.109 116.41C360.897 115.848 360.584 115.302 360.171 114.772C359.768 114.231 359.217 113.786 358.517 113.436C357.817 113.086 356.922 112.912 355.83 112.912C354.335 112.912 353.089 113.256 352.093 113.945C351.107 114.624 350.614 115.488 350.614 116.537C350.614 117.47 350.953 118.207 351.632 118.747C352.31 119.288 353.37 119.738 354.812 120.099L358.438 120.989C360.621 121.519 362.249 122.33 363.319 123.422C364.39 124.503 364.925 125.897 364.925 127.604C364.925 129.004 364.522 130.254 363.717 131.357C362.922 132.459 361.809 133.329 360.378 133.965C358.946 134.601 357.282 134.919 355.385 134.919C352.893 134.919 350.832 134.378 349.199 133.297C347.566 132.216 346.533 130.636 346.098 128.558L349.66 127.668C349.999 128.982 350.641 129.968 351.584 130.625C352.538 131.283 353.784 131.611 355.321 131.611C357.07 131.611 358.459 131.24 359.487 130.498C360.526 129.746 361.045 128.845 361.045 127.795C361.045 126.947 360.749 126.237 360.155 125.664C359.561 125.081 358.65 124.647 357.42 124.36L353.349 123.406C351.112 122.876 349.469 122.055 348.42 120.942C347.381 119.818 346.862 118.413 346.862 116.728C346.862 115.35 347.248 114.131 348.022 113.071C348.807 112.01 349.872 111.178 351.218 110.574C352.575 109.97 354.112 109.668 355.83 109.668C358.247 109.668 360.144 110.198 361.522 111.258C362.911 112.318 363.897 113.717 364.48 115.456Z" fill="black"/>
<path d="M294.208 156.762C293.123 156.762 292.193 156.373 291.416 155.597C290.64 154.82 290.252 153.89 290.252 152.806C290.252 151.721 290.64 150.791 291.416 150.014C292.193 149.238 293.123 148.849 294.208 148.849C295.292 148.849 296.222 149.238 296.999 150.014C297.775 150.791 298.164 151.721 298.164 152.806C298.164 153.523 297.981 154.183 297.614 154.784C297.263 155.384 296.786 155.868 296.186 156.234C295.6 156.586 294.94 156.762 294.208 156.762Z" fill="black"/>
</svg>
