<svg width="1144" height="783" viewBox="0 0 1144 783" fill="none" xmlns="http://www.w3.org/2000/svg">
<path d="M1142.34 85.663L1141.91 86.095L1134.14 91.4944L1130.68 94.5182L1129.38 98.4057L1125.5 101.213L1118.58 101.861L1104.98 101.645L1101.52 102.941L1099.36 104.885L1096.12 110.932L1092.66 115.252L1091.8 116.764L1091.58 118.06L1092.23 121.083V122.811L1089.64 127.131L1090.07 129.506L1089.42 131.666L1088.13 132.746L1085.75 132.314L1084.67 133.178L1083.16 135.338L1080.78 139.441L1078.41 142.465L1071.28 144.841L1068.9 148.944L1069.12 151.536L1069.98 153.696L1073.66 160.607L1075.82 161.255L1077.98 161.903L1080.14 163.415L1080.78 164.495V165.359L1080.57 167.734L1081.22 169.462L1082.51 170.11L1084.02 170.758L1085.1 171.622L1086.18 173.566L1088.13 178.101L1089.42 180.261L1089.64 181.557V182.853L1089.42 184.149L1088.56 185.229L1084.67 188.684L1082.73 193.004L1082.94 197.755L1085.1 202.507L1086.83 204.235L1098.06 213.09H1100.01L1103.46 206.61L1106.06 204.235L1109.51 202.939H1113.62L1115.56 203.803L1117.29 204.882L1119.02 205.746H1121.18L1123.77 205.314L1125.93 205.53L1127.87 206.61L1129.82 208.77L1135.22 212.01L1137.38 213.737L1138.67 216.329V218.921L1138.02 221.945L1136.73 224.536L1135.22 226.696L1133.06 228.64L1130.25 230.368L1127.87 232.312L1126.58 235.119L1125.06 242.894L1122.47 241.383L1118.15 242.462L1097.85 254.989L1086.4 257.797L1083.38 259.093L1080.78 261.252L1076.25 267.732L1073.87 270.323L1070.42 271.619L1068.04 270.755L1062.21 267.084L1058.97 266.22L1057.02 266.436L1053.57 267.3H1052.06L1050.11 266.868L1048.6 265.788L1047.52 264.708L1046.44 263.844L1042.98 262.98L1040.82 262.764L1039.96 263.412L1040.39 265.14L1041.9 267.3L1042.12 268.812V270.108L1041.9 270.755L1037.58 275.507L1036.72 276.155L1033.48 276.587L1026.14 275.723L1023.33 277.883L1019.87 276.803L1016.42 276.371L1015.12 279.179L1012.1 278.315L1008.64 278.099L1005.62 278.531L1004.1 280.474L999.136 286.306L995.896 291.921L993.736 297.753L992.44 303.368L992.872 306.608L994.384 308.119L996.544 309.415L999.136 311.575L1000.22 314.167L1001.73 318.918L1003.46 321.294L1004.1 322.59V323.886V325.182L1003.89 326.477L1002.38 328.421L1001.51 330.581L1000.65 338.356L1000.86 340.084L1002.16 344.62L1002.81 346.131L1005.62 347.859L1006.48 348.939L1006.91 350.019L1007.99 350.883L1008.21 352.395L1007.56 358.442L1007.34 360.602L1006.91 363.194L1005.18 363.626L1002.81 363.41L1000.65 363.841L998.488 365.569L996.76 369.673L995.248 371.833L993.304 372.913L990.712 373.777L985.528 374.856L983.368 375.936L982.072 378.096L979.912 383.279L972.568 395.158L970.192 397.102L964.792 399.91L963.28 401.637L965.872 408.117L983.152 427.123L995.032 440.513L1031.1 480.469L1055.3 507.25L1067.61 520.425L1072.14 521.073L1076.25 522.585L1079.49 525.392L1089.86 553.253L1090.94 560.597L1087.7 568.588L1076.9 581.762L1070.85 586.946L1063.72 591.697L1048.38 598.393L1047.09 598.609H1044.06L1042.77 599.041L1041.47 600.552L1037.15 610.487L1035.64 617.399L1034.56 620.638L1029.81 626.686L1024.41 629.493L1011.02 631.221L1002.16 633.597L999.352 633.813L996.76 633.381L991.144 630.573L988.336 629.925L979.048 628.629L976.024 629.061L974.944 631.005L979.264 637.269L979.696 640.724L977.32 642.884L973.216 644.396L969.112 645.26L965.656 645.476L956.584 644.828L953.344 645.26L946.432 648.067L944.272 652.387L943.192 664.482L942.544 666.425L941.464 668.369L940.168 670.097L938.44 671.393L936.064 672.473L934.552 672.257L933.256 671.609L931.096 671.393L929.368 671.825L926.344 673.121L924.4 673.553L923.104 673.337L918.136 671.825L912.088 671.393L909.064 671.825L906.04 672.689L902.368 674.848L894.16 683.92L891.784 685.647L888.544 686.943L885.088 688.023L882.064 688.671H878.392L875.368 687.807L872.344 686.511L868.888 685.431L861.76 686.511L849.664 695.366L842.968 697.526L836.92 696.878L806.464 684.352L799.336 682.84L793.936 684.136L793.288 685.215L792.856 687.807L791.992 689.103L790.696 689.751L785.728 690.831L782.056 692.127L780.544 693.855L780.328 696.446V699.686L778.384 705.949L773.848 707.029L760.888 705.085L751.816 705.949L749.224 706.597L745.768 708.757L745.12 711.133L745.552 714.156L745.768 717.612L744.688 721.5L743.176 724.739L742.096 727.979L742.744 732.298L743.608 734.026L744.472 735.106L745.12 736.186L745.552 740.29L748.36 746.553L749.872 753.032V759.728L748.36 765.991L744.904 772.038L742.528 775.062L741.016 776.142H739.072L736.912 775.926L735.4 776.574L732.16 779.381L728.92 781.109L726.112 781.973H723.304L719.632 781.541L716.392 780.461L712.504 778.302L709.048 775.926L706.888 773.334L704.728 769.662L687.88 749.793L677.944 742.881L668.656 730.139L663.256 724.523L652.672 718.476L646.408 716.532L641.008 716.964L637.336 721.716L636.256 727.763L634.096 733.162L627.616 735.106L620.704 731.866L609.688 722.363L601.912 720.636L598.888 720.852L590.248 723.011L586.144 723.443L583.12 722.579L576.64 719.988H569.728L563.032 723.227L556.768 727.547L550.288 731.003L543.808 730.787L539.704 726.035L537.328 719.556L534.52 708.109L532.576 702.71L529.984 697.958L526.528 694.502L522.424 692.343L511.624 689.319L491.968 687.807L456.112 692.991L453.304 691.911L451.144 688.671L448.768 681.544L446.824 678.952L447.904 676.36L449.848 666.209L450.28 659.514L450.064 658.002L448.984 653.899L446.608 632.949L445.096 625.606L443.8 623.014L442.288 621.07L441.856 620.422L439.912 619.126L438.4 618.479L432.568 617.399L418.312 616.751L401.68 613.079L400.168 612.431L377.488 584.57L375.544 580.251L374.032 577.443L372.952 575.067L367.552 566.428L361.72 552.605L355.672 529.712L353.944 527.12L352.432 525.392L350.056 523.233L349.192 522.153L346.168 516.537L345.52 514.594L345.304 512.866L345.736 511.138L346.384 509.626L347.464 508.546L348.76 507.682L350.272 507.034L352.216 506.602L361.72 507.034H362.584L365.824 505.738L367.768 504.659L369.496 502.931L369.928 502.283L370.576 501.203L371.224 499.475L372.304 496.019L372.52 494.292L372.304 492.996L371.872 492.348L370.792 491.268L363.232 485.437L362.584 484.789L361.936 483.493V482.413L362.152 481.765L363.232 480.685L367.336 478.093L368.2 477.229L368.848 475.718L369.712 472.478L369.928 470.75L369.712 469.454L369.496 468.806L368.632 467.51L368.2 466.863L354.808 456.928L352.648 454.768L350.92 452.176L349.84 449.8L348.976 446.993V445.481L349.192 444.401L349.624 443.753L353.944 439.433L355.024 437.922L355.456 436.626L355.888 434.034L355.672 432.738L355.456 431.658L354.808 431.01L353.512 430.146L352.648 429.931L348.76 429.067L321.544 428.851L317.872 429.499L316.144 430.146L314.416 431.658L310.96 435.978L305.56 441.161L303.4 442.457L301.672 442.889H299.728L298.648 442.673L297.352 442.025L295.624 440.513L294.976 439.65L294.328 438.57L290.44 428.419L290.008 426.691L289.576 416.324L290.008 413.732L291.304 408.117L292.384 405.741L293.68 403.797L294.544 402.286L295.84 394.51L296.488 392.998L296.92 390.623L297.784 388.247V386.519L298 384.791L298.648 382.848L298.864 380.256L298.648 377.664L298.432 376.152L298 375.072L297.352 373.777L296.272 372.481L293.464 370.537L292.384 370.105L290.44 369.457L286.336 369.673L280.72 370.321L270.136 370.537L268.408 370.753L266.68 371.185L259.768 375.504L258.904 376.8L258.256 378.528L257.176 380.688L254.584 387.167L239.032 413.732L238.168 415.028L237.52 416.54L236.872 420.428L236.008 422.803L234.496 424.747L233.2 425.611L227.8 427.771L226.072 428.203L213.544 427.339L211.816 427.555L210.304 428.203L208.36 429.499L205.984 431.658L204.04 432.954L201.232 434.466L197.128 435.978H195.184L193.456 435.546L191.944 434.25L189.136 429.499L188.704 427.987L185.248 412.004L184.816 410.709L183.952 409.197L181.792 406.605L180.28 405.525L178.984 405.093H178.12L177.472 405.525L158.248 421.507L147.232 432.522L145.936 433.386L144.424 434.034L136.864 436.842L131.68 437.922L125.416 440.297L121.96 441.161L104.248 441.593L102.52 441.809L93.448 444.833L91.936 445.481L80.92 451.744L77.896 453.04L77.032 453.256L74.44 453.904H73.36L70.768 453.688L69.688 453.256L68.824 452.824L67.744 451.744L66.88 450.448L66.448 448.721L65.368 443.537L64.72 441.809L63.208 440.081L61.264 438.786L59.968 438.138L58.672 437.922L54.784 438.138L51.328 439.002L48.736 439.865L47.656 440.081H46.36L43.768 439.865L42.472 439.433L41.824 438.786L40.96 437.274L40.744 435.546L40.528 433.602L41.392 427.771L49.816 407.253L50.248 405.525L50.464 403.581V397.102L49.816 393.646L49.6 391.487L47.224 381.12L46.576 379.608L45.28 377.016L44.2 375.936L43.336 375.288L42.472 375.072L41.392 374.856H39.448L34.48 375.504H32.32L29.728 375.072L27.568 374.424L25.6241 373.345L22.816 370.537L21.736 369.889L20.872 369.673L19.36 370.321L17.2 372.481L15.9041 373.56L15.04 373.777L13.96 373.992H12.448L10.5041 373.129L9.42405 372.049L8.99203 371.401L7.26405 367.513L5.96804 365.785L1 362.114L1.86405 361.466L4.45601 359.522L6.61601 355.85L7.91203 354.554L10.072 353.907H11.8L15.256 354.339L16.9841 354.123L20.008 352.395L22.168 349.587L26.272 341.38L27.568 336.844L28.648 335.117L29.728 334.253L32.968 333.173L34.48 332.525L38.152 329.069L39.448 327.989L46.36 324.534L49.168 322.374L51.544 319.782L52.624 316.975L52.408 315.247L50.464 312.007L49.816 310.279V308.551L53.056 291.057L56.944 280.906L59.752 277.451L62.776 275.075L65.584 272.267L66.88 267.948L66.664 261.684L65.8 258.445L63.64 256.933L64.936 253.477L66.88 250.238L67.96 246.998L67.528 243.542L66.448 241.599L64.072 238.143L62.992 236.415L60.4 229.504L59.104 222.593L61.696 218.057L74.224 208.122L80.92 207.258L84.376 205.962L85.888 204.882L88.696 202.075L90.424 200.779L92.152 200.131L95.608 199.051L97.552 198.403L105.976 191.708L109.648 190.412L115.696 189.764L117.64 189.116L118.936 188.252L121.096 185.876L122.176 185.012L125.2 183.717L131.68 182.853L134.704 181.557L137.728 178.749L147.448 164.711L148.096 162.983L148.96 159.959L149.608 158.663L150.472 157.367L154.576 154.128L155.656 152.832L158.248 147.648L160.408 144.625L162.352 140.305L164.296 137.282L167.104 134.69L173.368 130.586L177.688 129.29H179.848H181.792L190.216 131.018L194.752 131.234L197.992 130.37L204.472 126.267L211.384 123.675H219.16L234.712 125.835L238.6 125.619L241.84 124.323L258.688 111.796L266.032 101.429L269.056 98.4057L272.512 96.246L288.064 88.9027L296.056 87.3908L304.912 88.9027L315.928 94.3021L320.032 95.1661H324.352L334.504 93.8701L342.28 92.7903L346.816 93.0063L351.136 94.0862L360.424 97.5418L369.928 98.4057L374.464 99.4856L383.536 104.021L391.744 109.637L401.248 118.492L405.568 120.435L409.024 124.755L411.184 126.483L413.776 127.563L416.584 127.347L419.608 126.483L429.112 120.651L437.968 116.764L446.392 110.716L448.768 109.637L451.36 109.205L459.568 110.5H462.376L466.696 109.205L471.232 106.397L473.824 102.725L473.392 97.9738L470.152 94.7341L466.264 92.3584L463.024 89.5506L462.16 85.0151L463.672 77.4559L464.536 75.5121L466.696 73.5684L469.504 73.1364L478.36 74.4322L480.952 74.2163L493.912 71.4086L496.072 70.1127L497.368 68.3849L498.88 64.2814L500.176 62.3375L502.12 61.0417L504.928 59.9618L507.736 59.3138L510.112 59.7458L513.136 61.4736L523.288 71.1925L525.232 72.7044L526.96 73.3523L527.824 77.024L529.984 78.3199L532.792 78.1038L535.816 77.024L539.272 75.9441L542.728 76.3761L549.424 78.1038H552.88L554.392 77.8879L556.12 77.24L557.2 76.1601L559.144 73.7843L560.44 72.7044L562.384 71.8406L566.272 70.9766L568 70.1127L569.296 68.6009L570.16 66.6571L570.808 64.9293L575.344 55.2103L577.072 53.0506L579.664 51.9707L582.256 52.1866L584.848 53.2665L587.872 53.4825L590.464 52.8345L592.84 51.7546L597.376 48.9469L600.184 47.4351L602.56 47.2191L605.152 47.8671L607.96 48.731L611.2 49.163L621.568 48.515L630.64 49.5948L633.448 48.731L635.824 47.2191L637.552 45.4914L640.576 40.9558L642.52 38.796L645.112 37.2843L647.92 36.8523L656.128 38.5801L659.368 36.6362L665.416 29.509L669.088 27.1333L672.76 25.1895L680.968 22.5977L688.528 21.5178H696.52L712.288 23.2457L714.664 27.3492L718.768 29.509L723.304 30.1569L727.84 28.8611L733.24 25.8374L734.752 24.3256L735.832 22.8138L737.776 19.1421L739.072 17.6303L742.744 14.1747L745.12 12.6628L747.064 12.0149H749.224L752.896 12.6628L755.056 12.4469L756.784 12.0149L758.512 10.935L759.808 10.2871L772.552 1L788.104 7.69537L817.912 19.79L828.064 22.5977L925.264 26.9172L924.184 34.9084L923.968 39.6599L924.832 43.1155L929.368 53.9144L931.312 56.5061L932.392 57.586L934.768 59.5299L938.224 64.0653L963.712 92.5743L969.544 98.1897L971.92 99.9176L975.592 101.645H976.456L977.536 101.429L978.832 100.781L980.344 100.134L983.8 99.2696L986.824 99.0536L987.688 98.8377L990.496 97.3259L993.088 96.6779L994.384 95.814L996.544 93.6542L997.408 93.2222L1000 92.5743L1000.65 92.3584L1004.75 89.7667L1006.48 89.3347H1010.8L1012.53 89.1188L1015.77 88.0389L1016.42 87.6069L1017.71 86.7429L1020.95 83.5033L1022.25 82.4234L1023.98 81.9914L1028.08 81.5596H1030.89L1032.18 81.7755L1033.26 82.4234L1034.99 84.1512L1035.86 85.663L1058.54 111.796L1059.62 112.66L1061.13 112.444L1063.29 111.364L1068.69 106.829L1072.14 102.509L1072.79 102.077L1076.25 100.134L1089.64 90.6305L1091.15 89.7667L1093.74 89.3347L1094.61 88.9027L1095.9 88.2548L1097.85 86.7429L1099.36 86.3109L1142.34 85.663Z" fill="#FF6901" stroke="black" stroke-width="2" stroke-linecap="round" stroke-linejoin="round"/>
<path d="M534.376 327.972V295.406H545.761C548.029 295.406 549.9 295.798 551.374 296.583C552.847 297.357 553.945 298.401 554.665 299.715C555.386 301.019 555.747 302.466 555.747 304.056C555.747 305.456 555.498 306.611 554.999 307.523C554.512 308.435 553.865 309.155 553.059 309.685C552.264 310.216 551.4 310.608 550.468 310.862V311.18C551.464 311.244 552.466 311.594 553.473 312.23C554.48 312.866 555.323 313.777 556.001 314.965C556.68 316.152 557.019 317.604 557.019 319.322C557.019 320.954 556.648 322.422 555.906 323.726C555.164 325.03 553.992 326.064 552.392 326.827C550.791 327.59 548.708 327.972 546.142 327.972H534.376ZM538.319 324.474H546.142C548.718 324.474 550.547 323.975 551.628 322.979C552.72 321.972 553.266 320.753 553.266 319.322C553.266 318.219 552.985 317.201 552.423 316.269C551.862 315.325 551.061 314.572 550.022 314.011C548.983 313.438 547.754 313.152 546.333 313.152H538.319V324.474ZM538.319 309.717H545.634C546.821 309.717 547.892 309.484 548.846 309.018C549.81 308.551 550.574 307.894 551.135 307.046C551.708 306.198 551.994 305.201 551.994 304.056C551.994 302.625 551.496 301.412 550.499 300.415C549.503 299.408 547.923 298.905 545.761 298.905H538.319V309.717ZM572.912 328.481C570.707 328.481 568.772 327.956 567.108 326.906C565.454 325.857 564.161 324.389 563.228 322.502C562.306 320.615 561.845 318.41 561.845 315.887C561.845 313.343 562.306 311.122 563.228 309.224C564.161 307.327 565.454 305.853 567.108 304.804C568.772 303.754 570.707 303.23 572.912 303.23C575.117 303.23 577.046 303.754 578.7 304.804C580.364 305.853 581.658 307.327 582.58 309.224C583.513 311.122 583.979 313.343 583.979 315.887C583.979 318.41 583.513 320.615 582.58 322.502C581.658 324.389 580.364 325.857 578.7 326.906C577.046 327.956 575.117 328.481 572.912 328.481ZM572.912 325.11C574.587 325.11 575.965 324.68 577.046 323.822C578.128 322.963 578.928 321.834 579.447 320.435C579.967 319.035 580.227 317.519 580.227 315.887C580.227 314.254 579.967 312.733 579.447 311.323C578.928 309.913 578.128 308.774 577.046 307.905C575.965 307.035 574.587 306.601 572.912 306.601C571.237 306.601 569.859 307.035 568.778 307.905C567.696 308.774 566.896 309.913 566.377 311.323C565.857 312.733 565.598 314.254 565.598 315.887C565.598 317.519 565.857 319.035 566.377 320.435C566.896 321.834 567.696 322.963 568.778 323.822C569.859 324.68 571.237 325.11 572.912 325.11ZM593.46 295.406V327.972H589.708V295.406H593.46ZM600.334 327.972V303.548H604.086V327.972H600.334ZM600.524 300.24L604.404 292.862H608.793L603.832 300.24H600.524ZM630.931 303.548L621.899 327.972H618.083L609.051 303.548H613.122L619.864 323.011H620.119L626.861 303.548H630.931ZM642.328 328.544C640.781 328.544 639.376 328.253 638.115 327.67C636.853 327.076 635.851 326.223 635.109 325.11C634.367 323.986 633.996 322.629 633.996 321.039C633.996 319.64 634.272 318.505 634.823 317.636C635.374 316.756 636.111 316.067 637.033 315.569C637.956 315.071 638.973 314.7 640.086 314.456C641.21 314.201 642.339 314 643.473 313.852C644.957 313.661 646.161 313.518 647.083 313.422C648.016 313.316 648.694 313.141 649.118 312.898C649.553 312.654 649.77 312.23 649.77 311.625V311.498C649.77 309.929 649.341 308.71 648.482 307.841C647.634 306.972 646.346 306.537 644.618 306.537C642.827 306.537 641.422 306.929 640.404 307.714C639.387 308.498 638.671 309.336 638.258 310.226L634.696 308.954C635.332 307.47 636.18 306.314 637.24 305.488C638.311 304.65 639.477 304.067 640.738 303.738C642.01 303.399 643.261 303.23 644.491 303.23C645.275 303.23 646.177 303.325 647.194 303.516C648.223 303.696 649.214 304.072 650.168 304.645C651.132 305.217 651.933 306.081 652.569 307.237C653.205 308.392 653.523 309.94 653.523 311.88V327.972H649.77V324.664H649.579C649.325 325.194 648.901 325.762 648.307 326.366C647.714 326.97 646.924 327.484 645.938 327.908C644.952 328.332 643.749 328.544 642.328 328.544ZM642.901 325.173C644.385 325.173 645.636 324.882 646.654 324.299C647.682 323.716 648.456 322.963 648.975 322.041C649.505 321.118 649.77 320.148 649.77 319.131V315.696C649.611 315.887 649.261 316.062 648.721 316.221C648.191 316.369 647.576 316.502 646.876 316.618C646.187 316.724 645.514 316.82 644.857 316.905C644.21 316.979 643.685 317.042 643.283 317.095C642.307 317.223 641.396 317.429 640.548 317.716C639.71 317.991 639.032 318.41 638.512 318.972C638.003 319.523 637.749 320.276 637.749 321.23C637.749 322.534 638.231 323.519 639.196 324.187C640.171 324.845 641.406 325.173 642.901 325.173ZM660.372 327.972V303.548H663.998V307.237H664.252C664.697 306.028 665.503 305.048 666.669 304.295C667.835 303.542 669.15 303.166 670.613 303.166C670.888 303.166 671.233 303.171 671.646 303.182C672.06 303.193 672.372 303.208 672.584 303.23V307.046C672.457 307.014 672.166 306.966 671.71 306.903C671.265 306.829 670.793 306.791 670.295 306.791C669.107 306.791 668.047 307.041 667.114 307.539C666.192 308.026 665.461 308.705 664.92 309.574C664.39 310.433 664.125 311.413 664.125 312.516V327.972H660.372Z" fill="black"/>
<path d="M609.96 355.323C608.875 355.323 607.945 354.935 607.168 354.159C606.392 353.382 606.004 352.452 606.004 351.367C606.004 350.283 606.392 349.353 607.168 348.576C607.945 347.8 608.875 347.411 609.96 347.411C611.044 347.411 611.974 347.8 612.751 348.576C613.527 349.353 613.916 350.283 613.916 351.367C613.916 352.085 613.732 352.745 613.366 353.345C613.015 353.946 612.538 354.43 611.938 354.796C611.352 355.148 610.692 355.323 609.96 355.323Z" fill="black"/>
</svg>
