<svg width="145" height="128" viewBox="0 0 145 128" fill="none" xmlns="http://www.w3.org/2000/svg">
<path d="M88.912 22.5977L88.48 24.3255L88.048 26.7013V32.9646L88.264 35.7723L90.424 39.4439L97.12 45.0593L97.768 45.2753H99.4959L100.792 44.4114L102.736 43.1155L104.032 42.2516L105.76 41.6037H107.704L108.568 41.8197L112.456 43.5475L114.4 43.7634L117.208 43.5475L118.936 43.7634L120.232 44.6274L120.88 45.2753L122.824 47.6511L123.256 48.515V50.0268L122.824 52.6185L122.176 54.1304L121.744 55.2103L120.88 56.7221L120.664 57.586V59.0978L123.04 79.1837L122.824 81.3435L122.176 82.6393L120.88 84.1512L118.288 86.095L117.856 86.7429L117.64 87.8228L117.856 90.1985L117.424 93.0062L117.856 93.6542H118.936L121.96 91.7104L133.624 96.6778L135.136 96.8938L137.08 96.6778L139.24 97.9737L142.264 104.885L143.56 110.068L143.128 112.012L142.48 112.228L141.832 112.012L140.32 110.284L139.456 109.852H138.592L137.08 110.5L136.216 111.148L135.784 112.012L135.568 112.876L134.488 115.684L133.192 118.492L132.112 119.571L131.248 119.787L129.736 118.06L128.224 117.628L126.712 118.06L123.904 119.571L118.936 121.947L117.424 122.379H116.128L115.264 122.163L114.616 121.515L114.4 120.867L114.616 120.003L115.696 116.98V116.332L115.264 115.9L114.4 115.468L111.592 115.036L110.08 114.172L108.568 112.444L106.84 109.852L106.408 109.421L104.248 108.557L102.304 107.909H101.008L100.144 108.125L98.848 108.989L97.768 110.284L98.848 117.628L99.712 120.867L101.872 124.971L94.96 125.187L89.344 126.051L87.4 126.267L78.328 125.619L71.848 124.107L70.12 123.675L68.608 122.379L67.744 120.651L68.1759 118.923L69.904 117.196L70.3359 116.548V115.9L69.904 115.252L69.04 114.82L67.744 115.036L64.288 116.98L61.048 118.06L57.808 120.435L56.728 120.003L55.432 119.139L52.84 116.548L50.464 114.388L48.952 113.74L47.44 112.66L45.928 111.148L45.28 110.5L33.832 102.941L31.888 101.429L29.944 99.0536L28.648 97.1098L28.2159 95.8139L28 94.734V93.4382L29.512 91.0625L35.56 86.9588L33.4 83.7192L32.5359 82.2074L31.4559 77.8879L31.024 77.2399L30.592 76.592L29.944 76.16L28.432 76.808L27.352 78.1038L23.032 83.7192L20.224 85.663L17.848 90.1985L16.12 94.95L14.392 96.4619L9.42399 98.6217L6.18399 95.8139L5.32 94.0861L4.67196 90.4145L4.24 88.2547L3.59196 86.9588L2.72797 86.095L2.29595 85.0151V84.1512L2.72797 81.1275L1 69.0328L1.21595 67.5209L1.64797 66.657L7.26399 59.0978L9.42399 56.7221L10.72 54.9943L5.75196 39.228L6.4 17.4143L7.04797 14.6065L8.34399 11.3669L9.42399 9.42309L10.72 8.34321L12.232 7.6953H13.96L14.824 8.12722L17.632 9.63908L18.28 9.85507H19.144L21.952 8.34321L23.464 6.83141L27.784 1H28.2159L29.728 3.59175L34.912 10.287L40.96 15.6864L47.6559 18.2782L67.312 18.0622L70.12 18.7101L73.792 20.4379L77.464 21.7338L80.272 21.0858L82.432 20.006L85.24 19.3581L87.184 19.574L88.264 20.006L88.912 21.3018V22.5977Z" fill="#FF6901" stroke="black" stroke-width="2" stroke-linecap="round" stroke-linejoin="round"/>
<path d="M27.0927 58.8061H24.9888C24.8644 58.2009 24.6466 57.6693 24.3355 57.2112C24.0301 56.753 23.6569 56.3685 23.2157 56.0574C22.7802 55.7407 22.2967 55.5031 21.765 55.3448C21.2334 55.1864 20.6791 55.1072 20.1022 55.1072C19.0503 55.1072 18.0973 55.373 17.2433 55.9047C16.3949 56.4363 15.719 57.2196 15.2157 58.2546C14.718 59.2896 14.4691 60.5594 14.4691 62.0638C14.4691 63.5682 14.718 64.8379 15.2157 65.8729C15.719 66.9079 16.3949 67.6912 17.2433 68.2229C18.0973 68.7545 19.0503 69.0203 20.1022 69.0203C20.6791 69.0203 21.2334 68.9411 21.765 68.7828C22.2967 68.6244 22.7802 68.3897 23.2157 68.0786C23.6569 67.7619 24.0301 67.3745 24.3355 66.9164C24.6466 66.4526 24.8644 65.921 24.9888 65.3215H27.0927C26.9344 66.2094 26.6459 67.0041 26.2274 67.7054C25.8089 68.4067 25.2885 69.0034 24.6664 69.4954C24.0443 69.9818 23.3458 70.3522 22.571 70.6068C21.8018 70.8613 20.9789 70.9885 20.1022 70.9885C18.6204 70.9885 17.3026 70.6266 16.1489 69.9026C14.9951 69.1787 14.0874 68.1493 13.4256 66.8146C12.7639 65.4798 12.4331 63.8962 12.4331 62.0638C12.4331 60.2313 12.7639 58.6477 13.4256 57.313C14.0874 55.9782 14.9951 54.9489 16.1489 54.2249C17.3026 53.501 18.6204 53.139 20.1022 53.139C20.9789 53.139 21.8018 53.2663 22.571 53.5208C23.3458 53.7753 24.0443 54.1486 24.6664 54.6406C25.2885 55.127 25.8089 55.7209 26.2274 56.4222C26.6459 57.1178 26.9344 57.9125 27.0927 58.8061ZM34.0556 71.0564C33.2299 71.0564 32.4805 70.9009 31.8075 70.5898C31.1344 70.2731 30.6 69.8178 30.2041 69.2239C29.8082 68.6244 29.6102 67.9005 29.6102 67.0521C29.6102 66.3056 29.7573 65.7004 30.0514 65.2366C30.3455 64.7672 30.7385 64.3996 31.2306 64.1338C31.7226 63.868 32.2656 63.67 32.8594 63.5399C33.4589 63.4042 34.0613 63.2967 34.6664 63.2175C35.4582 63.1157 36.1002 63.0394 36.5922 62.9885C37.0899 62.9319 37.4519 62.8386 37.6781 62.7085C37.91 62.5784 38.0259 62.3522 38.0259 62.0298V61.962C38.0259 61.1249 37.7969 60.4745 37.3388 60.0107C36.8863 59.547 36.1991 59.3151 35.2773 59.3151C34.3214 59.3151 33.5721 59.5244 33.0291 59.9429C32.4862 60.3614 32.1044 60.8082 31.8838 61.2833L29.9835 60.6046C30.3228 59.8128 30.7753 59.1963 31.3409 58.7552C31.9121 58.3084 32.5342 57.9973 33.2073 57.822C33.8859 57.641 34.5533 57.5505 35.2094 57.5505C35.6279 57.5505 36.1087 57.6014 36.6516 57.7032C37.2002 57.7994 37.729 58.0001 38.238 58.3055C38.7527 58.611 39.1797 59.0719 39.5191 59.6884C39.8584 60.3048 40.0281 61.1306 40.0281 62.1656V70.751H38.0259V68.9864H37.9241C37.7884 69.2692 37.5622 69.5718 37.2455 69.8941C36.9287 70.2165 36.5074 70.4908 35.9814 70.717C35.4554 70.9433 34.8135 71.0564 34.0556 71.0564ZM34.361 69.2579C35.1528 69.2579 35.8202 69.1023 36.3632 68.7913C36.9118 68.4802 37.3246 68.0786 37.6018 67.5866C37.8845 67.0945 38.0259 66.577 38.0259 66.0341V64.2016C37.9411 64.3034 37.7545 64.3968 37.466 64.4816C37.1832 64.5608 36.8552 64.6315 36.4819 64.6937C36.1143 64.7502 35.7552 64.8011 35.4045 64.8464C35.0595 64.886 34.7796 64.9199 34.5646 64.9482C34.0443 65.0161 33.5579 65.1264 33.1055 65.2791C32.6587 65.4261 32.2967 65.6495 32.0196 65.9493C31.7481 66.2434 31.6123 66.6449 31.6123 67.1539C31.6123 67.8496 31.8697 68.3756 32.3844 68.7319C32.9047 69.0825 33.5636 69.2579 34.361 69.2579ZM43.6824 70.751V57.7202H45.6166V59.6884H45.7524C45.9899 59.0436 46.4198 58.5205 47.0419 58.1189C47.664 57.7173 48.3653 57.5166 49.1458 57.5166C49.2929 57.5166 49.4767 57.5194 49.6972 57.5251C49.9178 57.5307 50.0847 57.5392 50.1978 57.5505V59.5866C50.1299 59.5696 49.9744 59.5441 49.7312 59.5102C49.4936 59.4706 49.242 59.4508 48.9761 59.4508C48.3427 59.4508 47.7771 59.5837 47.2794 59.8496C46.7874 60.1097 46.3971 60.4717 46.1087 60.9355C45.8259 61.3936 45.6845 61.9167 45.6845 62.5049V70.751H43.6824ZM56.4057 71.0564C55.5799 71.0564 54.8305 70.9009 54.1575 70.5898C53.4845 70.2731 52.95 69.8178 52.5541 69.2239C52.1582 68.6244 51.9602 67.9005 51.9602 67.0521C51.9602 66.3056 52.1073 65.7004 52.4014 65.2366C52.6955 64.7672 53.0886 64.3996 53.5806 64.1338C54.0727 63.868 54.6156 63.67 55.2095 63.5399C55.809 63.4042 56.4113 63.2967 57.0165 63.2175C57.8083 63.1157 58.4502 63.0394 58.9422 62.9885C59.44 62.9319 59.8019 62.8386 60.0281 62.7085C60.26 62.5784 60.376 62.3522 60.376 62.0298V61.962C60.376 61.1249 60.1469 60.4745 59.6888 60.0107C59.2363 59.547 58.5492 59.3151 57.6273 59.3151C56.6715 59.3151 55.9221 59.5244 55.3791 59.9429C54.8362 60.3614 54.4544 60.8082 54.2339 61.2833L52.3335 60.6046C52.6729 59.8128 53.1253 59.1963 53.6909 58.7552C54.2621 58.3084 54.8843 57.9973 55.5573 57.822C56.236 57.641 56.9034 57.5505 57.5594 57.5505C57.9779 57.5505 58.4587 57.6014 59.0016 57.7032C59.5502 57.7994 60.079 58.0001 60.5881 58.3055C61.1027 58.611 61.5297 59.0719 61.8691 59.6884C62.2084 60.3048 62.3781 61.1306 62.3781 62.1656V70.751H60.376V68.9864H60.2742C60.1384 69.2692 59.9122 69.5718 59.5955 69.8941C59.2788 70.2165 58.8574 70.4908 58.3314 70.717C57.8054 70.9433 57.1635 71.0564 56.4057 71.0564ZM56.7111 69.2579C57.5029 69.2579 58.1702 69.1023 58.7132 68.7913C59.2618 68.4802 59.6747 68.0786 59.9518 67.5866C60.2346 67.0945 60.376 66.577 60.376 66.0341V64.2016C60.2911 64.3034 60.1045 64.3968 59.8161 64.4816C59.5333 64.5608 59.2052 64.6315 58.832 64.6937C58.4643 64.7502 58.1052 64.8011 57.7545 64.8464C57.4095 64.886 57.1296 64.9199 56.9147 64.9482C56.3943 65.0161 55.9079 65.1264 55.4555 65.2791C55.0087 65.4261 54.6467 65.6495 54.3696 65.9493C54.0981 66.2434 53.9624 66.6449 53.9624 67.1539C53.9624 67.8496 54.2197 68.3756 54.7344 68.7319C55.2547 69.0825 55.9136 69.2579 56.7111 69.2579ZM66.3039 70.751V53.3766H68.306V59.7902H68.4757C68.6227 59.5639 68.8263 59.2755 69.0865 58.9248C69.3523 58.5685 69.7313 58.2518 70.2233 57.9747C70.721 57.6919 71.394 57.5505 72.2424 57.5505C73.3396 57.5505 74.3067 57.8248 75.1438 58.3734C75.9808 58.922 76.6341 59.6997 77.1035 60.7064C77.5729 61.7131 77.8076 62.9008 77.8076 64.2695C77.8076 65.6495 77.5729 66.8457 77.1035 67.8581C76.6341 68.8648 75.9837 69.6453 75.1523 70.1995C74.3209 70.7481 73.3622 71.0225 72.2763 71.0225C71.4393 71.0225 70.7691 70.8839 70.2657 70.6068C69.7624 70.324 69.3749 70.0044 69.1035 69.6481C68.832 69.2861 68.6227 68.9864 68.4757 68.7488H68.2381V70.751H66.3039ZM68.2721 64.2356C68.2721 65.2197 68.4163 66.0878 68.7047 66.84C68.9932 67.5866 69.4145 68.172 69.9688 68.5961C70.5231 69.0147 71.2017 69.2239 72.0049 69.2239C72.8419 69.2239 73.5404 69.0034 74.1003 68.5622C74.6659 68.1154 75.0901 67.5159 75.3729 66.7637C75.6613 66.0058 75.8055 65.1631 75.8055 64.2356C75.8055 63.3193 75.6641 62.4936 75.3813 61.7584C75.1042 61.0175 74.6829 60.4321 74.1173 60.0023C73.5574 59.5668 72.8532 59.349 72.0049 59.349C71.1904 59.349 70.5061 59.5555 69.9518 59.9683C69.3976 60.3755 68.979 60.9468 68.6963 61.682C68.4135 62.4116 68.2721 63.2628 68.2721 64.2356ZM86.164 71.0225C84.9876 71.0225 83.9554 70.7425 83.0675 70.1826C82.1852 69.6227 81.4952 68.8393 80.9975 67.8326C80.5054 66.8259 80.2594 65.6495 80.2594 64.3034C80.2594 62.9461 80.5054 61.7612 80.9975 60.7488C81.4952 59.7364 82.1852 58.9503 83.0675 58.3904C83.9554 57.8305 84.9876 57.5505 86.164 57.5505C87.3404 57.5505 88.3697 57.8305 89.252 58.3904C90.14 58.9503 90.83 59.7364 91.322 60.7488C91.8197 61.7612 92.0686 62.9461 92.0686 64.3034C92.0686 65.6495 91.8197 66.8259 91.322 67.8326C90.83 68.8393 90.14 69.6227 89.252 70.1826C88.3697 70.7425 87.3404 71.0225 86.164 71.0225ZM86.164 69.2239C87.0576 69.2239 87.7928 68.9949 88.3697 68.5368C88.9466 68.0786 89.3736 67.4763 89.6507 66.7298C89.9279 65.9832 90.0664 65.1744 90.0664 64.3034C90.0664 63.4325 89.9279 62.6209 89.6507 61.8687C89.3736 61.1164 88.9466 60.5084 88.3697 60.0447C87.7928 59.5809 87.0576 59.349 86.164 59.349C85.2704 59.349 84.5351 59.5809 83.9583 60.0447C83.3814 60.5084 82.9544 61.1164 82.6772 61.8687C82.4001 62.6209 82.2615 63.4325 82.2615 64.3034C82.2615 65.1744 82.4001 65.9832 82.6772 66.7298C82.9544 67.4763 83.3814 68.0786 83.9583 68.5368C84.5351 68.9949 85.2704 69.2239 86.164 69.2239ZM95.3963 70.751V53.3766H97.3984V59.7902H97.5681C97.7151 59.5639 97.9187 59.2755 98.1789 58.9248C98.4447 58.5685 98.8236 58.2518 99.3157 57.9747C99.8134 57.6919 100.486 57.5505 101.335 57.5505C102.432 57.5505 103.399 57.8248 104.236 58.3734C105.073 58.922 105.726 59.6997 106.196 60.7064C106.665 61.7131 106.9 62.9008 106.9 64.2695C106.9 65.6495 106.665 66.8457 106.196 67.8581C105.726 68.8648 105.076 69.6453 104.245 70.1995C103.413 70.7481 102.455 71.0225 101.369 71.0225C100.532 71.0225 99.8615 70.8839 99.3581 70.6068C98.8547 70.324 98.4673 70.0044 98.1958 69.6481C97.9244 69.2861 97.7151 68.9864 97.5681 68.7488H97.3305V70.751H95.3963ZM97.3645 64.2356C97.3645 65.2197 97.5087 66.0878 97.7971 66.84C98.0856 67.5866 98.5069 68.172 99.0612 68.5961C99.6154 69.0147 100.294 69.2239 101.097 69.2239C101.934 69.2239 102.633 69.0034 103.193 68.5622C103.758 68.1154 104.182 67.5159 104.465 66.7637C104.754 66.0058 104.898 65.1631 104.898 64.2356C104.898 63.3193 104.756 62.4936 104.474 61.7584C104.197 61.0175 103.775 60.4321 103.21 60.0023C102.65 59.5668 101.946 59.349 101.097 59.349C100.283 59.349 99.5985 59.5555 99.0442 59.9683C98.4899 60.3755 98.0714 60.9468 97.7886 61.682C97.5058 62.4116 97.3645 63.2628 97.3645 64.2356ZM115.256 71.0225C114.08 71.0225 113.048 70.7425 112.16 70.1826C111.278 69.6227 110.588 68.8393 110.09 67.8326C109.598 66.8259 109.352 65.6495 109.352 64.3034C109.352 62.9461 109.598 61.7612 110.09 60.7488C110.588 59.7364 111.278 58.9503 112.16 58.3904C113.048 57.8305 114.08 57.5505 115.256 57.5505C116.433 57.5505 117.462 57.8305 118.344 58.3904C119.232 58.9503 119.922 59.7364 120.414 60.7488C120.912 61.7612 121.161 62.9461 121.161 64.3034C121.161 65.6495 120.912 66.8259 120.414 67.8326C119.922 68.8393 119.232 69.6227 118.344 70.1826C117.462 70.7425 116.433 71.0225 115.256 71.0225ZM115.256 69.2239C116.15 69.2239 116.885 68.9949 117.462 68.5368C118.039 68.0786 118.466 67.4763 118.743 66.7298C119.02 65.9832 119.159 65.1744 119.159 64.3034C119.159 63.4325 119.02 62.6209 118.743 61.8687C118.466 61.1164 118.039 60.5084 117.462 60.0447C116.885 59.5809 116.15 59.349 115.256 59.349C114.363 59.349 113.628 59.5809 113.051 60.0447C112.474 60.5084 112.047 61.1164 111.77 61.8687C111.492 62.6209 111.354 63.4325 111.354 64.3034C111.354 65.1744 111.492 65.9832 111.77 66.7298C112.047 67.4763 112.474 68.0786 113.051 68.5368C113.628 68.9949 114.363 69.2239 115.256 69.2239Z" fill="black"/>
<path d="M74.5353 91.1026C73.451 91.1026 72.5206 90.7143 71.7441 89.9378C70.9675 89.1612 70.5792 88.2308 70.5792 87.1466C70.5792 86.0623 70.9675 85.1319 71.7441 84.3554C72.5206 83.5788 73.451 83.1906 74.5353 83.1906C75.6195 83.1906 76.5499 83.5788 77.3265 84.3554C78.103 85.1319 78.4913 86.0623 78.4913 87.1466C78.4913 87.8645 78.3082 88.5239 77.9419 89.1246C77.5902 89.7253 77.114 90.2089 76.5133 90.5752C75.9272 90.9268 75.2679 91.1026 74.5353 91.1026Z" fill="black"/>
</svg>
