<svg width="199" height="260" viewBox="0 0 199 260" fill="none" xmlns="http://www.w3.org/2000/svg">
<path d="M192.16 49.8108L191.944 54.3464L192.592 56.5061L193.024 57.154L196.912 68.6009L197.344 71.4085L197.128 72.9204L194.752 73.1364L193.456 74.0003L187.624 79.3997L186.328 80.2636L182.656 81.9914L180.712 82.4234L178.768 82.2074L176.608 80.9115H175.96L174.448 81.5595L172.072 83.7192L170.128 85.663L169.48 86.9589L169.048 88.0388L169.696 90.6305L168.832 91.9264L166.456 93.2222L165.592 93.8701L164.296 94.95V95.598L166.024 96.6779L166.672 99.2696L167.104 100.134L168.4 100.781L169.48 101.861L169.696 102.941L171.208 107.693L171.64 110.5V117.412L171.424 121.947L170.56 125.187L167.968 130.37L167.752 131.882V132.962L167.968 133.826L173.152 140.737L178.984 153.48L181.792 169.246L181.576 171.19L179.848 176.805L178.336 180.261L173.8 188.252L172.936 189.548L172.504 189.98L170.344 191.276L169.696 191.708L168.184 193.436L166.456 194.299L165.592 195.163L164.296 196.675L163.864 197.755L163.432 199.483L162.136 206.61L159.76 210.066L156.52 223.24L156.304 225.4L156.52 226.48L157.384 228.208L157.6 229.72L158.032 234.255L158.68 237.279V239.439L156.736 244.406L156.52 245.918L156.304 247.214L156.952 248.942L158.248 250.453L158.896 251.965L159.328 253.477L158.896 255.205L158.032 255.637L156.304 256.069L155.872 256.285L154.576 258.013L152.632 257.149L151.552 256.501L150.472 254.773L150.256 253.477L149.608 251.965L148.528 251.101L147.016 250.453L144.64 250.238L143.776 250.022L135.352 246.566L132.328 245.702H129.088H128.008L125.416 246.35L123.904 246.998L122.608 247.214H120.664L112.024 246.35H110.08L106.624 246.998L102.952 246.134L99.064 244.622L97.12 244.406H95.608L94.96 244.838L93.664 245.702L92.8 246.35L91.288 246.566L90.208 246.35L88.696 245.486L86.536 245.054L80.92 245.27H78.76L67.528 241.598L58.24 236.199L55.648 234.039L54.568 232.095L53.272 230.584L52.192 229.936L50.68 229.288L50.032 228.856L49.816 227.992L49.6 225.616L49.168 223.888L47.656 221.297L46.792 220.001L45.928 219.137L44.416 218.489L43.552 218.057L41.176 217.625L39.664 216.977L39.448 216.329L39.664 215.897L41.392 215.249L47.656 213.953L49.168 213.305L50.68 212.874L52.408 214.169L53.056 214.385L53.704 214.169L55.648 212.874L57.376 212.226L58.456 211.146L59.32 209.634L60.4 208.554L61.696 208.122L64.72 207.69L66.016 206.61V205.746L65.8 205.098L64.504 204.234L62.992 203.371L61.264 202.939L60.4 202.291L57.592 199.483L55.216 193.868L55 191.708L55.216 190.196L55.864 187.604L58.456 177.885L62.128 154.128L62.56 150.672L62.344 146.785L61.48 143.761L58.888 140.305L56.512 138.145L53.488 135.986L50.032 133.826L44.632 130.154L39.448 125.619L35.992 122.379L34.264 120.651L31.672 118.276L28.216 115.468L24.328 114.388L21.52 113.524L20.008 112.228L17.632 104.021L15.688 102.941L14.824 100.997L14.176 98.1897L13.96 93.4382L12.664 90.8465L9.20804 84.7991L7.69601 78.7517L4.88804 73.3523L4.02399 69.6807L3.59203 68.6009L1.64804 66.6571L1 65.5772V64.0653L2.94399 59.0979L2.72804 56.9381V53.4825L3.37601 44.8434L18.064 45.9233L22.168 45.4913L22.816 45.0594L23.464 43.7635L23.896 42.6836L24.976 40.3078L27.568 37.5002L28 36.2043L28.432 34.4764L28.648 32.9646L29.296 30.1569L29.944 28.8611L30.808 28.2131L32.536 27.7812L39.448 27.1332H40.528L43.12 27.9971L46.144 27.3492H47.224L49.168 27.5652L50.248 27.3492L52.192 26.9172L53.488 26.2693L54.352 25.4054L55.216 23.6776L55.864 22.3818L57.376 20.6539L58.456 20.222L59.536 20.006L64.72 20.222L66.016 21.0859L66.448 21.7338V22.8137L65.584 25.1895L65.368 26.0534V27.9971L66.016 29.509L66.448 30.1569L67.528 31.4528L68.176 31.8848L69.904 32.5327L73.36 33.3966L74.656 34.2605V34.9084L74.44 35.3404L72.496 36.6362L72.28 37.2842L72.712 37.9321L74.44 38.5801H75.52H76.6L78.544 37.9321L81.136 36.4203L94.096 26.7013L99.712 23.4617L104.68 21.3019L106.408 19.79L108.136 15.0385L110.512 10.503L113.32 8.5592L117.64 2.94385L118.72 1.64797L120.232 1L120.88 1.43198L121.312 2.07989L121.744 2.72786L122.824 7.0474L123.688 8.5592L125.848 11.7989L119.8 15.9025L118.288 18.2782V19.574L118.504 20.6539L118.936 21.9498L120.232 23.8936L122.176 26.2693L124.12 27.7812L135.568 35.3404L136.216 35.9883L137.728 37.5002L139.24 38.5801L140.752 39.228L143.128 41.3877L145.72 43.9795L147.016 44.8434L148.096 45.2753L151.336 42.8996L154.576 41.8197L158.032 39.8759L159.328 39.6599L160.192 40.0919L160.624 40.7398V41.3877L160.192 42.0356L158.464 43.7635L158.032 45.4913L158.896 47.2191L160.408 48.515L162.136 48.9469L168.616 50.4588L177.688 51.1067L179.632 50.8907L185.248 50.0268L192.16 49.8108Z" fill="#FF6901" stroke="black" stroke-width="2" stroke-linecap="round" stroke-linejoin="round"/>
<path d="M38.4063 78.201H34.991C34.789 77.2186 34.4356 76.3556 33.9306 75.612C33.4349 74.8683 32.8289 74.244 32.1128 73.7391C31.4059 73.2249 30.6209 72.8393 29.7579 72.5823C28.8949 72.3252 27.9952 72.1967 27.0587 72.1967C25.3511 72.1967 23.8041 72.6282 22.4178 73.4912C21.0407 74.3542 19.9436 75.6257 19.1265 77.3058C18.3186 78.9859 17.9146 81.047 17.9146 83.4892C17.9146 85.9313 18.3186 87.9924 19.1265 89.6725C19.9436 91.3526 21.0407 92.6241 22.4178 93.4871C23.8041 94.3501 25.3511 94.7816 27.0587 94.7816C27.9952 94.7816 28.8949 94.6531 29.7579 94.396C30.6209 94.139 31.4059 93.758 32.1128 93.253C32.8289 92.7389 33.4349 92.11 33.9306 91.3663C34.4356 90.6135 34.789 89.7505 34.991 88.7773H38.4063C38.1492 90.2187 37.681 91.5086 37.0016 92.6471C36.3222 93.7855 35.4776 94.7541 34.4677 95.5528C33.4578 96.3424 32.324 96.9437 31.0662 97.3569C29.8176 97.77 28.4818 97.9766 27.0587 97.9766C24.6534 97.9766 22.5142 97.389 20.6413 96.2138C18.7684 95.0387 17.2949 93.3678 16.2207 91.2011C15.1466 89.0344 14.6095 86.4638 14.6095 83.4892C14.6095 80.5146 15.1466 77.9439 16.2207 75.7772C17.2949 73.6105 18.7684 71.9396 20.6413 70.7645C22.5142 69.5893 24.6534 69.0017 27.0587 69.0017C28.4818 69.0017 29.8176 69.2083 31.0662 69.6214C32.324 70.0346 33.4578 70.6405 34.4677 71.4393C35.4776 72.2288 36.3222 73.1928 37.0016 74.3312C37.681 75.4605 38.1492 76.7504 38.4063 78.201ZM52.0778 98.0317C50.1681 98.0317 48.4926 97.5772 47.0512 96.6683C45.619 95.7594 44.499 94.4878 43.691 92.8536C42.8923 91.2194 42.4929 89.3098 42.4929 87.1248C42.4929 84.9214 42.8923 82.998 43.691 81.3546C44.499 79.7112 45.619 78.4351 47.0512 77.5262C48.4926 76.6173 50.1681 76.1628 52.0778 76.1628C53.9874 76.1628 55.6583 76.6173 57.0905 77.5262C58.5319 78.4351 59.652 79.7112 60.4507 81.3546C61.2586 82.998 61.6626 84.9214 61.6626 87.1248C61.6626 89.3098 61.2586 91.2194 60.4507 92.8536C59.652 94.4878 58.5319 95.7594 57.0905 96.6683C55.6583 97.5772 53.9874 98.0317 52.0778 98.0317ZM52.0778 95.1121C53.5283 95.1121 54.7219 94.7403 55.6583 93.9967C56.5947 93.253 57.2879 92.2752 57.7378 91.0634C58.1876 89.8515 58.4126 88.5386 58.4126 87.1248C58.4126 85.7109 58.1876 84.3935 57.7378 83.1724C57.2879 81.9514 56.5947 80.9644 55.6583 80.2116C54.7219 79.4588 53.5283 79.0823 52.0778 79.0823C50.6272 79.0823 49.4337 79.4588 48.4972 80.2116C47.5608 80.9644 46.8676 81.9514 46.4178 83.1724C45.9679 84.3935 45.743 85.7109 45.743 87.1248C45.743 88.5386 45.9679 89.8515 46.4178 91.0634C46.8676 92.2752 47.5608 93.253 48.4972 93.9967C49.4337 94.7403 50.6272 95.1121 52.0778 95.1121ZM66.6237 76.4382H69.8737V99.1334C69.8737 100.437 69.6488 101.566 69.1989 102.521C68.7583 103.476 68.0881 104.215 67.1883 104.738C66.2978 105.262 65.1731 105.523 63.8144 105.523C63.7042 105.523 63.594 105.523 63.4838 105.523C63.3737 105.523 63.2635 105.523 63.1533 105.523V102.494C63.2635 102.494 63.3645 102.494 63.4563 102.494C63.5481 102.494 63.6491 102.494 63.7593 102.494C64.7508 102.494 65.4761 102.2 65.9351 101.612C66.3942 101.034 66.6237 100.208 66.6237 99.1334V76.4382ZM68.2212 72.9128C67.5877 72.9128 67.0414 72.697 66.5824 72.2655C66.1325 71.834 65.9076 71.3153 65.9076 70.7094C65.9076 70.1034 66.1325 69.5847 66.5824 69.1532C67.0414 68.7217 67.5877 68.506 68.2212 68.506C68.8547 68.506 69.3963 68.7217 69.8462 69.1532C70.3052 69.5847 70.5348 70.1034 70.5348 70.7094C70.5348 71.3153 70.3052 71.834 69.8462 72.2655C69.3963 72.697 68.8547 72.9128 68.2212 72.9128ZM84.6951 98.0317C82.6569 98.0317 80.8988 97.5818 79.4207 96.6821C77.9517 95.7732 76.8179 94.5062 76.0192 92.8812C75.2296 91.247 74.8348 89.3466 74.8348 87.1799C74.8348 85.0132 75.2296 83.1036 76.0192 81.451C76.8179 79.7893 77.9288 78.4948 79.3518 77.5675C80.784 76.631 82.455 76.1628 84.3646 76.1628C85.4663 76.1628 86.5542 76.3464 87.6284 76.7137C88.7026 77.0809 89.6803 77.6777 90.5617 78.5039C91.443 79.321 92.1454 80.4044 92.6687 81.754C93.192 83.1036 93.4537 84.7653 93.4537 86.7392V88.1163H77.1484V85.307H90.1485C90.1485 84.1135 89.9098 83.0485 89.4324 82.112C88.9642 81.1756 88.294 80.4365 87.4218 79.8948C86.5588 79.3532 85.5397 79.0823 84.3646 79.0823C83.0701 79.0823 81.95 79.4037 81.0044 80.0463C80.0679 80.6798 79.3472 81.5061 78.8423 82.5252C78.3373 83.5442 78.0849 84.6368 78.0849 85.8027V87.6756C78.0849 89.2731 78.3603 90.6273 78.9112 91.7382C79.4712 92.8399 80.247 93.6799 81.2385 94.2583C82.23 94.8275 83.3822 95.1121 84.6951 95.1121C85.5489 95.1121 86.3201 94.9928 87.0087 94.7541C87.7064 94.5062 88.3078 94.139 88.8127 93.6524C89.3177 93.1566 89.7079 92.5415 89.9833 91.807L93.1231 92.6884C92.7926 93.7534 92.2372 94.6898 91.4568 95.4977C90.6764 96.2965 89.7124 96.9208 88.5648 97.3706C87.4172 97.8113 86.1273 98.0317 84.6951 98.0317ZM106.385 98.0317C104.622 98.0317 103.066 97.5864 101.716 96.6958C100.367 95.7961 99.311 94.5292 98.549 92.895C97.787 91.2516 97.406 89.3098 97.406 87.0697C97.406 84.8479 97.787 82.9199 98.549 81.2857C99.311 79.6516 100.371 78.3892 101.73 77.4986C103.089 76.6081 104.659 76.1628 106.44 76.1628C107.817 76.1628 108.905 76.3923 109.704 76.8514C110.512 77.3012 111.127 77.8154 111.549 78.3938C111.981 78.963 112.316 79.4312 112.554 79.7984H112.83V69.3873H116.08V97.591H112.94V94.3409H112.554C112.316 94.7265 111.976 95.2131 111.535 95.8007C111.095 96.3791 110.466 96.8978 109.649 97.3569C108.832 97.8067 107.744 98.0317 106.385 98.0317ZM106.826 95.1121C108.129 95.1121 109.231 94.7724 110.131 94.0931C111.03 93.4045 111.714 92.4543 112.183 91.2424C112.651 90.0213 112.885 88.6121 112.885 87.0146C112.885 85.4355 112.655 84.0538 112.196 82.8694C111.737 81.6759 111.058 80.7487 110.158 80.0876C109.259 79.4174 108.148 79.0823 106.826 79.0823C105.448 79.0823 104.301 79.4358 103.383 80.1427C102.474 80.8405 101.79 81.7907 101.331 82.9934C100.881 84.1869 100.656 85.5273 100.656 87.0146C100.656 88.5203 100.886 89.8882 101.345 91.1185C101.813 92.3395 102.501 93.3127 103.41 94.038C104.328 94.7541 105.467 95.1121 106.826 95.1121ZM131.352 98.0317C129.314 98.0317 127.556 97.5818 126.078 96.6821C124.609 95.7732 123.475 94.5062 122.676 92.8812C121.887 91.247 121.492 89.3466 121.492 87.1799C121.492 85.0132 121.887 83.1036 122.676 81.451C123.475 79.7893 124.586 78.4948 126.009 77.5675C127.441 76.631 129.112 76.1628 131.022 76.1628C132.123 76.1628 133.211 76.3464 134.286 76.7137C135.36 77.0809 136.338 77.6777 137.219 78.5039C138.1 79.321 138.803 80.4044 139.326 81.754C139.849 83.1036 140.111 84.7653 140.111 86.7392V88.1163H123.806V85.307H136.806C136.806 84.1135 136.567 83.0485 136.09 82.112C135.621 81.1756 134.951 80.4365 134.079 79.8948C133.216 79.3532 132.197 79.0823 131.022 79.0823C129.727 79.0823 128.607 79.4037 127.662 80.0463C126.725 80.6798 126.004 81.5061 125.499 82.5252C124.995 83.5442 124.742 84.6368 124.742 85.8027V87.6756C124.742 89.2731 125.017 90.6273 125.568 91.7382C126.128 92.8399 126.904 93.6799 127.896 94.2583C128.887 94.8275 130.039 95.1121 131.352 95.1121C132.206 95.1121 132.977 94.9928 133.666 94.7541C134.364 94.5062 134.965 94.139 135.47 93.6524C135.975 93.1566 136.365 92.5415 136.64 91.807L139.78 92.6884C139.45 93.7534 138.894 94.6898 138.114 95.4977C137.334 96.2965 136.37 96.9208 135.222 97.3706C134.074 97.8113 132.785 98.0317 131.352 98.0317ZM160.038 81.1756L157.118 82.0019C156.935 81.5153 156.664 81.0425 156.306 80.5834C155.957 80.1152 155.48 79.7296 154.874 79.4266C154.268 79.1237 153.492 78.9722 152.546 78.9722C151.252 78.9722 150.173 79.2705 149.31 79.8673C148.456 80.4549 148.029 81.2031 148.029 82.112C148.029 82.9199 148.323 83.558 148.911 84.0262C149.498 84.4945 150.416 84.8846 151.665 85.1968L154.805 85.968C156.696 86.427 158.105 87.1294 159.033 88.075C159.96 89.0114 160.424 90.2187 160.424 91.6969C160.424 92.9087 160.075 93.9921 159.377 94.9469C158.688 95.9017 157.724 96.6545 156.485 97.2054C155.246 97.7562 153.804 98.0317 152.161 98.0317C150.003 98.0317 148.218 97.5634 146.804 96.627C145.39 95.6905 144.495 94.3226 144.118 92.5231L147.203 91.7519C147.497 92.8904 148.052 93.7442 148.869 94.3134C149.696 94.8826 150.774 95.1672 152.106 95.1672C153.62 95.1672 154.823 94.8459 155.714 94.2032C156.613 93.5514 157.063 92.771 157.063 91.8621C157.063 91.1276 156.806 90.5125 156.292 90.0168C155.778 89.5118 154.988 89.1354 153.923 88.8875L150.398 88.0612C148.461 87.6022 147.038 86.8907 146.129 85.9267C145.229 84.9535 144.779 83.737 144.779 82.2773C144.779 81.0838 145.114 80.028 145.785 79.1099C146.464 78.1918 147.387 77.4711 148.553 76.9478C149.728 76.4245 151.059 76.1628 152.546 76.1628C154.64 76.1628 156.283 76.6219 157.476 77.5399C158.679 78.458 159.533 79.6699 160.038 81.1756Z" fill="black"/>
<path d="M97.8234 119.943C96.7391 119.943 95.8087 119.554 95.0322 118.778C94.2556 118.001 93.8673 117.071 93.8673 115.987C93.8673 114.902 94.2556 113.972 95.0322 113.195C95.8087 112.419 96.7391 112.031 97.8234 112.031C98.9076 112.031 99.838 112.419 100.615 113.195C101.391 113.972 101.779 114.902 101.779 115.987C101.779 116.705 101.596 117.364 101.23 117.965C100.878 118.565 100.402 119.049 99.8014 119.415C99.2153 119.767 98.556 119.943 97.8234 119.943Z" fill="black"/>
</svg>
