<svg width="486" height="309" viewBox="0 0 486 309" fill="none" xmlns="http://www.w3.org/2000/svg">
<path d="M478.576 254.557L439.48 253.909L428.248 247.43L427.384 243.542V240.735L424.576 239.439L421.552 238.575L418.096 238.791L415.936 238.143H409.672L407.08 238.791L405.352 239.655L403.408 239.871L402.544 239.439L400.816 238.791H399.952L398.656 239.223L397.144 240.735L396.28 241.814L394.552 244.838L393.472 246.134L390.88 247.646L381.376 250.454L379.216 246.782L377.704 245.486L375.328 244.406H369.928L366.256 245.054H360.424L358.696 244.622H357.832L353.944 246.134L349.84 247.214L343.144 246.998L326.08 244.19H324.784L321.976 244.838H320.896L318.304 243.974L295.624 242.03L294.76 242.246L292.816 242.894L285.688 244.838H284.176L282.88 244.406L282.448 243.758L281.584 240.303L280.504 238.791L277.912 237.279L269.488 236.199L261.28 233.823L259.336 233.607H257.824L250.696 238.575L244.648 241.382L237.736 243.758L236.008 243.974L234.712 244.19L232.768 243.758L232.552 243.11L232.768 242.678L235.36 240.735L234.496 239.223L233.632 239.007H232.552L230.824 240.087L229.744 241.166L227.8 242.894L225.64 244.406L224.344 244.838L222.832 245.054L219.808 244.622L218.512 245.054L217.216 245.702L216.136 245.918H215.056L212.68 245.27H210.52L209.44 245.486L206.416 247.646L201.664 250.022L199.288 251.533L196.912 252.829L195.4 253.261H194.32L186.544 251.533L182.224 251.317L180.712 251.533L179.416 251.749L178.768 252.181L177.688 253.261L176.824 254.557L174.88 258.445L172.504 259.956L169.912 261.468L168.832 262.548L167.968 263.628L167.752 264.492L165.16 266.868L159.544 265.572L155.872 265.788L153.064 266.22L151.984 266.868L150.688 268.812L149.392 269.675L145.072 271.619L142.912 273.131L141.832 274.643L140.536 277.019L138.592 278.962L135.136 280.258L132.76 280.906L129.736 282.202L126.28 284.794L124.984 286.954L122.392 293.217L121.096 295.593L120.232 297.321L119.368 298.4L116.992 299.048L113.968 299.48L110.512 300.344L107.056 301.856L103.168 304.232L101.008 306.392L99.928 307.903L96.688 306.824L94.312 306.608L91.288 305.312L88.696 303.368L87.4 301.424L86.968 298.832L87.184 294.945L86.104 289.977L83.08 285.874L80.92 283.714L77.032 282.634L68.608 283.282L63.208 284.794L61.912 285.442H61.048L59.536 284.794L57.16 283.282L55 283.066H53.272L52.408 282.634L51.112 281.338L49.384 279.394L43.336 273.347L42.256 271.835L41.392 268.164V267.3L40.528 264.492L39.448 261.9L38.152 260.172L36.856 258.661L34.264 256.501L33.184 255.205L32.752 253.909L33.184 252.181L32.968 250.454L32.104 248.078L31.888 246.782V245.054V243.11L33.4 237.279L32.968 234.903L31.672 233.175L24.544 226.912L23.032 226.048L20.008 223.24L13.96 216.329L11.368 214.817L8.34399 212.226L6.61598 210.282L5.10399 207.474L1 196.891L17.848 189.98L24.76 185.66L26.272 184.365L35.776 180.909L66.448 163.631L91.288 157.151L95.608 155.424L99.064 156.719H104.464L122.824 154.56L125.632 152.832L128.224 148.728L126.712 149.376L125.416 150.24L124.552 151.536L123.904 153.048L123.472 149.16L127.144 147.648L135.568 148.944L140.752 147.432L153.064 141.601L158.68 137.713H161.92L167.752 138.577L175.96 134.474L179.2 130.37L181.36 126.051L181.576 123.027L181.36 121.947L180.064 120.867L178.336 120.435L179.848 119.355L182.008 119.571L184.384 120.651L185.464 122.595L187.192 124.539L188.704 125.835L190.432 125.187L191.296 123.675L191.944 121.299L193.456 121.515L195.184 122.379L196.696 123.027L197.992 124.107H198.64L199.072 122.595V121.083L198.856 120.003L197.992 119.139L196.696 118.708L197.128 117.412L197.992 116.332L195.616 115.684L195.832 113.524L189.136 111.148L185.464 110.932L184.816 110.5L185.68 109.42H189.136L187.84 108.125L186.112 107.477L183.952 106.829L182.008 105.749L178.768 103.373L185.032 104.885L189.352 107.477L193.672 109.636L196.48 111.148L200.584 112.228L203.176 112.012L205.984 112.66L208.36 113.956L211.384 112.66L213.112 111.364L216.136 112.444L217 115.036L218.296 115.684L220.456 115.252L221.536 117.844L224.128 119.355L227.152 121.083L229.096 124.755L234.064 126.483L237.088 124.755L237.952 122.379L242.488 119.571L244.648 117.628L245.08 113.956L241.84 108.341L242.488 105.317L241.192 103.373L238.6 95.8139L237.52 90.8465L233.632 83.0713H232.768L232.336 86.095L231.04 85.663L229.528 84.1512L228.448 83.0713L226.288 83.7192L224.992 84.7991L224.128 85.879L223.48 86.3109L215.92 88.9026L212.464 89.1186L213.112 86.3109L206.848 89.3346L204.904 89.7666H200.152L197.776 90.4145L196.264 91.4944L192.808 93.0062L182.44 94.0861L174.88 97.7577L170.776 96.8938L167.968 93.6542L167.536 89.7666L167.968 88.6867L169.912 86.5269L170.56 85.2311L170.776 84.1512L169.696 81.7754V77.4559L169.264 77.2399L167.968 75.2961L168.4 74.8641L170.776 75.944L171.856 76.376V71.8405L171.424 69.8967L170.56 68.6008L168.832 67.7369L168.184 68.8168L167.536 70.7606L166.24 72.0564L165.592 69.2488L162.136 63.2014L161.272 62.1215L160.624 61.6896L159.976 61.0416L159.76 57.586L159.328 56.5061L158.248 56.0742L156.52 56.2901L157.384 54.1304L158.68 48.083V45.7072L159.544 43.1155L162.352 37.9321L163 34.6924L164.08 32.3167L168.832 26.4853L170.56 24.1095L171.208 21.3018L170.992 16.7663L171.856 15.2545L178.768 15.0385L181.576 14.1746L184.384 12.4468L194.32 3.80768L197.992 1.8639L201.664 1L203.824 1.8639L205.984 3.37576L213.328 5.10355L216.352 7.47931L230.608 30.8048L232.768 37.5001L233.632 44.4114V58.2339L234.928 65.1452L244.648 93.0062L251.992 107.909L257.608 114.82L264.304 119.787L269.704 120.435L273.808 118.06L277.912 114.604L283.96 113.092L297.352 115.252L303.4 115.468L309.88 113.092L314.416 110.284L317.008 108.989L320.248 108.557L321.976 109.205L325.216 111.364L326.728 112.012L332.128 111.796L333.856 112.012L344.008 116.116L345.952 115.9L346.816 117.628L348.976 119.571L351.352 121.083L353.512 121.947L359.992 123.243L385.048 122.163L388.072 123.027L390.448 124.971L395.632 130.586L398.872 132.962L402.328 134.906L407.728 136.85L410.104 137.497L412.48 137.713L413.344 136.85L414.208 137.497L417.88 139.225L418.744 140.305L420.472 143.329L424.36 146.353L436.24 152.616L439.696 155.208L442.72 157.799L443.8 160.175L445.312 161.903L455.68 166.438L456.76 164.279V162.983H458.056L458.488 164.063L460 166.438V167.518L458.92 170.542L460.432 174.646L466.48 183.933L476.2 202.939L477.928 207.474L476.416 209.634L475.336 208.986L473.608 207.258L471.448 205.746L468.856 205.314L466.912 205.746L464.968 206.61L463.456 207.474L462.16 208.554L467.56 210.066L480.304 211.146L484.192 214.169L482.464 217.193L479.872 218.489H472.528L470.152 219.785L469.288 223.024L469.504 226.696L471.448 236.631L476.416 250.885L478.576 254.557Z" fill="#FF6901" stroke="black" stroke-width="2" stroke-linecap="round" stroke-linejoin="round"/>
<path d="M190.768 181.787V149.222H210.294V152.72H194.711V163.724H208.831V167.222H194.711V181.787H190.768ZM223.727 182.36C222.179 182.36 220.774 182.068 219.513 181.485C218.252 180.892 217.25 180.038 216.508 178.925C215.766 177.801 215.395 176.445 215.395 174.854C215.395 173.455 215.67 172.321 216.221 171.452C216.773 170.572 217.509 169.883 218.432 169.384C219.354 168.886 220.372 168.515 221.485 168.271C222.608 168.017 223.737 167.816 224.872 167.667C226.356 167.476 227.559 167.333 228.481 167.238C229.414 167.132 230.093 166.957 230.517 166.713C230.951 166.469 231.169 166.045 231.169 165.441V165.314C231.169 163.745 230.739 162.526 229.881 161.657C229.032 160.787 227.744 160.353 226.017 160.353C224.225 160.353 222.82 160.745 221.803 161.529C220.785 162.314 220.07 163.151 219.656 164.042L216.094 162.77C216.73 161.285 217.578 160.13 218.638 159.303C219.709 158.466 220.875 157.883 222.137 157.554C223.409 157.215 224.66 157.045 225.889 157.045C226.674 157.045 227.575 157.141 228.593 157.331C229.621 157.512 230.612 157.888 231.566 158.46C232.531 159.033 233.331 159.897 233.967 161.052C234.603 162.208 234.921 163.755 234.921 165.695V181.787H231.169V178.48H230.978C230.723 179.01 230.299 179.577 229.706 180.181C229.112 180.786 228.322 181.3 227.336 181.724C226.35 182.148 225.147 182.36 223.727 182.36ZM224.299 178.989C225.783 178.989 227.034 178.697 228.052 178.114C229.08 177.531 229.854 176.778 230.373 175.856C230.904 174.934 231.169 173.964 231.169 172.946V169.512C231.01 169.702 230.66 169.877 230.119 170.036C229.589 170.185 228.974 170.317 228.275 170.434C227.585 170.54 226.912 170.635 226.255 170.72C225.608 170.794 225.084 170.858 224.681 170.911C223.706 171.038 222.794 171.245 221.946 171.531C221.108 171.807 220.43 172.225 219.911 172.787C219.402 173.339 219.147 174.091 219.147 175.045C219.147 176.349 219.63 177.335 220.594 178.003C221.57 178.66 222.805 178.989 224.299 178.989ZM245.523 149.222V181.787H241.771V149.222H245.523ZM262.319 182.296C260.029 182.296 258.057 181.756 256.404 180.674C254.75 179.593 253.478 178.104 252.587 176.206C251.697 174.309 251.252 172.141 251.252 169.702C251.252 167.222 251.708 165.033 252.619 163.135C253.541 161.227 254.824 159.738 256.467 158.667C258.121 157.586 260.05 157.045 262.255 157.045C263.973 157.045 265.52 157.363 266.898 157.999C268.277 158.635 269.405 159.526 270.285 160.671C271.165 161.816 271.711 163.151 271.923 164.678H268.17C267.884 163.565 267.248 162.579 266.262 161.72C265.287 160.851 263.973 160.416 262.319 160.416C260.856 160.416 259.573 160.798 258.471 161.561C257.379 162.314 256.526 163.379 255.911 164.757C255.306 166.125 255.004 167.731 255.004 169.575C255.004 171.462 255.301 173.105 255.895 174.505C256.499 175.904 257.347 176.991 258.439 177.764C259.541 178.538 260.835 178.925 262.319 178.925C263.294 178.925 264.179 178.756 264.974 178.416C265.769 178.077 266.443 177.589 266.994 176.953C267.545 176.317 267.937 175.554 268.17 174.664H271.923C271.711 176.105 271.186 177.404 270.349 178.559C269.522 179.704 268.425 180.616 267.057 181.294C265.701 181.962 264.121 182.296 262.319 182.296ZM287.331 182.296C285.126 182.296 283.192 181.771 281.527 180.722C279.874 179.673 278.58 178.204 277.648 176.317C276.725 174.43 276.264 172.225 276.264 169.702C276.264 167.158 276.725 164.937 277.648 163.04C278.58 161.142 279.874 159.669 281.527 158.619C283.192 157.57 285.126 157.045 287.331 157.045C289.536 157.045 291.466 157.57 293.119 158.619C294.784 159.669 296.077 161.142 296.999 163.04C297.932 164.937 298.399 167.158 298.399 169.702C298.399 172.225 297.932 174.43 296.999 176.317C296.077 178.204 294.784 179.673 293.119 180.722C291.466 181.771 289.536 182.296 287.331 182.296ZM287.331 178.925C289.006 178.925 290.384 178.496 291.466 177.637C292.547 176.778 293.347 175.65 293.867 174.25C294.386 172.851 294.646 171.335 294.646 169.702C294.646 168.07 294.386 166.549 293.867 165.139C293.347 163.729 292.547 162.589 291.466 161.72C290.384 160.851 289.006 160.416 287.331 160.416C285.656 160.416 284.278 160.851 283.197 161.72C282.116 162.589 281.315 163.729 280.796 165.139C280.277 166.549 280.017 168.07 280.017 169.702C280.017 171.335 280.277 172.851 280.796 174.25C281.315 175.65 282.116 176.778 283.197 177.637C284.278 178.496 285.656 178.925 287.331 178.925ZM285.614 154.056L289.494 146.678H293.883L288.921 154.056H285.614ZM307.88 167.095V181.787H304.127V157.363H307.752V161.179H308.07C308.643 159.939 309.512 158.943 310.678 158.19C311.844 157.427 313.35 157.045 315.194 157.045C316.848 157.045 318.295 157.384 319.535 158.063C320.775 158.731 321.74 159.748 322.429 161.116C323.118 162.473 323.463 164.19 323.463 166.268V181.787H319.71V166.522C319.71 164.604 319.212 163.109 318.215 162.038C317.219 160.957 315.851 160.416 314.113 160.416C312.915 160.416 311.844 160.676 310.901 161.195C309.968 161.715 309.231 162.473 308.691 163.469C308.15 164.466 307.88 165.674 307.88 167.095Z" fill="black"/>
<path d="M257.231 202.139C256.146 202.139 255.216 201.751 254.439 200.974C253.663 200.198 253.275 199.267 253.275 198.183C253.275 197.099 253.663 196.168 254.439 195.392C255.216 194.615 256.146 194.227 257.231 194.227C258.315 194.227 259.245 194.615 260.022 195.392C260.798 196.168 261.187 197.099 261.187 198.183C261.187 198.901 261.003 199.56 260.637 200.161C260.286 200.762 259.809 201.245 259.209 201.612C258.623 201.963 257.963 202.139 257.231 202.139Z" fill="black"/>
</svg>
