<svg width="518" height="386" viewBox="0 0 518 386" fill="none" xmlns="http://www.w3.org/2000/svg">
<path d="M372.736 11.5829L371.44 24.5415L371.656 28.861L372.52 31.4528L375.976 36.4202L377.704 40.5238L376.84 45.7073L375.976 47.6511L372.304 52.1866L371.872 53.2665V54.3464L372.088 54.7783L372.952 55.6422L405.568 73.5683L412.912 62.1215L413.776 61.2576L414.856 60.3937L421.768 73.1363L423.28 74.8642L424.576 75.9441L427.6 77.4559L430.624 78.7517L438.4 80.9115L444.232 81.9914L446.824 82.8553L448.552 83.7192L449.632 84.7991L450.064 85.447L450.712 86.9588V87.8228V89.7666L450.928 92.5743V93.6542L450.496 95.382L449.632 96.6778L448.552 97.9737L440.56 101.861L439.264 103.157L437.968 104.669V106.613L438.184 108.341L438.832 110.284L440.56 112.66L441.208 114.172L441.424 118.492L441.856 119.787L442.288 120.651L442.936 121.299L444.664 122.163L445.744 122.811L446.824 124.755L448.12 126.483L450.712 128.642L452.872 130.802L455.68 135.122L457.192 136.418L458.704 137.066L459.568 137.282L469.72 136.85L471.664 137.282L473.176 137.929L474.256 139.009L478.576 143.545L479.872 144.409L484.408 145.705L485.488 146.353L486.784 147.217L488.944 149.376L490.024 150.456L490.672 151.536L491.32 153.696L491.968 155.208L492.4 157.367V162.119L492.832 163.847L493.264 164.711L493.912 165.143L499.312 166.654L501.472 167.95L504.28 170.542L507.52 174.214L509.248 175.941L510.976 177.021L512.704 178.101L513.568 178.965L514.216 180.045L516.592 184.796L512.272 187.388L509.68 189.98L507.736 192.572L506.872 194.084L506.656 195.379L507.952 198.619V199.915L507.736 201.643L506.656 205.098L505.792 206.394L504.928 206.826L502.984 206.61L500.392 205.746L498.448 205.53L497.368 205.314L495.424 205.53L493.048 206.394L481.816 207.258L478.144 206.826L475.768 206.178L473.608 205.098L471.88 204.45L470.584 204.234L469.504 204.45L468.856 204.882L466.48 205.746L462.376 206.61L461.296 207.258L460.216 208.338L459.568 209.418L458.272 212.226L457.624 213.305L456.976 215.033L456.544 219.137L456.112 221.081L456.328 223.024L456.544 223.672L458.92 227.776L459.352 229.72V232.527L459.568 234.471L459.352 236.415L457.408 245.702L455.464 249.374L455.032 251.317L454.168 257.149L450.496 266.652L448.984 268.812L441.856 274.859L440.776 276.371L436.672 283.93L435.16 285.874L425.224 296.241L424.36 297.536L423.28 299.48L422.632 302.504L420.472 307.687L412.912 316.759L411.616 317.838L409.24 319.566L406.864 321.942L405.568 324.534L404.704 327.125L404.488 329.069V331.229L404.704 333.173L405.136 334.901L405.784 336.412L406.432 336.844L407.728 337.708H409.888L413.776 337.492L417.88 337.708L419.824 337.924L421.552 338.572L423.28 340.084L424.36 341.164L425.008 342.028L426.304 345.268L426.736 346.779L416.584 348.075H412.264L408.16 347.211L397.144 341.812L388.288 340.3L380.296 341.812L364.744 349.155L361.288 351.315L358.264 354.338L350.92 364.705L334.072 377.232L330.832 378.528L326.944 378.744L311.392 376.584H303.616L296.704 379.176L290.224 383.279L286.984 384.143L282.448 383.927L274.024 382.2H272.08L272.944 378.744V375.936L272.08 373.345L268.408 368.161L267.112 367.297L261.712 369.457L256.744 368.593L251.992 366.433L248.536 364.273L249.832 362.546L248.968 361.466L247.024 360.818L245.296 359.738L242.056 356.066L240.76 355.202L238.816 355.418L237.952 356.066L238.168 358.01L237.736 358.658L236.872 358.874L234.28 358.658H233.416L226.72 360.386L225.64 361.034L222.832 360.386L219.16 360.602L202.96 365.137L199.72 365.353L198.64 364.921L196.912 363.41L195.832 363.194L194.968 363.41L193.456 364.057L192.592 364.273L176.608 361.682L174.664 360.17L173.584 359.738L170.128 360.602L166.672 362.33L163.216 362.762L156.736 358.226L153.28 358.874L147.448 362.114L143.56 362.33L140.536 361.034L137.512 359.522L129.736 358.226L127.36 356.93L125.632 354.986L123.256 353.259L117.424 351.099L114.832 348.939L113.752 345.051L112.024 343.54L102.736 340.084H100.792L99.28 340.516L97.984 340.948L96.904 341.164H91.288L89.344 340.948L85.456 339.004H83.512L81.784 339.436L80.272 339.22L78.976 337.924L80.704 335.117L79.192 332.525L81.136 331.661L83.296 330.365L83.728 328.853L80.92 326.909L77.896 328.205L76.168 326.693L74.44 321.51L71.2 318.27L70.984 317.19L74.44 318.054V316.974L73.792 316.111L73.576 315.247L73.792 314.167L74.44 312.655L72.28 312.007L70.552 310.711L68.824 310.063L66.88 310.495L66.448 307.255L64.72 304.016L62.776 301.64L60.832 300.56L59.968 299.048L58.024 292.137L56.512 290.625L55.648 290.193L53.272 287.818L52.192 287.386H44.848H43.768L43.12 286.954L42.904 281.122L42.472 279.61L41.824 278.531H40.744L40.528 279.61L39.664 281.77L39.016 280.474L38.368 279.826L37.504 279.61H35.776L35.344 278.963L35.56 276.371L35.344 275.291L34.912 275.075L33.616 274.427L32.536 273.563V273.131L30.808 272.051L29.728 273.131H28.648L29.08 270.755L30.16 268.596L30.592 266.868L29.728 265.356H28.864L26.704 266.436H25.408L24.76 266.004L22.384 264.276L21.952 263.628L21.52 261.684L21.088 261.036H20.224L18.064 262.116L16.768 261.9L15.688 261.036L14.608 259.309L13.744 257.581L13.528 255.853L13.312 255.421L12.664 254.773L11.8 254.341H10.72L10.072 253.693L10.504 252.613L11.368 250.454L10.936 249.59L7.48 247.214L6.83196 246.35L6.18399 244.838L1 239.439L2.94399 240.303L4.24 238.575L4.67196 238.359L6.4 237.927L7.26399 237.495L7.69601 235.767L7.26399 234.255L6.61601 232.743L5.32 231.232L4.67196 229.504L4.88797 228.208L5.10399 226.696L7.04797 221.729V219.569L6.4 216.545L5.96797 212.01L5.75196 210.498L4.88797 208.77L4.67196 207.69L4.88797 205.53L8.12797 192.356L10.504 188.9L11.8 181.773L12.232 180.045L12.664 178.965L13.96 177.453L14.824 176.589L16.552 175.725L18.064 173.998L18.712 173.566L20.872 172.27L21.304 171.838L22.168 170.542L26.704 162.551L28.216 159.095L29.944 153.48L30.16 151.536L27.352 135.77L21.52 123.027L16.336 116.116L16.12 115.252V114.172L16.336 112.66L18.928 107.477L19.792 104.237L20.008 99.7015V92.7903L19.576 89.9826L18.064 85.2311L17.848 84.1512L16.768 83.0713L15.472 82.4234L15.04 81.5594L14.392 78.9677L12.664 77.8879V77.2399L13.96 76.16L14.824 75.5121L17.2 74.2162L18.064 72.9203L17.416 70.3287L17.848 69.2488L18.496 67.9529L20.44 66.0091L22.816 63.8493L24.328 63.2014H24.976L27.136 64.4972L29.08 64.7132L31.024 64.2813L34.696 62.5535L35.992 61.6896L41.824 56.2901L43.12 55.4262L45.496 55.2103L45.712 53.6984L45.28 50.8907L41.392 39.4439L40.96 38.796L40.312 36.6362L40.528 32.1007L38.368 27.9971L37.504 24.7575L36.424 17.4143L37.504 16.1184L38.8 15.2545L39.664 15.0385H40.96L42.904 15.6864L45.064 16.5504L45.496 16.9823L47.224 19.574L48.736 21.3018L50.248 22.1657L53.056 22.5977L53.92 23.0297L54.352 23.4616V24.1096L53.272 27.1332L53.056 27.9971L53.272 28.645L53.92 29.293L54.784 29.509H56.08L57.592 29.077L62.56 26.7013L65.368 25.1895L66.88 24.7575L68.392 25.1895L69.904 26.9172L70.768 26.7013L71.848 25.6214L73.144 22.8137L74.224 20.006L74.44 19.1421L74.872 18.2782L75.736 17.6303L77.248 16.9823H78.112L78.976 17.4143L80.488 19.1421L81.136 19.3581L81.784 19.1421L82.216 17.1983L80.92 12.0148L92.368 7.91129L95.392 6.39943H96.904L97.768 6.18344L108.352 14.3906L111.592 15.9024L116.128 15.2545H120.232L121.096 15.6864L123.04 18.2782L123.688 18.4942L125.2 18.0622L127.792 17.4143L129.952 16.3344H132.112L136.864 16.9823L138.16 18.2782L139.024 19.3581L142.48 27.1332L143.128 28.2131L144.208 29.7249L147.448 32.5327L148.744 34.0445L149.608 36.4202L154.144 38.364L156.52 38.58L157.6 38.796L158.464 39.4439L159.328 40.7398L159.76 41.6037L160.624 42.6835L161.488 43.3315L163.432 43.7634L166.24 43.9794L167.968 44.4114L169.912 46.5712L173.8 53.9144L176.608 54.3464L177.472 54.7783L180.064 56.5061L182.008 56.938L183.952 56.7221L185.68 56.5061H186.976L188.056 56.938L188.488 58.8818L188.272 62.3375L188.704 66.873L188.272 68.8168L185.248 74.8642L183.52 77.2399L182.44 78.5358L180.928 79.1837L176.176 79.8316L172.936 80.9115L168.832 83.2873L167.968 84.5832L166.888 87.3908L166.024 89.3346L165.376 91.2784L166.024 92.3583H167.104L171.856 91.7104L184.384 91.2784L188.056 91.7104L189.568 92.1424L192.592 93.8701L195.832 95.382L197.344 95.5979L203.392 96.4619L206.632 97.1098L209.44 98.4057L214.192 101.213L215.488 101.645L216.568 101.861L225.424 102.077L228.664 101.861L230.176 101.645L231.472 100.997L232.336 100.565L232.984 99.2696L235.792 91.0625L236.008 89.3346V88.0387L234.928 86.095L233.848 84.5832L232.984 82.6393L233.2 80.2636L233.632 78.3198L234.28 76.592L237.088 70.1127L238.168 66.873V64.9292L237.952 63.2014L236.44 60.6097L235.144 58.8818L233.848 57.586L229.744 55.2103L228.448 54.1304L227.368 53.0505L226.504 51.3226L225.856 49.1629L225.424 45.7073L225.64 43.7634L226.288 42.2516L227.8 41.3877L229.312 40.7398L230.608 39.8759L231.256 38.364L231.688 36.6362L231.904 34.4764L231.688 32.3167L227.152 9.63908L240.76 9.2071L247.24 8.12722L253.072 7.04733L254.8 5.75152L256.744 3.15977L258.04 2.07989L261.28 1.21599L262.144 1L263.656 1.21599L265.384 1.6479L268.624 2.94378L270.784 4.02367L271.432 4.67164L275.968 7.04733L277.048 7.26332L278.776 7.47931H282.016L285.688 7.6953L287.416 8.5592L291.304 11.1509L294.328 12.4468H295.408L296.704 12.0148L301.456 10.0711L303.4 9.42309L305.128 10.719L305.776 12.2308L306.64 12.6627H307.936L311.176 11.7989L312.04 11.3669L313.336 11.1509H314.632L317.224 11.7989L329.104 15.6864L330.832 15.4705L338.392 14.1746L342.28 12.6627L343.576 11.7989L345.088 11.1509H346.384H348.328L352 12.0148L353.728 12.4468L356.32 13.9586H357.4L361.72 14.3906L364.96 13.9586L372.736 11.5829Z" fill="#FF6901" stroke="black" stroke-width="2" stroke-linecap="round" stroke-linejoin="round"/>
<path d="M188.869 196.492C188.519 195.421 188.058 194.462 187.486 193.614C186.924 192.755 186.251 192.024 185.466 191.42C184.692 190.815 183.813 190.354 182.827 190.036C181.841 189.718 180.76 189.559 179.583 189.559C177.654 189.559 175.899 190.057 174.32 191.054C172.74 192.05 171.484 193.519 170.551 195.458C169.618 197.398 169.152 199.778 169.152 202.598C169.152 205.418 169.623 207.798 170.567 209.738C171.51 211.678 172.788 213.146 174.399 214.142C176.01 215.139 177.823 215.637 179.837 215.637C181.703 215.637 183.346 215.239 184.767 214.444C186.198 213.639 187.311 212.505 188.106 211.042C188.912 209.568 189.314 207.835 189.314 205.842L190.523 206.096H180.728V202.598H193.131V206.096C193.131 208.778 192.558 211.11 191.413 213.093C190.279 215.075 188.71 216.612 186.707 217.704C184.714 218.785 182.424 219.326 179.837 219.326C176.954 219.326 174.42 218.648 172.237 217.291C170.063 215.934 168.367 214.005 167.148 211.503C165.94 209.001 165.335 206.033 165.335 202.598C165.335 200.022 165.68 197.706 166.369 195.649C167.069 193.582 168.055 191.822 169.327 190.37C170.599 188.918 172.104 187.805 173.843 187.031C175.581 186.257 177.495 185.87 179.583 185.87C181.3 185.87 182.901 186.13 184.385 186.649C185.88 187.158 187.21 187.884 188.376 188.828C189.553 189.761 190.533 190.879 191.318 192.183C192.102 193.476 192.643 194.913 192.94 196.492H188.869ZM214.768 208.895V194.457H218.521V218.881H214.768V214.747H214.514C213.941 215.987 213.051 217.042 211.842 217.911C210.634 218.77 209.107 219.199 207.263 219.199C205.736 219.199 204.379 218.865 203.192 218.197C202.005 217.519 201.072 216.501 200.394 215.144C199.715 213.777 199.376 212.054 199.376 209.976V194.457H203.128V209.722C203.128 211.503 203.627 212.923 204.623 213.983C205.63 215.043 206.913 215.573 208.471 215.573C209.404 215.573 210.353 215.335 211.318 214.858C212.293 214.381 213.109 213.649 213.766 212.664C214.434 211.678 214.768 210.421 214.768 208.895ZM232.581 219.453C231.034 219.453 229.629 219.162 228.368 218.579C227.106 217.985 226.104 217.132 225.362 216.019C224.62 214.895 224.249 213.538 224.249 211.948C224.249 210.549 224.525 209.414 225.076 208.545C225.627 207.665 226.364 206.976 227.286 206.478C228.209 205.98 229.226 205.609 230.339 205.365C231.463 205.11 232.592 204.909 233.726 204.761C235.21 204.57 236.414 204.427 237.336 204.331C238.269 204.225 238.947 204.05 239.371 203.807C239.806 203.563 240.023 203.139 240.023 202.534V202.407C240.023 200.838 239.594 199.619 238.735 198.75C237.887 197.881 236.599 197.446 234.871 197.446C233.08 197.446 231.675 197.838 230.657 198.623C229.64 199.407 228.924 200.245 228.511 201.135L224.949 199.863C225.585 198.379 226.433 197.224 227.493 196.397C228.564 195.559 229.73 194.976 230.991 194.648C232.263 194.308 233.514 194.139 234.744 194.139C235.528 194.139 236.429 194.234 237.447 194.425C238.475 194.605 239.467 194.981 240.421 195.554C241.385 196.126 242.186 196.99 242.822 198.146C243.458 199.301 243.776 200.849 243.776 202.789V218.881H240.023V215.573H239.832C239.578 216.103 239.154 216.671 238.56 217.275C237.967 217.879 237.177 218.393 236.191 218.817C235.205 219.241 234.002 219.453 232.581 219.453ZM233.154 216.082C234.638 216.082 235.889 215.791 236.907 215.208C237.935 214.625 238.709 213.872 239.228 212.95C239.758 212.027 240.023 211.057 240.023 210.04V206.605C239.864 206.796 239.514 206.971 238.974 207.13C238.444 207.278 237.829 207.411 237.129 207.527C236.44 207.633 235.767 207.729 235.11 207.814C234.463 207.888 233.938 207.951 233.535 208.004C232.56 208.132 231.649 208.338 230.8 208.625C229.963 208.9 229.285 209.319 228.765 209.881C228.256 210.432 228.002 211.185 228.002 212.139C228.002 213.443 228.484 214.429 229.449 215.096C230.424 215.754 231.659 216.082 233.154 216.082ZM233.281 191.149L237.161 183.771H241.55L236.588 191.149H233.281ZM250.625 218.881V194.457H254.251V198.146H254.505C254.95 196.937 255.756 195.957 256.922 195.204C258.088 194.451 259.403 194.075 260.866 194.075C261.141 194.075 261.486 194.08 261.899 194.091C262.313 194.102 262.625 194.117 262.837 194.139V197.955C262.71 197.923 262.419 197.875 261.963 197.812C261.517 197.738 261.046 197.701 260.548 197.701C259.36 197.701 258.3 197.95 257.367 198.448C256.445 198.936 255.714 199.614 255.173 200.483C254.643 201.342 254.378 202.322 254.378 203.425V218.881H250.625ZM267.286 218.881V194.457H271.038V218.881H267.286ZM269.194 190.386C268.462 190.386 267.832 190.137 267.302 189.639C266.782 189.14 266.522 188.541 266.522 187.842C266.522 187.142 266.782 186.543 267.302 186.045C267.832 185.547 268.462 185.298 269.194 185.298C269.925 185.298 270.551 185.547 271.07 186.045C271.6 186.543 271.865 187.142 271.865 187.842C271.865 188.541 271.6 189.14 271.07 189.639C270.551 190.137 269.925 190.386 269.194 190.386ZM287.834 219.39C285.544 219.39 283.572 218.849 281.919 217.768C280.265 216.687 278.993 215.197 278.102 213.3C277.212 211.402 276.767 209.234 276.767 206.796C276.767 204.315 277.223 202.126 278.134 200.229C279.056 198.321 280.339 196.831 281.982 195.761C283.636 194.679 285.565 194.139 287.77 194.139C289.488 194.139 291.035 194.457 292.413 195.093C293.792 195.729 294.921 196.619 295.8 197.764C296.68 198.909 297.226 200.245 297.438 201.771H293.686C293.399 200.658 292.763 199.672 291.777 198.814C290.802 197.944 289.488 197.51 287.834 197.51C286.371 197.51 285.088 197.891 283.986 198.655C282.894 199.407 282.041 200.473 281.426 201.851C280.821 203.218 280.519 204.824 280.519 206.669C280.519 208.556 280.816 210.199 281.41 211.598C282.014 212.997 282.862 214.084 283.954 214.858C285.056 215.632 286.35 216.019 287.834 216.019C288.809 216.019 289.694 215.849 290.489 215.51C291.284 215.171 291.958 214.683 292.509 214.047C293.06 213.411 293.452 212.648 293.686 211.757H297.438C297.226 213.199 296.701 214.497 295.864 215.653C295.037 216.798 293.94 217.709 292.572 218.388C291.216 219.056 289.636 219.39 287.834 219.39ZM312.846 219.39C310.641 219.39 308.707 218.865 307.042 217.815C305.389 216.766 304.095 215.298 303.163 213.411C302.24 211.524 301.779 209.319 301.779 206.796C301.779 204.252 302.24 202.031 303.163 200.133C304.095 198.236 305.389 196.762 307.042 195.713C308.707 194.663 310.641 194.139 312.846 194.139C315.051 194.139 316.981 194.663 318.634 195.713C320.299 196.762 321.592 198.236 322.514 200.133C323.447 202.031 323.914 204.252 323.914 206.796C323.914 209.319 323.447 211.524 322.514 213.411C321.592 215.298 320.299 216.766 318.634 217.815C316.981 218.865 315.051 219.39 312.846 219.39ZM312.846 216.019C314.521 216.019 315.899 215.589 316.981 214.731C318.062 213.872 318.862 212.743 319.382 211.344C319.901 209.944 320.161 208.429 320.161 206.796C320.161 205.163 319.901 203.642 319.382 202.232C318.862 200.822 318.062 199.683 316.981 198.814C315.899 197.944 314.521 197.51 312.846 197.51C311.171 197.51 309.793 197.944 308.712 198.814C307.631 199.683 306.83 200.822 306.311 202.232C305.792 203.642 305.532 205.163 305.532 206.796C305.532 208.429 305.792 209.944 306.311 211.344C306.83 212.743 307.631 213.872 308.712 214.731C309.793 215.589 311.171 216.019 312.846 216.019Z" fill="black"/>
<path d="M250.192 245.233C249.107 245.233 248.177 244.844 247.4 244.068C246.624 243.291 246.235 242.361 246.235 241.276C246.235 240.192 246.624 239.262 247.4 238.485C248.177 237.709 249.107 237.32 250.192 237.32C251.276 237.32 252.206 237.709 252.983 238.485C253.759 239.262 254.148 240.192 254.148 241.276C254.148 241.994 253.964 242.654 253.598 243.254C253.246 243.855 252.77 244.339 252.17 244.705C251.583 245.057 250.924 245.233 250.192 245.233Z" fill="black"/>
</svg>
