<svg width="316" height="223" viewBox="0 0 316 223" fill="none" xmlns="http://www.w3.org/2000/svg">
<path d="M314.2 17.8463L314.416 20.006L314.2 24.1096L313.768 24.9735L313.12 26.4853L311.824 27.7812L304.264 33.1806L301.672 34.4764L299.728 35.1244L296.488 34.2605L295.192 34.0445L292.816 34.9084L291.952 35.7723L291.088 37.5002L289.144 43.7635L288.712 46.3552L288.28 47.2191L287.632 48.083L285.472 48.7309L285.04 50.0268L284.608 53.6985L284.824 54.9943L285.256 55.8582L286.552 56.7221L287.632 56.9381H288.496L290.656 55.8582L291.304 55.6422L291.736 56.0742L291.952 57.154L290.872 65.1452L291.088 66.873L291.52 68.8169L293.896 76.808V82.4234L293.68 84.3672L291.52 85.447L290.008 87.1749L289.36 87.3908L288.496 87.1749L287.416 86.9589H285.472L283.96 87.3908L277.264 91.7104L276.616 92.5743L275.968 93.4382L275.752 95.382L275.32 97.1098L274.024 99.4856L273.16 100.781L271.432 102.293L270.352 103.805L269.704 104.021L268.192 103.805L267.112 102.941L264.304 98.6217L261.28 96.6779L259.984 97.5418L259.12 98.8377L258.472 100.134L258.256 101.429L258.472 103.589L258.904 104.237L259.984 106.613L262.576 110.5L263.872 112.444L269.056 117.412L272.728 122.163L274.024 124.323L274.24 126.267L273.808 133.394L274.024 135.122L274.672 136.634L275.752 137.93L277.912 140.089L278.776 141.385L279.208 142.897L279.856 143.977L280.504 144.409H281.584L282.664 143.977L283.528 142.897L284.392 140.521L284.824 139.225V137.93L284.392 133.826V132.098L284.608 131.234L287.632 128.642L299.296 122.811L302.536 124.323L303.616 127.347L306.64 133.178L307.72 134.258L308.152 134.906L307.936 135.554L303.616 140.089L302.104 142.249L299.728 147.432L299.08 156.072V159.527L293.896 164.927L293.248 165.143L289.144 166.438L288.28 167.086L287.848 168.166V169.03L286.984 170.326L285.472 171.19L276.184 173.998L268.408 174.862L262.36 174.646L260.632 173.998L259.336 173.35L257.824 172.27L255.232 169.678L254.152 168.166L253.504 166.87L253.72 165.791L253.936 163.847L254.584 162.335L254.8 161.471L254.584 159.527L253.72 156.072L253.288 150.24L252.856 149.592H251.776L250.912 150.24L249.832 151.536L246.592 157.799L242.488 161.687L238.816 173.35L237.952 176.373L236.008 179.613L232.12 182.421L227.8 183.933L219.376 184.365L211.6 185.228L202.096 186.092L200.152 188.036L198.64 189.98L196.696 194.084L197.344 197.971L198.208 200.563V201.427L198.424 203.371L198.208 204.234L196.048 209.634L195.832 211.146L196.048 212.226L196.48 213.737L196.696 214.817L196.48 216.761L193.888 218.705L183.736 221.729L181.576 220.217L181.144 218.489V217.409L180.928 216.545L180.496 216.113L179.632 215.897L178.768 216.329L177.04 217.409L174.88 218.273L160.84 219.137H159.76L158.464 218.705L157.6 217.625L157.384 216.761L157.6 215.897L159.76 211.146L161.056 209.202L162.136 208.122L164.944 204.234L170.56 198.835L170.992 197.107L170.776 195.595L170.128 194.947L169.048 194.731L167.32 194.947L165.16 194.731L163.432 194.299L162.568 194.084L161.056 194.515L156.088 196.459L154.36 196.675H153.28L150.904 194.299L148.96 193.004L147.664 193.436L146.368 194.731L136.216 205.314L135.784 206.394L135.136 207.906L134.272 212.874L133.624 214.817L132.112 216.329L128.008 207.042L127.36 206.178L126.496 205.53L121.528 203.587L120.016 202.291L118.72 198.619L115.912 189.116V187.172L116.128 186.092L116.56 185.012L118.504 183.285L123.904 179.613L125.416 178.317L126.28 177.885H127.144L129.736 178.533H130.6L132.112 177.885L134.488 175.726L134.92 175.078L135.136 174.43L134.704 172.918L133.84 171.19L131.896 169.246L125.848 164.927L124.984 163.415L123.688 161.471L122.392 160.607L119.8 159.959L113.968 159.743L112.888 159.527L111.808 159.095L110.728 158.015L106.84 152.4L105.976 151.536L104.032 149.592L102.736 149.16L101.224 150.24L100.792 150.888L97.984 152.4L96.472 151.104L95.176 149.16L92.8 144.841L87.4 143.545L85.024 142.681L84.16 141.385L82.648 137.498L81.352 136.418L79.192 136.202L73.36 137.066L71.848 137.93L69.04 139.657L66.664 141.169H65.152L61.48 139.009L58.24 136.634L55.216 135.986L53.056 134.258L50.248 128.858L48.088 126.051V124.539L47.872 121.299L47.44 119.571L45.28 118.492H43.12L40.744 119.355L38.368 120.651L35.992 123.891L32.104 131.666L32.32 139.873L29.08 139.225L26.704 137.93L18.928 132.53L14.392 130.802L9.20801 127.131L4.24 121.515L1.64801 117.412L1 113.092L2.51199 108.341L6.18402 104.885L21.952 95.166L24.328 93.0062L25.408 91.2785L26.272 89.1187L27.136 85.879L28.648 82.2074L29.944 79.3997L31.672 76.592L32.752 75.2962L33.832 73.7843L35.992 71.6245L39.88 69.2488L43.336 67.737L46.792 66.873L49.816 66.4411L52.192 65.7931L53.056 64.7132L53.92 62.9854L55.216 60.6097L57.808 54.3464L59.104 52.1866L62.56 49.5948L65.584 48.299L67.96 47.6511L71.416 46.3552L73.36 44.4114L74.656 42.0356L75.736 40.5238L77.896 39.012L82.216 37.0682L83.512 36.2043L84.808 34.2605L85.888 33.6126L88.696 33.1806L92.368 32.9646L97.984 34.2605L100.576 31.8848L100.792 31.0209L101.656 29.941L102.736 28.8611L105.328 27.3492L107.704 25.8374L109.648 21.9498L110.512 20.6539L111.592 19.574L112.24 19.1421L113.536 18.9261L115.048 18.7101L119.368 18.9261L127.144 20.6539H128.224L129.736 20.222L132.112 18.9261L134.488 17.4143L139.24 15.0385L142.264 12.8787L143.344 12.6628H145.504L147.88 13.3107H148.96L150.04 13.0947L151.336 12.4468L152.632 12.0148L155.656 12.4468L157.168 12.2308L158.464 11.7989L160.624 10.2871L162.568 8.5592L163.648 7.47931L165.376 6.39943H166.456L167.32 6.61542L168.184 8.12728L165.592 10.0711L165.376 10.503L165.592 11.1509L167.536 11.5829L168.832 11.3669L170.56 11.1509L177.472 8.77519L183.52 5.96751L190.648 1H192.16L194.104 1.21599L202.312 3.59175L210.736 4.67164L213.328 6.1835L214.408 7.6953L215.272 11.1509L215.704 11.7989L217 12.2308H218.512L225.64 10.2871L227.584 9.63908L228.448 9.42316L251.128 11.3669L253.72 12.2308H254.8L257.608 11.5829H258.904L275.968 14.3906L282.664 14.6066L286.768 13.5267L290.656 12.0148H291.52L293.248 12.4468H299.08L302.752 11.7989H308.152L310.528 12.8787L312.04 14.1746L314.2 17.8463Z" fill="#FF6901" stroke="black" stroke-width="2" stroke-linecap="round" stroke-linejoin="round"/>
<path d="M134.591 96.1801V63.6145H138.535V92.6818H153.673V96.1801H134.591ZM166.457 96.7525C164.91 96.7525 163.505 96.461 162.244 95.8779C160.982 95.2843 159.98 94.4309 159.238 93.3178C158.496 92.1942 158.125 90.8373 158.125 89.2472C158.125 87.8479 158.401 86.7136 158.952 85.8443C159.503 84.9644 160.24 84.2754 161.162 83.7772C162.085 83.2789 163.102 82.9079 164.215 82.6641C165.339 82.4097 166.468 82.2082 167.602 82.0598C169.086 81.869 170.29 81.7259 171.212 81.6305C172.145 81.5245 172.823 81.3496 173.247 81.1058C173.682 80.862 173.899 80.4379 173.899 79.8337V79.7065C173.899 78.1376 173.47 76.9185 172.611 76.0492C171.763 75.1799 170.475 74.7453 168.747 74.7453C166.956 74.7453 165.551 75.1375 164.533 75.922C163.516 76.7065 162.8 77.5439 162.387 78.4344L158.825 77.1623C159.461 75.6782 160.309 74.5227 161.369 73.6958C162.44 72.8584 163.606 72.2753 164.867 71.9467C166.139 71.6075 167.39 71.4379 168.62 71.4379C169.404 71.4379 170.305 71.5333 171.323 71.7241C172.351 71.9043 173.343 72.2806 174.297 72.8531C175.261 73.4255 176.062 74.2895 176.698 75.445C177.334 76.6004 177.652 78.1482 177.652 80.0881V96.1801H173.899V92.8726H173.708C173.454 93.4027 173.03 93.9698 172.436 94.574C171.843 95.1783 171.053 95.6924 170.067 96.1164C169.081 96.5405 167.878 96.7525 166.457 96.7525ZM167.03 93.3815C168.514 93.3815 169.765 93.0899 170.782 92.5069C171.811 91.9238 172.585 91.1712 173.104 90.2489C173.634 89.3267 173.899 88.3567 173.899 87.339V83.9044C173.74 84.0952 173.39 84.2701 172.85 84.4291C172.32 84.5775 171.705 84.71 171.005 84.8266C170.316 84.9326 169.643 85.0281 168.986 85.1129C168.339 85.1871 167.814 85.2507 167.411 85.3037C166.436 85.4309 165.524 85.6376 164.676 85.9238C163.839 86.1994 163.16 86.6182 162.641 87.18C162.132 87.7312 161.878 88.4839 161.878 89.438C161.878 90.7419 162.36 91.7277 163.325 92.3956C164.3 93.0528 165.535 93.3815 167.03 93.3815ZM184.501 96.1801V71.7559H188.127V75.445H188.381C188.826 74.2365 189.632 73.2559 190.798 72.5032C191.964 71.7506 193.279 71.3743 194.741 71.3743C195.017 71.3743 195.362 71.3796 195.775 71.3902C196.188 71.4008 196.501 71.4167 196.713 71.4379V75.2541C196.586 75.2223 196.294 75.1746 195.839 75.111C195.393 75.0368 194.922 74.9997 194.423 74.9997C193.236 74.9997 192.176 75.2488 191.243 75.7471C190.321 76.2347 189.59 76.9132 189.049 77.7824C188.519 78.6411 188.254 79.6217 188.254 80.7241V96.1801H184.501ZM208.349 96.7525C206.801 96.7525 205.397 96.461 204.135 95.8779C202.874 95.2843 201.872 94.4309 201.13 93.3178C200.388 92.1942 200.017 90.8373 200.017 89.2472C200.017 87.8479 200.292 86.7136 200.844 85.8443C201.395 84.9644 202.132 84.2754 203.054 83.7772C203.976 83.2789 204.994 82.9079 206.107 82.6641C207.231 82.4097 208.359 82.2082 209.494 82.0598C210.978 81.869 212.181 81.7259 213.103 81.6305C214.036 81.5245 214.715 81.3496 215.139 81.1058C215.573 80.862 215.791 80.4379 215.791 79.8337V79.7065C215.791 78.1376 215.361 76.9185 214.503 76.0492C213.655 75.1799 212.367 74.7453 210.639 74.7453C208.847 74.7453 207.443 75.1375 206.425 75.922C205.407 76.7065 204.692 77.5439 204.278 78.4344L200.716 77.1623C201.352 75.6782 202.2 74.5227 203.261 73.6958C204.331 72.8584 205.497 72.2753 206.759 71.9467C208.031 71.6075 209.282 71.4379 210.511 71.4379C211.296 71.4379 212.197 71.5333 213.215 71.7241C214.243 71.9043 215.234 72.2806 216.188 72.8531C217.153 73.4255 217.953 74.2895 218.589 75.445C219.225 76.6004 219.543 78.1482 219.543 80.0881V96.1801H215.791V92.8726H215.6C215.345 93.4027 214.921 93.9698 214.328 94.574C213.734 95.1783 212.944 95.6924 211.958 96.1164C210.973 96.5405 209.769 96.7525 208.349 96.7525ZM208.921 93.3815C210.405 93.3815 211.656 93.0899 212.674 92.5069C213.702 91.9238 214.476 91.1712 214.996 90.2489C215.526 89.3267 215.791 88.3567 215.791 87.339V83.9044C215.632 84.0952 215.282 84.2701 214.741 84.4291C214.211 84.5775 213.596 84.71 212.897 84.8266C212.208 84.9326 211.534 85.0281 210.877 85.1129C210.231 85.1871 209.706 85.2507 209.303 85.3037C208.328 85.4309 207.416 85.6376 206.568 85.9238C205.731 86.1994 205.052 86.6182 204.533 87.18C204.024 87.7312 203.769 88.4839 203.769 89.438C203.769 90.7419 204.252 91.7277 205.216 92.3956C206.192 93.0528 207.427 93.3815 208.921 93.3815Z" fill="black"/>
<path d="M180.175 121.532C179.091 121.532 178.161 121.143 177.384 120.367C176.608 119.59 176.219 118.66 176.219 117.576C176.219 116.491 176.608 115.561 177.384 114.784C178.161 114.008 179.091 113.62 180.175 113.62C181.26 113.62 182.19 114.008 182.967 114.784C183.743 115.561 184.131 116.491 184.131 117.576C184.131 118.294 183.948 118.953 183.582 119.554C183.23 120.154 182.754 120.638 182.153 121.004C181.567 121.356 180.908 121.532 180.175 121.532Z" fill="black"/>
</svg>
