<svg width="226" height="271" viewBox="0 0 226 271" fill="none" xmlns="http://www.w3.org/2000/svg">
<path d="M224.992 65.3611L221.752 70.1127L220.888 72.4884L219.808 78.9677L218.944 80.2636L218.08 81.1275L215.488 81.9913L212.248 82.6394L209.44 83.9352L206.848 85.4471L205.336 86.3109L204.04 86.5269L202.312 86.095L200.8 86.5269L199.288 87.6068L198.64 89.1187L197.776 91.7103L196.48 94.3021L195.184 95.598L193.456 96.0299L192.808 95.8139L192.16 95.382L191.512 93.8701L190.432 92.7902L187.84 93.2222L182.224 97.9737L178.552 100.349L176.824 102.293L175.312 104.453L174.664 105.965L167.968 115.252L165.376 118.492L163.864 118.276L162.784 117.628L161.488 118.06L157.816 121.299L156.952 122.163L155.872 123.675L154.792 125.835L155.008 127.563L155.44 129.29L156.088 131.018V132.314L155.656 134.042L154.144 137.282L153.28 138.793L152.416 139.873L148.528 142.465L146.8 143.977L145.936 145.057L145.504 146.137V148.728L145.072 150.672L143.776 152.4L139.888 155.856L139.024 157.151L138.808 158.231V162.551L139.24 164.279L139.672 166.006L140.752 169.246L141.616 170.542L142.48 170.974L143.992 171.622L145.288 172.702L146.152 173.998L146.8 175.51L147.448 178.965L148.96 182.205L149.176 183.501V185.444L148.528 187.172L147.448 188.9L146.584 189.98L143.344 195.163L141.616 200.995L136.648 207.906L124.336 218.921L118.072 222.593L116.56 224.104L112.888 229.288L110.728 231.016L109.216 232.095L105.112 234.471L82.864 250.453L77.68 255.637V259.525L78.976 264.492L78.544 266.436L77.68 267.948L76.6 268.38L74.224 269.244L73.144 264.708L72.28 262.764L71.632 262.116L70.552 261.252L67.744 259.525L66.664 258.445L66.448 257.581L66.664 256.285L69.256 251.102L70.552 247.862L70.768 245.918L70.552 237.279L69.688 232.743L68.392 230.8L68.176 229.936L68.608 227.776L71.632 223.456L72.064 221.297V220.433L70.552 217.841L57.592 209.418L53.488 209.202L52.192 209.418L50.032 208.986L48.952 209.202L47.224 209.634H46.144L44.848 208.986H42.904L42.04 209.202L40.096 210.714L39.448 211.146L38.152 210.93L36.64 210.066L32.752 206.61L31.456 205.098L24.76 194.299L23.896 193.652L20.656 191.276L19.144 190.628L15.904 190.196L9.42399 191.06L8.56 190.628L8.34399 188.684L8.776 186.092L9.856 182.637L10.288 181.557L14.392 176.589L16.336 172.918L17.2 171.838L19.576 170.542L20.656 169.678L21.088 168.814L22.384 164.279L19.36 155.208L27.568 145.057L28.432 143.329L28.648 141.601L28 138.577L27.784 137.929L24.976 134.258L24.328 132.746L23.896 127.995L23.248 126.267L22.6 125.403L21.304 124.539L20.44 123.891L1 120.651L2.296 119.139L4.24 118.06L6.4 117.628L7.91199 116.98L9.42399 116.332L11.152 114.82L14.176 112.012L15.04 111.364L16.336 110.932L18.712 110.716H20.224L21.304 110.932L22.6 111.796L23.68 113.092L23.896 114.82V115.684L22.816 117.844L22.6 118.492L22.816 119.139L23.68 119.355L25.192 118.924L27.784 117.844L29.296 117.628H30.592H31.672L33.184 118.492L35.128 119.787L35.776 119.571L36.64 118.924L38.8 110.932L39.232 110.068L40.96 106.829L44.2 103.373L54.136 94.734L96.256 63.6334L100.792 58.6658L104.032 55.8582L106.624 54.7783L109.216 52.8345L112.672 50.6747L115.264 50.2428L118.072 53.0505L119.152 54.9943L119.368 56.9381L120.232 58.6658L121.312 59.3138L123.472 58.2339L126.064 56.2901L127.576 52.6185L127.792 48.299V46.1392L128.44 43.7634V39.8759L127.576 37.5001L125.416 35.3403L122.176 32.5327L120.664 31.2368L118.288 29.077L116.344 27.9971L118.288 20.6539L121.312 18.4942L125.416 13.3107L126.928 11.5829L128.44 11.1509L132.544 10.719L133.624 10.071L134.704 9.42309L135.784 8.77519L137.296 8.5592L139.456 7.6953L141.184 5.53553L141.832 3.80768L145.72 1.43191L148.744 1L153.712 1.43191L155.224 1.6479L156.952 2.94378L159.976 5.96745L162.568 7.6953L164.08 9.42309L165.16 12.4468L167.32 21.5178L168.184 24.7575L168.4 27.3492L169.48 29.9409L172.936 35.7723L174.232 37.2841L179.632 40.9558L181.144 41.6037L182.872 42.2516L184.6 43.3315L186.544 47.4351L188.056 48.083L188.704 48.299L191.08 47.867L193.672 49.3789L194.752 50.8907L195.4 53.6984L196.48 56.9381L197.344 58.4499L198.424 59.5298L199.504 60.3937L200.8 60.6097L202.312 60.3937L207.496 58.0179L212.896 53.4824L215.272 52.4025L217 51.7546L217.864 51.5386L219.16 52.4025L220.024 55.4262L221.752 56.0742L223.264 56.5061L223.912 57.154L224.128 58.2339L223.696 60.3937V62.9854L224.992 65.3611Z" fill="#FF6901" stroke="black" stroke-width="2" stroke-linecap="round" stroke-linejoin="round"/>
<path d="M26.2074 163.189H29.7581L38.1071 183.582H38.395L46.7441 163.189H50.2948V187.756H47.5118V169.091H47.2719L39.5946 187.756H36.9076L29.2303 169.091H28.9904V187.756H26.2074V163.189ZM63.6011 188.14C61.8257 188.14 60.2943 187.748 59.0067 186.964C57.7272 186.173 56.7395 185.069 56.0438 183.654C55.356 182.23 55.0121 180.575 55.0121 178.687C55.0121 176.8 55.356 175.137 56.0438 173.697C56.7395 172.25 57.7072 171.122 58.9467 170.314C60.1943 169.499 61.6498 169.091 63.3132 169.091C64.2728 169.091 65.2205 169.251 66.1562 169.571C67.0918 169.891 67.9435 170.41 68.7113 171.13C69.479 171.842 70.0908 172.785 70.5466 173.961C71.0025 175.137 71.2304 176.584 71.2304 178.304V179.503H57.0274V177.056H68.3514C68.3514 176.016 68.1435 175.089 67.7276 174.273C67.3198 173.457 66.736 172.813 65.9762 172.342C65.2245 171.87 64.3368 171.634 63.3132 171.634C62.1856 171.634 61.2099 171.914 60.3862 172.474C59.5705 173.025 58.9427 173.745 58.5029 174.633C58.063 175.521 57.8431 176.472 57.8431 177.488V179.119C57.8431 180.511 58.083 181.69 58.5629 182.658C59.0507 183.618 59.7265 184.349 60.5901 184.853C61.4538 185.349 62.4575 185.597 63.6011 185.597C64.3448 185.597 65.0166 185.493 65.6164 185.285C66.2241 185.069 66.748 184.749 67.1878 184.325C67.6276 183.894 67.9675 183.358 68.2074 182.718L70.9425 183.486C70.6546 184.413 70.1707 185.229 69.491 185.933C68.8112 186.629 67.9715 187.172 66.9719 187.564C65.9722 187.948 64.8486 188.14 63.6011 188.14ZM61.8737 166.836L64.8007 161.27H68.1115L64.3688 166.836H61.8737ZM75.5368 187.756V169.331H78.2719V172.114H78.4638C78.7997 171.202 79.4075 170.462 80.2872 169.895C81.1668 169.327 82.1585 169.043 83.2621 169.043C83.47 169.043 83.7299 169.047 84.0418 169.055C84.3537 169.063 84.5896 169.075 84.7496 169.091V171.97C84.6536 171.946 84.4337 171.91 84.0898 171.862C83.7539 171.806 83.398 171.778 83.0222 171.778C82.1265 171.778 81.3268 171.966 80.623 172.342C79.9273 172.71 79.3755 173.221 78.9676 173.877C78.5678 174.525 78.3678 175.265 78.3678 176.096V187.756H75.5368ZM88.1054 187.756V169.331H90.9364V187.756H88.1054ZM89.5449 166.26C88.9931 166.26 88.5172 166.072 88.1174 165.696C87.7255 165.32 87.5296 164.868 87.5296 164.34C87.5296 163.813 87.7255 163.361 88.1174 162.985C88.5172 162.609 88.9931 162.421 89.5449 162.421C90.0967 162.421 90.5685 162.609 90.9604 162.985C91.3602 163.361 91.5601 163.813 91.5601 164.34C91.5601 164.868 91.3602 165.32 90.9604 165.696C90.5685 166.072 90.0967 166.26 89.5449 166.26ZM103.079 188.14C101.544 188.14 100.188 187.752 99.0125 186.976C97.8369 186.193 96.9172 185.089 96.2535 183.666C95.5897 182.234 95.2578 180.543 95.2578 178.591C95.2578 176.656 95.5897 174.977 96.2535 173.553C96.9172 172.13 97.8409 171.03 99.0245 170.254C100.208 169.479 101.576 169.091 103.127 169.091C104.327 169.091 105.274 169.291 105.97 169.691C106.674 170.082 107.21 170.53 107.577 171.034C107.953 171.53 108.245 171.938 108.453 172.258H108.693V163.189H111.524V187.756H108.789V184.925H108.453C108.245 185.261 107.949 185.685 107.565 186.197C107.182 186.701 106.634 187.152 105.922 187.552C105.21 187.944 104.263 188.14 103.079 188.14ZM103.463 185.597C104.599 185.597 105.558 185.301 106.342 184.709C107.126 184.109 107.721 183.282 108.129 182.226C108.537 181.163 108.741 179.935 108.741 178.543C108.741 177.168 108.541 175.964 108.141 174.933C107.741 173.893 107.15 173.085 106.366 172.51C105.582 171.926 104.615 171.634 103.463 171.634C102.263 171.634 101.264 171.942 100.464 172.558C99.6723 173.165 99.0765 173.993 98.6766 175.041C98.2848 176.08 98.0888 177.248 98.0888 178.543C98.0888 179.855 98.2888 181.047 98.6886 182.118C99.0965 183.182 99.6963 184.029 100.488 184.661C101.288 185.285 102.279 185.597 103.463 185.597ZM122.524 188.188C121.357 188.188 120.297 187.968 119.345 187.528C118.394 187.08 117.638 186.437 117.078 185.597C116.518 184.749 116.238 183.726 116.238 182.526C116.238 181.47 116.446 180.615 116.862 179.959C117.278 179.295 117.834 178.775 118.53 178.399C119.225 178.024 119.993 177.744 120.833 177.56C121.68 177.368 122.532 177.216 123.388 177.104C124.507 176.96 125.415 176.852 126.111 176.78C126.815 176.7 127.326 176.568 127.646 176.384C127.974 176.2 128.138 175.88 128.138 175.425V175.329C128.138 174.145 127.814 173.225 127.166 172.57C126.527 171.914 125.555 171.586 124.252 171.586C122.9 171.586 121.84 171.882 121.073 172.474C120.305 173.065 119.765 173.697 119.453 174.369L116.766 173.409C117.246 172.29 117.886 171.418 118.686 170.794C119.493 170.162 120.373 169.723 121.325 169.475C122.284 169.219 123.228 169.091 124.156 169.091C124.747 169.091 125.427 169.163 126.195 169.307C126.971 169.443 127.718 169.727 128.438 170.158C129.166 170.59 129.77 171.242 130.249 172.114C130.729 172.985 130.969 174.153 130.969 175.616V187.756H128.138V185.261H127.994C127.802 185.661 127.482 186.089 127.035 186.545C126.587 187 125.991 187.388 125.247 187.708C124.503 188.028 123.596 188.188 122.524 188.188ZM122.956 185.645C124.076 185.645 125.019 185.425 125.787 184.985C126.563 184.545 127.147 183.978 127.538 183.282C127.938 182.586 128.138 181.854 128.138 181.087V178.495C128.018 178.639 127.754 178.771 127.346 178.891C126.947 179.003 126.483 179.103 125.955 179.191C125.435 179.271 124.927 179.343 124.431 179.407C123.944 179.463 123.548 179.511 123.244 179.551C122.508 179.647 121.82 179.803 121.181 180.019C120.549 180.227 120.037 180.543 119.645 180.967C119.261 181.382 119.069 181.95 119.069 182.67C119.069 183.654 119.433 184.397 120.161 184.901C120.897 185.397 121.828 185.645 122.956 185.645Z" fill="black"/>
<path d="M80.7599 150.108C79.6756 150.108 78.7452 149.72 77.9687 148.943C77.1921 148.166 76.8038 147.236 76.8038 146.152C76.8038 145.068 77.1921 144.137 77.9687 143.361C78.7452 142.584 79.6756 142.196 80.7599 142.196C81.8441 142.196 82.7745 142.584 83.5511 143.361C84.3276 144.137 84.7159 145.068 84.7159 146.152C84.7159 146.87 84.5328 147.529 84.1665 148.13C83.8148 148.731 83.3386 149.214 82.7379 149.58C82.1518 149.932 81.4925 150.108 80.7599 150.108Z" fill="black"/>
</svg>
