<svg width="287" height="120" viewBox="0 0 287 120" fill="none" xmlns="http://www.w3.org/2000/svg">
<path d="M285.904 84.0713L283.744 91.8464L282.232 94.4382L279.856 95.518L278.128 96.8139L275.968 98.3257L272.296 99.4056L270.568 100.701L266.68 104.805L265.384 105.669L264.088 106.317L261.928 106.749L257.608 108.045L256.096 108.909L254.8 109.773L252.856 111.716L251.992 111.932L251.56 111.716L250.048 110.636L248.752 110.42L247.24 111.068L242.92 114.74L235.144 117.116L231.904 117.548L227.584 117.116H226.504L223.912 115.604L222.184 115.172L218.512 114.308H216.568H215.272L213.76 114.956L212.464 115.82L208.576 117.332L201.016 118.628L199.288 118.844L187.408 114.956L184.816 114.308H183.52L182.224 114.524L181.36 114.956L178.12 115.82H176.824L175.96 115.388L175.312 113.876L173.584 112.58L171.64 113.228L166.888 115.172L165.592 115.604H164.512L161.488 114.308L157.6 111.716L155.872 110.852L152.2 110.636H148.96L147.232 110.42L146.152 110.204L141.616 107.829L140.968 107.181L138.808 106.101L135.568 104.805L133.84 104.373L132.328 104.157L131.464 104.373L128.224 105.237L126.928 106.317L124.984 108.909L123.256 110.204L117.424 111.284L110.944 112.364L97.336 112.796L88.912 111.716L85.672 110.204L84.16 109.125L83.08 108.693H82L80.704 108.909L75.952 108.693L74.656 108.261L73.792 107.613L73.576 107.181L71.848 105.885L69.04 105.237L64.288 104.805L62.128 105.237L57.3759 107.181L55.2159 107.397L53.488 106.317L50.248 105.453L48.088 105.669L47.008 105.237L46.36 104.373L45.712 103.077L44.2 101.781L42.688 99.6216L42.472 98.9737L41.608 97.6778L39.232 95.734L38.368 95.302L36.8559 95.0861L35.344 95.302L34.048 95.734L32.752 96.8139L31.4559 97.6778L29.2959 98.7577L21.952 94.0062L18.28 90.9825L16.984 89.2547L14.824 83.8553L14.608 82.3434V81.0475L14.824 80.1837L15.472 78.6719L16.768 76.5121L17.2 75.8641L18.712 66.5771L18.4959 64.6333L17.632 63.5535L15.472 62.0416L14.1759 61.3937L9.20797 59.4498L7.48 58.154L6.18399 56.8582L5.75196 55.5623V54.4824L6.18399 52.7546L6.4 51.8906L7.69595 50.8108L8.12797 49.9469L6.83196 48.4351L5.53595 47.5711L1 40.0119L11.584 36.1243L11.8 37.6362L12.88 38.2841L16.768 39.364L24.112 42.6037L27.784 43.6835L31.24 43.8995L33.184 43.6835L34.6959 43.4676L38.584 41.9558L41.608 40.2279L42.904 39.796L44.848 39.364L47.44 39.148L52.192 40.0119L53.704 32.2368L54.784 29.645L56.728 27.9172L58.672 25.7575L59.104 24.2456L55.864 19.0622L57.592 17.9823H58.24L60.832 19.2782L61.48 19.4941L68.1759 18.4142L79.84 18.1983L80.92 18.4142L82.432 19.2782L97.984 19.0622L99.064 19.4941L100.144 18.6302L101.656 17.3343L102.304 16.9024H103.168L111.16 17.1184L113.104 17.5503L115.48 18.4142L117.208 19.2782L120.016 20.1421L120.448 20.358L122.392 19.2782H123.256L124.336 20.358H125.2L136.216 19.4941L138.376 19.2782L143.128 21.6539L144.856 20.574L145.072 20.1421L144.856 19.0622L145.72 11.719L145.504 10.4231L145.072 6.53547L144.856 5.67157L145.504 4.80768L147.88 2.8639L150.904 2L154.576 2.6479L164.296 7.61535L174.88 10.2071L178.12 13.0148L185.464 13.8787L187.192 14.3107L186.112 16.4704L182.656 18.6302L178.336 19.9261L175.312 19.7101L175.528 21.4379L175.312 25.5415L175.96 26.8374L180.712 32.0208L192.808 41.3078L193.888 42.8196L199.288 46.0593L202.096 50.5948L213.328 57.2901L211.168 57.5061L209.008 57.0741L207.064 56.2102L205.768 55.1303L204.472 56.2102L203.608 57.2901L206.848 61.8256L210.952 60.7457L215.056 63.3375L221.968 69.3848L226.072 70.8967L230.392 71.5446L239.464 71.7606L234.712 68.7369L218.944 61.8256L215.488 57.2901L261.28 77.376L280.504 83.2073L285.904 84.0713Z" fill="#FF6901" stroke="black" stroke-width="2" stroke-linecap="round" stroke-linejoin="round"/>
<path d="M67.8182 64.7273H71.1818L79.0909 84.0455H79.3636L87.2727 64.7273H90.6364V88H88V70.3182H87.7727L80.5 88H77.9545L70.6818 70.3182H70.4545V88H67.8182V64.7273ZM95.9233 88V70.5455H98.6051V88H95.9233ZM97.2869 67.6364C96.7642 67.6364 96.3134 67.4583 95.9347 67.1023C95.5634 66.7462 95.3778 66.3182 95.3778 65.8182C95.3778 65.3182 95.5634 64.8902 95.9347 64.5341C96.3134 64.178 96.7642 64 97.2869 64C97.8097 64 98.2566 64.178 98.6278 64.5341C99.0066 64.8902 99.196 65.3182 99.196 65.8182C99.196 66.3182 99.0066 66.7462 98.6278 67.1023C98.2566 67.4583 97.8097 67.6364 97.2869 67.6364ZM103.517 88V70.5455H106.108V73.1818H106.29C106.608 72.3182 107.184 71.6174 108.017 71.0795C108.85 70.5417 109.79 70.2727 110.835 70.2727C111.032 70.2727 111.278 70.2765 111.574 70.2841C111.869 70.2917 112.093 70.303 112.244 70.3182V73.0455C112.153 73.0227 111.945 72.9886 111.619 72.9432C111.301 72.8902 110.964 72.8636 110.608 72.8636C109.759 72.8636 109.002 73.0417 108.335 73.3977C107.676 73.7462 107.153 74.2311 106.767 74.8523C106.388 75.4659 106.199 76.1667 106.199 76.9545V88H103.517ZM120.56 88.4091C119.454 88.4091 118.45 88.2008 117.548 87.7841C116.647 87.3598 115.931 86.75 115.401 85.9545C114.87 85.1515 114.605 84.1818 114.605 83.0455C114.605 82.0455 114.802 81.2348 115.196 80.6136C115.59 79.9848 116.116 79.4924 116.776 79.1364C117.435 78.7803 118.162 78.5152 118.957 78.3409C119.76 78.1591 120.567 78.0152 121.378 77.9091C122.438 77.7727 123.298 77.6705 123.957 77.6023C124.624 77.5265 125.109 77.4015 125.412 77.2273C125.723 77.053 125.878 76.75 125.878 76.3182V76.2273C125.878 75.1061 125.571 74.2348 124.957 73.6136C124.351 72.9924 123.431 72.6818 122.196 72.6818C120.916 72.6818 119.912 72.9621 119.185 73.5227C118.457 74.0833 117.946 74.6818 117.651 75.3182L115.105 74.4091C115.56 73.3485 116.166 72.5227 116.923 71.9318C117.688 71.3333 118.522 70.9167 119.423 70.6818C120.332 70.4394 121.226 70.3182 122.105 70.3182C122.666 70.3182 123.31 70.3864 124.037 70.5227C124.772 70.6515 125.48 70.9205 126.162 71.3295C126.851 71.7386 127.423 72.3561 127.878 73.1818C128.332 74.0076 128.56 75.1136 128.56 76.5V88H125.878V85.6364H125.741C125.56 86.0152 125.257 86.4205 124.832 86.8523C124.408 87.2841 123.844 87.6515 123.139 87.9545C122.435 88.2576 121.575 88.4091 120.56 88.4091ZM120.969 86C122.029 86 122.923 85.7917 123.651 85.375C124.385 84.9583 124.938 84.4205 125.31 83.7614C125.688 83.1023 125.878 82.4091 125.878 81.6818V79.2273C125.764 79.3636 125.514 79.4886 125.128 79.6023C124.749 79.7083 124.31 79.803 123.81 79.8864C123.317 79.9621 122.836 80.0303 122.366 80.0909C121.904 80.1439 121.529 80.1894 121.241 80.2273C120.545 80.3182 119.893 80.4659 119.287 80.6705C118.688 80.8674 118.204 81.1667 117.832 81.5682C117.469 81.9621 117.287 82.5 117.287 83.1818C117.287 84.1136 117.632 84.8182 118.321 85.2955C119.018 85.7652 119.901 86 120.969 86ZM136.136 77.5V88H133.455V70.5455H136.045V73.2727H136.273C136.682 72.3864 137.303 71.6742 138.136 71.1364C138.97 70.5909 140.045 70.3182 141.364 70.3182C142.545 70.3182 143.58 70.5606 144.466 71.0455C145.352 71.5227 146.042 72.25 146.534 73.2273C147.027 74.197 147.273 75.4242 147.273 76.9091V88H144.591V77.0909C144.591 75.7197 144.235 74.6515 143.523 73.8864C142.811 73.1136 141.833 72.7273 140.591 72.7273C139.735 72.7273 138.97 72.9129 138.295 73.2841C137.629 73.6553 137.102 74.197 136.716 74.9091C136.33 75.6212 136.136 76.4848 136.136 77.5ZM158.764 88.3636C157.31 88.3636 156.026 87.9962 154.912 87.2614C153.798 86.5189 152.927 85.4735 152.298 84.125C151.67 82.7689 151.355 81.1667 151.355 79.3182C151.355 77.4848 151.67 75.8939 152.298 74.5455C152.927 73.197 153.802 72.1553 154.923 71.4205C156.045 70.6856 157.34 70.3182 158.81 70.3182C159.946 70.3182 160.844 70.5076 161.503 70.8864C162.17 71.2576 162.677 71.6818 163.026 72.1591C163.382 72.6288 163.658 73.0152 163.855 73.3182H164.082V64.7273H166.764V88H164.173V85.3182H163.855C163.658 85.6364 163.378 86.0379 163.014 86.5227C162.651 87 162.132 87.428 161.457 87.8068C160.783 88.178 159.885 88.3636 158.764 88.3636ZM159.128 85.9545C160.204 85.9545 161.113 85.6742 161.855 85.1136C162.598 84.5455 163.162 83.7614 163.548 82.7614C163.935 81.7538 164.128 80.5909 164.128 79.2727C164.128 77.9697 163.938 76.8295 163.56 75.8523C163.181 74.8674 162.62 74.1023 161.878 73.5568C161.135 73.0038 160.219 72.7273 159.128 72.7273C157.991 72.7273 157.045 73.0189 156.287 73.6023C155.537 74.178 154.973 74.9621 154.594 75.9545C154.223 76.9394 154.037 78.0455 154.037 79.2727C154.037 80.5152 154.226 81.6439 154.605 82.6591C154.991 83.6667 155.56 84.4697 156.31 85.0682C157.067 85.6591 158.007 85.9545 159.128 85.9545ZM177.185 88.4091C176.079 88.4091 175.075 88.2008 174.173 87.7841C173.272 87.3598 172.556 86.75 172.026 85.9545C171.495 85.1515 171.23 84.1818 171.23 83.0455C171.23 82.0455 171.427 81.2348 171.821 80.6136C172.215 79.9848 172.741 79.4924 173.401 79.1364C174.06 78.7803 174.787 78.5152 175.582 78.3409C176.385 78.1591 177.192 78.0152 178.003 77.9091C179.063 77.7727 179.923 77.6705 180.582 77.6023C181.249 77.5265 181.734 77.4015 182.037 77.2273C182.348 77.053 182.503 76.75 182.503 76.3182V76.2273C182.503 75.1061 182.196 74.2348 181.582 73.6136C180.976 72.9924 180.056 72.6818 178.821 72.6818C177.541 72.6818 176.537 72.9621 175.81 73.5227C175.082 74.0833 174.571 74.6818 174.276 75.3182L171.73 74.4091C172.185 73.3485 172.791 72.5227 173.548 71.9318C174.313 71.3333 175.147 70.9167 176.048 70.6818C176.957 70.4394 177.851 70.3182 178.73 70.3182C179.291 70.3182 179.935 70.3864 180.662 70.5227C181.397 70.6515 182.105 70.9205 182.787 71.3295C183.476 71.7386 184.048 72.3561 184.503 73.1818C184.957 74.0076 185.185 75.1136 185.185 76.5V88H182.503V85.6364H182.366C182.185 86.0152 181.882 86.4205 181.457 86.8523C181.033 87.2841 180.469 87.6515 179.764 87.9545C179.06 88.2576 178.2 88.4091 177.185 88.4091ZM177.594 86C178.654 86 179.548 85.7917 180.276 85.375C181.01 84.9583 181.563 84.4205 181.935 83.7614C182.313 83.1023 182.503 82.4091 182.503 81.6818V79.2273C182.389 79.3636 182.139 79.4886 181.753 79.6023C181.374 79.7083 180.935 79.803 180.435 79.8864C179.942 79.9621 179.461 80.0303 178.991 80.0909C178.529 80.1439 178.154 80.1894 177.866 80.2273C177.17 80.3182 176.518 80.4659 175.912 80.6705C175.313 80.8674 174.829 81.1667 174.457 81.5682C174.094 81.9621 173.912 82.5 173.912 83.1818C173.912 84.1136 174.257 84.8182 174.946 85.2955C175.643 85.7652 176.526 86 177.594 86Z" fill="black"/>
<path d="M127.527 60.3516C126.443 60.3516 125.513 59.9634 124.736 59.1868C123.96 58.4103 123.571 57.4799 123.571 56.3956C123.571 55.3114 123.96 54.381 124.736 53.6044C125.513 52.8279 126.443 52.4396 127.527 52.4396C128.612 52.4396 129.542 52.8279 130.319 53.6044C131.095 54.381 131.483 55.3114 131.483 56.3956C131.483 57.1136 131.3 57.7729 130.934 58.3736C130.582 58.9744 130.106 59.4579 129.505 59.8242C128.919 60.1758 128.26 60.3516 127.527 60.3516Z" fill="black"/>
</svg>
