<svg width="329" height="313" viewBox="0 0 329 313" fill="none" xmlns="http://www.w3.org/2000/svg">
<path d="M277.48 74.0003L276.616 77.024L274.456 76.808L272.728 72.4884L272.512 68.3849L272.944 65.7931L273.808 64.0653L275.104 64.2813L275.752 64.7132L277.048 66.4411L278.128 70.3287L277.48 74.0003ZM265.384 55.4262L263.44 56.2901L261.496 54.5624L260.416 51.7546L259.12 46.5712L258.904 44.4114L260.416 43.9794L262.36 46.1392L264.304 50.8907L265.168 51.3227L266.248 52.8345L265.384 55.4262ZM167.32 36.2043L167.968 36.8522L170.128 39.228L172.288 40.7398L173.368 40.0919L174.016 38.58L175.528 37.7161H177.04L177.688 39.012L178.336 47.0032L179.632 50.4587L182.008 50.6747L180.28 48.299L180.496 46.3552L181.144 44.4114L180.28 42.2516V41.3877L180.928 39.8759L181.792 38.58L183.088 38.3641L183.736 39.444L183.088 42.0356L183.52 43.3315L186.112 44.8434L188.272 44.1954L190.432 43.1155L192.808 42.8995L194.752 43.9794L196.264 45.7073L198.208 47.0032L201.664 47.2191L199.72 51.3227L201.016 52.6185L203.608 51.5386L204.904 48.9469L203.176 43.5475L203.608 40.5238L206.848 39.6599L207.928 40.3079L210.736 43.1155L212.464 43.9794H214.408L222.832 42.0356L226.72 39.8759L229.96 37.0682L231.904 34.0445L232.12 30.3729L229.528 23.4616L228.88 20.2219L229.96 15.6865L232.552 14.6066L236.224 15.6865L239.68 17.4143L246.16 22.1658L249.616 27.3492L253.72 40.7398L255.016 43.5475L256.744 45.9233L258.04 48.515V51.7546L259.984 54.9943L260.632 57.154L259.984 59.3138L258.04 62.7695H261.064L263.44 64.0653L265.168 66.2251L268.408 70.5446L276.832 86.5269L277.696 89.3346L277.48 91.9264L276.616 94.3021L276.4 96.6779L276.616 97.1098L276.832 99.9175L274.888 102.293L272.08 104.669L269.92 107.261L268.84 112.228L268.192 113.74L261.712 120.651L258.472 125.835L257.392 128.426L257.824 131.018L259.768 132.962L262.576 134.474L265.384 135.554L266.032 139.009L266.248 142.465L266.896 145.705L268.84 148.728L275.968 153.264L277.48 155.424L277.696 157.151L277.264 161.039L277.912 168.814L278.344 170.326L278.56 173.566L278.992 173.998L279.64 175.51L279.856 176.373L279.64 179.397L279.856 181.341V182.421L279.208 183.933L278.128 186.092L277.48 187.82L277.048 189.116L277.264 190.412L277.912 190.844L278.776 191.276L285.256 191.492L285.904 191.708L286.984 193.004L287.848 195.379L288.928 196.243L291.088 197.539L292.384 198.619L293.68 200.347L294.976 201.211L296.272 201.427L297.568 200.995L299.296 200.131L302.752 197.971L304.048 197.323H305.128L305.56 197.971L306.64 202.291L307.288 203.587L308.368 204.018L309.88 203.587L312.04 202.075L314.2 201.427L316.792 202.075L317.656 202.291L319.6 202.723L320.032 204.018L319.816 205.746L318.52 208.77L315.28 214.817L314.416 218.057L314.848 221.729L316.792 225.4L318.088 227.128L319.384 228.208L321.328 228.856L325 229.072L326.944 229.72L327.16 231.232L327.376 233.391L327.16 234.903L326.296 236.199L318.952 243.758L318.088 245.27L317.656 246.566L317.224 253.477L316.36 255.637L314.416 257.149L308.584 259.741L304.696 260.604L299.296 264.276L298.648 264.924L295.192 269.243L290.224 277.667L287.848 278.099L278.992 278.315L277.048 278.962L275.104 280.042L274.24 280.69L273.16 282.85L271.648 284.578L270.136 285.874L268.192 286.954L259.12 291.057L256.744 291.489H254.8L248.752 289.977L246.376 290.193L244.648 291.057L244.216 293.433L242.272 293.649L240.112 294.729L238.6 296.241L234.064 301.208L233.416 301.64L220.672 310.927L219.376 311.575L218.08 309.415L216.568 307.903L210.52 305.096L209.656 304.232L209.224 303.152L209.44 301.208L210.736 298.4L210.304 297.537L171.424 284.794L168.832 283.498L166.24 281.338L163 277.883L161.704 274.859L161.056 271.835L160.408 260.604L160.624 259.741L164.296 254.773L164.944 253.045L165.592 251.533L166.24 251.101L167.752 250.454L168.616 250.67L171.856 251.749L173.8 252.181L175.312 251.533L176.608 250.67L177.472 249.59L178.336 248.078L177.472 246.134L173.368 245.918L126.712 249.158L123.472 248.942L121.744 248.726L120.448 247.214L119.584 246.566L117.64 245.702L115.912 244.622L115.48 243.542L110.512 226.048L105.328 214.601L103.168 211.578L100.576 210.714L98.416 209.634L94.3119 207.69L91.936 205.962L90.64 204.666L89.3439 202.723L88.48 201.859L81.136 196.675L78.1119 195.163L75.9519 194.515L74.656 193.868L73.7919 193.22L72.28 189.98L70.768 187.82L69.9039 186.74L68.8239 186.092L68.1759 185.66L66.2319 185.228L63.8559 185.012L61.48 183.717L48.7359 175.725L47.008 174.862L45.28 175.294L43.12 176.589L42.2559 176.805L41.3919 177.021L40.0959 176.805L38.368 176.157L37.0719 175.941H36.208L34.2639 177.237L29.08 179.829L27.3519 180.261H26.0559L25.6239 179.829L25.1919 179.181L24.1119 172.486L23.248 170.326L16.9839 164.279L15.688 162.335L15.04 160.823L15.9039 152.616L15.688 146.785L15.9039 145.921L33.4 127.131L34.2639 125.835L35.128 124.323L19.7919 99.9175L18.28 96.6779L18.4959 95.598L18.28 93.6542L17.848 92.5743L16.768 91.2785L16.3359 90.1986L16.12 89.3346L16.3359 88.2547L16.9839 86.7429L18.7119 84.1512L19.1439 83.2873L19.36 81.9914L19.1439 78.5358L19.36 77.4559L19.7919 76.808L20.44 76.592L22.3839 75.9441L23.0319 75.2961L23.248 73.7843L23.0319 72.9204L22.6 72.0564L19.36 68.6009L18.7119 68.1689L17.2 67.305L14.3919 66.657L13.3119 66.2251L12.2319 65.3612V64.7132L12.88 62.9854L12.448 62.3375L11.1519 61.6896H9.85595L6.4 62.5535L5.32 62.3375L4.02392 61.6896L2.08 59.5298L1.21595 58.2339L1 56.938V44.6274L1.86392 43.1155L3.16 42.2516L4.88797 41.8197L8.77595 41.3877L9.64 41.6037L11.5839 41.8197H12.6639L13.3119 41.6037L17.6319 39.444L18.7119 38.58L21.088 38.1481L38.1519 33.1806L42.2559 31.2368L47.6559 23.2457L49.6 21.3018L51.9759 19.3581L53.488 18.7101L54.7839 18.4942L58.24 18.2782L65.368 16.7664L70.5519 17.1983L74.44 16.5504L78.5439 15.2545L81.3519 14.8225L82.4319 13.9586L82.648 13.0947L83.08 10.0711L83.5119 8.34321L85.0239 6.39943L86.32 5.31954L90.208 2.72786L93.88 1.43198L95.8239 1L97.12 1.43198L97.5519 1.8639L99.0639 3.80774L99.7119 4.45565L101.008 5.10355L104.68 6.18344L105.328 6.61542L105.544 7.26332L105.112 8.77519V9.63908L105.544 10.2871L106.192 10.719L107.704 11.1509L109.216 12.4468L110.512 12.8787L115.264 13.0947L116.344 13.5267L116.776 13.9586L117.424 15.6865L117.856 16.3344L118.504 16.7664L126.712 17.6303L127.792 18.4942L128.872 19.79L129.52 20.4379L130.816 20.6539L133.408 20.4379L134.488 20.6539L135.784 21.3018L136 22.3817L137.296 24.3256L139.024 24.7575L140.104 24.5415L140.968 24.1096L142.048 23.0297L143.128 21.9498L145.288 20.2219L151.552 16.5504L151.12 18.7101L151.552 20.2219L152.2 21.0859L153.28 22.1658L154.144 22.5977L155.008 22.3817L156.304 21.3018L157.168 21.0859H158.68L159.328 21.7338L159.976 22.5977L160.84 25.1895L161.056 26.0534L161.488 29.293L162.568 32.5327L163.216 33.6126L164.728 34.6924L167.32 36.2043Z" fill="#FF6901" stroke="black" stroke-width="2" stroke-linecap="round" stroke-linejoin="round"/>
<path d="M52.2394 87.0462H56.9461L68.0133 114.078H68.3949L79.4621 87.0462H84.1689V119.612H80.4798V94.8696H80.1618L69.9851 119.612H66.4232L56.2465 94.8696H55.9284V119.612H52.2394V87.0462ZM101.489 120.121C99.2842 120.121 97.3496 119.596 95.6853 118.546C94.0316 117.497 92.7383 116.029 91.8054 114.142C90.8831 112.255 90.422 110.05 90.422 107.527C90.422 104.983 90.8831 102.762 91.8054 100.864C92.7383 98.9668 94.0316 97.4933 95.6853 96.4438C97.3496 95.3943 99.2842 94.8696 101.489 94.8696C103.694 94.8696 105.623 95.3943 107.277 96.4438C108.942 97.4933 110.235 98.9668 111.157 100.864C112.09 102.762 112.556 104.983 112.556 107.527C112.556 110.05 112.09 112.255 111.157 114.142C110.235 116.029 108.942 117.497 107.277 118.546C105.623 119.596 103.694 120.121 101.489 120.121ZM101.489 116.75C103.164 116.75 104.542 116.32 105.623 115.462C106.705 114.603 107.505 113.474 108.025 112.075C108.544 110.675 108.804 109.159 108.804 107.527C108.804 105.894 108.544 104.373 108.025 102.963C107.505 101.553 106.705 100.414 105.623 99.5445C104.542 98.6753 103.164 98.2406 101.489 98.2406C99.8143 98.2406 98.4362 98.6753 97.3549 99.5445C96.2736 100.414 95.4733 101.553 94.9538 102.963C94.4344 104.373 94.1747 105.894 94.1747 107.527C94.1747 109.159 94.4344 110.675 94.9538 112.075C95.4733 113.474 96.2736 114.603 97.3549 115.462C98.4362 116.32 99.8143 116.75 101.489 116.75ZM122.037 104.919V119.612H118.285V95.1876H121.91V99.0039H122.228C122.801 97.7636 123.67 96.7671 124.836 96.0145C126.002 95.2512 127.507 94.8696 129.352 94.8696C131.006 94.8696 132.453 95.2088 133.693 95.8873C134.933 96.5551 135.898 97.5728 136.587 98.9403C137.276 100.297 137.621 102.015 137.621 104.092V119.612H133.868V104.347C133.868 102.428 133.37 100.933 132.373 99.8626C131.377 98.7813 130.009 98.2406 128.271 98.2406C127.073 98.2406 126.002 98.5004 125.059 99.0198C124.126 99.5392 123.389 100.297 122.848 101.294C122.308 102.29 122.037 103.499 122.037 104.919ZM151.665 120.184C150.118 120.184 148.713 119.893 147.451 119.31C146.19 118.716 145.188 117.863 144.446 116.75C143.704 115.626 143.333 114.269 143.333 112.679C143.333 111.28 143.609 110.145 144.16 109.276C144.711 108.396 145.448 107.707 146.37 107.209C147.292 106.711 148.31 106.34 149.423 106.096C150.547 105.841 151.676 105.64 152.81 105.492C154.294 105.301 155.497 105.158 156.42 105.062C157.353 104.956 158.031 104.781 158.455 104.538C158.89 104.294 159.107 103.87 159.107 103.265V103.138C159.107 101.569 158.678 100.35 157.819 99.4809C156.971 98.6117 155.683 98.177 153.955 98.177C152.163 98.177 150.759 98.5693 149.741 99.3537C148.724 100.138 148.008 100.976 147.595 101.866L144.033 100.594C144.669 99.1099 145.517 97.9544 146.577 97.1276C147.648 96.2901 148.814 95.7071 150.075 95.3784C151.347 95.0392 152.598 94.8696 153.828 94.8696C154.612 94.8696 155.513 94.965 156.531 95.1558C157.559 95.336 158.55 95.7124 159.505 96.2848C160.469 96.8572 161.27 97.7212 161.906 98.8767C162.542 100.032 162.86 101.58 162.86 103.52V119.612H159.107V116.304H158.916C158.662 116.834 158.238 117.402 157.644 118.006C157.05 118.61 156.261 119.124 155.275 119.548C154.289 119.972 153.086 120.184 151.665 120.184ZM152.238 116.813C153.722 116.813 154.973 116.522 155.99 115.939C157.019 115.356 157.793 114.603 158.312 113.681C158.842 112.758 159.107 111.788 159.107 110.771V107.336C158.948 107.527 158.598 107.702 158.058 107.861C157.527 108.009 156.913 108.142 156.213 108.258C155.524 108.364 154.851 108.46 154.194 108.545C153.547 108.619 153.022 108.682 152.619 108.735C151.644 108.863 150.732 109.069 149.884 109.356C149.047 109.631 148.368 110.05 147.849 110.612C147.34 111.163 147.086 111.916 147.086 112.87C147.086 114.174 147.568 115.159 148.533 115.827C149.508 116.485 150.743 116.813 152.238 116.813ZM179.568 129.28C177.755 129.28 176.197 129.046 174.893 128.58C173.589 128.124 172.502 127.52 171.633 126.767C170.774 126.025 170.091 125.23 169.582 124.382L172.571 122.283C172.911 122.728 173.34 123.237 173.859 123.81C174.379 124.393 175.089 124.896 175.99 125.32C176.902 125.755 178.094 125.972 179.568 125.972C181.54 125.972 183.167 125.495 184.449 124.541C185.732 123.587 186.373 122.092 186.373 120.057V115.096H186.055C185.78 115.541 185.388 116.092 184.879 116.75C184.381 117.396 183.66 117.974 182.716 118.483C181.783 118.981 180.522 119.23 178.932 119.23C176.96 119.23 175.19 118.764 173.621 117.831C172.062 116.898 170.827 115.541 169.916 113.76C169.015 111.979 168.564 109.817 168.564 107.272C168.564 104.771 169.004 102.592 169.884 100.737C170.764 98.8714 171.988 97.4297 173.557 96.412C175.126 95.3837 176.939 94.8696 178.995 94.8696C180.585 94.8696 181.847 95.1346 182.78 95.6647C183.723 96.1841 184.444 96.7777 184.942 97.4456C185.451 98.1028 185.843 98.6435 186.119 99.0675H186.501V95.1876H190.126V120.311C190.126 122.41 189.649 124.117 188.695 125.432C187.752 126.757 186.479 127.727 184.879 128.342C183.289 128.967 181.518 129.28 179.568 129.28ZM179.441 115.859C180.946 115.859 182.218 115.515 183.257 114.826C184.296 114.136 185.085 113.145 185.626 111.852C186.167 110.559 186.437 109.011 186.437 107.209C186.437 105.449 186.172 103.896 185.642 102.55C185.112 101.204 184.328 100.149 183.289 99.3855C182.25 98.6223 180.967 98.2406 179.441 98.2406C177.85 98.2406 176.525 98.6435 175.465 99.4491C174.416 100.255 173.626 101.336 173.096 102.693C172.577 104.05 172.317 105.555 172.317 107.209C172.317 108.905 172.582 110.405 173.112 111.709C173.653 113.002 174.448 114.02 175.497 114.762C176.557 115.493 177.872 115.859 179.441 115.859ZM204.183 120.184C202.635 120.184 201.23 119.893 199.969 119.31C198.707 118.716 197.706 117.863 196.964 116.75C196.222 115.626 195.851 114.269 195.851 112.679C195.851 111.28 196.126 110.145 196.677 109.276C197.229 108.396 197.965 107.707 198.888 107.209C199.81 106.711 200.828 106.34 201.941 106.096C203.064 105.841 204.193 105.64 205.328 105.492C206.812 105.301 208.015 105.158 208.937 105.062C209.87 104.956 210.549 104.781 210.973 104.538C211.407 104.294 211.625 103.87 211.625 103.265V103.138C211.625 101.569 211.195 100.35 210.337 99.4809C209.488 98.6117 208.2 98.177 206.473 98.177C204.681 98.177 203.276 98.5693 202.259 99.3537C201.241 100.138 200.526 100.976 200.112 101.866L196.55 100.594C197.186 99.1099 198.034 97.9544 199.094 97.1276C200.165 96.2901 201.331 95.7071 202.593 95.3784C203.865 95.0392 205.116 94.8696 206.345 94.8696C207.13 94.8696 208.031 94.965 209.049 95.1558C210.077 95.336 211.068 95.7124 212.022 96.2848C212.987 96.8572 213.787 97.7212 214.423 98.8767C215.059 100.032 215.377 101.58 215.377 103.52V119.612H211.625V116.304H211.434C211.179 116.834 210.755 117.402 210.162 118.006C209.568 118.61 208.778 119.124 207.792 119.548C206.806 119.972 205.603 120.184 204.183 120.184ZM204.755 116.813C206.239 116.813 207.49 116.522 208.508 115.939C209.536 115.356 210.31 114.603 210.829 113.681C211.359 112.758 211.625 111.788 211.625 110.771V107.336C211.465 107.527 211.116 107.702 210.575 107.861C210.045 108.009 209.43 108.142 208.73 108.258C208.041 108.364 207.368 108.46 206.711 108.545C206.064 108.619 205.54 108.682 205.137 108.735C204.162 108.863 203.25 109.069 202.402 109.356C201.564 109.631 200.886 110.05 200.366 110.612C199.858 111.163 199.603 111.916 199.603 112.87C199.603 114.174 200.086 115.159 201.05 115.827C202.026 116.485 203.261 116.813 204.755 116.813ZM239.527 100.658L236.156 101.612C235.944 101.05 235.631 100.504 235.218 99.9739C234.815 99.4332 234.264 98.988 233.564 98.6382C232.864 98.2884 231.969 98.1134 230.877 98.1134C229.382 98.1134 228.137 98.458 227.14 99.147C226.154 99.8255 225.661 100.689 225.661 101.739C225.661 102.672 226 103.409 226.679 103.949C227.357 104.49 228.417 104.94 229.859 105.301L233.485 106.191C235.668 106.721 237.296 107.532 238.366 108.624C239.437 109.705 239.972 111.099 239.972 112.806C239.972 114.205 239.569 115.456 238.764 116.559C237.969 117.661 236.856 118.531 235.425 119.167C233.993 119.803 232.329 120.121 230.432 120.121C227.94 120.121 225.879 119.58 224.246 118.499C222.614 117.417 221.58 115.838 221.145 113.76L224.707 112.87C225.046 114.184 225.688 115.17 226.631 115.827C227.585 116.485 228.831 116.813 230.368 116.813C232.117 116.813 233.506 116.442 234.534 115.7C235.573 114.947 236.092 114.046 236.092 112.997C236.092 112.149 235.796 111.439 235.202 110.866C234.608 110.283 233.697 109.848 232.467 109.562L228.396 108.608C226.159 108.078 224.516 107.257 223.467 106.144C222.428 105.02 221.909 103.615 221.909 101.93C221.909 100.552 222.295 99.3325 223.069 98.2725C223.854 97.2124 224.919 96.3802 226.265 95.776C227.622 95.1717 229.159 94.8696 230.877 94.8696C233.294 94.8696 235.191 95.3996 236.569 96.4597C237.958 97.5198 238.944 98.9191 239.527 100.658Z" fill="black"/>
</svg>
