<svg width="310" height="125" viewBox="0 0 310 125" fill="none" xmlns="http://www.w3.org/2000/svg">
<path d="M134.272 122.92L129.952 123.136L126.712 121.408V118.601L122.608 118.169L120.232 117.521L119.152 116.225L118.936 114.281L120.016 112.553L121.528 111.258L123.472 110.826L126.712 112.337L131.248 113.849L135.136 116.009L136.432 119.681L134.272 122.92ZM89.56 107.802L92.368 108.018L93.0159 107.802L94.528 108.45L94.96 110.394L91.9359 112.553L87.6159 112.769L84.5919 111.258L85.0239 109.098L87.4 108.018L89.56 107.802ZM152.632 79.9409L153.496 84.2605L148.312 83.1806L148.528 84.2605L148.312 86.4202V87.5001L146.152 85.7723L144.64 85.3403L143.992 85.9882L143.56 86.8521L140.104 90.0918L136 98.7309L126.712 97.2191L123.472 97.651L113.104 101.323L110.296 103.05L110.728 98.299L107.92 97.651H104.464L101.224 91.6037L97.9839 89.2279L94.0959 87.0681L91.9359 85.3403L87.6159 89.0119L84.16 89.8759L72.4959 88.58L70.9839 87.7161L70.12 87.5001L66.0159 87.7161L64.72 87.5001L58.0239 85.5563L55 85.3403L58.888 76.9172L59.32 74.7575L59.7519 71.3018L60.8319 70.006L63.208 69.574L66.88 69.79L68.608 69.3581L69.688 68.7101L71.848 66.9823L73.36 66.5503L76.6 67.6302L80.92 65.6864L84.808 65.2544L88.2639 65.9024L89.7759 68.0622V70.2219V72.5977L90.8559 74.5415L96.2559 76.2693L102.088 79.9409L105.544 80.8048L112.024 81.4527L114.616 80.5888L116.992 77.5652L117.208 75.8374L116.992 70.8699L118.072 69.574L120.232 67.6302L121.312 66.5503L121.96 64.8225L121.744 63.5266L121.96 62.4468L123.472 60.9349L124.768 60.503L128.44 60.287L129.952 59.855L132.328 57.6952L136.216 52.7278L138.592 51L139.24 54.0237L141.184 55.5355L143.128 56.6154L143.992 58.1272L144.64 61.3669L147.016 67.4142L147.448 70.2219L152.632 79.9409Z" fill="#FF6901" stroke="black" stroke-width="2" stroke-linecap="round" stroke-linejoin="round"/>
<path d="M29.7669 10.4345V43H25.9507L8.20499 17.431H7.88697V43H3.94348V10.4345H7.75976L25.569 36.0671H25.8871V10.4345H29.7669ZM52.5414 33.0141V18.5758H56.294V43H52.5414V38.8657H52.2869C51.7145 40.106 50.824 41.1608 49.6155 42.03C48.4071 42.8887 46.8805 43.318 45.036 43.318C43.5095 43.318 42.1526 42.9841 40.9653 42.3163C39.778 41.6378 38.8452 40.6201 38.1667 39.2632C37.4883 37.8957 37.149 36.1731 37.149 34.0954V18.5758H40.9017V33.8409C40.9017 35.6219 41.4 37.0424 42.3964 38.1024C43.4035 39.1625 44.6862 39.6926 46.2445 39.6926C47.1774 39.6926 48.1261 39.454 49.0908 38.977C50.0661 38.5 50.8823 37.7685 51.5396 36.7827C52.2074 35.7968 52.5414 34.5406 52.5414 33.0141ZM73.4076 43.5088C71.0543 43.5088 69.0242 42.9894 67.3175 41.9505C65.6214 40.901 64.3122 39.4381 63.3899 37.5618C62.4782 35.6749 62.0224 33.4805 62.0224 30.9787C62.0224 28.477 62.4782 26.272 63.3899 24.3639C64.3122 22.4451 65.5949 20.9504 67.238 19.8797C68.8917 18.7985 70.821 18.2578 73.026 18.2578C74.2981 18.2578 75.5543 18.4698 76.7946 18.8939C78.0349 19.3179 79.1638 20.0069 80.1815 20.961C81.1992 21.9045 82.0102 23.1554 82.6144 24.7137C83.2186 26.272 83.5208 28.1907 83.5208 30.4699V32.06H64.6938V28.8162H79.7045C79.7045 27.4381 79.4289 26.2084 78.8776 25.1271C78.337 24.0458 77.5631 23.1925 76.5561 22.567C75.5596 21.9416 74.3829 21.6289 73.026 21.6289C71.5313 21.6289 70.238 21.9999 69.1461 22.7419C68.0649 23.4734 67.2327 24.4275 66.6496 25.6041C66.0666 26.7808 65.7751 28.0423 65.7751 29.3886V31.5512C65.7751 33.3957 66.0931 34.9593 66.7292 36.242C67.3758 37.5141 68.2716 38.4841 69.4164 39.1519C70.5613 39.8092 71.8917 40.1378 73.4076 40.1378C74.3935 40.1378 75.284 40 76.079 39.7244C76.8847 39.4381 77.579 39.0141 78.1621 38.4523C78.7451 37.8798 79.1957 37.1696 79.5137 36.3215L83.1391 37.3392C82.7575 38.5689 82.1162 39.6502 81.2151 40.583C80.314 41.5053 79.201 42.2261 77.8759 42.7456C76.5508 43.2544 75.0614 43.5088 73.4076 43.5088ZM108.458 18.5758L99.4259 43H95.6096L86.5778 18.5758H90.6484L97.3905 38.0388H97.645L104.387 18.5758H108.458ZM119.855 43.5724C118.307 43.5724 116.903 43.2809 115.641 42.6979C114.38 42.1042 113.378 41.2509 112.636 40.1378C111.894 39.0141 111.523 37.6572 111.523 36.0671C111.523 34.6678 111.798 33.5335 112.35 32.6643C112.901 31.7844 113.638 31.0953 114.56 30.5971C115.482 30.0989 116.5 29.7278 117.613 29.484C118.736 29.2296 119.865 29.0282 121 28.8798C122.484 28.689 123.687 28.5459 124.609 28.4505C125.542 28.3444 126.221 28.1695 126.645 27.9257C127.079 27.6819 127.297 27.2579 127.297 26.6536V26.5264C127.297 24.9575 126.867 23.7384 126.009 22.8692C125.161 21.9999 123.873 21.5653 122.145 21.5653C120.353 21.5653 118.949 21.9575 117.931 22.7419C116.913 23.5264 116.198 24.3639 115.784 25.2543L112.222 23.9822C112.858 22.4981 113.706 21.3426 114.767 20.5158C115.837 19.6783 117.003 19.0953 118.265 18.7667C119.537 18.4274 120.788 18.2578 122.017 18.2578C122.802 18.2578 123.703 18.3532 124.721 18.544C125.749 18.7243 126.74 19.1006 127.694 19.673C128.659 20.2455 129.459 21.1094 130.095 22.2649C130.731 23.4204 131.049 24.9681 131.049 26.908V43H127.297V39.6926H127.106C126.851 40.2226 126.427 40.7897 125.834 41.394C125.24 41.9982 124.45 42.5124 123.464 42.9364C122.479 43.3604 121.275 43.5724 119.855 43.5724ZM120.427 40.2014C121.911 40.2014 123.162 39.9099 124.18 39.3268C125.208 38.7438 125.982 37.9911 126.502 37.0689C127.032 36.1466 127.297 35.1766 127.297 34.159V30.7243C127.138 30.9151 126.788 31.09 126.247 31.2491C125.717 31.3975 125.102 31.53 124.403 31.6466C123.714 31.7526 123.04 31.848 122.383 31.9328C121.737 32.007 121.212 32.0706 120.809 32.1236C119.834 32.2508 118.922 32.4575 118.074 32.7438C117.236 33.0194 116.558 33.4381 116.039 34C115.53 34.5512 115.275 35.3038 115.275 36.2579C115.275 37.5618 115.758 38.5477 116.722 39.2155C117.698 39.8728 118.933 40.2014 120.427 40.2014ZM151.001 43V10.4345H170.655V13.9327H154.945V24.9363H169.637V28.4346H154.945V39.5017H170.909V43H151.001ZM194.554 24.0458L191.183 24.9999C190.971 24.4381 190.659 23.8921 190.245 23.3621C189.842 22.8214 189.291 22.3762 188.592 22.0264C187.892 21.6766 186.996 21.5017 185.904 21.5017C184.41 21.5017 183.164 21.8462 182.167 22.5352C181.182 23.2137 180.689 24.0776 180.689 25.1271C180.689 26.06 181.028 26.7967 181.706 27.3374C182.385 27.878 183.445 28.3285 184.887 28.689L188.512 29.5794C190.696 30.1095 192.323 30.9204 193.394 32.0123C194.464 33.0936 195 34.4876 195 36.1943C195 37.5936 194.597 38.8445 193.791 39.947C192.996 41.0495 191.883 41.9187 190.452 42.5548C189.021 43.1908 187.357 43.5088 185.459 43.5088C182.968 43.5088 180.906 42.9682 179.273 41.8869C177.641 40.8056 176.607 39.2261 176.173 37.1484L179.735 36.2579C180.074 37.5724 180.715 38.5583 181.659 39.2155C182.613 39.8728 183.858 40.2014 185.395 40.2014C187.145 40.2014 188.533 39.8304 189.562 39.0883C190.6 38.3357 191.12 37.4346 191.12 36.3851C191.12 35.5371 190.823 34.8268 190.229 34.2544C189.636 33.6713 188.724 33.2367 187.494 32.9505L183.424 31.9964C181.187 31.4664 179.544 30.6448 178.494 29.5317C177.455 28.408 176.936 27.0034 176.936 25.3179C176.936 23.9398 177.323 22.7207 178.097 21.6607C178.881 20.6006 179.947 19.7684 181.293 19.1642C182.65 18.5599 184.187 18.2578 185.904 18.2578C188.321 18.2578 190.219 18.7879 191.597 19.8479C192.986 20.908 193.971 22.3073 194.554 24.0458ZM200.649 52.1591V18.5758H204.274V22.4557H204.719C204.995 22.0317 205.377 21.4911 205.864 20.8338C206.362 20.166 207.073 19.5723 207.995 19.0529C208.928 18.5228 210.189 18.2578 211.779 18.2578C213.836 18.2578 215.649 18.772 217.218 19.8002C218.786 20.8285 220.011 22.2861 220.891 24.173C221.771 26.06 222.211 28.2861 222.211 30.8515C222.211 33.4381 221.771 35.6802 220.891 37.5777C220.011 39.4646 218.792 40.9276 217.233 41.9664C215.675 42.9947 213.878 43.5088 211.843 43.5088C210.274 43.5088 209.018 43.2491 208.074 42.7297C207.131 42.1996 206.405 41.6007 205.896 40.9329C205.387 40.2544 204.995 39.6926 204.719 39.2473H204.401V52.1591H200.649ZM204.338 30.7879C204.338 32.6325 204.608 34.2597 205.149 35.6696C205.689 37.0689 206.479 38.1661 207.518 38.9611C208.557 39.7456 209.829 40.1378 211.334 40.1378C212.903 40.1378 214.212 39.7244 215.262 38.8975C216.322 38.06 217.117 36.9364 217.647 35.5265C218.188 34.106 218.458 32.5264 218.458 30.7879C218.458 29.0706 218.193 27.5229 217.663 26.1448C217.143 24.7561 216.354 23.6589 215.294 22.8532C214.244 22.037 212.924 21.6289 211.334 21.6289C209.808 21.6289 208.525 22.0158 207.486 22.7896C206.447 23.5529 205.663 24.6236 205.133 26.0017C204.603 27.3692 204.338 28.9646 204.338 30.7879ZM235.122 43.5724C233.575 43.5724 232.17 43.2809 230.908 42.6979C229.647 42.1042 228.645 41.2509 227.903 40.1378C227.161 39.0141 226.79 37.6572 226.79 36.0671C226.79 34.6678 227.066 33.5335 227.617 32.6643C228.168 31.7844 228.905 31.0953 229.827 30.5971C230.749 30.0989 231.767 29.7278 232.88 29.484C234.004 29.2296 235.133 29.0282 236.267 28.8798C237.751 28.689 238.954 28.5459 239.877 28.4505C240.81 28.3444 241.488 28.1695 241.912 27.9257C242.347 27.6819 242.564 27.2579 242.564 26.6536V26.5264C242.564 24.9575 242.135 23.7384 241.276 22.8692C240.428 21.9999 239.14 21.5653 237.412 21.5653C235.621 21.5653 234.216 21.9575 233.198 22.7419C232.181 23.5264 231.465 24.3639 231.052 25.2543L227.49 23.9822C228.126 22.4981 228.974 21.3426 230.034 20.5158C231.105 19.6783 232.271 19.0953 233.532 18.7667C234.804 18.4274 236.055 18.2578 237.285 18.2578C238.069 18.2578 238.97 18.3532 239.988 18.544C241.016 18.7243 242.007 19.1006 242.962 19.673C243.926 20.2455 244.727 21.1094 245.363 22.2649C245.999 23.4204 246.317 24.9681 246.317 26.908V43H242.564V39.6926H242.373C242.119 40.2226 241.695 40.7897 241.101 41.394C240.507 41.9982 239.718 42.5124 238.732 42.9364C237.746 43.3604 236.543 43.5724 235.122 43.5724ZM235.695 40.2014C237.179 40.2014 238.43 39.9099 239.447 39.3268C240.476 38.7438 241.25 37.9911 241.769 37.0689C242.299 36.1466 242.564 35.1766 242.564 34.159V30.7243C242.405 30.9151 242.055 31.09 241.515 31.2491C240.984 31.3975 240.37 31.53 239.67 31.6466C238.981 31.7526 238.308 31.848 237.651 31.9328C237.004 32.007 236.479 32.0706 236.076 32.1236C235.101 32.2508 234.189 32.4575 233.341 32.7438C232.504 33.0194 231.825 33.4381 231.306 34C230.797 34.5512 230.543 35.3038 230.543 36.2579C230.543 37.5618 231.025 38.5477 231.99 39.2155C232.965 39.8728 234.2 40.2014 235.695 40.2014ZM253.166 43V18.5758H256.792V22.2649H257.046C257.491 21.0564 258.297 20.0759 259.463 19.3232C260.629 18.5705 261.944 18.1942 263.406 18.1942C263.682 18.1942 264.027 18.1995 264.44 18.2101C264.853 18.2207 265.166 18.2366 265.378 18.2578V22.0741C265.251 22.0423 264.959 21.9946 264.504 21.931C264.058 21.8568 263.587 21.8197 263.088 21.8197C261.901 21.8197 260.841 22.0688 259.908 22.567C258.986 23.0547 258.254 23.7331 257.714 24.6024C257.184 25.461 256.919 26.4416 256.919 27.5441V43H253.166ZM281.979 18.5758V21.7561H269.322V18.5758H281.979ZM273.011 12.7242H276.763V36.0035C276.763 37.0636 276.917 37.8586 277.225 38.3887C277.543 38.9081 277.945 39.2579 278.433 39.4381C278.931 39.6078 279.456 39.6926 280.007 39.6926C280.421 39.6926 280.76 39.6714 281.025 39.629C281.29 39.576 281.502 39.5336 281.661 39.5017L282.424 42.8728C282.17 42.9682 281.815 43.0636 281.359 43.159C280.903 43.265 280.325 43.318 279.626 43.318C278.566 43.318 277.527 43.0901 276.509 42.6343C275.502 42.1784 274.664 41.4841 273.997 40.5512C273.339 39.6184 273.011 38.4417 273.011 37.0212V12.7242ZM294.811 43.5724C293.263 43.5724 291.859 43.2809 290.597 42.6979C289.336 42.1042 288.334 41.2509 287.592 40.1378C286.85 39.0141 286.479 37.6572 286.479 36.0671C286.479 34.6678 286.755 33.5335 287.306 32.6643C287.857 31.7844 288.594 31.0953 289.516 30.5971C290.438 30.0989 291.456 29.7278 292.569 29.484C293.693 29.2296 294.822 29.0282 295.956 28.8798C297.44 28.689 298.643 28.5459 299.566 28.4505C300.498 28.3444 301.177 28.1695 301.601 27.9257C302.036 27.6819 302.253 27.2579 302.253 26.6536V26.5264C302.253 24.9575 301.824 23.7384 300.965 22.8692C300.117 21.9999 298.829 21.5653 297.101 21.5653C295.309 21.5653 293.905 21.9575 292.887 22.7419C291.869 23.5264 291.154 24.3639 290.74 25.2543L287.179 23.9822C287.815 22.4981 288.663 21.3426 289.723 20.5158C290.793 19.6783 291.96 19.0953 293.221 18.7667C294.493 18.4274 295.744 18.2578 296.974 18.2578C297.758 18.2578 298.659 18.3532 299.677 18.544C300.705 18.7243 301.696 19.1006 302.65 19.673C303.615 20.2455 304.415 21.1094 305.052 22.2649C305.688 23.4204 306.006 24.9681 306.006 26.908V43H302.253V39.6926H302.062C301.808 40.2226 301.384 40.7897 300.79 41.394C300.196 41.9982 299.407 42.5124 298.421 42.9364C297.435 43.3604 296.232 43.5724 294.811 43.5724ZM295.384 40.2014C296.868 40.2014 298.119 39.9099 299.136 39.3268C300.165 38.7438 300.938 37.9911 301.458 37.0689C301.988 36.1466 302.253 35.1766 302.253 34.159V30.7243C302.094 30.9151 301.744 31.09 301.203 31.2491C300.673 31.3975 300.059 31.53 299.359 31.6466C298.67 31.7526 297.997 31.848 297.339 31.9328C296.693 32.007 296.168 32.0706 295.765 32.1236C294.79 32.2508 293.878 32.4575 293.03 32.7438C292.193 33.0194 291.514 33.4381 290.995 34C290.486 34.5512 290.232 35.3038 290.232 36.2579C290.232 37.5618 290.714 38.5477 291.679 39.2155C292.654 39.8728 293.889 40.2014 295.384 40.2014Z" fill="black"/>
<path d="M124.57 87.3516C123.486 87.3516 122.555 86.9634 121.779 86.1868C121.002 85.4103 120.614 84.4799 120.614 83.3956C120.614 82.3114 121.002 81.381 121.779 80.6044C122.555 79.8279 123.486 79.4396 124.57 79.4396C125.654 79.4396 126.585 79.8279 127.361 80.6044C128.138 81.381 128.526 82.3114 128.526 83.3956C128.526 84.1136 128.343 84.7729 127.977 85.3736C127.625 85.9744 127.149 86.4579 126.548 86.8242C125.962 87.1758 125.303 87.3516 124.57 87.3516Z" fill="black"/>
</svg>
