<svg width="322" height="281" viewBox="0 0 322 281" fill="none" xmlns="http://www.w3.org/2000/svg">
<path d="M191.728 10.935L191.944 13.0947L190 18.0622V19.574L190.648 20.6539L192.592 22.5977L193.024 23.6776L193.888 27.3492L196.696 32.7486L198.208 38.796L201.664 44.8433L202.96 47.4351L203.176 52.1865L203.824 54.9943L204.688 56.938L206.632 58.0179L209.008 66.225L210.52 67.5209L213.328 68.3848L217.216 69.4647L220.672 72.2724L223.264 74.6482L224.992 76.376L228.448 79.6156L233.632 84.1512L239.032 87.8227L242.488 89.9825L245.512 92.1423L247.888 94.3021L250.48 97.7577L251.344 100.781L251.56 104.669L251.128 108.125L247.456 131.882L244.864 141.601L244.216 144.193L244 145.705L244.216 147.864L246.592 153.48L249.4 156.288L250.264 156.935L251.992 157.367L253.504 158.231L254.8 159.095L255.016 159.743V160.607L253.72 161.687L250.696 162.119L249.4 162.551L248.32 163.631L247.456 165.143L246.376 166.222L244.648 166.87L242.704 168.166L242.056 168.382L241.408 168.166L239.68 166.87L238.168 167.302L236.656 167.95L230.392 169.246L228.664 169.894L228.448 170.326L228.664 170.974L230.176 171.622L232.552 172.054L233.416 172.486L234.928 173.134L235.792 173.998L236.656 175.293L238.168 177.885L238.6 179.613L238.816 181.989L239.032 182.853L239.68 183.285L241.192 183.933L242.272 184.58L243.568 186.092L244.648 188.036L247.24 190.196L256.528 195.595V197.755L256.312 200.563L255.448 203.37L255.016 206.178L253.72 211.578L251.776 217.409L243.568 229.72L239.68 234.471L231.256 239.007L223.264 244.406L222.4 245.27L221.752 246.566L218.296 256.069L215.92 265.356L216.136 266.652L217.648 272.483L217.864 274.211L217.216 277.235L216.136 278.315L214.84 279.179L213.976 279.394L212.032 279.61L210.088 279.179L208.792 278.099L208.36 276.803L207.712 274.859L207.28 273.995L206.2 273.131L198.856 269.243L197.992 268.596L196.912 267.732L193.456 262.764L191.728 259.956L190.864 259.093L184.816 254.773L177.472 251.101L175.96 249.806L174.448 247.646L168.4 241.166L167.104 239.223L166.456 237.711L166.672 236.847L167.104 234.903L167.752 233.391L169.048 231.447L170.128 230.368L170.776 228.856L170.56 228.208L169.696 227.776L168.184 227.344H164.512L163.648 227.128L163 226.696L162.136 224.536L161.704 223.24L161.488 222.376L161.704 220.433L161.488 218.705L160.84 217.193L157.816 212.442L157.168 212.01L148.744 204.882L147.664 203.802L145.936 200.995L143.344 194.947L142.48 194.299L141.184 193.652L138.16 193.22L128.008 192.572L126.28 191.924L125.416 191.492L120.232 191.276L117.64 190.844L114.616 189.98L103.384 184.58L97.552 179.829L93.016 177.669L90.64 173.35L89.776 172.702L88.048 173.35L86.968 173.998L85.672 175.293L83.728 176.805L80.056 180.045L78.76 180.909L76.816 181.341L73.36 180.693L69.904 178.101L66.232 177.021L62.344 177.453L59.536 177.237L58.672 176.805L44.632 170.758L29.296 161.471L27.352 159.743L23.464 154.344L2.51203 138.145L1 135.554L3.37601 134.474L5.10402 134.042L6.18402 133.826L10.288 133.61L11.152 132.962L12.016 131.882L13.096 127.131L13.528 125.619L15.904 123.243L17.2 120.867L20.008 113.74L20.44 98.8376L19.576 96.2459L16.984 97.9737L15.256 98.4057L14.392 98.1897L13.096 97.5417L12.232 97.3258H10.288L8.77601 96.8938L8.34402 96.2459L8.12801 95.3819L8.34402 94.0861L9.20801 92.7903L13.096 88.4707L16.336 82.8553L18.928 80.0476L19.792 79.6156L21.304 76.808L24.76 67.7369L26.272 66.225L26.92 64.2813L27.784 59.3138L28.432 57.8019L28.864 56.7221L39.016 46.1392L40.312 44.8433L41.608 44.4114L43.552 45.7072L45.928 48.083H47.008L48.736 47.867L53.704 45.9232L55.216 45.4913L56.08 45.7072L57.808 46.1392L59.968 46.3552L61.696 46.1392L62.776 46.3552L63.424 47.0031L63.64 48.515L63.208 50.2427L57.592 55.6422L54.784 59.5298L53.704 60.6097L52.408 62.5535L50.248 67.3049L50.032 68.1689L50.248 69.0328L51.112 70.1127L52.408 70.5446H53.488L67.528 69.6807L69.688 68.8168L71.416 67.7369L72.28 67.3049L73.144 67.5209L73.576 67.9529L73.792 68.8168V69.8967L74.224 71.6245L76.384 73.1363L86.536 70.1127L89.128 68.1689L89.344 66.225L89.128 65.1452L88.696 63.6334L88.48 62.5535L88.696 61.0416L90.856 55.6422L91.072 54.7783L90.856 52.8345V51.9706L89.992 49.3789L89.344 45.4913L91.288 41.3877L92.8 39.4439L94.744 37.5001L104.248 36.6362L112.024 35.7723L120.448 35.3403L124.768 33.8285L128.656 31.0208L130.6 27.7811L131.464 24.7575L135.136 13.0947L139.24 9.2071L142.48 2.94378L143.56 1.6479L144.424 1H145.504L145.936 1.6479L146.368 7.47931L147.232 10.935L147.448 12.8787L147.232 13.7426L146.584 15.2545L146.368 17.1983L146.152 18.2782L146.8 19.574L147.88 21.0858L150.472 23.6776L151.984 24.7575L153.28 25.4054L155.008 26.0534L161.056 26.2693L168.832 25.4054L178.12 22.5977L179.632 21.7338L180.496 20.4379V19.574L180.928 18.4942L181.792 17.8462L185.896 16.5503L186.544 16.3344L191.728 10.935Z" fill="#FF6901" stroke="black" stroke-width="2" stroke-linecap="round" stroke-linejoin="round"/>
<path d="M26.7112 114.588V86.3842H36.2409C38.4535 86.3842 40.2621 86.7836 41.6668 87.5823C43.0807 88.3719 44.1273 89.4414 44.8067 90.791C45.4861 92.1406 45.8258 93.6463 45.8258 95.308C45.8258 96.9697 45.4861 98.48 44.8067 99.8388C44.1365 101.198 43.099 102.281 41.6944 103.089C40.2897 103.888 38.4902 104.287 36.296 104.287H29.4654V101.257H36.1858C37.7007 101.257 38.9172 100.996 39.8352 100.472C40.7533 99.9489 41.4189 99.242 41.8321 98.3515C42.2544 97.4517 42.4656 96.4372 42.4656 95.308C42.4656 94.1788 42.2544 93.1689 41.8321 92.2783C41.4189 91.3878 40.7487 90.69 39.8215 90.1851C38.8942 89.6709 37.664 89.4139 36.1308 89.4139H30.1265V114.588H26.7112ZM59.2528 115.029C57.3432 115.029 55.6676 114.574 54.2263 113.665C52.794 112.756 51.674 111.485 50.8661 109.851C50.0673 108.216 49.6679 106.307 49.6679 104.122C49.6679 101.918 50.0673 99.9948 50.8661 98.3515C51.674 96.7081 52.794 95.4319 54.2263 94.523C55.6676 93.6141 57.3432 93.1597 59.2528 93.1597C61.1624 93.1597 62.8333 93.6141 64.2655 94.523C65.7069 95.4319 66.827 96.7081 67.6257 98.3515C68.4337 99.9948 68.8376 101.918 68.8376 104.122C68.8376 106.307 68.4337 108.216 67.6257 109.851C66.827 111.485 65.7069 112.756 64.2655 113.665C62.8333 114.574 61.1624 115.029 59.2528 115.029ZM59.2528 112.109C60.7034 112.109 61.8969 111.737 62.8333 110.994C63.7698 110.25 64.4629 109.272 64.9128 108.06C65.3626 106.848 65.5876 105.535 65.5876 104.122C65.5876 102.708 65.3626 101.39 64.9128 100.169C64.4629 98.9482 63.7698 97.9613 62.8333 97.2084C61.8969 96.4556 60.7034 96.0792 59.2528 96.0792C57.8022 96.0792 56.6087 96.4556 55.6722 97.2084C54.7358 97.9613 54.0426 98.9482 53.5928 100.169C53.1429 101.39 52.918 102.708 52.918 104.122C52.918 105.535 53.1429 106.848 53.5928 108.06C54.0426 109.272 54.7358 110.25 55.6722 110.994C56.6087 111.737 57.8022 112.109 59.2528 112.109ZM73.7987 114.588V93.4351H76.9386V96.63H77.1589C77.5445 95.5834 78.2423 94.7342 79.2522 94.0824C80.2621 93.4305 81.4005 93.1046 82.6674 93.1046C82.9061 93.1046 83.2045 93.1092 83.5626 93.1184C83.9206 93.1275 84.1915 93.1413 84.3751 93.1597V96.4648C84.2649 96.4372 84.0124 96.3959 83.6177 96.3408C83.2321 96.2766 82.8235 96.2444 82.392 96.2444C81.3638 96.2444 80.4457 96.4602 79.6378 96.8917C78.839 97.314 78.2055 97.9016 77.7373 98.6544C77.2783 99.3981 77.0488 100.247 77.0488 101.202V114.588H73.7987ZM98.7523 93.4351V96.1894H87.7904V93.4351H98.7523ZM90.9853 88.3673H94.2353V108.528C94.2353 109.447 94.3685 110.135 94.6347 110.594C94.9101 111.044 95.259 111.347 95.6813 111.503C96.1128 111.65 96.5673 111.723 97.0447 111.723C97.4027 111.723 97.6965 111.705 97.9261 111.668C98.1556 111.622 98.3392 111.586 98.4769 111.558L99.1379 114.478C98.9176 114.56 98.61 114.643 98.2152 114.726C97.8205 114.817 97.3201 114.863 96.7142 114.863C95.7961 114.863 94.8964 114.666 94.015 114.271C93.1428 113.876 92.4175 113.275 91.8391 112.467C91.2699 111.659 90.9853 110.64 90.9853 109.41V88.3673ZM116.972 105.939V93.4351H120.222V114.588H116.972V111.007H116.751C116.256 112.081 115.484 112.995 114.438 113.748C113.391 114.491 112.069 114.863 110.472 114.863C109.15 114.863 107.975 114.574 106.946 113.996C105.918 113.408 105.11 112.527 104.523 111.352C103.935 110.167 103.641 108.675 103.641 106.876V93.4351H106.891V106.656C106.891 108.198 107.323 109.428 108.186 110.346C109.058 111.264 110.169 111.723 111.518 111.723C112.326 111.723 113.148 111.517 113.983 111.104C114.828 110.691 115.535 110.057 116.104 109.203C116.683 108.349 116.972 107.261 116.972 105.939ZM134.713 122.961C133.143 122.961 131.793 122.759 130.664 122.355C129.535 121.96 128.594 121.437 127.841 120.785C127.097 120.142 126.505 119.454 126.064 118.719L128.653 116.901C128.947 117.287 129.319 117.728 129.769 118.223C130.219 118.728 130.834 119.164 131.614 119.532C132.404 119.908 133.437 120.096 134.713 120.096C136.42 120.096 137.83 119.683 138.94 118.857C140.051 118.031 140.607 116.736 140.607 114.973V110.677H140.331C140.093 111.062 139.753 111.54 139.312 112.109C138.881 112.669 138.256 113.169 137.439 113.61C136.631 114.042 135.539 114.257 134.162 114.257C132.454 114.257 130.921 113.853 129.562 113.045C128.213 112.238 127.143 111.062 126.353 109.52C125.573 107.978 125.183 106.105 125.183 103.901C125.183 101.735 125.564 99.8479 126.326 98.2413C127.088 96.6255 128.148 95.3769 129.507 94.4955C130.866 93.6049 132.436 93.1597 134.217 93.1597C135.594 93.1597 136.687 93.3892 137.494 93.8482C138.312 94.2981 138.936 94.8122 139.367 95.3906C139.808 95.9598 140.148 96.4281 140.386 96.7953H140.717V93.4351H143.857V115.194C143.857 117.012 143.444 118.49 142.617 119.628C141.8 120.776 140.699 121.616 139.312 122.148C137.935 122.69 136.402 122.961 134.713 122.961ZM134.602 111.338C135.906 111.338 137.008 111.039 137.908 110.443C138.807 109.846 139.491 108.987 139.96 107.867C140.428 106.747 140.662 105.407 140.662 103.846C140.662 102.322 140.432 100.977 139.973 99.8112C139.514 98.6452 138.835 97.7318 137.935 97.0707C137.035 96.4097 135.925 96.0792 134.602 96.0792C133.225 96.0792 132.078 96.4281 131.16 97.1258C130.251 97.8236 129.567 98.76 129.108 99.9352C128.658 101.11 128.433 102.414 128.433 103.846C128.433 105.315 128.662 106.614 129.122 107.743C129.59 108.864 130.278 109.745 131.187 110.388C132.105 111.021 133.244 111.338 134.602 111.338ZM163.137 105.939V93.4351H166.387V114.588H163.137V111.007H162.916C162.421 112.081 161.649 112.995 160.603 113.748C159.556 114.491 158.234 114.863 156.637 114.863C155.315 114.863 154.139 114.574 153.111 113.996C152.083 113.408 151.275 112.527 150.687 111.352C150.1 110.167 149.806 108.675 149.806 106.876V93.4351H153.056V106.656C153.056 108.198 153.488 109.428 154.351 110.346C155.223 111.264 156.334 111.723 157.683 111.723C158.491 111.723 159.313 111.517 160.148 111.104C160.993 110.691 161.7 110.057 162.269 109.203C162.847 108.349 163.137 107.261 163.137 105.939ZM181.208 115.029C179.17 115.029 177.412 114.579 175.934 113.679C174.465 112.77 173.331 111.503 172.532 109.878C171.743 108.244 171.348 106.343 171.348 104.177C171.348 102.01 171.743 100.1 172.532 98.4479C173.331 96.7861 174.442 95.4916 175.865 94.5643C177.297 93.6279 178.968 93.1597 180.878 93.1597C181.979 93.1597 183.067 93.3433 184.141 93.7105C185.215 94.0778 186.193 94.6745 187.075 95.5008C187.956 96.3179 188.658 97.4012 189.182 98.7508C189.705 100.1 189.967 101.762 189.967 103.736V105.113H173.661V102.304H186.661C186.661 101.11 186.423 100.045 185.945 99.1089C185.477 98.1724 184.807 97.4334 183.935 96.8917C183.072 96.35 182.053 96.0792 180.878 96.0792C179.583 96.0792 178.463 96.4005 177.517 97.0432C176.581 97.6767 175.86 98.5029 175.355 99.522C174.85 100.541 174.598 101.634 174.598 102.8V104.672C174.598 106.27 174.873 107.624 175.424 108.735C175.984 109.837 176.76 110.677 177.751 111.255C178.743 111.824 179.895 112.109 181.208 112.109C182.062 112.109 182.833 111.99 183.522 111.751C184.219 111.503 184.821 111.136 185.326 110.649C185.831 110.153 186.221 109.538 186.496 108.804L189.636 109.685C189.306 110.75 188.75 111.687 187.97 112.495C187.189 113.293 186.225 113.918 185.078 114.367C183.93 114.808 182.64 115.029 181.208 115.029ZM209.894 98.1724L206.974 98.9987C206.791 98.5121 206.52 98.0393 206.162 97.5803C205.813 97.112 205.335 96.7264 204.729 96.4235C204.123 96.1205 203.348 95.969 202.402 95.969C201.108 95.969 200.029 96.2674 199.166 96.8642C198.312 97.4517 197.885 98.2 197.885 99.1089C197.885 99.9168 198.179 100.555 198.766 101.023C199.354 101.491 200.272 101.882 201.521 102.194L204.661 102.965C206.552 103.424 207.961 104.126 208.888 105.072C209.816 106.008 210.279 107.216 210.279 108.694C210.279 109.906 209.93 110.989 209.233 111.944C208.544 112.899 207.58 113.651 206.341 114.202C205.101 114.753 203.66 115.029 202.016 115.029C199.859 115.029 198.073 114.56 196.659 113.624C195.246 112.687 194.35 111.319 193.974 109.52L197.059 108.749C197.353 109.887 197.908 110.741 198.725 111.31C199.551 111.879 200.63 112.164 201.961 112.164C203.476 112.164 204.679 111.843 205.569 111.2C206.469 110.548 206.919 109.768 206.919 108.859C206.919 108.124 206.662 107.509 206.148 107.014C205.634 106.509 204.844 106.132 203.779 105.884L200.254 105.058C198.317 104.599 196.894 103.888 195.985 102.924C195.085 101.95 194.635 100.734 194.635 99.2741C194.635 98.0806 194.97 97.0248 195.64 96.1067C196.32 95.1886 197.242 94.468 198.408 93.9446C199.584 93.4213 200.915 93.1597 202.402 93.1597C204.495 93.1597 206.139 93.6187 207.332 94.5368C208.535 95.4549 209.389 96.6668 209.894 98.1724ZM221.396 115.084C220.056 115.084 218.839 114.831 217.747 114.326C216.654 113.812 215.787 113.073 215.144 112.109C214.501 111.136 214.18 109.961 214.18 108.584C214.18 107.372 214.419 106.389 214.896 105.636C215.373 104.874 216.012 104.278 216.81 103.846C217.609 103.415 218.49 103.093 219.454 102.882C220.428 102.662 221.405 102.487 222.388 102.359C223.673 102.194 224.715 102.07 225.514 101.987C226.322 101.895 226.909 101.744 227.276 101.533C227.653 101.321 227.841 100.954 227.841 100.431V100.321C227.841 98.962 227.469 97.9062 226.726 97.1534C225.991 96.4005 224.876 96.0241 223.379 96.0241C221.828 96.0241 220.611 96.3638 219.73 97.0432C218.848 97.7226 218.229 98.4479 217.871 99.2191L214.786 98.1173C215.337 96.832 216.071 95.8313 216.989 95.1152C217.917 94.3899 218.926 93.885 220.019 93.6004C221.121 93.3066 222.204 93.1597 223.269 93.1597C223.948 93.1597 224.729 93.2423 225.61 93.4076C226.501 93.5636 227.359 93.8896 228.185 94.3853C229.021 94.8811 229.714 95.6293 230.265 96.63C230.816 97.6308 231.091 98.9712 231.091 100.651V114.588H227.841V111.723H227.676C227.456 112.182 227.088 112.674 226.574 113.197C226.06 113.72 225.376 114.166 224.522 114.533C223.668 114.9 222.626 115.084 221.396 115.084ZM221.892 112.164C223.177 112.164 224.261 111.912 225.142 111.407C226.032 110.902 226.703 110.25 227.153 109.451C227.612 108.652 227.841 107.812 227.841 106.931V103.956C227.703 104.122 227.4 104.273 226.932 104.411C226.473 104.539 225.941 104.654 225.335 104.755C224.738 104.847 224.155 104.93 223.586 105.003C223.026 105.067 222.571 105.122 222.222 105.168C221.378 105.278 220.588 105.457 219.854 105.705C219.128 105.944 218.541 106.307 218.091 106.793C217.65 107.271 217.43 107.923 217.43 108.749C217.43 109.878 217.848 110.732 218.683 111.31C219.528 111.879 220.597 112.164 221.892 112.164Z" fill="black"/>
<path d="M132.823 141.939C131.739 141.939 130.809 141.551 130.032 140.775C129.256 139.998 128.867 139.068 128.867 137.983C128.867 136.899 129.256 135.969 130.032 135.192C130.809 134.416 131.739 134.027 132.823 134.027C133.908 134.027 134.838 134.416 135.615 135.192C136.391 135.969 136.779 136.899 136.779 137.983C136.779 138.701 136.596 139.361 136.23 139.961C135.878 140.562 135.402 141.046 134.801 141.412C134.215 141.764 133.556 141.939 132.823 141.939Z" fill="black"/>
</svg>
