<svg width="430" height="119" viewBox="0 0 430 119" fill="none" xmlns="http://www.w3.org/2000/svg">
<path d="M298.864 74.0002H298V72.0564L297.352 70.5446L294.76 68.1689L293.68 66.873L290.872 64.0653L285.904 60.1777L281.368 57.586L278.56 54.5623L277.696 51.7546L277.912 48.7309L278.128 47.6511L278.776 45.7073L279.64 44.4114H280.288L285.04 49.8108L288.928 54.9943L298 64.9292L299.08 65.7931L300.592 68.3849L300.376 71.4085L298.864 74.0002ZM242.704 108.341L240.112 106.829L238.6 105.749L237.952 104.669L236.872 101.429L236.44 98.1897L236.224 97.3258L235.36 94.734L234.712 93.8701L234.064 93.2222H232.552L231.688 93.4382L230.392 94.518L229.528 94.734L228.664 94.3021L227.584 93.2222L226.936 92.3583L226.504 90.8465L226.936 88.6867L220.672 92.3583L218.512 94.0861L217.432 95.166L216.352 96.2459L215.488 96.6778L214.408 96.8938L212.68 96.4619L211.384 94.518L211.168 93.4382L209.872 92.7903L208.792 92.5743L206.2 92.7903L204.904 92.5743L204.256 91.9264L203.176 90.6305L202.096 89.7666L193.888 88.9027L193.24 88.4707L192.808 87.8228L192.16 86.095L191.728 85.663L190.648 85.2311L185.896 85.0151L184.6 84.5832L183.088 83.2873L181.576 82.8553L180.928 82.4234L180.496 81.7754V80.9115L180.928 79.3997L180.712 78.7517L180.064 78.3198L176.392 77.2399L175.096 76.592L174.448 75.9441L172.936 74.0002L172.504 73.5683L171.208 73.1363L169.264 73.5683L165.592 74.8642L161.704 77.4559L160.408 78.5358L158.896 80.4795L158.464 82.2074L158.032 85.2311L157.816 86.095L156.736 86.9588L153.928 87.3908L149.824 88.6867L145.936 89.3346L140.752 88.9027L133.624 90.4145L130.168 90.6305L128.872 90.8465L127.36 91.4944L124.984 93.4382L123.04 95.382L117.64 103.373L113.536 105.317L96.472 110.284L94.0959 110.716L91.288 106.613L89.344 105.533L82 103.373L80.0559 103.157L78.9759 103.373L76.6 105.533L70.768 108.341L61.6959 111.148L51.9759 112.228L46.792 112.66L44.848 111.796L43.552 110.932L39.0159 108.125L37.5041 107.693L36.208 107.477L33.1841 108.557L31.0241 108.773L29.2959 108.341L24.76 105.965L23.4641 105.101L22.6 104.237L22.168 103.373L21.52 102.725L20.44 101.861L18.4959 101.429L17.632 100.997L16.768 100.349L16.3359 98.8376L16.552 95.5979L16.3359 94.518L15.2559 92.7903L13.7441 91.7104L7.26405 89.3346L4.24 88.0387L3.16 85.879L1 83.2873L1.64797 82.8553L3.37595 83.2873L6.83203 84.7991L8.12797 85.2311L11.8 83.9352L16.12 79.3997L21.088 78.1038L24.112 76.592L24.9759 76.16L26.272 75.5121V74.0002L25.408 72.9203L21.088 74.8642L17.4159 74.6482L13.7441 73.3523L11.368 71.8405L12.448 70.3287L14.1759 70.5446L16.12 71.4085L17.848 71.8405L20.008 71.1925L23.248 69.2488L25.6241 68.6008L25.192 66.441L25.6241 64.0653H22.168V62.9854L25.6241 61.6896L27.1359 62.3375L27.568 64.2813L27.7841 66.873L28.2159 69.4648L29.2959 69.2488L30.808 67.7369L32.1041 65.1452L32.32 61.0416L38.5841 58.4499L46.792 56.2901L52.624 53.0505L53.92 50.4587L54.568 48.299L56.08 47.0031L59.752 46.3552L63.208 46.5712L65.8 47.0031L67.96 47.6511L74.872 50.8907L77.8959 51.7546L81.568 51.9706L85.24 51.7546L95.1759 49.5948L98.2 49.8108L104.464 51.5386L107.704 51.9706L114.616 51.7546L136.432 46.5712L140.752 44.1954L137.296 43.7634L133.192 43.9794L129.088 43.7634L125.2 41.3877L122.392 39.228L114.184 35.3403L110.296 34.2605L102.088 34.0445L98.2 33.6126L94.528 31.4528L91.288 30.1569H87.184L78.76 31.8847L79.624 31.2368L80.92 28.645L78.76 28.861L77.032 29.7249L75.7359 31.0208L74.44 31.8847L72.4959 32.5327L61.48 31.4528L59.32 31.8847L54.352 34.9084L53.272 35.3403L51.9759 36.2042L50.464 40.0919L48.952 40.9558L46.5759 39.8759L45.4959 37.9321L45.064 35.5563V33.6126L43.768 30.5889L40.96 27.1332L38.8 23.8936L39.6641 21.0858L41.392 20.006L42.472 18.9261L43.12 17.4143V15.4705H43.984L45.712 18.2782L47.872 19.574L55 21.0858L56.944 21.7338L61.048 23.8936L62.992 24.3255L65.152 23.8936L74.6559 19.3581L76.168 18.9261L78.328 18.7101L79.192 18.9261L80.272 20.4379L80.92 21.0858L96.04 20.8699L99.4959 22.1657L101.872 20.8699L108.136 19.574L110.296 18.7101L112.024 16.9823L113.32 14.6065L114.184 11.7989L114.616 8.77519H115.912L117.856 12.4468L120.88 14.8225L124.768 16.5504L141.184 20.4379L156.952 22.3817L160.408 22.1657L167.104 17.8462L170.776 16.1184L173.584 17.6303H174.664L175.096 15.6864L176.608 15.4705L178.552 16.1184L180.496 16.5504L181.36 15.9024L182.44 12.4468L183.304 11.1509L184.384 12.2308L185.464 12.8787L186.544 12.6627L187.624 12.0148L188.704 13.0947L187.624 14.1746L190.864 15.4705L192.16 13.3107L194.32 13.5266L196.912 14.6065L199.504 15.4705L199.72 14.8225L200.368 13.5266L201.664 12.8787L203.392 13.7426L204.904 14.1746L206.632 13.3107L217.648 5.75152L219.16 5.31954L219.592 6.18344L220.24 7.6953L221.104 9.2071L223.048 9.85507H224.776L226.504 9.63908L227.8 8.99118L229.096 7.47931L231.688 8.5592L242.704 7.47931L246.16 8.12722L252.424 10.503L256.312 11.1509L259.984 10.503L266.464 8.12722L272.296 7.26332L289.36 1.21599L291.52 1L295.192 2.94378L296.92 3.15977L299.08 3.37576L302.32 4.02367L317.656 4.23966L340.552 8.5592L353.08 10.287L360.208 11.1509L371.656 11.5829L376.624 13.0947H379.216L381.16 12.2308L385.48 9.42309L387.424 8.77519H398.008L402.544 7.6953L406.432 5.31954L408.16 7.26332L412.48 5.75152L413.992 7.47931L416.584 5.96745L420.688 4.45565L425.224 3.80768L428.248 4.23966L425.656 5.53553L423.28 7.26332L421.984 9.85507L422.632 13.0947L421.552 14.1746L419.824 12.4468L418.528 13.5266L416.584 15.4705L413.56 16.5504L412.912 16.7663L410.968 18.2782L409.672 18.7101H407.728L406.216 18.4942H404.704L402.976 19.79L393.04 20.8699L389.584 22.1657L375.976 20.2219L365.608 21.0858L363.448 21.9498L361.504 24.1096L353.944 35.5563L350.488 38.364L347.032 38.1481L343.36 35.9883L340.336 36.2042L337.312 37.0682L333.424 37.5001L331.696 37.2841L328.672 35.7723L326.944 35.3403H325.432L322.84 36.2042L320.896 36.4202L317.656 35.9883L307.288 33.1806L298.432 32.5327L261.496 37.2841L256.96 38.364L255.232 40.3079L253.504 42.8995L249.832 45.9232L245.728 48.515L243.136 49.5948V50.8907L247.888 48.7309L256.744 41.3877L261.712 38.58L267.544 38.1481L270.136 41.3877L270.568 46.1392L270.352 50.2427L271.432 55.2103L271.648 58.2339L271 59.7458L269.704 59.9617L267.112 60.8257H266.032L264.736 60.1777L262.36 58.0179L261.064 57.586L250.48 56.938L245.728 58.2339L244.216 61.9056L245.296 61.0416L248.752 59.7458L249.616 63.6334L250.264 65.1452L251.776 66.2251L250.048 67.5209L247.456 70.7606L245.296 71.8405L248.32 73.7843L247.888 75.5121L245.944 77.4559L244.216 79.6156L253.504 79.1837L255.664 77.8879L256.528 75.0801L253.288 68.6008L253.936 65.1452L252.208 64.0653L251.776 62.1215L252.208 59.9617L253.936 58.6659L256.744 58.4499L259.552 59.9617L263.872 64.0653L265.6 62.9854L267.112 62.5535L268.624 62.3375L270.352 61.9056L275.32 59.0978L276.4 58.6659L279.208 59.0978L282.232 60.1777L285.04 61.6896L286.768 62.9854L287.2 64.2813L287.416 67.089L287.848 68.6008L288.928 69.8967L292.6 72.2724L294.976 74.4322L296.488 76.592L297.352 79.3997L297.568 82.8553L296.488 87.8228V89.5506L298.432 93.2222L298.648 94.518L299.08 95.166L300.376 95.5979L301.456 96.4619L302.32 99.0536L303.832 102.077L304.264 102.941L303.4 105.533L301.672 108.341L299.296 110.716L296.92 111.796H295.192L292.168 112.66L290.44 112.876L288.496 112.444L287.2 111.796L286.552 111.148L285.688 110.5L283.096 110.068H280.288L277.912 111.148L277.048 113.308L276.616 114.82L275.752 116.116L274.456 116.98L272.944 117.196L272.296 116.548L271.432 113.524L271 112.228L268.408 110.932L264.088 113.308L261.712 112.876L261.28 111.58L261.496 110.068L261.712 108.341L260.416 107.261H258.904L257.392 108.125L256.096 109.205L255.232 110.5L254.584 108.773L253.72 107.693L252.424 106.829L250.696 106.181L248.32 108.125L246.592 108.557L242.056 107.261L242.704 108.341Z" fill="#FF6901" stroke="black" stroke-width="2" stroke-linecap="round" stroke-linejoin="round"/>
<path d="M171.175 32.5954C171.057 31.5957 170.577 30.8197 169.735 30.2672C168.893 29.7148 167.86 29.4386 166.637 29.4386C165.743 29.4386 164.96 29.5832 164.289 29.8726C163.625 30.162 163.105 30.5599 162.731 31.0663C162.362 31.5727 162.178 32.1482 162.178 32.7927C162.178 33.332 162.306 33.7956 162.563 34.1837C162.826 34.5651 163.161 34.8841 163.569 35.1406C163.977 35.3905 164.404 35.5976 164.852 35.7621C165.299 35.9199 165.71 36.0482 166.085 36.1468L168.137 36.6992C168.663 36.8374 169.248 37.0281 169.893 37.2714C170.544 37.5148 171.165 37.8469 171.757 38.2678C172.356 38.6821 172.849 39.2148 173.237 39.8659C173.625 40.517 173.819 41.3161 173.819 42.2631C173.819 43.3549 173.533 44.3414 172.961 45.2227C172.395 46.1039 171.566 46.8044 170.475 47.3239C169.39 47.8435 168.071 48.1032 166.519 48.1032C165.072 48.1032 163.819 47.8698 162.76 47.4028C161.708 46.9359 160.879 46.2848 160.274 45.4495C159.676 44.6143 159.337 43.6442 159.258 42.5394H161.784C161.849 43.3023 162.106 43.9336 162.553 44.4334C163.007 44.9267 163.579 45.295 164.27 45.5383C164.967 45.7751 165.716 45.8935 166.519 45.8935C167.453 45.8935 168.291 45.7422 169.034 45.4397C169.778 45.1306 170.366 44.7031 170.8 44.1572C171.234 43.6048 171.451 42.9603 171.451 42.2237C171.451 41.5529 171.264 41.007 170.889 40.5861C170.514 40.1652 170.021 39.8232 169.409 39.5601C168.798 39.297 168.137 39.0669 167.426 38.8696L164.94 38.1593C163.362 37.7055 162.112 37.0577 161.192 36.2159C160.271 35.374 159.811 34.2724 159.811 32.9111C159.811 31.7799 160.116 30.7934 160.728 29.9515C161.346 29.1031 162.175 28.4455 163.214 27.9785C164.26 27.505 165.427 27.2682 166.716 27.2682C168.018 27.2682 169.176 27.5017 170.189 27.9687C171.201 28.429 172.004 29.0604 172.596 29.8628C173.194 30.6651 173.51 31.576 173.543 32.5954H171.175ZM187.075 41.5529V32.5954H189.403V47.7481H187.075V45.1832H186.917C186.562 45.9527 186.01 46.607 185.26 47.1463C184.51 47.6791 183.563 47.9454 182.419 47.9454C181.472 47.9454 180.63 47.7382 179.893 47.3239C179.157 46.903 178.578 46.2716 178.157 45.4298C177.736 44.5814 177.526 43.5127 177.526 42.2237V32.5954H179.854V42.0658C179.854 43.1707 180.163 44.052 180.781 44.7097C181.406 45.3673 182.202 45.6962 183.169 45.6962C183.747 45.6962 184.336 45.5482 184.934 45.2522C185.539 44.9563 186.046 44.5025 186.454 43.8909C186.868 43.2792 187.075 42.4999 187.075 41.5529ZM199.823 48.0638C198.403 48.0638 197.179 47.7284 196.153 47.0576C195.127 46.3867 194.338 45.4627 193.786 44.2855C193.233 43.1082 192.957 41.7633 192.957 40.2507C192.957 38.7117 193.24 37.3536 193.806 36.1764C194.378 34.9926 195.173 34.0686 196.193 33.4043C197.219 32.7335 198.416 32.3981 199.784 32.3981C200.849 32.3981 201.809 32.5954 202.664 32.99C203.519 33.3846 204.22 33.937 204.766 34.6473C205.311 35.3576 205.65 36.1863 205.782 37.1333H203.454C203.276 36.4428 202.881 35.8311 202.27 35.2984C201.665 34.7591 200.849 34.4895 199.823 34.4895C198.916 34.4895 198.12 34.7262 197.436 35.1998C196.758 35.6667 196.229 36.3277 195.848 37.1826C195.473 38.031 195.285 39.0274 195.285 40.1717C195.285 41.3424 195.469 42.3618 195.838 43.2299C196.213 44.098 196.739 44.7721 197.416 45.2522C198.1 45.7323 198.902 45.9724 199.823 45.9724C200.428 45.9724 200.977 45.8672 201.471 45.6567C201.964 45.4463 202.382 45.1437 202.724 44.7491C203.066 44.3545 203.309 43.881 203.454 43.3286H205.782C205.65 44.223 205.325 45.0286 204.805 45.7455C204.292 46.4558 203.611 47.0214 202.763 47.4423C201.921 47.8566 200.941 48.0638 199.823 48.0638ZM209.185 47.7481V32.5954H211.434V34.8841H211.592C211.868 34.1343 212.368 33.526 213.092 33.059C213.815 32.5921 214.631 32.3586 215.538 32.3586C215.709 32.3586 215.923 32.3619 216.179 32.3685C216.436 32.3751 216.63 32.3849 216.762 32.3981V34.7657C216.683 34.746 216.502 34.7164 216.219 34.6769C215.943 34.6309 215.65 34.6079 215.341 34.6079C214.604 34.6079 213.947 34.7624 213.368 35.0715C212.796 35.374 212.342 35.7949 212.007 36.3342C211.678 36.8669 211.513 37.4753 211.513 38.1593V47.7481H209.185ZM225.413 48.0638C223.953 48.0638 222.694 47.7415 221.635 47.097C220.583 46.4459 219.77 45.5383 219.198 44.3743C218.633 43.2036 218.35 41.8422 218.35 40.2901C218.35 38.738 218.633 37.3701 219.198 36.1863C219.77 34.9959 220.566 34.0686 221.586 33.4043C222.611 32.7335 223.808 32.3981 225.176 32.3981C225.966 32.3981 226.745 32.5296 227.514 32.7927C228.284 33.0557 228.984 33.4832 229.616 34.0751C230.247 34.6605 230.75 35.4365 231.125 36.4033C231.5 37.3701 231.687 38.5605 231.687 39.9744V40.9609H220.007V38.9485H229.32C229.32 38.0935 229.149 37.3306 228.807 36.6598C228.471 35.989 227.991 35.4595 227.366 35.0715C226.748 34.6835 226.018 34.4895 225.176 34.4895C224.249 34.4895 223.447 34.7197 222.769 35.18C222.099 35.6338 221.582 36.2257 221.221 36.9557C220.859 37.6857 220.678 38.4684 220.678 39.3036V40.6453C220.678 41.7896 220.875 42.7597 221.27 43.5555C221.671 44.3447 222.227 44.9464 222.937 45.3608C223.647 45.7685 224.473 45.9724 225.413 45.9724C226.025 45.9724 226.577 45.8869 227.07 45.7159C227.57 45.5383 228.001 45.2753 228.363 44.9267C228.725 44.5716 229.004 44.1309 229.201 43.6048L231.451 44.2361C231.214 44.999 230.816 45.6699 230.257 46.2486C229.698 46.8208 229.007 47.268 228.185 47.5903C227.363 47.9059 226.439 48.0638 225.413 48.0638Z" fill="black"/>
<path d="M196.527 65.3516C195.443 65.3516 194.513 64.9634 193.736 64.1868C192.96 63.4103 192.571 62.4799 192.571 61.3956C192.571 60.3114 192.96 59.381 193.736 58.6044C194.513 57.8279 195.443 57.4396 196.527 57.4396C197.612 57.4396 198.542 57.8279 199.319 58.6044C200.095 59.381 200.483 60.3114 200.483 61.3956C200.483 62.1136 200.3 62.7729 199.934 63.3736C199.582 63.9744 199.106 64.4579 198.505 64.8242C197.919 65.1758 197.26 65.3516 196.527 65.3516Z" fill="black"/>
</svg>
