<svg width="189" height="203" viewBox="0 0 189 203" fill="none" xmlns="http://www.w3.org/2000/svg">
<path d="M160.84 149.592V152.616L159.76 158.447L160.624 159.311L162.352 160.391L164.08 162.119L165.376 163.199L168.616 165.358L169.696 167.086L170.344 168.598L172.504 169.894L173.368 170.974L174.016 172.486L177.688 175.294L179.416 176.373L181.576 177.021L185.68 177.453L186.76 178.101L187.192 178.749L186.976 179.829L185.896 180.477L184.6 181.125L183.088 181.341H180.496L176.824 180.909L166.888 177.453L165.16 177.021L163.432 176.805L158.032 177.021H156.952L150.04 175.294L138.376 173.782L131.68 171.622L127.792 171.406L117.424 171.838L115.912 172.27L114.616 172.918L112.888 173.35L110.512 173.134L106.408 173.566L104.68 173.998L103.6 174.43L103.168 175.941V177.669L104.032 180.045L104.464 180.693L101.44 188.036L98.848 191.708L97.768 192.572L96.904 193.22L96.04 193.652L92.584 194.299L90.856 194.947L84.16 199.267L82.648 200.131L80.488 200.779L77.248 201.211L75.304 200.995L67.96 199.267L66.448 198.403L63.856 196.675L57.376 193.436L56.08 192.356L55.432 191.924L53.704 189.332L52.192 188.252L48.952 187.172L42.904 188.684L40.312 188.9L31.456 187.388H29.512H28.216L25.84 188.468L23.248 190.412L16.12 194.084L13.096 193.004L7.264 188.9L2.944 181.773L2.29601 177.885L3.37601 174.646L4.67201 171.406L5.32 167.95L4.88801 164.927L2.72801 158.663L2.08 155.208L3.59201 138.577L6.83201 128.642L7.264 125.835L6.83201 118.923L6.184 116.116L4.88801 114.388L1.64801 110.5L1 108.989L1.43201 107.261L2.944 106.181L4.67201 105.533L6.4 104.669L8.77601 102.725L10.504 100.565L12.016 97.9738L12.664 94.95L14.176 92.1424L17.2 91.7104L20.656 92.1424H23.248L25.84 88.4707L25.624 82.4234L22.168 71.4085L16.984 61.4736L16.12 57.8019V55.2102L17.632 50.0268L17.848 47.4351L17.416 44.6274L16.336 42.0356L14.824 39.6599L12.88 37.7161L14.824 35.3404L15.256 32.5326L15.904 31.0209L17.2 29.077L18.28 28.645L19.576 29.7249H20.224L22.816 26.2693L23.248 25.4054L23.68 23.6776L23.896 20.8699L24.112 20.222L24.976 19.1421L26.056 18.2782L29.08 15.2544L31.024 13.9586L34.264 12.0148L35.776 11.7989L37.072 12.0148L37.936 12.8787L38.8 14.3906L39.016 15.6864L38.8 19.79L39.232 21.7337L39.88 24.3255L40.744 30.1569L40.312 34.0445V34.9084H41.608L42.904 34.6924L50.464 27.7812V26.7013L51.544 25.6214L52.624 25.4054L57.376 25.8374H58.24L60.616 24.7575L64.288 22.3818L66.232 21.5178H67.312H70.336H71.2L72.28 20.8699L73.36 19.79L75.088 17.4142L77.896 15.2544L78.976 14.6065L79.84 13.7427L87.616 1L107.056 4.23966L107.92 4.88756L109.216 5.75152L109.864 6.61535L110.512 8.34327L110.944 13.0947L111.592 14.6065L114.4 18.2782L114.616 18.9261L115.264 21.9498L115.048 23.6776L114.184 25.4054L105.976 35.5563L109 44.6274L107.704 49.1629L107.272 50.0268L106.192 50.8907L103.816 52.1866L102.952 53.2665L101.008 56.9381L96.904 61.9056L96.472 62.9854L95.392 66.441L94.96 69.0328L95.176 70.9766L96.04 71.4085L102.52 70.5446L105.76 70.9766L107.272 71.6245L110.512 74.0002L111.376 74.6481L118.072 85.447L119.368 86.9588L123.256 90.4146L124.768 91.2784L126.064 91.4944L126.712 91.0625L128.656 89.5506L129.52 89.3347H131.464L132.76 89.9826H133.84L135.568 89.5506L136.648 89.3347L138.808 89.7665L140.104 89.5506L144.208 89.7665L157.168 98.1897L158.68 100.781V101.645L158.248 103.805L155.224 108.125L154.792 110.284L155.008 111.148L156.304 113.092L157.168 117.628L157.384 126.267L157.168 128.211L155.872 131.45L153.28 136.634L153.064 137.93L153.28 138.793L154.36 139.873L157.168 141.601L158.248 142.465L158.896 143.113L159.76 145.057L160.84 149.592Z" fill="#FF6901" stroke="black" stroke-width="2" stroke-linecap="round" stroke-linejoin="round"/>
<path d="M17.5274 106.528V103.81H36.4983V106.528H28.5443V129.105H25.4813V106.528H17.5274ZM43.8316 129.55C42.6294 129.55 41.5385 129.323 40.5586 128.87C39.5788 128.409 38.8007 127.746 38.2243 126.882C37.6479 126.009 37.3598 124.955 37.3598 123.72C37.3598 122.633 37.5738 121.752 38.002 121.077C38.4302 120.393 39.0024 119.858 39.7188 119.471C40.4351 119.084 41.2256 118.796 42.0901 118.607C42.9629 118.409 43.8398 118.253 44.7209 118.137C45.8736 117.989 46.8082 117.878 47.5245 117.804C48.2491 117.722 48.7761 117.586 49.1054 117.396C49.443 117.207 49.6118 116.878 49.6118 116.408V116.309C49.6118 115.091 49.2783 114.144 48.6114 113.469C47.9527 112.794 46.9522 112.456 45.6101 112.456C44.2186 112.456 43.1276 112.761 42.3371 113.37C41.5467 113.979 40.9909 114.63 40.6698 115.321L37.9032 114.333C38.3972 113.181 39.0559 112.283 39.8793 111.641C40.711 110.99 41.6167 110.537 42.5965 110.282C43.5846 110.019 44.5562 109.887 45.5113 109.887C46.1206 109.887 46.8205 109.961 47.611 110.109C48.4096 110.249 49.1795 110.542 49.9206 110.986C50.6699 111.431 51.2915 112.102 51.7855 112.999C52.2796 113.897 52.5266 115.099 52.5266 116.606V129.105H49.6118V126.536H49.4636C49.266 126.948 48.9366 127.388 48.4755 127.857C48.0144 128.327 47.401 128.726 46.6352 129.056C45.8695 129.385 44.9349 129.55 43.8316 129.55ZM44.2762 126.931C45.429 126.931 46.4006 126.705 47.191 126.252C47.9897 125.799 48.5908 125.214 48.9943 124.498C49.406 123.782 49.6118 123.028 49.6118 122.238V119.57C49.4883 119.718 49.2166 119.854 48.7966 119.978C48.3849 120.093 47.9074 120.196 47.3639 120.286C46.8287 120.369 46.3059 120.443 45.7954 120.509C45.2931 120.566 44.8855 120.616 44.5727 120.657C43.8151 120.756 43.107 120.916 42.4483 121.139C41.7978 121.353 41.2709 121.678 40.8674 122.114C40.4722 122.542 40.2746 123.127 40.2746 123.868C40.2746 124.881 40.6492 125.647 41.3985 126.165C42.156 126.676 43.1152 126.931 44.2762 126.931ZM44.375 107.565L47.3886 101.834H50.7975L46.944 107.565H44.375ZM65.5537 129.5C63.7751 129.5 62.2436 129.08 60.9591 128.24C59.6747 127.401 58.6866 126.244 57.9949 124.77C57.3033 123.296 56.9575 121.612 56.9575 119.718C56.9575 117.792 57.3115 116.091 58.0196 114.617C58.736 113.135 59.7323 111.978 61.0085 111.147C62.293 110.307 63.7916 109.887 65.5043 109.887C66.8381 109.887 68.0403 110.134 69.1107 110.628C70.1811 111.122 71.058 111.814 71.7414 112.703C72.4248 113.592 72.8489 114.63 73.0136 115.815H70.0988C69.8765 114.951 69.3824 114.185 68.6167 113.518C67.8592 112.843 66.8381 112.505 65.5537 112.505C64.4174 112.505 63.4211 112.802 62.5648 113.395C61.7167 113.979 61.0538 114.807 60.5763 115.877C60.1069 116.939 59.8723 118.187 59.8723 119.619C59.8723 121.085 60.1028 122.361 60.5639 123.448C61.0332 124.535 61.692 125.379 62.5401 125.98C63.3964 126.581 64.4009 126.882 65.5537 126.882C66.3112 126.882 66.9987 126.75 67.6163 126.487C68.2338 126.223 68.7566 125.844 69.1848 125.35C69.613 124.856 69.9176 124.263 70.0988 123.572H73.0136C72.8489 124.692 72.4413 125.7 71.7908 126.598C71.1486 127.487 70.2964 128.195 69.2342 128.722C68.1803 129.241 66.9534 129.5 65.5537 129.5ZM80.1894 117.693V129.105H77.2746V103.81H80.1894V113.098H80.4364C80.8811 112.118 81.548 111.34 82.4373 110.764C83.3348 110.179 84.5287 109.887 86.019 109.887C87.3117 109.887 88.4439 110.146 89.4155 110.665C90.3871 111.176 91.1405 111.962 91.6757 113.024C92.2191 114.078 92.4909 115.42 92.4909 117.05V129.105H89.5761V117.248C89.5761 115.741 89.185 114.576 88.4027 113.753C87.6287 112.921 86.5542 112.505 85.1792 112.505C84.224 112.505 83.3677 112.707 82.6102 113.111C81.8609 113.514 81.2681 114.103 80.8317 114.877C80.4035 115.651 80.1894 116.589 80.1894 117.693ZM97.8233 129.105V110.134H100.738V129.105H97.8233ZM99.3054 106.972C98.7373 106.972 98.2474 106.779 97.8357 106.392C97.4322 106.005 97.2305 105.539 97.2305 104.996C97.2305 104.453 97.4322 103.987 97.8357 103.6C98.2474 103.213 98.7373 103.02 99.3054 103.02C99.8736 103.02 100.359 103.213 100.763 103.6C101.175 103.987 101.38 104.453 101.38 104.996C101.38 105.539 101.175 106.005 100.763 106.392C100.359 106.779 99.8736 106.972 99.3054 106.972ZM106.077 129.105V110.134H108.893V112.999H109.09C109.436 112.061 110.062 111.299 110.968 110.714C111.873 110.13 112.894 109.838 114.031 109.838C114.245 109.838 114.512 109.842 114.834 109.85C115.155 109.858 115.398 109.871 115.562 109.887V112.851C115.463 112.826 115.237 112.789 114.883 112.74C114.537 112.682 114.171 112.654 113.784 112.654C112.862 112.654 112.038 112.847 111.314 113.234C110.597 113.613 110.029 114.14 109.609 114.815C109.197 115.482 108.992 116.244 108.992 117.1V129.105H106.077ZM124.6 129.55C123.398 129.55 122.307 129.323 121.327 128.87C120.347 128.409 119.569 127.746 118.993 126.882C118.416 126.009 118.128 124.955 118.128 123.72C118.128 122.633 118.342 121.752 118.77 121.077C119.199 120.393 119.771 119.858 120.487 119.471C121.204 119.084 121.994 118.796 122.859 118.607C123.731 118.409 124.608 118.253 125.489 118.137C126.642 117.989 127.577 117.878 128.293 117.804C129.017 117.722 129.544 117.586 129.874 117.396C130.211 117.207 130.38 116.878 130.38 116.408V116.309C130.38 115.091 130.047 114.144 129.38 113.469C128.721 112.794 127.721 112.456 126.379 112.456C124.987 112.456 123.896 112.761 123.106 113.37C122.315 113.979 121.759 114.63 121.438 115.321L118.672 114.333C119.166 113.181 119.824 112.283 120.648 111.641C121.479 110.99 122.385 110.537 123.365 110.282C124.353 110.019 125.325 109.887 126.28 109.887C126.889 109.887 127.589 109.961 128.379 110.109C129.178 110.249 129.948 110.542 130.689 110.986C131.438 111.431 132.06 112.102 132.554 112.999C133.048 113.897 133.295 115.099 133.295 116.606V129.105H130.38V126.536H130.232C130.034 126.948 129.705 127.388 129.244 127.857C128.783 128.327 128.169 128.726 127.404 129.056C126.638 129.385 125.703 129.55 124.6 129.55ZM125.045 126.931C126.197 126.931 127.169 126.705 127.959 126.252C128.758 125.799 129.359 125.214 129.763 124.498C130.174 123.782 130.38 123.028 130.38 122.238V119.57C130.257 119.718 129.985 119.854 129.565 119.978C129.153 120.093 128.676 120.196 128.132 120.286C127.597 120.369 127.074 120.443 126.564 120.509C126.062 120.566 125.654 120.616 125.341 120.657C124.584 120.756 123.875 120.916 123.217 121.139C122.566 121.353 122.039 121.678 121.636 122.114C121.241 122.542 121.043 123.127 121.043 123.868C121.043 124.881 121.418 125.647 122.167 126.165C122.924 126.676 123.884 126.931 125.045 126.931Z" fill="black"/>
</svg>
