<svg width="174" height="177" viewBox="0 0 174 177" fill="none" xmlns="http://www.w3.org/2000/svg">
<path d="M169.048 98.8376L165.592 107.909L164.08 110.716L163.216 111.148L160.624 113.956L157.384 119.571L153.496 123.891L152.632 125.187L152.416 126.483L152.632 127.347L153.064 127.994L154.576 128.426H156.52L157.384 128.642L158.68 129.29L159.544 129.506L161.272 129.074L163.864 127.347L164.728 129.938L164.296 144.841L161.488 151.968L160.192 154.344L157.816 156.719L157.384 158.231L156.304 162.983L155.44 164.063L154.576 164.711L150.472 164.927L149.392 165.143L147.664 165.574L145.288 166.654H140.32L136.864 165.79L134.056 164.711L132.544 164.279H131.248L127.576 164.927L118.936 165.574L111.16 164.711L106.408 164.495L103.816 164.927L95.392 168.166L92.8 170.542L91.072 173.35L89.344 175.293L88.048 172.918V170.326L88.48 168.166L88.264 167.086L87.616 166.438L86.104 166.006L84.376 165.358L83.512 162.335L82.216 161.471L81.352 161.687L79.624 162.335L77.248 163.415L71.848 167.95L66.664 170.326L65.152 170.542L63.856 170.326L62.776 169.462L61.696 168.382L60.832 166.87L59.752 163.631L59.104 160.823L58.024 159.311L55.432 157.799L53.056 158.231L52.408 158.015L50.896 157.367L48.952 153.264L47.224 152.184L45.496 151.536L43.984 150.888L38.584 147.216L37.288 145.705L33.832 139.873L32.752 137.281L32.536 134.69L31.672 131.45L29.512 122.379L28.432 119.355L26.92 117.628L24.328 115.9L21.304 112.876L19.576 111.58L18.064 111.364L13.096 110.932L10.072 111.364L6.18399 113.74L6.4 112.66L6.61598 109.42L3.80797 100.565L2.94399 87.1748L2.29598 84.1512L1.43199 81.9914L1 80.4795L1.21598 78.5357L1.86399 77.2399L4.88797 73.1363V71.1925L5.53598 68.6008L8.12797 68.8168L13.528 69.8967H15.256L18.928 69.0328L20.224 69.2487L20.872 69.6807L21.952 70.7606L22.6 71.1925H23.464L26.704 70.3286L28.648 70.5446L31.024 71.4085L32.968 71.6245L35.776 71.4085H37.72L39.016 70.9766L40.528 70.1127L44.632 65.1451L48.088 58.6658L48.952 58.0179L49.816 57.5859L53.056 56.938L54.136 56.5061V55.6422L53.272 53.6984V52.6185L56.512 45.9232L57.808 44.8433H58.888L59.752 45.2753L60.832 46.5711L62.128 47.867H63.856L65.8 46.5711L67.096 44.4113L70.12 42.8995L72.496 40.5238L73.144 37.2841V32.7486L69.256 22.3817L69.04 14.1745L72.928 6.39943L75.304 3.15977L77.68 1.8639L80.056 1H82.216L84.376 2.07989L84.808 3.80768L85.024 7.04733V8.5592L87.184 11.3669L89.992 16.7663L92.152 18.4941L95.176 19.1421L98.416 21.5178L102.088 23.6776H103.6L105.976 22.1657L108.784 20.4379L110.296 19.574L116.128 18.7101L118.288 18.9261L119.584 20.006L121.096 23.8935L121.96 25.1894L124.336 26.0533L129.736 27.3492L132.112 31.6687L133.408 33.6125L134.92 34.9084L137.728 33.3966L138.16 32.7486L139.672 31.6687L140.968 32.1007L142.912 34.0445L143.776 34.9084L147.664 40.5238L148.744 41.6037L149.824 42.0356L150.904 42.2516L156.736 42.4676L159.328 43.1155L160.624 43.9794L161.92 45.9232L162.784 47.4351L168.832 51.7546L170.776 53.6984L171.64 55.4262L172.072 56.938L171.856 57.5859L171.424 58.2339L169.048 60.3937L167.536 61.0416H166.672L164.08 60.3937H163.216L162.352 60.8256L160.84 62.1215L155.44 65.7931L153.496 67.5209L153.064 68.6008L152.848 69.6807V71.6245L155.656 81.1274L156.952 84.7991L158.464 86.0949L163.432 88.0387L164.296 88.6866L164.944 89.5506L169.048 98.8376Z" fill="#FF6901" stroke="black" stroke-width="2" stroke-linecap="round" stroke-linejoin="round"/>
<path d="M30.4086 96.1637V93.2122H51.0159V96.1637H42.3758V120.689H39.0486V96.1637H30.4086ZM53.5817 120.689V100.081H56.6406V103.194H56.8553C57.2309 102.174 57.9107 101.347 58.8945 100.712C59.8784 100.077 60.9874 99.7593 62.2217 99.7593C62.4543 99.7593 62.745 99.7637 63.0938 99.7727C63.4426 99.7816 63.7065 99.7951 63.8853 99.8129V103.033C63.778 103.006 63.532 102.966 63.1475 102.912C62.7718 102.849 62.3738 102.818 61.9534 102.818C60.9517 102.818 60.0573 103.028 59.2702 103.449C58.492 103.86 57.8749 104.433 57.4187 105.166C56.9715 105.89 56.7479 106.718 56.7479 107.648V120.689H53.5817ZM80.6254 112.263V100.081H83.7916V120.689H80.6254V117.2H80.4107C79.9278 118.247 79.1764 119.137 78.1568 119.87C77.1372 120.595 75.8492 120.957 74.293 120.957C73.005 120.957 71.8601 120.675 70.8584 120.112C69.8567 119.539 69.0696 118.681 68.4972 117.536C67.9247 116.382 67.6385 114.929 67.6385 113.175V100.081H70.8047V112.961C70.8047 114.463 71.2251 115.662 72.0659 116.556C72.9156 117.451 73.9978 117.898 75.3126 117.898C76.0997 117.898 76.9002 117.697 77.7141 117.294C78.5369 116.892 79.2256 116.275 79.7802 115.443C80.3437 114.611 80.6254 113.551 80.6254 112.263ZM89.5908 100.081H92.757V122.191C92.757 123.461 92.5379 124.561 92.0996 125.492C91.6703 126.422 91.0174 127.142 90.1408 127.652C89.2733 128.161 88.1776 128.416 86.8539 128.416C86.7465 128.416 86.6392 128.416 86.5319 128.416C86.4245 128.416 86.3172 128.416 86.2099 128.416V125.465C86.3172 125.465 86.4156 125.465 86.505 125.465C86.5945 125.465 86.6929 125.465 86.8002 125.465C87.7662 125.465 88.4728 125.178 88.92 124.606C89.3672 124.043 89.5908 123.238 89.5908 122.191V100.081ZM91.147 96.6467C90.5299 96.6467 89.9977 96.4365 89.5505 96.0162C89.1123 95.5958 88.8931 95.0904 88.8931 94.5001C88.8931 93.9098 89.1123 93.4045 89.5505 92.9841C89.9977 92.5637 90.5299 92.3535 91.147 92.3535C91.7642 92.3535 92.2919 92.5637 92.7302 92.9841C93.1774 93.4045 93.401 93.9098 93.401 94.5001C93.401 95.0904 93.1774 95.5958 92.7302 96.0162C92.2919 96.4365 91.7642 96.6467 91.147 96.6467ZM98.5561 120.689V100.081H101.722V120.689H98.5561ZM100.166 96.6467C99.5489 96.6467 99.0168 96.4365 98.5696 96.0162C98.1313 95.5958 97.9122 95.0904 97.9122 94.5001C97.9122 93.9098 98.1313 93.4045 98.5696 92.9841C99.0168 92.5637 99.5489 92.3535 100.166 92.3535C100.783 92.3535 101.311 92.5637 101.749 92.9841C102.196 93.4045 102.42 93.9098 102.42 94.5001C102.42 95.0904 102.196 95.5958 101.749 96.0162C101.311 96.4365 100.783 96.6467 100.166 96.6467ZM110.688 93.2122V120.689H107.522V93.2122H110.688ZM119.653 93.2122V120.689H116.487V93.2122H119.653ZM133.824 121.118C131.964 121.118 130.331 120.675 128.927 119.79C127.532 118.904 126.441 117.665 125.653 116.073C124.875 114.481 124.486 112.621 124.486 110.492C124.486 108.346 124.875 106.472 125.653 104.871C126.441 103.27 127.532 102.027 128.927 101.141C130.331 100.256 131.964 99.8129 133.824 99.8129C135.684 99.8129 137.312 100.256 138.707 101.141C140.112 102.027 141.203 103.27 141.981 104.871C142.768 106.472 143.162 108.346 143.162 110.492C143.162 112.621 142.768 114.481 141.981 116.073C141.203 117.665 140.112 118.904 138.707 119.79C137.312 120.675 135.684 121.118 133.824 121.118ZM133.824 118.274C135.237 118.274 136.4 117.911 137.312 117.187C138.224 116.462 138.9 115.51 139.338 114.329C139.776 113.149 139.995 111.87 139.995 110.492C139.995 109.115 139.776 107.831 139.338 106.642C138.9 105.452 138.224 104.491 137.312 103.757C136.4 103.024 135.237 102.657 133.824 102.657C132.411 102.657 131.248 103.024 130.336 103.757C129.423 104.491 128.748 105.452 128.31 106.642C127.872 107.831 127.653 109.115 127.653 110.492C127.653 111.87 127.872 113.149 128.31 114.329C128.748 115.51 129.423 116.462 130.336 117.187C131.248 117.911 132.411 118.274 133.824 118.274Z" fill="black"/>
<path d="M95.1114 140.04C94.0272 140.04 93.0968 139.652 92.3202 138.875C91.5437 138.099 91.1554 137.168 91.1554 136.084C91.1554 135 91.5437 134.069 92.3202 133.293C93.0968 132.516 94.0272 132.128 95.1114 132.128C96.1957 132.128 97.1261 132.516 97.9026 133.293C98.6792 134.069 99.0675 135 99.0675 136.084C99.0675 136.802 98.8843 137.461 98.518 138.062C98.1664 138.663 97.6902 139.146 97.0895 139.513C96.5034 139.864 95.844 140.04 95.1114 140.04Z" fill="black"/>
</svg>
