<svg width="159" height="145" viewBox="0 0 159 145" fill="none" xmlns="http://www.w3.org/2000/svg">
<path d="M154.144 17.4143L157.6 23.8936H157.168L152.848 29.725L151.336 31.2368L148.528 32.7487H147.664L147.016 32.5327L144.208 31.0208L143.344 30.5889H141.616L140.104 31.2368L138.808 32.3167L137.728 34.2605L136.432 37.5001L135.784 40.3078L135.136 62.1215L140.104 77.8878L138.808 79.6156L136.648 81.9914L131.032 89.5506L130.6 90.4145L130.384 91.9264L132.112 104.021L131.68 107.045V107.909L132.112 108.989L132.976 109.852L133.624 111.148L134.056 113.308L134.704 116.98L135.568 118.707L138.808 121.515L133.192 124.755L120.232 134.474L117.64 135.986L115.696 136.634H114.616H113.536L111.808 135.986L111.376 135.338L111.592 134.69L113.536 133.394L113.752 132.962V132.314L112.456 131.45L109 130.586L107.272 129.938L106.624 129.506L105.544 128.21L105.112 127.563L104.464 126.051V124.107L104.68 123.243L105.544 120.867V119.787L105.112 119.139L103.816 118.276L98.632 118.06L97.552 118.276L96.472 118.707L94.96 120.435L94.312 121.731L93.448 123.459L92.5841 124.323L91.288 124.971L89.3441 125.403L88.2641 125.619L86.32 125.403H85.24L82.216 126.051L79.6241 125.187H78.5441L71.632 125.835L69.9041 126.267L69.04 126.915L68.392 128.21L67.7441 131.018L67.528 132.53L67.096 134.258L66.6641 135.554L64.072 138.361L62.992 140.737L62.56 141.817L61.912 143.113L61.2641 143.545L57.16 143.977L42.472 142.897L44.848 137.714L46.36 135.554L50.68 131.018L50.896 130.37L50.4641 129.722L49.3841 128.642L46.36 122.811L45.28 119.787L42.04 118.276L30.376 124.107L27.352 126.699L27.136 127.563V129.29L27.568 133.394V134.69L27.136 135.986L26.272 138.361L25.408 139.441L24.328 139.873H23.248L22.6 139.441L21.952 138.361L21.52 136.85L20.656 135.554L18.496 133.394L17.416 132.098L16.768 130.586L16.552 128.858L16.9841 121.731L16.768 119.787L15.472 117.628L11.8 112.876L6.61601 107.909L5.32 105.965L2.72804 102.077L1.64804 99.7015L1.21601 99.0536L1 96.8938L1.21601 95.598L1.86405 94.3021L2.72804 93.0062L4.02405 92.1423L7.04804 94.0861L9.85601 98.4057L10.936 99.2696L12.448 99.4855L13.096 99.2696L14.176 97.7578L15.9041 96.2459L16.768 94.95L18.0641 92.5743L18.496 90.8465L18.712 88.9027L19.36 88.0388L20.008 87.1748L26.7041 82.8553L28.216 82.4234H30.16L31.24 82.6394L32.1041 82.8553L32.752 82.6394L34.2641 80.9115L36.4241 79.8316L36.64 77.8878V72.2724L34.2641 64.2813L33.832 62.3375L33.616 60.6097L34.696 52.6185L34.48 51.5386L34.048 51.1067L33.4 51.3227L31.24 52.4026H30.376L29.296 52.1866L28 51.3227L27.568 50.4587L27.352 49.1629L27.7841 45.4913L28.216 44.1954L30.376 43.5475L31.0241 42.6836L31.456 41.8196L31.888 39.228L33.832 32.9646L34.696 31.2368L35.56 30.3729L37.936 29.509L39.232 29.725L42.472 30.5889L44.416 29.9409L47.008 28.6451L54.568 23.2457L55.8641 21.9498L56.512 20.4379L56.9441 19.574L57.16 15.4705L56.9441 13.3107L66.448 10.503L69.04 8.99118L70.12 7.6953L71.848 4.67164L72.712 3.59175L74.2241 2.07989L75.52 1.64797H76.3841L78.112 2.29588L78.976 2.72786L80.92 2.51187L82.648 1.64797L85.24 1H91.5041L93.6641 1.64797L97.12 1.43198L100.144 2.29588L102.952 3.59175V6.39943L103.816 10.2871L115.048 16.7664L154.144 17.4143Z" fill="#FF6901" stroke="black" stroke-width="2" stroke-linecap="round" stroke-linejoin="round"/>
<path d="M35.0024 85.2702H37.4118L42.2304 93.3805H42.4341L47.2527 85.2702H49.6621L43.3842 95.4844V102.645H41.2803V95.4844L35.0024 85.2702ZM54.2432 102.95C53.4175 102.95 52.6681 102.794 51.9951 102.483C51.322 102.167 50.7876 101.711 50.3917 101.118C49.9958 100.518 49.7978 99.7941 49.7978 98.9457C49.7978 98.1992 49.9449 97.594 50.239 97.1303C50.5331 96.6608 50.9261 96.2932 51.4182 96.0274C51.9102 95.7616 52.4532 95.5636 53.047 95.4335C53.6465 95.2978 54.2489 95.1903 54.854 95.1112C55.6458 95.0094 56.2878 94.933 56.7798 94.8821C57.2775 94.8255 57.6395 94.7322 57.8657 94.6021C58.0976 94.4721 58.2135 94.2458 58.2135 93.9235V93.8556C58.2135 93.0185 57.9845 92.3681 57.5264 91.9044C57.0739 91.4406 56.3867 91.2087 55.4649 91.2087C54.509 91.2087 53.7596 91.418 53.2167 91.8365C52.6737 92.255 52.292 92.7018 52.0714 93.1769L50.1711 92.4982C50.5104 91.7064 50.9629 91.0899 51.5285 90.6488C52.0997 90.202 52.7218 89.8909 53.3949 89.7156C54.0735 89.5346 54.7409 89.4441 55.397 89.4441C55.8155 89.4441 56.2962 89.495 56.8392 89.5968C57.3878 89.693 57.9166 89.8937 58.4256 90.1992C58.9403 90.5046 59.3673 90.9655 59.7067 91.582C60.046 92.1985 60.2157 93.0242 60.2157 94.0592V102.645H58.2135V100.88H58.1117C57.976 101.163 57.7498 101.465 57.433 101.788C57.1163 102.11 56.695 102.384 56.169 102.611C55.643 102.837 55.0011 102.95 54.2432 102.95ZM54.5486 101.151C55.3404 101.151 56.0078 100.996 56.5508 100.685C57.0994 100.374 57.5122 99.9723 57.7894 99.4802C58.0721 98.9882 58.2135 98.4707 58.2135 97.9277V96.0953C58.1287 96.1971 57.9421 96.2904 57.6536 96.3752C57.3708 96.4544 57.0428 96.5251 56.6695 96.5873C56.3019 96.6439 55.9428 96.6948 55.5921 96.74C55.2471 96.7796 54.9671 96.8135 54.7522 96.8418C54.2319 96.9097 53.7455 97.02 53.2931 97.1727C52.8462 97.3197 52.4843 97.5431 52.2072 97.8429C51.9357 98.137 51.7999 98.5385 51.7999 99.0475C51.7999 99.7432 52.0573 100.269 52.5719 100.625C53.0923 100.976 53.7512 101.151 54.5486 101.151ZM63.87 102.645V89.6138H65.8042V91.582H65.94C66.1775 90.9372 66.6073 90.4141 67.2295 90.0125C67.8516 89.611 68.5529 89.4102 69.3334 89.4102C69.4805 89.4102 69.6643 89.413 69.8848 89.4187C70.1054 89.4243 70.2723 89.4328 70.3854 89.4441V91.4802C70.3175 91.4632 70.162 91.4378 69.9188 91.4038C69.6812 91.3642 69.4296 91.3444 69.1637 91.3444C68.5303 91.3444 67.9647 91.4774 67.467 91.7432C66.975 92.0033 66.5847 92.3653 66.2963 92.8291C66.0135 93.2872 65.8721 93.8103 65.8721 94.3985V102.645H63.87ZM76.5932 102.95C75.7675 102.95 75.0181 102.794 74.3451 102.483C73.6721 102.167 73.1376 101.711 72.7417 101.118C72.3458 100.518 72.1478 99.7941 72.1478 98.9457C72.1478 98.1992 72.2949 97.594 72.589 97.1303C72.8831 96.6608 73.2762 96.2932 73.7682 96.0274C74.2603 95.7616 74.8032 95.5636 75.3971 95.4335C75.9966 95.2978 76.5989 95.1903 77.2041 95.1112C77.9959 95.0094 78.6378 94.933 79.1298 94.8821C79.6275 94.8255 79.9895 94.7322 80.2157 94.6021C80.4476 94.4721 80.5636 94.2458 80.5636 93.9235V93.8556C80.5636 93.0185 80.3345 92.3681 79.8764 91.9044C79.4239 91.4406 78.7368 91.2087 77.8149 91.2087C76.8591 91.2087 76.1097 91.418 75.5667 91.8365C75.0238 92.255 74.642 92.7018 74.4214 93.1769L72.5211 92.4982C72.8605 91.7064 73.3129 91.0899 73.8785 90.6488C74.4497 90.202 75.0719 89.8909 75.7449 89.7156C76.4236 89.5346 77.091 89.4441 77.747 89.4441C78.1655 89.4441 78.6463 89.495 79.1892 89.5968C79.7378 89.693 80.2666 89.8937 80.7757 90.1992C81.2903 90.5046 81.7173 90.9655 82.0567 91.582C82.396 92.1985 82.5657 93.0242 82.5657 94.0592V102.645H80.5636V100.88H80.4618C80.326 101.163 80.0998 101.465 79.7831 101.788C79.4664 102.11 79.045 102.384 78.519 102.611C77.993 102.837 77.3511 102.95 76.5932 102.95ZM76.8987 101.151C77.6905 101.151 78.3578 100.996 78.9008 100.685C79.4494 100.374 79.8623 99.9723 80.1394 99.4802C80.4222 98.9882 80.5636 98.4707 80.5636 97.9277V96.0953C80.4787 96.1971 80.2921 96.2904 80.0037 96.3752C79.7209 96.4544 79.3928 96.5251 79.0196 96.5873C78.6519 96.6439 78.2928 96.6948 77.9421 96.74C77.5971 96.7796 77.3172 96.8135 77.1023 96.8418C76.5819 96.9097 76.0955 97.02 75.6431 97.1727C75.1963 97.3197 74.8343 97.5431 74.5572 97.8429C74.2857 98.137 74.15 98.5385 74.15 99.0475C74.15 99.7432 74.4073 100.269 74.922 100.625C75.4423 100.976 76.1012 101.151 76.8987 101.151ZM91.5138 102.916C90.2921 102.916 89.2402 102.628 88.3579 102.051C87.4756 101.474 86.7969 100.679 86.3218 99.6669C85.8467 98.6545 85.6092 97.4979 85.6092 96.1971C85.6092 94.8736 85.8524 93.7057 86.3388 92.6933C86.8308 91.6753 87.5152 90.8807 88.3918 90.3094C89.2741 89.7326 90.3034 89.4441 91.4798 89.4441C92.3961 89.4441 93.2218 89.6138 93.957 89.9531C94.6923 90.2925 95.2946 90.7676 95.7641 91.3784C96.2335 91.9892 96.5247 92.7018 96.6379 93.5162H94.6357C94.483 92.9224 94.1437 92.3964 93.6177 91.9383C93.0974 91.4745 92.3961 91.2426 91.5138 91.2426C90.7333 91.2426 90.0489 91.4462 89.4607 91.8535C88.8782 92.255 88.4229 92.8234 88.0949 93.5587C87.7725 94.2883 87.6113 95.1451 87.6113 96.1292C87.6113 97.1359 87.7697 98.0125 88.0864 98.7591C88.4088 99.5057 88.8612 100.085 89.4438 100.498C90.032 100.911 90.722 101.118 91.5138 101.118C92.0341 101.118 92.5064 101.027 92.9305 100.846C93.3547 100.665 93.7138 100.405 94.0079 100.066C94.302 99.7262 94.5113 99.319 94.6357 98.8439H96.6379C96.5247 99.6131 96.2448 100.306 95.798 100.922C95.3568 101.533 94.7715 102.02 94.0419 102.382C93.3179 102.738 92.4752 102.916 91.5138 102.916ZM107.777 97.3169V89.6138H109.779V102.645H107.777V100.439H107.641C107.336 101.101 106.861 101.663 106.216 102.127C105.571 102.585 104.757 102.814 103.773 102.814C102.958 102.814 102.234 102.636 101.601 102.28C100.967 101.918 100.47 101.375 100.108 100.651C99.7457 99.9214 99.5647 99.0023 99.5647 97.8938V89.6138H101.567V97.758C101.567 98.7082 101.833 99.4661 102.364 100.032C102.902 100.597 103.586 100.88 104.417 100.88C104.915 100.88 105.421 100.753 105.936 100.498C106.456 100.244 106.892 99.8535 107.242 99.3275C107.599 98.8015 107.777 98.1313 107.777 97.3169ZM114.735 107.531C114.396 107.531 114.094 107.503 113.828 107.446C113.562 107.395 113.378 107.345 113.276 107.294L113.785 105.529C114.272 105.653 114.702 105.699 115.075 105.665C115.448 105.631 115.779 105.464 116.067 105.164C116.362 104.87 116.63 104.392 116.873 103.73L117.247 102.712L112.428 89.6138H114.6L118.197 99.9977H118.333L121.93 89.6138H124.101L118.57 104.545C118.321 105.218 118.013 105.775 117.645 106.216C117.278 106.663 116.851 106.994 116.364 107.209C115.884 107.424 115.341 107.531 114.735 107.531Z" fill="black"/>
<path d="M84.9191 79.9962C83.8348 79.9962 82.9044 79.608 82.1279 78.8314C81.3513 78.0549 80.963 77.1245 80.963 76.0402C80.963 74.956 81.3513 74.0256 82.1279 73.249C82.9044 72.4724 83.8348 72.0842 84.9191 72.0842C86.0033 72.0842 86.9337 72.4724 87.7103 73.249C88.4868 74.0256 88.8751 74.956 88.8751 76.0402C88.8751 76.7582 88.6919 77.4175 88.3256 78.0182C87.974 78.619 87.4978 79.1025 86.8971 79.4688C86.311 79.8204 85.6517 79.9962 84.9191 79.9962Z" fill="black"/>
</svg>
