<svg width="440" height="562" viewBox="0 0 440 562" fill="none" xmlns="http://www.w3.org/2000/svg">
<path d="M434.944 251.317L433.864 252.613L432.136 255.421L430.84 258.229L429.328 261.9L428.464 265.14L427.6 267.3L426.52 269.028L424.144 271.187L408.376 280.906L404.704 284.362L403.192 289.113L403.84 293.433L406.432 297.537L411.4 303.152L416.584 306.824L421.12 308.551L428.896 313.951L431.272 315.247L434.512 315.895L438.4 326.261V330.797L437.752 334.037L435.376 336.412L432.352 337.924L431.056 340.084L429.112 341.38H427.384L426.088 340.084L425.008 338.788L424.144 338.356H423.064L421.768 339.436L418.528 346.131V347.211L419.392 349.155V350.019L418.312 350.451L415.072 351.099L414.208 351.531L413.344 352.179L409.888 358.658L405.784 363.626L404.272 364.489L402.976 364.921H401.032L398.224 365.137L396.28 364.921L393.904 364.057L391.96 363.841L388.72 364.705H387.856L387.208 364.273L386.128 363.194L385.48 362.762L384.184 362.546L380.512 363.41H378.784L373.384 362.33L370.792 362.114L372.952 353.259V345.699L374.032 344.62L374.68 343.54L375.112 342.244V341.812L374.032 339.004L372.088 336.412L369.28 333.821L366.904 330.797L366.472 326.909L367.984 326.477L369.064 326.045L369.712 324.534L369.28 323.454L366.472 320.214L363.448 315.679L354.808 305.096L351.568 302.936L347.896 303.584L344.44 289.113L341.632 281.986L338.176 275.939L332.128 269.676L328.456 267.084L322.84 264.924L321.328 262.332L319.6 256.069L318.304 253.909L314.848 249.806L313.552 245.054L312.04 242.462L308.8 238.359L306.856 236.631L306.208 235.551L305.344 234.039V232.311L306.208 229.936L307.288 221.513L306.64 219.353L304.264 217.409L297.136 212.442L294.76 209.202L294.544 205.098L295.408 203.803L300.808 199.267L300.592 198.619L296.056 191.276L295.624 189.548L295.84 187.388L296.92 183.285V180.693L296.272 178.965L295.192 177.669L292.384 175.078L290.656 172.486L289.792 171.406L288.064 170.758V169.678L299.728 169.246L304.696 169.678L309.88 171.838L311.608 168.166L310.744 164.927L309.232 162.119L308.8 159.527L309.88 157.151L313.768 154.56L315.28 151.968H311.176L309.664 151.752L307.72 150.888L306.208 149.592L303.184 146.353L301.024 145.273L307.936 142.897L314.2 142.033H327.376L334.072 140.953L336.016 140.305L340.12 150.888L341.632 153.696L343.36 155.64L346.384 158.231L348.976 159.743L355.024 166.654L358.048 169.462L359.56 170.326L366.688 176.589L367.984 178.317L368.416 180.693L366.904 186.524V188.468V190.196L367.12 191.492L367.984 193.868L368.2 195.595L367.768 197.323L368.2 198.619L369.28 199.915L371.872 202.075L373.168 203.587L374.464 205.314L375.544 207.906L376.408 210.714V211.578L377.272 215.249L378.352 216.761L384.4 222.808L386.128 224.752L387.424 226.048L388.288 226.48H390.016L392.176 226.696L394.552 228.208L396.064 228.856H396.928L398.224 228.208L403.624 226.696L412.048 226.048L415.936 227.128L418.096 229.288L421.12 233.391L422.2 238.359L421.984 242.246L422.416 244.838L423.712 246.782L426.304 248.726L429.328 250.022L431.704 250.238L434.944 251.317ZM345.952 431.442L347.896 432.522L350.272 434.682L351.784 435.978L355.024 438.786L357.184 440.945L358.048 443.321V447.209L357.4 449.584V451.744L357.184 456.064L355.672 459.735L353.08 461.679L350.92 462.759L349.84 462.111L348.976 460.383L348.76 458.439L347.68 456.496L344.872 453.688L342.28 454.12L338.824 456.28L336.232 458.223L333.64 459.303L330.4 462.111L325.864 467.079L283.744 498.179L273.808 506.818L270.568 510.274L268.84 513.514L268.408 514.378L266.248 522.369L265.384 523.017L264.736 523.233L262.792 521.937L261.28 521.073H260.2H258.904L257.392 521.289L254.8 522.369L253.288 522.801L252.424 522.585L252.208 521.937L252.424 521.289L253.504 519.129V518.265L253.288 516.537L252.208 515.241L250.912 514.378L249.832 514.162H248.32L245.944 514.378L244.648 514.81L243.784 515.457L240.76 518.265L239.032 519.777L237.52 520.425L236.008 521.073L233.848 521.505L231.904 522.585L230.608 524.096L222.832 536.839L221.968 537.703L220.888 538.351L218.08 540.511L216.352 542.887L215.272 543.966L214.192 544.614H213.328H210.304H209.224L207.28 545.478L203.608 547.854L201.232 548.934H200.368L195.616 548.502L194.536 548.718L193.456 549.798V550.878L185.896 557.789L184.6 558.005H183.304V557.141L183.736 553.253L182.872 547.422L182.224 544.83L181.792 542.887L182.008 538.783L181.792 537.487L180.928 535.975L180.064 535.111L178.768 534.895L177.256 535.111L174.016 537.055L172.072 538.351L169.048 541.375L167.968 542.239L167.104 543.319L166.888 543.966L166.672 546.774L166.24 548.502L165.808 549.366L163.216 552.821H162.568L161.272 551.742L160.192 552.174L158.896 554.117L158.248 555.629L157.816 558.437L155.872 560.813L154.36 559.949L152.848 559.517L151.336 558.869L149.392 557.357L133.192 539.647L130.168 536.191L117.856 523.017L114.616 517.617L107.488 489.972L97.552 451.96L94.96 448.721L97.12 445.049L96.256 443.105L93.664 441.593L90.64 438.786L89.344 440.081H88.264L86.968 439.433H85.024L83.08 440.081L81.784 440.729L76.384 444.401L73.144 445.481L70.12 444.833L67.312 440.945L66.448 437.274L66.88 430.578L66.232 426.691L65.8 426.043L64.288 424.531L63.856 423.667V423.019L64.504 421.723V421.075L62.56 415.244L61.48 413.948L58.024 414.164L51.112 420.643L47.44 422.587L43.336 423.883L40.528 425.611L35.128 430.794L29.512 433.602L22.816 434.466L3.16 435.114L1 433.818V430.146L2.944 427.123L8.776 423.019L11.584 420.428L13.528 417.188L19.144 403.365L31.672 384.575L34.696 377.448L37.072 375.288L43.552 371.185L45.928 368.593L47.656 365.569L51.76 354.554L60.4 340.948L65.368 330.797L66.664 326.477L66.016 323.67L64.72 320.646L63.64 316.543V313.087L64.936 306.824L65.152 300.56L73.36 272.267L76.6 236.847L76.384 233.607L76.6 230.584L77.896 227.344L80.272 224.104L82.864 221.513L85.024 218.489L88.048 209.85L97.768 198.619L102.088 191.492L109.864 169.462L113.536 162.335L117.64 157.367L124.552 152.616L127.576 149.808L130.384 145.705L135.784 132.314L137.08 130.37L140.104 127.131L141.4 125.403L141.832 123.891V120.867L142.696 119.355L145.504 117.412L148.96 116.98L155.656 116.548L164.512 113.308L167.752 112.66L170.776 112.876L176.608 114.604L179.416 113.74L181.144 111.796L190.648 93.8701L204.904 67.305L220.672 37.7161L223.48 33.8285L226.504 31.6688L267.76 20.8699L286.336 15.9025L309.232 10.0711L315.712 7.26339L321.112 2.51187L323.92 1L328.672 1.21599L326.512 5.10362L326.08 8.12728L327.376 10.935L323.056 11.5829L321.76 12.0148L321.112 13.3107V14.6066L320.68 15.9025L319.168 16.5504L315.496 17.1983L306.424 21.9498L300.16 23.8936L273.592 27.9971L243.784 37.0682L237.736 38.1481L233.848 39.6599L230.176 41.3877L228.232 43.1155L226.504 48.9469L226.72 56.0742L231.472 77.2399L244.648 103.805L254.368 117.628L258.472 121.731L277.048 132.314L279.424 134.258L281.152 136.418L281.584 138.793L280.288 139.225L272.728 140.737L273.376 138.361L272.296 136.202L269.92 134.69L265.6 133.826L264.088 133.394L262.576 132.962L261.928 133.61L261.496 134.474L260.632 135.122L258.688 136.418L259.984 138.361L265.816 143.545L267.112 145.705L266.896 147.648L266.464 149.808L266.248 151.968L267.976 158.447L270.568 165.143L273.592 170.758L277.48 175.941L282.448 180.477L289.144 183.933L287.632 187.604L286.12 193.868L283.744 197.539L284.608 198.619L284.824 200.347L284.608 202.291L283.744 204.018L284.608 206.61L283.312 209.85L281.368 213.521L280.504 216.761L280.72 225.616L280.936 226.48L280.72 227.128L279.424 228.424L278.344 229.072L274.024 230.584L270.568 234.471L270.136 235.119L267.544 235.767L264.736 237.279L260.848 240.519L256.96 245.27L247.888 262.548L239.032 274.211L238.168 278.099L235.792 279.61L229.312 281.554L226.72 283.498L224.776 286.306L223.264 289.545L221.752 296.457L218.08 302.72L215.056 311.791L204.472 323.67L202.096 328.421L202.744 330.797L205.552 337.06L207.496 340.084L218.512 351.099L221.968 356.066L230.392 374.424L227.584 372.913L226.072 369.889L225.208 366.433L223.912 363.41L222.616 364.273L223.48 365.569L223.912 366.649L222.4 366.865L221.752 367.297L220.672 368.809L222.832 369.889L225.424 372.049L227.368 374.856L228.232 378.096L227.152 381.336L224.56 381.552L221.536 379.824L219.592 377.664L218.944 380.688L220.24 383.711L222.616 387.599L225.208 385.871L228.664 382.632L231.904 381.12L233.632 384.143H234.712V381.12L236.44 382.2L240.76 386.951L242.272 388.031L243.784 388.463L245.296 389.111L246.592 390.839L241.84 389.975L237.736 391.487L235.576 395.158L236.872 399.694L238.6 394.078L239.032 392.998H248.32L252.424 395.374L256.096 400.126L259.984 402.933L264.088 399.694L263.44 402.285L263.008 402.933L264.736 404.229L265.168 405.525L264.088 406.173L261.928 406.389V407.469L263.872 409.197L264.088 412.004L263.224 415.028L261.928 417.404L260.2 415.892L257.176 418.268L251.128 424.099L252.64 425.179L254.368 423.883L256.096 422.803L257.608 425.179L258.688 424.531L259.768 423.883L260.416 423.019L260.848 421.723L262.36 423.235L261.928 424.963L261.712 426.691L264.088 428.419L261.064 428.635L261.28 430.794L264.088 434.898L260.2 439.218L259.768 440.513L260.2 442.241L261.28 442.889L262.576 443.321L263.008 444.401H264.088L266.032 445.481L267.328 446.561L266.896 446.993L266.68 447.641L268.192 449.152L271.648 451.528L278.128 453.472L285.04 454.768H292.168L298.864 453.688L321.76 446.561L337.312 439.865L342.496 436.41L345.736 432.738L345.952 431.442Z" fill="#FF6901" stroke="black" stroke-width="2" stroke-linecap="round" stroke-linejoin="round"/>
<path d="M84.702 337.201V334.339L102.257 308.134H84.5112V304.636H106.964V307.498L89.4088 333.703H107.154V337.201H84.702ZM128.653 327.215V312.777H132.405V337.201H128.653V333.067H128.398C127.826 334.307 126.935 335.362 125.727 336.231C124.519 337.09 122.992 337.519 121.147 337.519C119.621 337.519 118.264 337.186 117.077 336.518C115.889 335.839 114.957 334.822 114.278 333.465C113.6 332.097 113.261 330.375 113.261 328.297V312.777H117.013V328.042C117.013 329.823 117.511 331.244 118.508 332.304C119.515 333.364 120.798 333.894 122.356 333.894C123.289 333.894 124.238 333.655 125.202 333.178C126.178 332.701 126.994 331.97 127.651 330.984C128.319 329.998 128.653 328.742 128.653 327.215ZM143.031 304.636V337.201H139.279V304.636H143.031ZM149.905 337.201V312.777H153.657V337.201H149.905ZM151.813 308.707C151.081 308.707 150.451 308.457 149.921 307.959C149.401 307.461 149.141 306.862 149.141 306.162C149.141 305.463 149.401 304.864 149.921 304.366C150.451 303.867 151.081 303.618 151.813 303.618C152.544 303.618 153.17 303.867 153.689 304.366C154.219 304.864 154.484 305.463 154.484 306.162C154.484 306.862 154.219 307.461 153.689 307.959C153.17 308.457 152.544 308.707 151.813 308.707ZM167.718 337.774C166.17 337.774 164.766 337.482 163.504 336.899C162.243 336.306 161.241 335.452 160.499 334.339C159.757 333.216 159.386 331.859 159.386 330.269C159.386 328.869 159.661 327.735 160.213 326.866C160.764 325.986 161.501 325.297 162.423 324.799C163.345 324.3 164.363 323.929 165.476 323.685C166.6 323.431 167.729 323.23 168.863 323.081C170.347 322.89 171.55 322.747 172.472 322.652C173.405 322.546 174.084 322.371 174.508 322.127C174.942 321.883 175.16 321.459 175.16 320.855V320.728C175.16 319.159 174.73 317.94 173.872 317.071C173.024 316.201 171.736 315.767 170.008 315.767C168.216 315.767 166.812 316.159 165.794 316.943C164.776 317.728 164.061 318.565 163.647 319.456L160.085 318.184C160.721 316.7 161.57 315.544 162.63 314.717C163.7 313.88 164.866 313.297 166.128 312.968C167.4 312.629 168.651 312.459 169.881 312.459C170.665 312.459 171.566 312.555 172.584 312.745C173.612 312.926 174.603 313.302 175.557 313.874C176.522 314.447 177.322 315.311 177.958 316.466C178.594 317.622 178.912 319.17 178.912 321.109V337.201H175.16V333.894H174.969C174.714 334.424 174.29 334.991 173.697 335.595C173.103 336.2 172.313 336.714 171.328 337.138C170.342 337.562 169.138 337.774 167.718 337.774ZM168.29 334.403C169.774 334.403 171.025 334.111 172.043 333.528C173.071 332.945 173.845 332.193 174.365 331.27C174.895 330.348 175.16 329.378 175.16 328.36V324.926C175.001 325.117 174.651 325.291 174.11 325.45C173.58 325.599 172.965 325.731 172.266 325.848C171.577 325.954 170.903 326.049 170.246 326.134C169.6 326.208 169.075 326.272 168.672 326.325C167.697 326.452 166.785 326.659 165.937 326.945C165.1 327.221 164.421 327.64 163.902 328.201C163.393 328.753 163.138 329.505 163.138 330.459C163.138 331.763 163.621 332.749 164.585 333.417C165.561 334.074 166.796 334.403 168.29 334.403Z" fill="black"/>
<path d="M135.367 361.553C134.283 361.553 133.353 361.165 132.576 360.388C131.8 359.612 131.411 358.681 131.411 357.597C131.411 356.513 131.8 355.582 132.576 354.806C133.353 354.029 134.283 353.641 135.367 353.641C136.452 353.641 137.382 354.029 138.159 354.806C138.935 355.582 139.323 356.513 139.323 357.597C139.323 358.315 139.14 358.974 138.774 359.575C138.422 360.176 137.946 360.659 137.345 361.026C136.759 361.377 136.1 361.553 135.367 361.553Z" fill="black"/>
</svg>
