<svg width="222" height="89" viewBox="0 0 222 89" fill="none" xmlns="http://www.w3.org/2000/svg">
<path d="M174.232 49.6336L174.448 50.4975L174.88 54.3851L175.096 55.681L174.232 63.0242L174.448 64.1041L174.232 64.536L172.504 65.6159L167.752 63.2402L165.592 63.4561L154.576 64.32H153.712L152.632 63.2402H151.768L149.824 64.32L149.392 64.1041L146.584 63.2402L144.856 62.3762L142.48 61.5123L140.536 61.0804L132.544 60.8644H131.68L131.032 61.2963L129.52 62.5922L128.44 63.4561L127.36 63.0242L111.808 63.2402L110.296 62.3762L109.216 62.1603L97.552 62.3762L90.856 63.4561L90.208 63.2402L87.616 61.9443H86.968L85.24 63.0242L83.512 62.8082L82 62.1603L80.056 61.5123L78.544 61.2963L76.384 61.7283L74.008 62.5922H72.928L72.064 61.7283L70.552 61.5123L69.904 61.0804L68.392 60.8644L67.312 60.4324L65.8 59.3525L64.504 58.4886H64.072L63.208 59.3525L62.344 60.6484L61.696 61.9443L62.56 62.5922L62.776 63.4561L62.128 63.8881L59.752 64.536L58.672 65.1839L57.808 65.3999L56.728 66.4798L56.296 67.5597V68.6396L56.944 69.7195L56.512 71.2313V72.0952L56.728 74.039L55.864 74.2549L52.84 74.6869L52.408 74.9029L51.76 75.9828L50.68 76.6307L49.816 76.8467L48.088 76.1988L46.792 76.4147L45.064 77.2787L40.96 80.0863L30.376 83.9739L28 82.4621L27.352 81.8141H26.488L24.328 82.0301L21.952 82.2461L21.304 82.4621L20.008 82.0301L19.36 82.2461L16.336 83.9739L13.312 85.0538L12.88 85.9177L11.368 87.4295L10.936 86.7816L8.56 79.2224L6.4 77.2787L5.75196 75.3348L3.80797 71.6632L3.59196 71.0153L2.51196 69.5035L1.43196 68.8555L1 67.9916L1.21601 67.3437L2.94399 64.32V63.6721L13.528 62.3762L26.488 63.0242L38.152 61.5123L47.224 56.7608L53.488 55.465L59.752 53.0892L63.208 52.6572L83.296 52.8732L100.792 51.3614L137.944 48.9857L156.088 49.4176L157.816 49.8496L159.76 50.9294L168.4 52.6572H170.992L172.936 51.1454L174.232 49.6336Z" fill="#FF6901" stroke="black" stroke-width="2" stroke-linecap="round" stroke-linejoin="round"/>
<path d="M70.9964 14.7273L77.9055 34.3182H78.1782L85.0873 14.7273H88.0418L79.4964 38H76.5873L68.0418 14.7273H70.9964ZM94.8145 38.4091C93.7085 38.4091 92.7047 38.2008 91.8032 37.7841C90.9017 37.3598 90.1858 36.75 89.6555 35.9545C89.1251 35.1515 88.86 34.1818 88.86 33.0455C88.86 32.0455 89.057 31.2348 89.4509 30.6136C89.8448 29.9848 90.3714 29.4924 91.0305 29.1364C91.6895 28.7803 92.4168 28.5152 93.2123 28.3409C94.0153 28.1591 94.8221 28.0152 95.6327 27.9091C96.6933 27.7727 97.5532 27.6705 98.2123 27.6023C98.8789 27.5265 99.3638 27.4015 99.6668 27.2273C99.9774 27.053 100.133 26.75 100.133 26.3182V26.2273C100.133 25.1061 99.8259 24.2348 99.2123 23.6136C98.6062 22.9924 97.6858 22.6818 96.4509 22.6818C95.1706 22.6818 94.1668 22.9621 93.4395 23.5227C92.7123 24.0833 92.2009 24.6818 91.9055 25.3182L89.36 24.4091C89.8145 23.3485 90.4206 22.5227 91.1782 21.9318C91.9433 21.3333 92.7767 20.9167 93.6782 20.6818C94.5873 20.4394 95.4812 20.3182 96.36 20.3182C96.9206 20.3182 97.5645 20.3864 98.2918 20.5227C99.0267 20.6515 99.735 20.9205 100.417 21.3295C101.106 21.7386 101.678 22.3561 102.133 23.1818C102.587 24.0076 102.815 25.1136 102.815 26.5V38H100.133V35.6364H99.9964C99.8145 36.0152 99.5115 36.4205 99.0873 36.8523C98.663 37.2841 98.0986 37.6515 97.3941 37.9545C96.6895 38.2576 95.8297 38.4091 94.8145 38.4091ZM95.2236 36C96.2842 36 97.1782 35.7917 97.9055 35.375C98.6403 34.9583 99.1933 34.4205 99.5645 33.7614C99.9433 33.1023 100.133 32.4091 100.133 31.6818V29.2273C100.019 29.3636 99.7691 29.4886 99.3827 29.6023C99.0039 29.7083 98.5645 29.803 98.0645 29.8864C97.5721 29.9621 97.0911 30.0303 96.6214 30.0909C96.1592 30.1439 95.7842 30.1894 95.4964 30.2273C94.7994 30.3182 94.1479 30.4659 93.5418 30.6705C92.9433 30.8674 92.4585 31.1667 92.0873 31.5682C91.7236 31.9621 91.5418 32.5 91.5418 33.1818C91.5418 34.1136 91.8865 34.8182 92.5759 35.2955C93.2729 35.7652 94.1555 36 95.2236 36ZM107.709 38V20.5455H110.3V23.1818H110.482C110.8 22.3182 111.376 21.6174 112.209 21.0795C113.043 20.5417 113.982 20.2727 115.028 20.2727C115.225 20.2727 115.471 20.2765 115.766 20.2841C116.062 20.2917 116.285 20.303 116.437 20.3182V23.0455C116.346 23.0227 116.137 22.9886 115.812 22.9432C115.494 22.8902 115.156 22.8636 114.8 22.8636C113.952 22.8636 113.194 23.0417 112.528 23.3977C111.869 23.7462 111.346 24.2311 110.959 24.8523C110.581 25.4659 110.391 26.1667 110.391 26.9545V38H107.709ZM126.13 44.9091C124.834 44.9091 123.721 44.7424 122.789 44.4091C121.857 44.0833 121.081 43.6515 120.459 43.1136C119.846 42.5833 119.357 42.0152 118.994 41.4091L121.13 39.9091C121.372 40.2273 121.679 40.5909 122.05 41C122.422 41.4167 122.929 41.7765 123.573 42.0795C124.225 42.3902 125.077 42.5455 126.13 42.5455C127.539 42.5455 128.702 42.2045 129.619 41.5227C130.535 40.8409 130.994 39.7727 130.994 38.3182V34.7727H130.766C130.569 35.0909 130.289 35.4848 129.925 35.9545C129.569 36.4167 129.054 36.8295 128.38 37.1932C127.713 37.5492 126.812 37.7273 125.675 37.7273C124.266 37.7273 123.001 37.3939 121.88 36.7273C120.766 36.0606 119.884 35.0909 119.232 33.8182C118.588 32.5455 118.266 31 118.266 29.1818C118.266 27.3939 118.581 25.8371 119.209 24.5114C119.838 23.178 120.713 22.1477 121.834 21.4205C122.956 20.6856 124.251 20.3182 125.721 20.3182C126.857 20.3182 127.759 20.5076 128.425 20.8864C129.1 21.2576 129.615 21.6818 129.971 22.1591C130.334 22.6288 130.615 23.0152 130.812 23.3182H131.084V20.5455H133.675V38.5C133.675 40 133.334 41.2197 132.653 42.1591C131.978 43.1061 131.069 43.7992 129.925 44.2386C128.789 44.6856 127.524 44.9091 126.13 44.9091ZM126.039 35.3182C127.115 35.3182 128.024 35.072 128.766 34.5795C129.509 34.0871 130.073 33.3788 130.459 32.4545C130.846 31.5303 131.039 30.4242 131.039 29.1364C131.039 27.8788 130.85 26.7689 130.471 25.8068C130.092 24.8447 129.531 24.0909 128.789 23.5455C128.047 23 127.13 22.7273 126.039 22.7273C124.903 22.7273 123.956 23.0152 123.198 23.5909C122.448 24.1667 121.884 24.9394 121.505 25.9091C121.134 26.8788 120.948 27.9545 120.948 29.1364C120.948 30.3485 121.137 31.4205 121.516 32.3523C121.903 33.2765 122.471 34.0038 123.221 34.5341C123.978 35.0568 124.918 35.3182 126.039 35.3182ZM143.721 38.4091C142.615 38.4091 141.611 38.2008 140.709 37.7841C139.808 37.3598 139.092 36.75 138.562 35.9545C138.031 35.1515 137.766 34.1818 137.766 33.0455C137.766 32.0455 137.963 31.2348 138.357 30.6136C138.751 29.9848 139.278 29.4924 139.937 29.1364C140.596 28.7803 141.323 28.5152 142.119 28.3409C142.922 28.1591 143.728 28.0152 144.539 27.9091C145.6 27.7727 146.459 27.6705 147.119 27.6023C147.785 27.5265 148.27 27.4015 148.573 27.2273C148.884 27.053 149.039 26.75 149.039 26.3182V26.2273C149.039 25.1061 148.732 24.2348 148.119 23.6136C147.512 22.9924 146.592 22.6818 145.357 22.6818C144.077 22.6818 143.073 22.9621 142.346 23.5227C141.619 24.0833 141.107 24.6818 140.812 25.3182L138.266 24.4091C138.721 23.3485 139.327 22.5227 140.084 21.9318C140.85 21.3333 141.683 20.9167 142.584 20.6818C143.494 20.4394 144.387 20.3182 145.266 20.3182C145.827 20.3182 146.471 20.3864 147.198 20.5227C147.933 20.6515 148.641 20.9205 149.323 21.3295C150.012 21.7386 150.584 22.3561 151.039 23.1818C151.494 24.0076 151.721 25.1136 151.721 26.5V38H149.039V35.6364H148.903C148.721 36.0152 148.418 36.4205 147.994 36.8523C147.569 37.2841 147.005 37.6515 146.3 37.9545C145.596 38.2576 144.736 38.4091 143.721 38.4091ZM144.13 36C145.19 36 146.084 35.7917 146.812 35.375C147.547 34.9583 148.1 34.4205 148.471 33.7614C148.85 33.1023 149.039 32.4091 149.039 31.6818V29.2273C148.925 29.3636 148.675 29.4886 148.289 29.6023C147.91 29.7083 147.471 29.803 146.971 29.8864C146.478 29.9621 145.997 30.0303 145.528 30.0909C145.065 30.1439 144.69 30.1894 144.403 30.2273C143.706 30.3182 143.054 30.4659 142.448 30.6705C141.85 30.8674 141.365 31.1667 140.994 31.5682C140.63 31.9621 140.448 32.5 140.448 33.1818C140.448 34.1136 140.793 34.8182 141.482 35.2955C142.179 35.7652 143.062 36 144.13 36ZM168.979 24.4545L166.57 25.1364C166.419 24.7348 166.195 24.3447 165.9 23.9659C165.612 23.5795 165.218 23.2614 164.718 23.0114C164.218 22.7614 163.578 22.6364 162.797 22.6364C161.729 22.6364 160.839 22.8826 160.127 23.375C159.422 23.8598 159.07 24.4773 159.07 25.2273C159.07 25.8939 159.313 26.4205 159.797 26.8068C160.282 27.1932 161.04 27.5152 162.07 27.7727L164.661 28.4091C166.222 28.7879 167.385 29.3674 168.15 30.1477C168.915 30.9205 169.297 31.9167 169.297 33.1364C169.297 34.1364 169.01 35.0303 168.434 35.8182C167.866 36.6061 167.07 37.2273 166.047 37.6818C165.025 38.1364 163.835 38.3636 162.479 38.3636C160.699 38.3636 159.226 37.9773 158.059 37.2045C156.892 36.4318 156.154 35.303 155.843 33.8182L158.388 33.1818C158.631 34.1212 159.089 34.8258 159.763 35.2955C160.445 35.7652 161.335 36 162.434 36C163.684 36 164.676 35.7348 165.411 35.2045C166.154 34.6667 166.525 34.0227 166.525 33.2727C166.525 32.6667 166.313 32.1591 165.888 31.75C165.464 31.3333 164.813 31.0227 163.934 30.8182L161.025 30.1364C159.426 29.7576 158.252 29.1705 157.502 28.375C156.76 27.572 156.388 26.5682 156.388 25.3636C156.388 24.3788 156.665 23.5076 157.218 22.75C157.779 21.9924 158.54 21.3977 159.502 20.9659C160.472 20.5341 161.57 20.3182 162.797 20.3182C164.525 20.3182 165.881 20.697 166.866 21.4545C167.858 22.2121 168.563 23.2121 168.979 24.4545Z" fill="black"/>
<path d="M119.751 60.3516C118.667 60.3516 117.736 59.9634 116.96 59.1868C116.183 58.4103 115.795 57.4799 115.795 56.3956C115.795 55.3114 116.183 54.381 116.96 53.6044C117.736 52.8279 118.667 52.4396 119.751 52.4396C120.835 52.4396 121.766 52.8279 122.542 53.6044C123.319 54.381 123.707 55.3114 123.707 56.3956C123.707 57.1136 123.524 57.7729 123.158 58.3736C122.806 58.9744 122.33 59.4579 121.729 59.8242C121.143 60.1758 120.484 60.3516 119.751 60.3516Z" fill="black"/>
</svg>
