<svg width="719" height="885" viewBox="0 0 719 885" fill="none" xmlns="http://www.w3.org/2000/svg">
<path d="M513.352 317.838L511.408 314.599L505.144 308.767L497.8 305.096L490.672 305.528L488.512 307.687L487.216 310.711L486.784 314.167L487.216 317.406L489.16 320.862L491.968 322.59L495.208 323.886L498.448 325.83L500.824 328.421L502.12 331.229L504.064 337.708L511.192 351.315L514.216 355.202L521.776 361.034L525.016 364.489L531.928 374.208L547.264 386.087L553.744 389.759L561.088 392.566L564.976 394.726L574.264 406.173L581.176 412.004L584.2 415.46L585.28 419.348V425.179L584.848 427.987L583.768 431.01L579.448 436.626L577.936 439.65L577.288 443.321L581.392 463.407L582.04 470.102L580.528 483.709L580.96 490.404L583.768 495.804L588.736 501.851L594.568 512.002L599.536 518.481L611.632 542.239L614.44 550.662L616.168 553.685L616.816 555.413L616.6 556.709L615.736 561.029L615.088 570.1L614.44 573.123L608.392 584.138L607.096 587.81L607.312 591.481L608.824 594.073L611.2 595.369L614.656 594.721L623.944 595.801L643.168 600.984L653.32 600.768L663.256 599.473L683.992 599.904L694.144 601.632L714.016 602.28L717.256 603.36L717.904 605.52L716.176 610.919L715.96 613.511L716.392 624.31L715.96 626.686L711.64 636.62L710.992 638.996L711.208 642.02L709.696 645.26L704.728 647.203L694.144 649.363H692.416L687.88 648.715L685.936 648.931L677.08 653.035L653.968 671.393L650.728 673.121L647.704 673.553L628.912 673.121L622.864 673.769L617.248 675.712L610.552 680.68L607.744 685.863L606.88 699.686L604.288 709.621L604.936 719.124L604.288 722.147L603.424 725.171L601.696 729.059L598.888 732.946L595.648 736.186L588.304 740.505L579.448 748.929L568.432 756.92L565.192 760.591L562.168 766.855L560.224 769.879L557.632 770.958L554.392 769.23L553.744 765.559L554.176 761.671L555.256 758.648L558.496 752.168V748.929L555.04 746.985L551.368 747.417L547.48 749.577L541 754.328L532.576 758.648L528.904 761.239L525.88 765.127L522.424 772.254L520.48 775.278L500.392 788.668L497.152 789.316L493.912 788.668L485.92 784.997H483.112L480.52 786.94L477.064 790.612L473.824 792.988L471.016 793.852L468.208 794.068L464.536 795.148L462.808 796.012L457.624 800.763L456.976 800.979L455.464 801.627L454.816 802.059L454.384 802.923L454.168 805.083L453.952 805.731L448.12 807.026L441.64 806.378L435.808 807.89L432.136 815.234L430.84 828.624L429.112 835.103L425.224 840.071L422.2 841.583L418.96 841.799L412.48 840.719L408.376 840.935L405.568 842.231L395.848 854.11L394.12 857.133L392.608 861.021L392.392 862.317L392.608 866.852L391.744 869.012L388.936 872.251L385.912 877.219L382.456 880.027L378.568 882.187L375.112 883.482L371.44 883.698L368.632 882.618L366.472 880.459L364.528 877.003L364.312 869.444L368.2 863.181L372.952 857.133L375.544 849.79L375.328 846.118L374.248 842.447L372.52 839.423L368.632 834.672L366.904 832.944L364.96 831.432L363.016 830.568L361.072 830.352L357.832 830.784L346.168 830.568L343.144 830.784L339.256 832.08L332.776 835.967L319.168 842.447L315.928 844.607L312.472 847.846L306.208 855.405L302.968 858.645L299.728 860.589L296.488 861.453L289.576 861.885L286.12 863.396L281.152 869.012L277.48 870.74L274.024 870.308L271.216 868.796L268.84 866.852L265.6 865.556L262.576 865.772L253.504 868.364L243.784 866.204L234.064 859.509L224.56 850.654L205.984 834.24L193.672 823.009L159.76 792.556L156.52 785.861L155.656 781.973L158.68 776.142L158.464 772.47L157.168 768.367L155.656 765.343L153.928 763.615L152.2 762.103L150.688 760.591L150.04 758.216L151.12 751.736L150.472 748.281L148.96 744.825L145.72 739.21L143.992 735.754L143.56 732.73V725.603L142.912 722.147L129.304 685.863L126.496 680.464L126.064 678.736L125.416 677.656L122.392 675.496L121.312 673.553L120.016 672.257L118.936 670.529L118.504 668.585L121.096 665.346L121.744 664.05L122.392 661.242L121.744 652.603L120.664 650.227L118.288 648.931L115.48 648.067L113.104 646.556L111.808 644.612L109.216 637.7L107.92 632.733L105.544 626.686L105.328 623.878L107.272 621.718L110.296 618.91L112.456 615.671L111.376 612.431L110.512 610.919V607.896L109.864 606.384L108.568 605.088L103.168 601.848L97.552 600.12L96.256 599.256L93.232 596.233L91.504 594.937L89.776 594.505L88.264 593.641L87.4 591.697L86.752 589.538L85.888 587.81L84.376 586.73L80.92 584.786L79.408 583.49L78.328 581.978L77.464 580.035L76.384 578.739L74.44 578.091L73.792 577.443L71.2 574.419L70.768 573.123L70.12 572.043L66.664 570.532L65.152 569.452L64.504 568.156L63.64 565.132L62.992 563.836L60.616 561.677L57.592 560.813L50.464 560.597L48.52 559.085L47.656 555.629L46.792 548.502L45.712 545.694L43.336 542.023L40.528 539.647L37.504 540.511L34.264 541.591L30.376 540.943L23.896 537.703L22.168 535.759L20.656 535.111L17.632 536.623L15.904 536.839L12.448 536.623L9.20797 537.487L7.69601 539.431L6.4 541.591L4.02399 543.534L4.24 532.52L6.83203 528.2L10.72 524.528L44.848 492.996L51.544 486.732L58.456 480.253L68.176 471.182L70.12 470.318L73.576 469.67L75.088 469.022L77.032 467.727L86.752 455.632L90.856 448.937L91.504 442.241L86.32 436.842L80.272 434.466L78.112 432.954L75.736 429.714L65.152 401.854L60.616 395.806L54.568 392.998L51.328 393.214L48.52 393.862L45.496 393.646L42.472 392.135L39.664 388.895L38.584 385.007L37.72 377.232L36.208 373.345L29.728 362.33L29.08 358.874L28.648 348.939L27.136 345.268L26.056 344.62L26.488 341.812L25.624 339.004L23.896 337.06L22.384 331.877L19.36 328.853L16.552 326.477L15.04 323.238L14.392 318.27L13.096 313.303L12.232 308.119L12.88 302.072L15.904 296.889L16.12 294.945L15.688 293.001L13.528 289.329L12.88 287.386L13.312 286.09L14.176 283.93L13.96 282.634L13.312 281.554L11.368 280.906L10.72 280.258L9.42399 274.643L8.34399 272.699L5.32 270.539V271.619L4.02399 270.539L2.51203 269.244L1.64797 267.732L1 266.004L1.21601 263.844L2.29601 262.764L3.37601 261.9L4.24 260.604L4.45601 259.093L4.24 254.125L5.10399 249.806L5.75203 240.951L6.4 237.495L8.12797 234.903L9.42399 232.312L9.64 225.4L10.72 222.376L10.072 220.865L10.288 220.001L10.72 218.921V216.977L10.288 215.897L8.99203 213.09L8.56 212.01L8.77601 208.338L9.85601 202.075L11.8 196.027L12.232 193.004L11.8 185.876L12.232 185.012L12.88 184.149L13.744 183.069L13.96 181.341L13.528 180.261L10.504 177.021L9.64 175.509L8.99203 173.998L8.77601 172.27L8.56 170.758V168.814L8.99203 166.87L10.504 163.199L10.72 161.687L10.504 158.015L10.072 155.208L8.99203 152.832L7.48 150.24L5.96797 144.193L7.48 137.498L11.368 131.018L17.2 126.267L18.064 126.051L19.792 126.267H20.656L21.304 125.403L23.032 123.675L23.896 123.027L28.432 121.083L29.728 120.219L32.752 116.98L34.48 115.684L36.424 115.252L37.288 114.388L39.016 108.557L39.88 107.477L40.96 106.397L42.04 105.101L42.472 103.157L41.824 102.509L39.448 100.134L39.016 99.4856L38.8 96.246L36.856 86.9588V79.6157L38.152 72.7044L40.744 66.441L44.416 60.6098L53.92 51.5387L55.432 49.1629L62.992 40.9558L65.152 39.4439L70.984 37.0682L72.928 35.3404L73.576 32.7487L73.144 29.077L71.848 25.8374L67.744 22.8138L61.912 13.7427V7.47931L62.56 5.31954L64.288 3.37583L67.528 1L72.496 4.67164L73.792 6.39943L75.52 10.287L75.952 10.935L77.032 12.0149L78.976 12.8787H80.488L81.568 12.6628L82.432 12.4468L83.728 11.3669L85.888 9.2071L87.4 8.5592L88.264 8.77525L89.344 9.42316L92.152 12.2308L94.096 13.3107L96.256 13.9586L98.848 14.3906H101.008L105.976 13.7427H107.92L109 13.9586L109.864 14.1747L110.728 14.8226L111.808 15.9025L113.104 18.4942L113.752 20.006L116.128 30.373L116.344 32.5327L116.992 35.9883V42.4676L116.776 44.4115L116.344 46.1393L107.92 66.6571L107.056 72.4885L107.272 74.4322L107.488 76.16L108.352 77.6719L109 78.3198L110.296 78.7517L112.888 78.9678H114.184L115.264 78.7517L117.856 77.8879L121.312 77.024L125.2 76.808L126.496 77.024L127.792 77.6719L129.736 78.9678L131.248 80.6956L131.896 82.4234L132.976 87.6069L133.408 89.3347L134.272 90.6305L135.352 91.7104L136.216 92.1424L137.296 92.5743L139.888 92.7903H140.968L143.56 92.1424L144.424 91.9264L147.448 90.6305L158.464 84.3672L159.976 83.7192L169.048 80.6956L170.776 80.4795L188.488 80.0477L191.944 79.1837L198.208 76.808L203.392 75.7281L210.952 72.9203L212.464 72.2724L213.76 71.4086L224.776 60.3937L244 44.4115L244.648 43.9795H245.512L246.808 44.4115L248.32 45.4914L250.48 48.083L251.344 49.5948L251.776 50.8908L255.232 66.873L255.664 68.3849L258.472 73.1364L259.984 74.4322L261.712 74.8642H263.656L267.76 73.3523L270.568 71.8405L272.512 70.5446L274.888 68.3849L276.832 67.0891L278.344 66.441L280.072 66.2251L292.6 67.0891L294.328 66.6571L299.728 64.4973L301.024 63.6334L302.536 61.6896L303.4 59.3138L304.048 55.4262L304.696 53.9144L305.56 52.6186L321.112 26.0534L323.704 19.5741L324.784 17.4143L325.432 15.6864L326.296 14.3906L333.208 10.0711L334.936 9.63908L336.664 9.42316L347.248 9.2071L352.864 8.5592L356.968 8.34327L358.912 8.99118L359.992 9.42316L362.8 11.3669L363.88 12.6628L364.528 13.9586L364.96 15.0385L365.176 16.5504L365.392 19.1421L365.176 21.7339L364.528 23.6776L364.312 25.4054V27.1333L363.448 29.509L363.016 31.8847L362.368 33.3966L361.072 41.1718L360.208 42.6835L358.912 44.6274L357.832 47.0031L356.536 52.6186L356.104 55.2103L356.536 65.5772L356.968 67.305L360.856 77.4559L361.504 78.5358L362.152 79.3997L363.88 80.9115L365.176 81.5594L366.256 81.7755H368.2L369.928 81.3435L372.088 80.0477L377.488 74.8642L380.944 70.5446L382.672 69.0328L384.4 68.3849L388.072 67.737L415.288 67.9529L419.176 68.8169L420.04 69.0328L421.336 69.8967L421.984 70.5446L422.2 71.6245L422.416 72.9203L421.984 75.5121L421.552 76.808L420.472 78.3198L416.152 82.6393L415.72 83.2873L415.504 84.3672V85.879L416.368 88.6868L417.448 91.0625L419.176 93.6542L421.336 95.814L434.728 105.749L435.16 106.397L436.024 107.693L436.24 108.341L436.456 109.636L436.24 111.364L435.376 114.604L434.728 116.116L433.864 116.98L429.76 119.571L428.68 120.651L428.464 121.299V122.379L429.112 123.675L429.76 124.323L437.32 130.154L438.4 131.234L438.832 131.882L439.048 133.178L438.832 134.906L437.752 138.361L437.104 140.089L436.456 141.169L436.024 141.817L434.296 143.545L432.352 144.625L429.112 145.921H428.248L418.744 145.489L416.8 145.921L415.288 146.569L413.992 147.432L412.912 148.512L412.264 150.024L411.832 151.752L412.048 153.48L412.696 155.424L415.72 161.039L416.584 162.119L418.96 164.279L420.472 166.007L422.2 168.598L428.248 191.492L434.08 205.314L439.48 213.953L440.56 216.329L442.072 219.137L444.016 223.456L466.696 251.317L468.208 251.965L484.84 255.637L499.096 256.285L504.928 257.365L506.44 258.013L508.384 259.309L508.816 259.957L510.328 261.9L511.624 264.492L513.136 271.835L515.512 292.785L516.592 296.889L516.808 298.4L516.376 305.096L514.432 315.247L513.352 317.838Z" fill="#FF6901" stroke="black" stroke-width="2" stroke-linecap="round" stroke-linejoin="round"/>
<path d="M173.279 422H169.145L181.103 389.434H185.173L197.131 422H192.997L183.265 394.586H183.011L173.279 422ZM174.806 409.279H191.47V412.777H174.806V409.279ZM201.695 422V397.576H205.32V401.392H205.638C206.147 400.088 206.968 399.076 208.103 398.355C209.237 397.624 210.599 397.258 212.189 397.258C213.801 397.258 215.142 397.624 216.212 398.355C217.294 399.076 218.136 400.088 218.741 401.392H218.995C219.62 400.131 220.559 399.129 221.809 398.387C223.06 397.634 224.56 397.258 226.309 397.258C228.493 397.258 230.279 397.942 231.668 399.309C233.057 400.666 233.751 402.781 233.751 405.654V422H229.999V405.654C229.999 403.851 229.506 402.564 228.52 401.79C227.534 401.016 226.373 400.629 225.037 400.629C223.32 400.629 221.99 401.148 221.046 402.187C220.103 403.215 219.631 404.519 219.631 406.099V422H215.815V405.272C215.815 403.883 215.364 402.765 214.463 401.917C213.562 401.058 212.401 400.629 210.981 400.629C210.006 400.629 209.094 400.889 208.246 401.408C207.408 401.927 206.73 402.648 206.21 403.571C205.702 404.482 205.447 405.537 205.447 406.735V422H201.695ZM247.8 422.572C246.252 422.572 244.848 422.281 243.586 421.698C242.325 421.104 241.323 420.251 240.581 419.138C239.839 418.014 239.468 416.657 239.468 415.067C239.468 413.668 239.743 412.534 240.295 411.664C240.846 410.784 241.583 410.095 242.505 409.597C243.427 409.099 244.445 408.728 245.558 408.484C246.682 408.23 247.81 408.028 248.945 407.88C250.429 407.689 251.632 407.546 252.554 407.45C253.487 407.344 254.166 407.17 254.59 406.926C255.024 406.682 255.242 406.258 255.242 405.654V405.526C255.242 403.958 254.812 402.738 253.954 401.869C253.106 401 251.818 400.565 250.09 400.565C248.298 400.565 246.894 400.957 245.876 401.742C244.858 402.526 244.143 403.364 243.729 404.254L240.167 402.982C240.803 401.498 241.651 400.343 242.712 399.516C243.782 398.678 244.948 398.095 246.21 397.767C247.482 397.427 248.733 397.258 249.962 397.258C250.747 397.258 251.648 397.353 252.666 397.544C253.694 397.724 254.685 398.101 255.639 398.673C256.604 399.245 257.404 400.109 258.04 401.265C258.676 402.42 258.994 403.968 258.994 405.908V422H255.242V418.693H255.051C254.796 419.223 254.372 419.79 253.779 420.394C253.185 420.998 252.395 421.512 251.409 421.936C250.424 422.36 249.22 422.572 247.8 422.572ZM248.372 419.201C249.856 419.201 251.107 418.91 252.125 418.327C253.153 417.744 253.927 416.991 254.447 416.069C254.977 415.147 255.242 414.177 255.242 413.159V409.724C255.083 409.915 254.733 410.09 254.192 410.249C253.662 410.397 253.047 410.53 252.348 410.647C251.659 410.753 250.985 410.848 250.328 410.933C249.682 411.007 249.157 411.071 248.754 411.124C247.779 411.251 246.867 411.458 246.019 411.744C245.182 412.019 244.503 412.438 243.984 413C243.475 413.551 243.22 414.304 243.22 415.258C243.22 416.562 243.703 417.548 244.667 418.216C245.643 418.873 246.878 419.201 248.372 419.201ZM265.144 422V419.138L279.01 401.329V401.074H265.589V397.576H283.844V400.565L270.36 418.247V418.502H284.289V422H265.144ZM299.292 422.509C297.087 422.509 295.152 421.984 293.488 420.935C291.834 419.885 290.541 418.417 289.608 416.53C288.686 414.643 288.225 412.438 288.225 409.915C288.225 407.371 288.686 405.15 289.608 403.253C290.541 401.355 291.834 399.882 293.488 398.832C295.152 397.783 297.087 397.258 299.292 397.258C301.497 397.258 303.426 397.783 305.08 398.832C306.744 399.882 308.037 401.355 308.96 403.253C309.893 405.15 310.359 407.371 310.359 409.915C310.359 412.438 309.893 414.643 308.96 416.53C308.037 418.417 306.744 419.885 305.08 420.935C303.426 421.984 301.497 422.509 299.292 422.509ZM299.292 419.138C300.967 419.138 302.345 418.708 303.426 417.85C304.507 416.991 305.308 415.862 305.827 414.463C306.347 413.064 306.606 411.548 306.606 409.915C306.606 408.283 306.347 406.761 305.827 405.352C305.308 403.942 304.507 402.802 303.426 401.933C302.345 401.063 300.967 400.629 299.292 400.629C297.617 400.629 296.239 401.063 295.157 401.933C294.076 402.802 293.276 403.942 292.756 405.352C292.237 406.761 291.977 408.283 291.977 409.915C291.977 411.548 292.237 413.064 292.756 414.463C293.276 415.862 294.076 416.991 295.157 417.85C296.239 418.708 297.617 419.138 299.292 419.138ZM319.84 407.307V422H316.087V397.576H319.713V401.392H320.031C320.603 400.152 321.473 399.155 322.639 398.403C323.805 397.639 325.31 397.258 327.155 397.258C328.808 397.258 330.255 397.597 331.496 398.275C332.736 398.943 333.701 399.961 334.39 401.329C335.079 402.685 335.423 404.403 335.423 406.48V422H331.67V406.735C331.67 404.816 331.172 403.321 330.176 402.251C329.179 401.17 327.812 400.629 326.073 400.629C324.875 400.629 323.805 400.889 322.861 401.408C321.928 401.927 321.192 402.685 320.651 403.682C320.11 404.678 319.84 405.887 319.84 407.307ZM349.468 422.572C347.92 422.572 346.516 422.281 345.254 421.698C343.993 421.104 342.991 420.251 342.249 419.138C341.507 418.014 341.136 416.657 341.136 415.067C341.136 413.668 341.411 412.534 341.962 411.664C342.514 410.784 343.25 410.095 344.173 409.597C345.095 409.099 346.113 408.728 347.226 408.484C348.349 408.23 349.478 408.028 350.613 407.88C352.097 407.689 353.3 407.546 354.222 407.45C355.155 407.344 355.834 407.17 356.258 406.926C356.692 406.682 356.91 406.258 356.91 405.654V405.526C356.91 403.958 356.48 402.738 355.622 401.869C354.774 401 353.486 400.565 351.758 400.565C349.966 400.565 348.561 400.957 347.544 401.742C346.526 402.526 345.811 403.364 345.397 404.254L341.835 402.982C342.471 401.498 343.319 400.343 344.379 399.516C345.45 398.678 346.616 398.095 347.878 397.767C349.15 397.427 350.401 397.258 351.63 397.258C352.415 397.258 353.316 397.353 354.334 397.544C355.362 397.724 356.353 398.101 357.307 398.673C358.272 399.245 359.072 400.109 359.708 401.265C360.344 402.42 360.662 403.968 360.662 405.908V422H356.91V418.693H356.719C356.464 419.223 356.04 419.79 355.447 420.394C354.853 420.998 354.063 421.512 353.077 421.936C352.092 422.36 350.888 422.572 349.468 422.572ZM350.04 419.201C351.524 419.201 352.775 418.91 353.793 418.327C354.821 417.744 355.595 416.991 356.115 416.069C356.645 415.147 356.91 414.177 356.91 413.159V409.724C356.751 409.915 356.401 410.09 355.86 410.249C355.33 410.397 354.715 410.53 354.016 410.647C353.327 410.753 352.653 410.848 351.996 410.933C351.349 411.007 350.825 411.071 350.422 411.124C349.447 411.251 348.535 411.458 347.687 411.744C346.849 412.019 346.171 412.438 345.652 413C345.143 413.551 344.888 414.304 344.888 415.258C344.888 416.562 345.371 417.548 346.335 418.216C347.311 418.873 348.546 419.201 350.04 419.201ZM384.812 403.046L381.441 404C381.229 403.438 380.916 402.892 380.503 402.362C380.1 401.821 379.549 401.376 378.849 401.026C378.15 400.677 377.254 400.502 376.162 400.502C374.667 400.502 373.422 400.846 372.425 401.535C371.439 402.214 370.946 403.078 370.946 404.127C370.946 405.06 371.286 405.797 371.964 406.337C372.642 406.878 373.703 407.329 375.144 407.689L378.77 408.579C380.953 409.109 382.581 409.92 383.651 411.012C384.722 412.094 385.257 413.488 385.257 415.194C385.257 416.594 384.855 417.845 384.049 418.947C383.254 420.049 382.141 420.919 380.71 421.555C379.279 422.191 377.614 422.509 375.717 422.509C373.225 422.509 371.164 421.968 369.531 420.887C367.899 419.806 366.865 418.226 366.43 416.148L369.992 415.258C370.331 416.572 370.973 417.558 371.916 418.216C372.87 418.873 374.116 419.201 375.653 419.201C377.402 419.201 378.791 418.83 379.819 418.088C380.858 417.336 381.377 416.435 381.377 415.385C381.377 414.537 381.081 413.827 380.487 413.254C379.893 412.671 378.982 412.237 377.752 411.95L373.681 410.996C371.445 410.466 369.801 409.645 368.752 408.532C367.713 407.408 367.194 406.003 367.194 404.318C367.194 402.94 367.581 401.721 368.354 400.661C369.139 399.601 370.204 398.768 371.551 398.164C372.907 397.56 374.445 397.258 376.162 397.258C378.579 397.258 380.476 397.788 381.854 398.848C383.243 399.908 384.229 401.307 384.812 403.046Z" fill="black"/>
<path d="M287.527 455.352C286.443 455.352 285.513 454.963 284.736 454.187C283.96 453.41 283.571 452.48 283.571 451.396C283.571 450.311 283.96 449.381 284.736 448.604C285.513 447.828 286.443 447.44 287.527 447.44C288.612 447.44 289.542 447.828 290.319 448.604C291.095 449.381 291.483 450.311 291.483 451.396C291.483 452.114 291.3 452.773 290.934 453.374C290.582 453.974 290.106 454.458 289.505 454.824C288.919 455.176 288.26 455.352 287.527 455.352Z" fill="black"/>
</svg>
