<svg width="444" height="372" viewBox="0 0 444 372" fill="none" xmlns="http://www.w3.org/2000/svg">
<path d="M192.592 237.711L195.832 239.223L199.936 239.007L204.688 239.223L206.2 242.246V245.054L206.632 248.294L208.36 250.453L210.736 251.317L213.328 253.045L213.544 255.205L212.68 257.797L210.736 258.661L208.144 257.581L204.256 254.773L202.96 251.533L200.8 249.158H196.48L191.08 249.374L185.68 248.51L182.44 245.702L180.28 244.19L176.824 242.462L173.8 242.246L168.832 240.303L169.48 238.575L172.72 239.007L178.984 239.871L185.032 239.655L188.704 237.495L192.592 237.711ZM255.88 238.359L253.72 242.246L250.264 243.758L246.592 241.814L246.376 243.974L247.672 246.134L248.104 247.862L234.496 249.59L217.648 248.078L211.816 248.51L213.544 244.838L215.488 241.598L218.512 239.223L222.616 238.575L226.072 239.655L231.04 243.758L234.496 245.27L232.768 242.678L232.336 242.462L232.768 241.166L233.416 240.303L239.032 234.255L240.976 233.607L251.128 232.959L252.856 233.391L254.152 234.039L255.232 234.255L255.88 238.359ZM305.56 219.785L307.72 220.865L312.472 220.649L316.36 221.297L317.44 223.24L316.792 226.048L315.28 228.856L313.12 229.288H310.096L306.424 227.992L303.184 227.776L300.16 228.64L296.488 228.856L293.248 228.64L290.872 229.72H287.848L285.04 229.504L284.824 227.992L286.768 225.616L288.496 222.592L292.6 215.681L295.192 215.465L298 215.033L299.944 213.089L302.752 211.578L304.912 209.418L305.992 208.554L306.856 208.986L305.992 210.714L304.264 213.737V216.977L305.56 219.785ZM297.784 189.98L296.272 191.924L297.352 193.22L299.512 194.083L300.592 198.619L302.536 200.779L304.48 204.234L302.536 206.178L298.432 208.554L294.544 208.986L291.304 212.01L288.928 216.113L286.552 219.569L285.256 223.024L282.016 226.48L278.992 228.64L272.944 229.072L267.328 228.424L263.008 229.072L259.552 229.936L254.152 228.424H245.944L239.68 229.288L236.872 231.016L234.064 233.175L230.392 235.335L227.584 235.551L226.504 234.039L226.936 230.8L227.368 228.64L228.016 218.705L229.96 215.033L234.496 209.634L239.464 205.746L245.08 202.938L249.616 201.211L255.016 199.267L262.36 197.971L269.704 197.107L273.16 196.027L274.888 193.22L276.616 191.276H289.792L293.248 189.332L297.136 187.82L297.784 189.98ZM243.784 197.971L240.112 199.051L248.968 192.356L251.992 189.548L257.392 181.557L259.12 176.373L260.848 174.646L262.792 173.35L264.52 171.838L265.168 170.326L264.952 168.814L265.168 167.302L267.328 165.79L271 164.927L274.456 165.79L277.696 167.95L280.288 170.326L277.048 171.19L275.968 171.406L278.344 175.078L276.184 179.829L271.864 184.149L265.168 189.116L243.784 197.971ZM277.696 159.095L277.048 159.311L275.752 162.119L274.456 163.415L272.296 163.631H268.84L266.248 164.495L263.656 166.222L250.264 178.749L249.616 180.045L248.536 183.285L247.672 184.58L242.488 187.604L240.976 188.036L239.248 186.308L239.896 183.285L241.408 179.613L242.272 176.373L243.568 173.782L247.024 172.486L251.128 171.406L254.368 170.326L257.176 167.302L263.008 159.743L265.6 158.231L269.488 157.799L278.128 154.992V156.503L277.912 157.799L277.696 159.095ZM276.4 150.24L274.888 152.616V151.536L272.08 154.56L264.304 157.151L260.848 159.311L263.656 153.696L263.872 148.512L264.736 143.977L269.272 140.521L274.888 139.009L277.912 139.225L279.208 140.953L278.776 144.193L277.912 147.216L276.4 150.24ZM297.784 139.441L296.056 140.089L293.896 140.305L291.304 139.873L286.768 142.681L285.688 145.057L284.392 148.08L282.664 150.672L279.208 151.536L280.504 147.648L281.8 140.089L283.528 137.282L285.904 135.338L289.576 133.61L293.032 133.394L295.624 135.986L296.92 138.361L297.784 139.441ZM370.792 343.756L327.808 344.403L326.296 344.835L324.352 346.347L323.056 346.995L322.192 347.427L319.6 347.859L318.088 348.723L304.696 358.226L301.24 360.17L300.592 360.602L297.136 364.921L291.736 369.457L289.576 370.537L288.064 370.753L286.984 369.889L264.304 343.756L263.44 342.244L261.712 340.516L260.632 339.868L259.336 339.652H256.528L252.424 340.084L250.696 340.516L249.4 341.596L246.16 344.835L244.864 345.699L244.216 346.131L240.976 347.211L239.248 347.427H234.928L233.2 347.859L229.096 350.451L228.448 350.667L225.856 351.315L224.992 351.747L222.832 353.907L221.536 354.77L218.944 355.418L216.136 356.93L215.272 357.146L212.248 357.362L208.792 358.226L207.28 358.874L205.984 359.522L204.904 359.738H204.04L200.368 358.01L197.992 356.282L192.16 350.667L166.672 322.158L163.216 317.622L160.84 315.679L159.76 314.599L157.816 312.007L153.28 301.208L152.416 297.752L152.632 293.001L153.712 285.01L56.512 280.69L46.36 277.883L16.552 265.788L1 259.093L1.64797 258.661L6.18405 253.693L7.69595 252.181L9.85595 251.101L11.8 250.885L12.232 248.51L13.96 247.646L16.3359 247.43L22.3841 248.942H24.328L26.7041 248.51L35.7759 244.406L37.72 243.326L39.232 242.03L40.744 240.303L41.824 238.143L42.688 237.495L44.632 236.415L46.5759 235.767L55.432 235.551L57.808 235.119L62.7759 226.696L66.232 222.376L66.88 221.729L72.28 218.057L76.168 217.193L82 214.601L83.944 213.089L84.808 210.93L85.24 204.018L85.672 202.723L86.5359 201.211L93.88 193.652L94.744 192.356L94.96 190.844L94.744 188.684L94.528 187.172L92.584 186.524L88.912 186.308L86.968 185.66L85.672 184.58L84.3759 182.853L82.432 179.181L82 175.509L82.864 172.27L86.104 166.222L87.4 163.199L87.6159 161.471L87.184 160.175L85.24 159.743L84.3759 159.527L81.784 158.879L79.624 159.527L77.464 161.039L75.952 161.471L74.872 161.039L74.224 159.743L73.144 155.424L72.712 154.776H71.632L70.3359 155.424L66.88 157.583L65.152 158.447L63.8559 158.879L62.56 158.663L61.264 157.799L59.968 156.072L58.672 154.992L56.512 153.696L55.432 152.832L54.568 150.456L53.488 149.16L52.84 148.944L46.36 148.728L45.4959 148.296L44.848 147.864L44.632 146.569L45.064 145.273L45.712 143.545L46.792 141.385L47.44 139.873V138.793L47.224 136.85L47.44 133.826L47.224 132.962L46.5759 131.45L46.144 131.018L45.928 127.779L45.4959 126.267L44.848 118.492L45.28 114.604L45.064 112.876L43.552 110.716L36.4241 106.181L34.48 103.157L33.832 99.9175L33.6159 96.4618L32.968 93.0062L30.16 91.9264L27.352 90.4145L25.408 88.4707L24.9759 85.879L26.0559 83.2873L29.2959 78.1038L35.7759 71.1925L36.4241 69.6807L37.5041 64.7132L39.6641 62.1215L42.472 59.7457L44.4159 57.37L44.2 54.5623L45.28 56.7221L49.6 52.4025L52.84 47.0031L57.3759 34.6924L57.592 29.5089L55 19.3581V13.5266L57.808 15.6864L60.6159 19.3581L66.448 30.5888L67.528 34.0445L67.96 56.938L66.0159 63.6334L61.6959 67.7369L66.88 66.0091L70.12 60.6097L71.4159 53.4824L70.3359 33.3966L69.472 29.7249L66.0159 23.4616L64.9359 20.2219L74.224 21.3018L76.8159 21.9497L77.8959 23.6776L78.76 26.0534L80.0559 27.9971L81.784 28.861L86.968 29.9409L89.992 30.1569H91.288L91.504 29.5089L89.992 27.9971L88.48 27.3492L83.728 26.0534L81.784 25.8374L81.568 24.9735L76.8159 20.2219L74.224 18.9261L72.28 18.2782L62.7759 18.0622L60.6159 17.1983L58.24 14.6065L60.4 11.3669L61.48 8.77519L62.992 7.04733L64.72 6.18344L78.328 9.63908L86.104 12.8787L91.72 16.1184L107.704 28.645L110.728 31.2368L115.48 37.7161L120.016 40.9558L122.608 42.8995L122.824 45.0593L123.04 46.1392L125.2 48.299L126.064 50.0268L125.632 51.5386L124.12 56.2901L121.096 62.1215L120.448 65.5771H121.528L125.848 56.7221L128.008 47.867L130.816 48.083L133.192 51.5386L135.136 55.4262L136.648 57.8019L135.784 60.8256L136.648 74.4322L138.16 71.1925L138.592 67.5209L138.808 60.6097L138.592 58.6658L137.944 57.154L137.08 56.0742L136.216 54.9943L135.136 53.2664L134.272 49.5948L133.408 47.867L132.328 47.2191L129.304 46.5712L128.008 45.7072L127.792 44.6273L125.2 41.1717L124.12 39.4439L123.904 38.148L123.04 37.2841L124.552 36.8522L129.088 36.6362L135.136 37.9321L147.448 41.8197L149.392 42.0356L160.624 44.4114L163.432 42.4676L162.784 40.0919L160.84 37.9321L159.112 35.5563L157.816 35.1244L154.144 32.7486L153.496 30.1569L151.12 29.7249L148.96 27.7811L148.096 26.0534L148.96 25.4054L153.496 25.6214L157.6 27.5652L162.136 29.9409L168.4 34.0445L173.8 37.5001L179.2 41.3877L181.36 44.1954L187.624 51.7546L186.76 47.4351L182.872 42.4676L182.008 39.6599L177.256 37.7161L174.664 35.1244L175.312 34.9084L177.688 36.8522L179.848 37.2841L182.872 37.5001L184.816 38.58L190.864 45.2753L193.456 47.867L195.832 50.0268L198.208 52.6185L201.016 55.6422L206.2 59.9617L213.544 66.0091L217 68.6008L218.728 73.5683L221.968 77.4559L224.128 76.592L221.536 73.1363H225.424L234.064 78.3198L236.872 76.592L237.952 77.0239L243.784 76.592L246.16 76.808L251.992 79.8316L258.256 81.9914L260.848 83.7192L261.712 86.5269L260.632 86.3109L260.2 85.879L259.552 84.3672L259.336 89.5506L259.552 90.8465L260.848 91.9264L261.928 91.7104L263.008 91.2784L264.52 90.8465L267.328 91.4944L270.568 93.0062L273.808 94.95L276.616 96.8938L277.912 98.6216L280.288 101.861L282.664 104.237L283.312 105.101L283.528 105.749V106.829L283.96 107.261L286.12 107.909L286.768 108.557L288.064 111.796L288.928 115.9L288.712 120.003L286.768 123.027L286.552 121.515L286.12 120.867L284.824 119.571L283.96 121.947L283.528 124.539L282.88 126.483L280.72 127.347L278.344 127.779L274.672 130.154L273.16 130.586L271.432 130.802L269.488 131.234L267.544 132.098L266.248 132.962L265.168 134.69L264.52 135.554L263.224 136.202L259.552 137.282L250.912 145.705L247.24 147.001L244 149.16L240.976 153.912L236.872 163.631L239.248 162.767L241.192 160.823L242.704 158.447L243.352 156.503L244.216 154.992L257.176 143.545L261.064 140.953L261.712 143.761L261.064 145.489L258.688 147.864L257.392 149.376L256.96 150.672L256.528 154.344L255.88 155.424L254.8 156.719L254.368 158.015V161.039L253.504 162.551L251.992 163.415L250.048 164.063L248.752 164.711L243.136 170.758H242.272L241.624 172.27L238.816 176.805L237.736 179.181L236.008 185.876L235.576 188.468L236.656 191.708L236.872 193.436L234.496 200.131L226.072 212.874L223.912 219.785L223.048 227.56L221.32 233.175L217.648 236.415H210.736L201.448 233.391L199.288 233.175L171.64 235.335L164.728 233.607L158.464 229.72L155.44 229.936L152.2 230.368L150.04 232.095L149.824 235.335L151.12 237.063L159.544 241.814L165.592 243.11L167.104 243.542L167.968 244.622L168.616 245.702L169.264 246.35H170.992L173.8 245.486L175.312 245.27L175.528 245.702L177.472 247.862L179.848 250.022L180.928 250.453L182.872 250.67L183.736 251.101L185.032 253.477L185.68 254.125L188.704 254.557L194.968 253.045L197.56 252.829L199.288 254.125L200.152 256.285L201.016 258.661L201.88 260.604L203.608 262.332L207.712 264.924L209.44 267.3L214.408 263.844L216.568 261.684L217.432 259.093L218.296 257.149L220.888 254.989L223.696 253.045L225.856 251.749L229.312 251.101L239.464 251.749L247.024 250.453L250.48 250.67L250.912 252.829L248.32 255.205L242.272 256.069L240.976 259.093V262.548V264.276L241.624 265.572L243.136 266.22L243.568 264.708L243.352 260.604L244 257.797L244.864 257.149L246.592 256.285L248.104 255.853L249.832 256.069L251.344 255.853L251.992 254.557L252.424 253.261L253.072 251.533L253.936 250.238L255.88 248.726L256.096 246.782L256.312 243.11L256.744 241.383V240.303L256.96 239.439L258.472 238.575L261.496 239.655L264.736 239.223L267.76 238.143L283.528 236.199L303.4 234.039L306.424 235.767L307.288 237.495L309.664 239.223L312.04 240.951L313.984 241.814L317.224 242.462L326.944 243.11L337.312 245.486L340.12 245.27L340.768 244.406L342.496 240.951L345.736 237.495L349.408 231.016L354.376 229.072L382.024 230.8L388.504 232.527L394.552 235.335L400.168 239.007L403.192 240.303L410.104 241.383L419.824 255.853L436.456 274.427L442.72 284.794L442.504 288.034L440.56 291.705L437.536 294.513L434.296 295.593L430.84 295.809L423.064 297.537L420.256 298.832L418.528 300.776L414.424 304.016L413.344 306.392V308.767L413.776 310.711L413.56 312.439L411.616 314.815L410.32 321.294L408.808 324.102L406 325.83H402.544L396.28 325.398L392.824 326.477L389.584 328.853L387.208 331.445L384.4 333.821L376.84 336.844L374.896 339.004L373.168 341.596L370.792 343.756ZM50.032 11.1509L48.52 12.0148V9.85507L50.464 5.31954L53.272 2.07989L56.2959 1H57.592L58.4559 2.07989L59.32 4.88756L58.4559 7.04733L56.944 8.77519L55 10.287L52.408 10.935L50.032 11.1509Z" fill="#FF6901" stroke="black" stroke-width="2" stroke-linecap="round" stroke-linejoin="round"/>
<path d="M148.527 182.352C147.443 182.352 146.513 181.963 145.736 181.187C144.96 180.41 144.571 179.48 144.571 178.396C144.571 177.311 144.96 176.381 145.736 175.604C146.513 174.828 147.443 174.44 148.527 174.44C149.612 174.44 150.542 174.828 151.319 175.604C152.095 176.381 152.483 177.311 152.483 178.396C152.483 179.114 152.3 179.773 151.934 180.374C151.582 180.974 151.106 181.458 150.505 181.824C149.919 182.176 149.26 182.352 148.527 182.352Z" fill="black"/>
<path d="M84.9986 104.064H76.2952V75.8607H85.3842C88.1201 75.8607 90.4613 76.4253 92.4076 77.5545C94.3539 78.6746 95.8458 80.2858 96.8833 82.3883C97.9207 84.4815 98.4394 86.9879 98.4394 89.9074C98.4394 92.8453 97.9161 95.3746 96.8695 97.4954C95.8229 99.607 94.2989 101.232 92.2974 102.37C90.296 103.5 87.8631 104.064 84.9986 104.064ZM79.7105 101.035H84.7783C87.1102 101.035 89.0428 100.585 90.576 99.685C92.1092 98.7853 93.2522 97.5046 94.0051 95.8428C94.7579 94.1811 95.1343 92.2026 95.1343 89.9074C95.1343 87.6305 94.7625 85.6704 94.0188 84.027C93.2752 82.3745 92.1643 81.1075 90.6862 80.2262C89.2081 79.3356 87.3673 78.8904 85.1639 78.8904H79.7105V101.035ZM112.596 104.505C110.558 104.505 108.8 104.055 107.322 103.155C105.853 102.246 104.719 100.98 103.92 99.3545C103.131 97.7203 102.736 95.8199 102.736 93.6532C102.736 91.4865 103.131 89.5769 103.92 87.9243C104.719 86.2626 105.83 84.9681 107.253 84.0408C108.685 83.1044 110.356 82.6361 112.266 82.6361C113.368 82.6361 114.455 82.8198 115.53 83.187C116.604 83.5542 117.582 84.151 118.463 84.9773C119.344 85.7944 120.047 86.8777 120.57 88.2273C121.093 89.5769 121.355 91.2386 121.355 93.2125V94.5896H105.05V91.7803H118.05C118.05 90.5868 117.811 89.5218 117.334 88.5854C116.865 87.6489 116.195 86.9098 115.323 86.3682C114.46 85.8265 113.441 85.5557 112.266 85.5557C110.971 85.5557 109.851 85.877 108.906 86.5197C107.969 87.1531 107.248 87.9794 106.744 88.9985C106.239 90.0176 105.986 91.1101 105.986 92.2761V94.149C105.986 95.7464 106.262 97.1006 106.812 98.2115C107.372 99.3132 108.148 100.153 109.14 100.732C110.131 101.301 111.283 101.585 112.596 101.585C113.45 101.585 114.221 101.466 114.91 101.227C115.608 100.98 116.209 100.612 116.714 100.126C117.219 99.6299 117.609 99.0148 117.885 98.2804L121.024 99.1617C120.694 100.227 120.138 101.163 119.358 101.971C118.578 102.77 117.614 103.394 116.466 103.844C115.318 104.285 114.029 104.505 112.596 104.505ZM129.549 75.8607V104.064H126.299V75.8607H129.549ZM144.701 82.9116V85.6658H133.739V82.9116H144.701ZM136.934 77.8437H140.184V98.0049C140.184 98.923 140.317 99.6116 140.583 100.071C140.858 100.52 141.207 100.823 141.63 100.98C142.061 101.126 142.516 101.2 142.993 101.2C143.351 101.2 143.645 101.182 143.874 101.145C144.104 101.099 144.288 101.062 144.425 101.035L145.086 103.954C144.866 104.037 144.558 104.119 144.164 104.202C143.769 104.294 143.268 104.34 142.663 104.34C141.744 104.34 140.845 104.142 139.963 103.748C139.091 103.353 138.366 102.751 137.787 101.944C137.218 101.136 136.934 100.117 136.934 98.8863V77.8437ZM155.814 104.56C154.474 104.56 153.257 104.308 152.165 103.803C151.072 103.289 150.205 102.549 149.562 101.585C148.919 100.612 148.598 99.4371 148.598 98.06C148.598 96.8481 148.837 95.8658 149.314 95.113C149.791 94.3509 150.43 93.7542 151.228 93.3227C152.027 92.8912 152.908 92.5698 153.872 92.3587C154.846 92.1383 155.823 91.9639 156.806 91.8354C158.091 91.6701 159.133 91.5462 159.932 91.4636C160.74 91.3717 161.327 91.2203 161.694 91.0091C162.071 90.7979 162.259 90.4307 162.259 89.9074V89.7972C162.259 88.4385 161.887 87.3827 161.144 86.6298C160.409 85.877 159.294 85.5006 157.797 85.5006C156.246 85.5006 155.029 85.8403 154.148 86.5197C153.266 87.199 152.647 87.9243 152.289 88.6955L149.204 87.5938C149.755 86.3085 150.489 85.3078 151.407 84.5917C152.335 83.8664 153.344 83.3614 154.437 83.0768C155.539 82.783 156.622 82.6361 157.687 82.6361C158.366 82.6361 159.147 82.7188 160.028 82.884C160.919 83.0401 161.777 83.366 162.603 83.8618C163.439 84.3576 164.132 85.1058 164.683 86.1065C165.234 87.1072 165.509 88.4476 165.509 90.1277V104.064H162.259V101.2H162.094C161.874 101.659 161.506 102.15 160.992 102.673C160.478 103.197 159.794 103.642 158.94 104.009C158.086 104.376 157.044 104.56 155.814 104.56ZM156.31 101.641C157.595 101.641 158.679 101.388 159.56 100.883C160.45 100.378 161.121 99.7263 161.571 98.9276C162.03 98.1289 162.259 97.2888 162.259 96.4075V93.4329C162.121 93.5981 161.818 93.7496 161.35 93.8873C160.891 94.0158 160.359 94.1306 159.753 94.2316C159.156 94.3234 158.573 94.406 158.004 94.4795C157.444 94.5437 156.989 94.5988 156.64 94.6447C155.796 94.7549 155.006 94.9339 154.272 95.1818C153.546 95.4205 152.959 95.7832 152.509 96.2697C152.068 96.7471 151.848 97.399 151.848 98.2253C151.848 99.3545 152.266 100.208 153.101 100.787C153.946 101.356 155.015 101.641 156.31 101.641ZM77.452 151.064H73.8714L84.2274 122.861H87.7529L98.1089 151.064H94.5284L86.1003 127.323H85.88L77.452 151.064ZM78.774 140.047H93.2063V143.077H78.774V140.047ZM102.061 151.064V129.912H105.201V133.217H105.477C105.917 132.087 106.629 131.211 107.611 130.586C108.593 129.953 109.773 129.636 111.15 129.636C112.546 129.636 113.707 129.953 114.634 130.586C115.571 131.211 116.301 132.087 116.824 133.217H117.044C117.586 132.124 118.399 131.257 119.482 130.614C120.565 129.962 121.864 129.636 123.379 129.636C125.271 129.636 126.818 130.228 128.02 131.413C129.223 132.588 129.824 134.419 129.824 136.907V151.064H126.574V136.907C126.574 135.347 126.147 134.231 125.293 133.561C124.44 132.891 123.434 132.556 122.278 132.556C120.79 132.556 119.638 133.006 118.821 133.905C118.004 134.796 117.595 135.925 117.595 137.293V151.064H114.29V136.577C114.29 135.374 113.9 134.406 113.12 133.671C112.339 132.927 111.334 132.556 110.104 132.556C109.259 132.556 108.47 132.781 107.735 133.23C107.01 133.68 106.422 134.305 105.972 135.103C105.532 135.893 105.311 136.806 105.311 137.844V151.064H102.061ZM141.991 151.56C140.651 151.56 139.434 151.308 138.342 150.803C137.249 150.289 136.382 149.549 135.739 148.585C135.096 147.612 134.775 146.437 134.775 145.06C134.775 143.848 135.014 142.866 135.491 142.113C135.969 141.351 136.607 140.754 137.405 140.323C138.204 139.891 139.085 139.57 140.049 139.359C141.023 139.138 142 138.964 142.983 138.835C144.268 138.67 145.31 138.546 146.109 138.464C146.917 138.372 147.504 138.22 147.872 138.009C148.248 137.798 148.436 137.431 148.436 136.907V136.797C148.436 135.438 148.064 134.383 147.321 133.63C146.586 132.877 145.471 132.501 143.974 132.501C142.423 132.501 141.206 132.84 140.325 133.52C139.443 134.199 138.824 134.924 138.466 135.696L135.381 134.594C135.932 133.308 136.666 132.308 137.584 131.592C138.512 130.866 139.522 130.361 140.614 130.077C141.716 129.783 142.799 129.636 143.864 129.636C144.543 129.636 145.324 129.719 146.205 129.884C147.096 130.04 147.954 130.366 148.78 130.862C149.616 131.358 150.309 132.106 150.86 133.107C151.411 134.107 151.686 135.448 151.686 137.128V151.064H148.436V148.2H148.271C148.051 148.659 147.683 149.15 147.169 149.673C146.655 150.197 145.971 150.642 145.117 151.009C144.263 151.376 143.221 151.56 141.991 151.56ZM142.487 148.641C143.772 148.641 144.856 148.388 145.737 147.883C146.628 147.378 147.298 146.726 147.748 145.928C148.207 145.129 148.436 144.289 148.436 143.407V140.433C148.298 140.598 147.995 140.75 147.527 140.887C147.068 141.016 146.536 141.131 145.93 141.232C145.333 141.323 144.75 141.406 144.181 141.479C143.621 141.544 143.166 141.599 142.817 141.645C141.973 141.755 141.183 141.934 140.449 142.182C139.724 142.421 139.136 142.783 138.686 143.27C138.245 143.747 138.025 144.399 138.025 145.225C138.025 146.355 138.443 147.208 139.278 147.787C140.123 148.356 141.192 148.641 142.487 148.641ZM166.211 151.505C164.228 151.505 162.521 151.037 161.089 150.1C159.656 149.164 158.555 147.874 157.783 146.231C157.012 144.587 156.627 142.71 156.627 140.598C156.627 138.45 157.021 136.554 157.811 134.911C158.61 133.258 159.721 131.968 161.144 131.041C162.576 130.104 164.247 129.636 166.156 129.636C167.644 129.636 168.984 129.912 170.178 130.462C171.371 131.013 172.349 131.784 173.111 132.776C173.873 133.768 174.346 134.924 174.529 136.246H171.279C171.031 135.282 170.481 134.429 169.627 133.685C168.782 132.932 167.644 132.556 166.211 132.556C164.945 132.556 163.834 132.886 162.879 133.547C161.933 134.199 161.194 135.122 160.662 136.315C160.138 137.5 159.877 138.89 159.877 140.488C159.877 142.122 160.134 143.545 160.648 144.757C161.171 145.969 161.906 146.91 162.851 147.58C163.806 148.25 164.926 148.585 166.211 148.585C167.056 148.585 167.823 148.439 168.511 148.145C169.2 147.851 169.783 147.429 170.26 146.878C170.738 146.327 171.077 145.666 171.279 144.895H174.529C174.346 146.143 173.891 147.268 173.166 148.269C172.45 149.26 171.5 150.05 170.315 150.637C169.14 151.216 167.772 151.505 166.211 151.505ZM192.611 142.416V129.912H195.861V151.064H192.611V147.484H192.391C191.895 148.558 191.124 149.471 190.077 150.224C189.031 150.968 187.708 151.34 186.111 151.34C184.789 151.34 183.614 151.051 182.586 150.472C181.557 149.885 180.749 149.003 180.162 147.828C179.574 146.644 179.28 145.152 179.28 143.352V129.912H182.53V143.132C182.53 144.674 182.962 145.905 183.825 146.823C184.697 147.741 185.808 148.2 187.158 148.2C187.966 148.2 188.787 147.993 189.623 147.58C190.467 147.167 191.174 146.534 191.743 145.68C192.322 144.826 192.611 143.738 192.611 142.416ZM201.814 151.064V129.912H204.954V133.107H205.174C205.56 132.06 206.257 131.211 207.267 130.559C208.277 129.907 209.416 129.581 210.682 129.581C210.921 129.581 211.22 129.586 211.578 129.595C211.936 129.604 212.206 129.618 212.39 129.636V132.941C212.28 132.914 212.027 132.872 211.633 132.817C211.247 132.753 210.839 132.721 210.407 132.721C209.379 132.721 208.461 132.937 207.653 133.368C206.854 133.79 206.221 134.378 205.752 135.131C205.293 135.875 205.064 136.724 205.064 137.679V151.064H201.814ZM224.192 151.505C222.282 151.505 220.607 151.051 219.166 150.142C217.733 149.233 216.613 147.961 215.805 146.327C215.007 144.693 214.607 142.783 214.607 140.598C214.607 138.395 215.007 136.471 215.805 134.828C216.613 133.185 217.733 131.908 219.166 131C220.607 130.091 222.282 129.636 224.192 129.636C226.102 129.636 227.773 130.091 229.205 131C230.646 131.908 231.766 133.185 232.565 134.828C233.373 136.471 233.777 138.395 233.777 140.598C233.777 142.783 233.373 144.693 232.565 146.327C231.766 147.961 230.646 149.233 229.205 150.142C227.773 151.051 226.102 151.505 224.192 151.505ZM224.192 148.585C225.643 148.585 226.836 148.214 227.773 147.47C228.709 146.726 229.402 145.749 229.852 144.537C230.302 143.325 230.527 142.012 230.527 140.598C230.527 139.184 230.302 137.867 229.852 136.646C229.402 135.425 228.709 134.438 227.773 133.685C226.836 132.932 225.643 132.556 224.192 132.556C222.742 132.556 221.548 132.932 220.612 133.685C219.675 134.438 218.982 135.425 218.532 136.646C218.082 137.867 217.857 139.184 217.857 140.598C217.857 142.012 218.082 143.325 218.532 144.537C218.982 145.749 219.675 146.726 220.612 147.47C221.548 148.214 222.742 148.585 224.192 148.585Z" fill="black"/>
</svg>
